<svg width="124" height="125" viewBox="0 0 124 125" fill="none" xmlns="http://www.w3.org/2000/svg">
<path d="M20.6663 85.3012C20.6663 93.8613 27.606 100.801 36.1663 100.801C36.1663 107.935 41.9493 113.718 49.083 113.718C56.2166 113.718 61.9997 107.935 61.9997 100.801C61.9997 107.935 67.7827 113.717 74.9163 113.717C82.05 113.717 87.833 107.934 87.833 100.801C96.3937 100.801 103.333 93.8613 103.333 85.3007C103.333 82.3624 102.516 79.6153 101.096 77.2743C108.255 75.9046 113.666 69.6095 113.666 62.0507C113.666 54.4919 108.255 48.1965 101.096 46.8271C102.516 44.4859 103.333 41.7388 103.333 38.8007C103.333 30.2403 96.3937 23.3007 87.833 23.3007C87.833 16.167 82.05 10.384 74.9163 10.384C67.7827 10.384 61.9997 16.1675 61.9997 23.3012C61.9997 16.1675 56.2166 10.3845 49.083 10.3845C41.9493 10.3845 36.1663 16.1675 36.1663 23.3012C27.606 23.3012 20.6663 30.2408 20.6663 38.8012C20.6663 41.7393 21.4838 44.4864 22.9037 46.8276C15.7439 48.1971 10.333 54.4924 10.333 62.0512C10.333 69.61 15.7439 75.9051 22.9037 77.2748C21.4838 79.6158 20.6663 82.3629 20.6663 85.3012Z" stroke="white" stroke-width="6" stroke-linecap="round" stroke-linejoin="round"/>
<path d="M38.75 74.9675L48.2664 46.4183C48.7543 44.9547 50.1239 43.9675 51.6667 43.9675C53.2094 43.9675 54.5791 44.9547 55.0669 46.4183L64.5833 74.9675M80.0833 43.9675V74.9675M43.9167 64.6342H59.4167" stroke="#FF4F00" stroke-width="6" stroke-linecap="round" stroke-linejoin="round"/>
</svg>
