<svg width="10" height="10" viewBox="0 0 10 10" fill="none" xmlns="http://www.w3.org/2000/svg">
<path fill-rule="evenodd" clip-rule="evenodd" d="M8.80815 2.58358C8.92767 2.69833 8.93155 2.88824 8.81681 3.00776L6.80081 5.10776C6.74424 5.16669 6.66608 5.2 6.58439 5.2C6.5027 5.2 6.42455 5.16669 6.36797 5.10776L5.14439 3.83319L3.6944 5.3436L4.72747 6.33534L1.40039 7.3L2.22851 3.93634L3.26157 4.92808L4.92798 3.19224C4.98455 3.13331 5.0627 3.1 5.14439 3.1C5.22608 3.1 5.30424 3.13331 5.36081 3.19224L6.58439 4.46681L8.38398 2.59224C8.49872 2.47272 8.68863 2.46884 8.80815 2.58358Z" fill="#1C1C1C"/>
</svg>
