<svg width="10" height="10" viewBox="0 0 10 10" fill="none" xmlns="http://www.w3.org/2000/svg">
<path fill-rule="evenodd" clip-rule="evenodd" d="M5.27351 3.76471L8.60059 2.80005L7.77247 6.16371L6.73941 5.17197L5.073 6.90781C5.01643 6.96674 4.93827 7.00005 4.85659 7.00005C4.7749 7.00005 4.69674 6.96674 4.64017 6.90781L3.41659 5.63324L1.617 7.50781C1.50226 7.62733 1.31235 7.63121 1.19283 7.51647C1.0733 7.40172 1.06943 7.21181 1.18417 7.09229L3.20017 4.99229C3.25674 4.93336 3.3349 4.90005 3.41659 4.90005C3.49827 4.90005 3.57643 4.93336 3.633 4.99229L4.85659 6.26686L6.30658 4.75645L5.27351 3.76471Z" fill="#1C1C1C"/>
</svg>
