<svg width="194" height="167" viewBox="0 0 194 167" fill="none" xmlns="http://www.w3.org/2000/svg">
<path d="M184.875 27.1698L183.717 25.2623C173.959 9.18183 156.316 -0.512164 137.714 0.664336C135.323 0.815336 132.942 1.13933 130.593 1.64183C113.681 5.26233 98.9646 18.0518 92.8646 34.4313C89.2771 44.0643 88.2751 55.1558 81.4671 62.8023C72.6071 72.7538 57.5656 73.0663 44.3406 72.6538C31.1161 72.2413 16.0641 72.5933 7.24709 82.5838C1.72509 88.8408 -0.0294079 97.7383 0.415592 106.118C1.59459 128.302 17.0531 148.139 36.7126 157.998C56.3721 167.858 79.5186 168.741 101.035 164.404C131.176 158.328 159.84 141.642 177.07 115.87C194.3 90.0978 198.66 54.9858 184.875 27.1698Z" fill="#F5F5F5"/>
</svg>
