<svg width="184" height="141" viewBox="0 0 184 141" fill="none" xmlns="http://www.w3.org/2000/svg">
<path d="M166.622 3.874C167.356 3.4305 168.137 3.0945 168.943 2.8655L169.421 0.568L173.302 0.5L173.861 2.779C174.674 2.9795 175.467 3.288 176.215 3.7055L178.177 2.4195L180.97 5.116L179.754 7.121C180.197 7.855 180.534 8.6365 180.762 9.4425L183.059 9.9205L183.127 13.802L180.848 14.3605C180.648 15.1735 180.339 15.966 179.922 16.7155L181.207 18.677L178.511 21.47L176.506 20.254C175.772 20.6975 174.99 21.0335 174.185 21.2625L173.707 23.5595L169.826 23.6275L169.267 21.3485C168.454 21.148 167.661 20.8395 166.912 20.422L164.951 21.708L162.158 19.0115L163.374 17.006C162.931 16.272 162.594 15.4905 162.365 14.685L160.068 14.207L160 10.326L162.279 9.767C162.48 8.954 162.789 8.1615 163.206 7.4125L161.92 5.451L164.616 2.6585L166.622 3.874ZM168.691 9.0445C167.093 10.699 167.14 13.3355 168.794 14.933C170.449 16.5305 173.085 16.484 174.682 14.8295C176.28 13.175 176.233 10.5385 174.579 8.941C172.924 7.3435 170.288 7.39 168.691 9.0445Z" fill="#E0E0E0"/>
<path d="M51.402 129.14C51.825 128.884 52.2755 128.69 52.7405 128.558L53.016 127.233L55.2545 127.194L55.5765 128.508C56.0455 128.624 56.5025 128.802 56.9345 129.043L58.0655 128.301L59.676 129.856L58.975 131.013C59.231 131.436 59.4245 131.887 59.5565 132.351L60.881 132.627L60.9205 134.865L59.6065 135.187C59.491 135.656 59.313 136.113 59.072 136.545L59.8135 137.677L58.2585 139.287L57.102 138.586C56.6785 138.842 56.228 139.036 55.7635 139.168L55.488 140.493L53.2495 140.532L52.9275 139.217C52.4585 139.102 52.0015 138.924 51.5695 138.683L50.438 139.424L48.8275 137.869L49.5285 136.713C49.2725 136.289 49.0785 135.839 48.947 135.374L47.6225 135.099L47.583 132.86L48.897 132.538C49.0125 132.069 49.1905 131.612 49.4315 131.18L48.69 130.048L50.245 128.438L51.402 129.14ZM52.595 132.122C51.6735 133.076 51.7005 134.596 52.6545 135.518C53.609 136.439 55.129 136.412 56.0505 135.458C56.9715 134.504 56.945 132.984 55.991 132.062C55.0365 131.141 53.5165 131.168 52.595 132.122Z" fill="#E0E0E0"/>
<path d="M2.64215 12.7135C2.93115 12.539 3.23866 12.4065 3.55566 12.3165L3.74366 11.412L5.27166 11.385L5.49166 12.282C5.81166 12.361 6.12416 12.4825 6.41866 12.6465L7.19065 12.1405L8.29016 13.202L7.81166 13.9915C7.98616 14.2805 8.11866 14.588 8.20866 14.9055L9.11316 15.0935L9.14016 16.6215L8.24316 16.8415C8.16416 17.1615 8.04266 17.4735 7.87866 17.7685L8.38465 18.5405L7.32316 19.64L6.53366 19.1615C6.24466 19.336 5.93716 19.4685 5.61966 19.5585L5.43166 20.463L3.90366 20.49L3.68365 19.593C3.36365 19.514 3.05166 19.3925 2.75666 19.2285L1.98466 19.7345L0.885155 18.673L1.36366 17.8835C1.18916 17.5945 1.05666 17.287 0.966656 16.97L0.0621567 16.782L0.0351562 15.254L0.932156 15.034C1.01116 14.714 1.13266 14.402 1.29666 14.107L0.790657 13.335L1.85216 12.2355L2.64215 12.7135ZM3.45666 14.749C2.82766 15.4005 2.84616 16.438 3.49716 17.067C4.14866 17.696 5.18615 17.6775 5.81516 17.026C6.44366 16.3745 6.42566 15.337 5.77466 14.708C5.12316 14.0795 4.08516 14.0975 3.45666 14.749Z" fill="#E0E0E0"/>
<path d="M77.278 9.51503C77.849 9.17003 78.457 8.90853 79.084 8.73003L79.456 6.94253L82.476 6.88953L82.9105 8.66253C83.5435 8.81853 84.16 9.05853 84.743 9.38353L86.2695 8.38303L88.4425 10.481L87.4965 12.041C87.8415 12.612 88.1035 13.2205 88.2815 13.847L90.0685 14.219L90.1215 17.239L88.3485 17.6735C88.1925 18.306 87.9525 18.923 87.6275 19.5055L88.628 21.032L86.53 23.205L84.9695 22.259C84.3985 22.604 83.7905 22.8655 83.1635 23.0435L82.7915 24.831L79.7715 24.884L79.337 23.111C78.7045 22.955 78.0875 22.715 77.505 22.39L75.9785 23.3905L73.8055 21.2925L74.7515 19.7325C74.4065 19.1615 74.1445 18.5535 73.9665 17.9265L72.179 17.5545L72.126 14.5345L73.899 14.0995C74.055 13.467 74.295 12.85 74.62 12.2675L73.6195 10.741L75.7175 8.56803L77.278 9.51503ZM78.888 13.538C77.645 14.8255 77.681 16.8765 78.9685 18.1195C80.256 19.3625 82.307 19.3265 83.55 18.039C84.793 16.7515 84.757 14.7005 83.4695 13.4575C82.182 12.2145 80.131 12.2505 78.888 13.538Z" fill="#EBEBEB"/>
<path d="M157.104 84.0475C157.837 83.6045 158.617 83.2685 159.422 83.04L159.9 80.745L163.777 80.677L164.335 82.9535C165.148 83.1535 165.94 83.462 166.688 83.879L168.647 82.5945L171.437 85.2885L170.223 87.2915C170.666 88.025 171.002 88.8055 171.23 89.6105L173.525 90.088L173.593 93.9655L171.316 94.5235C171.116 95.336 170.808 96.1275 170.391 96.876L171.675 98.836L168.982 101.626L166.978 100.411C166.245 100.854 165.464 101.19 164.659 101.419L164.182 103.714L160.304 103.782L159.746 101.505C158.934 101.305 158.142 100.996 157.394 100.579L155.434 101.864L152.644 99.1705L153.859 97.167C153.416 96.4335 153.08 95.6535 152.851 94.848L150.556 94.3705L150.488 90.493L152.765 89.935C152.965 89.1225 153.273 88.331 153.69 87.5825L152.406 85.623L155.099 82.833L157.104 84.0475ZM159.171 89.213C157.575 90.866 157.621 93.4995 159.274 95.0955C160.927 96.6915 163.561 96.645 165.157 94.992C166.752 93.339 166.706 90.7055 165.053 89.1095C163.4 87.5135 160.766 87.56 159.171 89.213Z" fill="#E0E0E0"/>
</svg>
