<svg width="731" height="258" viewBox="0 0 731 258" fill="none" xmlns="http://www.w3.org/2000/svg">
<path d="M261.806 56.271C261.783 56.265 261.645 56.06 261.408 55.684C261.135 55.243 260.805 54.71 260.41 54.073C259.565 52.694 258.387 50.754 257.013 48.419L257.32 48.501C254.988 49.86 252.272 51.441 249.375 53.129C249.353 53.207 249.555 52.456 249.47 52.775L249.471 52.777L249.474 52.781L249.479 52.789L249.489 52.806L249.509 52.84L249.548 52.908L249.627 53.044L249.784 53.316L250.095 53.856C250.301 54.215 250.506 54.57 250.708 54.922C251.111 55.625 251.506 56.313 251.891 56.984C252.652 58.32 253.372 59.584 254.037 60.754L253.73 60.672C256.087 59.337 258.077 58.246 259.499 57.474C260.159 57.12 260.712 56.823 261.168 56.578C261.561 56.374 261.783 56.265 261.806 56.271C261.829 56.277 261.653 56.398 261.299 56.623C260.871 56.889 260.352 57.211 259.733 57.595C258.367 58.432 256.375 59.641 253.955 61.064L253.762 61.178L253.647 60.982C252.967 59.821 252.232 58.565 251.456 57.238C251.068 56.57 250.669 55.884 250.262 55.183C250.059 54.832 249.853 54.477 249.646 54.119L249.334 53.579L249.177 53.307L249.098 53.171L249.059 53.103L249.039 53.069L249.029 53.052L249.024 53.044L249.022 53.04L249.021 53.038C248.936 53.355 249.136 52.603 249.116 52.68C252.026 51.015 254.754 49.454 257.097 48.113L257.294 48L257.405 48.195C258.79 50.638 259.91 52.679 260.675 54.088C261.019 54.731 261.307 55.269 261.546 55.714C261.737 56.085 261.829 56.278 261.806 56.271Z" fill="#E0E0E0"/>
<path d="M642.629 257.133C642.527 257.031 645.779 253.615 649.89 249.504C654.003 245.391 657.418 242.14 657.52 242.242C657.622 242.344 654.371 245.759 650.258 249.872C646.147 253.983 642.731 257.234 642.629 257.133Z" fill="#E0E0E0"/>
<path d="M657.521 257.133C657.419 257.235 654.003 253.983 649.892 249.872C645.779 245.759 642.528 242.344 642.63 242.242C642.732 242.14 646.147 245.391 650.26 249.504C654.371 253.615 657.622 257.031 657.521 257.133Z" fill="#E0E0E0"/>
<path d="M506.43 176.367C506.328 176.265 509.58 172.849 513.691 168.738C517.804 164.625 521.22 161.374 521.321 161.476C521.423 161.578 518.172 164.993 514.059 169.106C509.948 173.218 506.532 176.469 506.43 176.367Z" fill="#E0E0E0"/>
<path d="M521.321 176.367C521.219 176.469 517.803 173.217 513.691 169.106C509.578 164.993 506.328 161.578 506.429 161.476C506.531 161.374 509.946 164.625 514.059 168.738C518.172 172.849 521.423 176.265 521.321 176.367Z" fill="#E0E0E0"/>
<path d="M486.017 46.0366C485.874 46.0486 485.406 42.0176 484.972 37.0336C484.538 32.0476 484.303 27.9966 484.446 27.9846C484.589 27.9726 485.057 32.0026 485.491 36.9886C485.925 41.9726 486.161 46.0236 486.017 46.0366Z" fill="#E0E0E0"/>
<path d="M494.258 36.2246C494.27 36.3676 490.239 36.8356 485.255 37.2696C480.269 37.7036 476.218 37.9386 476.206 37.7956C476.194 37.6526 480.224 37.1846 485.21 36.7506C490.194 36.3166 494.246 36.0816 494.258 36.2246Z" fill="#E0E0E0"/>
<path d="M402.522 144.939C402.51 144.936 402.446 144.84 402.331 144.658C402.198 144.441 402.036 144.178 401.839 143.859C401.393 143.116 400.789 142.11 400.036 140.855C398.492 138.237 396.339 134.588 393.768 130.228L394.076 130.31C389.76 132.814 384.685 135.757 379.271 138.898C379.248 138.976 379.451 138.227 379.366 138.546L379.368 138.55L379.373 138.558L379.382 138.574L379.4 138.606L379.437 138.67L379.51 138.797L379.656 139.051L379.948 139.557L380.528 140.562C380.913 141.229 381.294 141.891 381.671 142.545C382.424 143.854 383.161 145.134 383.877 146.38C385.304 148.871 386.652 151.223 387.892 153.386L387.585 153.304C391.992 150.814 395.681 148.729 398.327 147.235C399.607 146.525 400.632 145.955 401.39 145.535C401.72 145.357 401.991 145.21 402.215 145.089C402.407 144.987 402.511 144.936 402.522 144.939C402.545 144.945 402.197 145.165 401.522 145.576C400.79 146.016 399.799 146.611 398.562 147.353C395.914 148.915 392.222 151.092 387.81 153.693L387.617 153.807L387.503 153.61C386.25 151.456 384.887 149.112 383.443 146.63C382.722 145.386 381.981 144.108 381.225 142.801C380.847 142.147 380.465 141.487 380.079 140.82L379.498 139.815L379.206 139.309L379.06 139.055L378.987 138.928L378.95 138.864L378.932 138.832L378.923 138.816L378.918 138.808L378.916 138.804C378.83 139.121 379.03 138.368 379.011 138.445C384.438 135.326 389.525 132.403 393.851 129.918L394.048 129.805L394.159 130.001C396.678 134.459 398.787 138.191 400.3 140.867C401 142.128 401.561 143.139 401.975 143.886C402.354 144.581 402.546 144.946 402.522 144.939Z" fill="#E0E0E0"/>
<path d="M730.059 179.216C730.013 179.23 729.922 178.882 729.6 178.346C729.284 177.82 728.668 177.098 727.643 176.693C726.646 176.278 725.199 176.286 724.023 177.119C722.846 177.909 722.093 179.578 722.526 181.18C722.93 182.791 724.404 183.879 725.817 183.994C727.251 184.146 728.517 183.446 729.184 182.597C729.88 181.743 730.064 180.812 730.084 180.199C730.102 179.574 730.012 179.226 730.059 179.216C730.08 179.208 730.241 179.54 730.287 180.197C730.33 180.84 730.198 181.857 729.474 182.824C728.783 183.784 727.393 184.615 725.772 184.472C724.177 184.374 722.482 183.149 722.022 181.312C721.527 179.485 722.407 177.589 723.751 176.724C725.095 175.808 726.713 175.853 727.786 176.353C728.89 176.844 729.502 177.666 729.779 178.248C730.059 178.844 730.081 179.212 730.059 179.216Z" fill="#E0E0E0"/>
<path d="M543.133 3.21564C543.087 3.22964 542.996 2.88163 542.674 2.34563C542.358 1.81963 541.742 1.09764 540.717 0.692635C539.72 0.277635 538.274 0.285638 537.097 1.11864C535.92 1.90864 535.167 3.57763 535.6 5.17963C536.004 6.79063 537.478 7.87863 538.891 7.99263C540.325 8.14463 541.591 7.44463 542.258 6.59563C542.954 5.74163 543.139 4.81064 543.158 4.19764C543.177 3.57364 543.086 3.22564 543.133 3.21564C543.155 3.20764 543.315 3.53964 543.361 4.19664C543.404 4.83964 543.272 5.85664 542.548 6.82364C541.857 7.78364 540.467 8.61463 538.846 8.47163C537.251 8.37364 535.556 7.14863 535.096 5.31163C534.601 3.48463 535.481 1.58864 536.825 0.723637C538.169 -0.192363 539.787 -0.147365 540.859 0.352635C541.963 0.843635 542.575 1.66564 542.852 2.24764C543.134 2.84364 543.156 3.21164 543.133 3.21564Z" fill="#E0E0E0"/>
<path d="M357.177 117.667C357.131 117.681 357.04 117.333 356.718 116.797C356.402 116.271 355.786 115.549 354.761 115.144C353.764 114.729 352.318 114.737 351.141 115.57C349.964 116.36 349.211 118.029 349.644 119.631C350.048 121.242 351.522 122.33 352.935 122.444C354.369 122.596 355.635 121.896 356.302 121.047C356.998 120.193 357.183 119.262 357.202 118.649C357.22 118.026 357.129 117.678 357.177 117.667C357.198 117.659 357.359 117.991 357.405 118.648C357.448 119.291 357.316 120.308 356.592 121.275C355.901 122.235 354.511 123.066 352.89 122.923C351.295 122.824 349.6 121.6 349.14 119.763C348.645 117.936 349.525 116.04 350.869 115.175C352.213 114.259 353.831 114.304 354.903 114.804C356.007 115.295 356.619 116.117 356.896 116.699C357.177 117.295 357.199 117.664 357.177 117.667Z" fill="#E0E0E0"/>
<path d="M712.869 101.681C712.809 101.701 712.655 100.948 711.994 99.7746C711.343 98.6246 710.035 97.0306 707.81 96.1206C706.71 95.6796 705.401 95.4046 704.009 95.5226C702.628 95.6476 701.148 96.0826 699.874 96.9966C699.226 97.4326 698.636 97.9886 698.129 98.6276C697.611 99.2596 697.182 99.9876 696.879 100.781C696.235 102.355 696.121 104.189 696.559 105.935C697.03 107.673 698.026 109.219 699.357 110.278C700.009 110.822 700.739 111.248 701.5 111.546C702.255 111.856 703.041 112.053 703.82 112.117C705.379 112.291 706.883 111.948 708.149 111.382C709.422 110.805 710.429 109.925 711.173 109.003C712.669 107.122 713.032 105.092 713.038 103.771C713.04 102.425 712.807 101.693 712.869 101.681C712.886 101.676 712.942 101.856 713.032 102.206C713.128 102.553 713.218 103.083 713.239 103.77C713.295 105.121 712.985 107.236 711.461 109.231C710.704 110.209 709.662 111.149 708.331 111.774C707.008 112.388 705.426 112.765 703.774 112.596C702.95 112.535 702.116 112.333 701.313 112.009C700.506 111.697 699.729 111.249 699.034 110.676C697.618 109.558 696.552 107.915 696.054 106.068C695.587 104.214 695.715 102.261 696.404 100.593C696.73 99.7526 697.189 98.9826 697.741 98.3166C698.283 97.6426 698.912 97.0586 699.601 96.6026C700.959 95.6486 702.524 95.2046 703.978 95.0936C705.444 94.9886 706.813 95.2996 707.951 95.7826C710.255 96.7786 711.559 98.4726 712.171 99.6786C712.488 100.289 712.669 100.795 712.754 101.145C712.847 101.493 712.886 101.677 712.869 101.681Z" fill="#E0E0E0"/>
<path d="M617.402 120.854C617.402 120.882 617.22 120.556 616.877 119.927C616.494 119.219 615.999 118.3 615.393 117.18C614.117 114.812 612.28 111.399 610.2 107.385L610 107L610.434 107.027C612.735 107.171 615.241 107.328 617.851 107.491C620.562 107.671 623.159 107.844 625.541 108.003L625.958 108.031L625.73 108.381C623.308 112.109 621.193 115.266 619.72 117.46C619.021 118.496 618.449 119.345 618.006 120.002C617.612 120.582 617.402 120.882 617.402 120.854C617.402 120.826 617.614 120.471 618 119.84C618.425 119.15 618.975 118.257 619.646 117.167C621.048 114.898 622.996 111.752 625.322 108.114L625.511 108.492C623.129 108.343 620.531 108.181 617.819 108.011C615.209 107.838 612.704 107.671 610.404 107.518L610.639 107.16C612.631 111.068 614.285 114.446 615.483 116.888C616.057 118.061 616.528 119.023 616.891 119.765C617.221 120.445 617.402 120.826 617.402 120.854Z" fill="#E0E0E0"/>
<path d="M616.204 39.4387C616.204 39.4667 616.022 39.1407 615.679 38.5117C615.296 37.8027 614.801 36.8847 614.195 35.7647C612.919 33.3967 611.082 29.9837 609.002 25.9697L608.802 25.5847L609.236 25.6117C611.537 25.7557 614.042 25.9127 616.653 26.0757C619.364 26.2557 621.961 26.4287 624.343 26.5877L624.76 26.6157L624.532 26.9657C622.11 30.6937 619.995 33.8507 618.522 36.0447C617.823 37.0807 617.25 37.9297 616.808 38.5857C616.415 39.1667 616.204 39.4667 616.204 39.4387C616.204 39.4107 616.416 39.0557 616.801 38.4247C617.226 37.7347 617.776 36.8417 618.447 35.7517C619.85 33.4827 621.797 30.3367 624.123 26.6977L624.313 27.0757C621.931 26.9267 619.333 26.7647 616.621 26.5947C614.011 26.4217 611.506 26.2547 609.206 26.1017L609.44 25.7437C611.432 29.6517 613.087 33.0297 614.284 35.4717C614.858 36.6457 615.329 37.6067 615.692 38.3487C616.023 39.0297 616.205 39.4107 616.204 39.4387Z" fill="#E0E0E0"/>
<path d="M0.00193388 60.024C-0.0220661 60.037 0.177928 59.723 0.567928 59.126C1.00693 58.458 1.57894 57.588 2.27894 56.523C3.75594 54.281 5.88694 51.046 8.44194 47.295L8.64294 47L8.84393 47.297C10.3179 49.476 11.9279 51.857 13.6119 54.348C14.9099 56.283 16.1639 58.152 17.3269 59.885L17.5889 60.276L17.1199 60.275C12.0949 60.262 7.75594 60.188 4.73094 60.135C3.28894 60.108 2.10993 60.086 1.21093 60.07C0.400934 60.052 -0.0240661 60.038 0.00193388 60.024C0.0279339 60.01 0.503939 59.997 1.35394 59.98C2.27294 59.963 3.47993 59.941 4.95593 59.915C8.01093 59.862 12.2309 59.788 17.1189 59.775L16.9119 60.164C15.7439 58.435 14.4839 56.57 13.1799 54.639C11.5059 52.141 9.90593 49.754 8.44093 47.569L8.84294 47.571C6.33794 51.194 4.14893 54.255 2.57093 56.465C1.81093 57.528 1.18994 58.396 0.713939 59.063C0.273939 59.673 0.0259339 60.011 0.00193388 60.024Z" fill="#E0E0E0"/>
</svg>
