<svg width="13" height="13" viewBox="0 0 13 13" fill="none" xmlns="http://www.w3.org/2000/svg">
<path d="M10.6169 9.3999H3.11688C3.05125 9.39951 2.98687 9.38189 2.93018 9.34882C2.87348 9.31575 2.82646 9.26837 2.79382 9.21143C2.76117 9.15449 2.74404 9.08998 2.74414 9.02434C2.74424 8.9587 2.76157 8.89424 2.79438 8.8374C3.10329 8.30303 3.49188 6.9535 3.49188 5.2749C3.49188 4.3798 3.84746 3.52135 4.4804 2.88842C5.11333 2.25548 5.97178 1.8999 6.86689 1.8999C7.76199 1.8999 8.62043 2.25548 9.25337 2.88842C9.88631 3.52135 10.2419 4.3798 10.2419 5.2749C10.2419 6.95397 10.6309 8.30303 10.9403 8.8374C10.9732 8.89431 10.9905 8.95886 10.9906 9.02457C10.9906 9.09029 10.9734 9.15486 10.9407 9.21183C10.9079 9.2688 10.8607 9.31616 10.8039 9.34917C10.7471 9.38218 10.6826 9.39967 10.6169 9.3999Z" fill="#1C1C1C" fill-opacity="0.1"/>
<path d="M11.2645 8.64709C11.0043 8.19897 10.6176 6.931 10.6176 5.2749C10.6176 4.28034 10.2225 3.32651 9.51927 2.62325C8.81601 1.91999 7.86218 1.5249 6.86762 1.5249C5.87306 1.5249 4.91923 1.91999 4.21597 2.62325C3.51271 3.32651 3.11762 4.28034 3.11762 5.2749C3.11762 6.93147 2.73043 8.19897 2.47028 8.64709C2.40384 8.76102 2.36862 8.89045 2.36817 9.02233C2.36772 9.15421 2.40205 9.28388 2.4677 9.39826C2.53335 9.51264 2.628 9.60768 2.74211 9.67381C2.85621 9.73994 2.98574 9.77481 3.11762 9.7749H5.03059C5.11711 10.1983 5.34719 10.5787 5.68193 10.852C6.01667 11.1252 6.43552 11.2745 6.86762 11.2745C7.29973 11.2745 7.71857 11.1252 8.05331 10.852C8.38805 10.5787 8.61813 10.1983 8.70465 9.7749H10.6176C10.7495 9.77473 10.8789 9.7398 10.993 9.67364C11.107 9.60748 11.2016 9.51242 11.2672 9.39806C11.3328 9.28369 11.3671 9.15405 11.3666 9.02221C11.3661 8.89037 11.3309 8.76098 11.2645 8.64709ZM6.86762 10.5249C6.63504 10.5248 6.40819 10.4527 6.21831 10.3184C6.02842 10.184 5.88484 9.99419 5.80731 9.7749H7.92793C7.85041 9.99419 7.70682 10.184 7.51693 10.3184C7.32705 10.4527 7.10021 10.5248 6.86762 10.5249ZM3.11762 9.0249C3.47856 8.40428 3.86762 6.96615 3.86762 5.2749C3.86762 4.47925 4.18369 3.71619 4.7463 3.15358C5.30891 2.59097 6.07197 2.2749 6.86762 2.2749C7.66327 2.2749 8.42633 2.59097 8.98894 3.15358C9.55155 3.71619 9.86762 4.47925 9.86762 5.2749C9.86762 6.96475 10.2557 8.40287 10.6176 9.0249H3.11762Z" fill="#1C1C1C"/>
</svg>
