<svg width="13" height="13" viewBox="0 0 13 13" fill="none" xmlns="http://www.w3.org/2000/svg">
<path d="M11.2744 3.80005V9.80005C11.2744 9.89951 11.2349 9.99489 11.1646 10.0652C11.0943 10.1355 10.9989 10.175 10.8994 10.175H7.89941C7.50159 10.175 7.12006 10.3331 6.83875 10.6144C6.55745 10.8957 6.39941 11.2772 6.39941 11.675C6.39941 11.2772 6.24138 10.8957 5.96007 10.6144C5.67877 10.3331 5.29724 10.175 4.89941 10.175H1.89941C1.79996 10.175 1.70458 10.1355 1.63425 10.0652C1.56392 9.99489 1.52441 9.89951 1.52441 9.80005V3.80005C1.52441 3.70059 1.56392 3.60521 1.63425 3.53488C1.70458 3.46456 1.79996 3.42505 1.89941 3.42505H4.89941C5.29724 3.42505 5.67877 3.58308 5.96007 3.86439C6.24138 4.14569 6.39941 4.52722 6.39941 4.92505C6.39941 4.52722 6.55745 4.14569 6.83875 3.86439C7.12006 3.58308 7.50159 3.42505 7.89941 3.42505H10.8994C10.9989 3.42505 11.0943 3.46456 11.1646 3.53488C11.2349 3.60521 11.2744 3.70059 11.2744 3.80005Z" fill="#1C1C1C" fill-opacity="0.1"/>
<path d="M10.8994 3.05005H7.89941C7.60833 3.05005 7.32124 3.11782 7.06089 3.248C6.80053 3.37817 6.57406 3.56718 6.39941 3.80005C6.22476 3.56718 5.99829 3.37817 5.73794 3.248C5.47759 3.11782 5.1905 3.05005 4.89941 3.05005H1.89941C1.7005 3.05005 1.50974 3.12907 1.36908 3.26972C1.22843 3.41037 1.14941 3.60114 1.14941 3.80005V9.80005C1.14941 9.99896 1.22843 10.1897 1.36908 10.3304C1.50974 10.471 1.7005 10.55 1.89941 10.55H4.89941C5.19778 10.55 5.48393 10.6686 5.69491 10.8796C5.90589 11.0905 6.02441 11.3767 6.02441 11.675C6.02441 11.7745 6.06392 11.8699 6.13425 11.9402C6.20458 12.0105 6.29996 12.05 6.39941 12.05C6.49887 12.05 6.59425 12.0105 6.66458 11.9402C6.73491 11.8699 6.77441 11.7745 6.77441 11.675C6.77441 11.3767 6.89294 11.0905 7.10392 10.8796C7.3149 10.6686 7.60105 10.55 7.89941 10.55H10.8994C11.0983 10.55 11.2891 10.471 11.4297 10.3304C11.5704 10.1897 11.6494 9.99896 11.6494 9.80005V3.80005C11.6494 3.60114 11.5704 3.41037 11.4297 3.26972C11.2891 3.12907 11.0983 3.05005 10.8994 3.05005ZM4.89941 9.80005H1.89941V3.80005H4.89941C5.19778 3.80005 5.48393 3.91858 5.69491 4.12955C5.90589 4.34053 6.02441 4.62668 6.02441 4.92505V10.175C5.70016 9.93105 5.30521 9.7994 4.89941 9.80005ZM10.8994 9.80005H7.89941C7.49362 9.7994 7.09867 9.93105 6.77441 10.175V4.92505C6.77441 4.62668 6.89294 4.34053 7.10392 4.12955C7.3149 3.91858 7.60105 3.80005 7.89941 3.80005H10.8994V9.80005Z" fill="#1C1C1C"/>
</svg>
