<svg width="370" height="271" viewBox="0 0 370 271" fill="none" xmlns="http://www.w3.org/2000/svg">
<g clip-path="url(#clip0_265_37784)">
<path d="M300.083 239.797L341.069 240.116L341.473 188.382L300.486 188.062L300.083 239.797Z" fill="#EBEBEB"/>
<path d="M325.461 189.9L324.732 239.992L318.257 239.942L319.645 189.855L325.461 189.9Z" fill="#FAFAFA"/>
<path d="M276.972 189.522L300.487 189.705L341.473 190.026L300.443 195.424L300.096 239.8L276.592 239.617L276.972 189.522Z" fill="#E0E0E0"/>
<path d="M289.775 189.621L288.841 239.712L281.863 239.658L283.004 189.568L289.775 189.621Z" fill="#FAFAFA"/>
<path d="M308.381 174.376C308.384 174.48 307.691 174.605 306.43 174.731C305.169 174.85 303.339 174.986 301.057 174.969C298.768 174.932 296.055 174.777 293.034 173.917C292.648 173.786 292.251 173.631 291.859 173.392C291.471 173.158 291.075 172.833 290.788 172.38C290.492 171.931 290.362 171.374 290.357 170.881C290.348 170.382 290.434 169.928 290.53 169.507C290.926 167.909 291.33 166.252 292.047 164.583C292.41 163.754 292.847 162.954 293.376 162.222C293.911 161.507 294.51 160.809 295.326 160.294C295.73 160.04 296.186 159.836 296.68 159.735C297.172 159.634 297.697 159.648 298.168 159.762C299.117 159.999 299.825 160.52 300.433 161C302.83 162.932 304.584 165.112 305.776 167.087C306.971 169.068 307.605 170.841 307.936 172.077C308.256 173.321 308.293 174.033 308.202 174.054C307.948 174.132 307.369 171.332 304.875 167.668C303.625 165.856 301.876 163.863 299.573 162.101C299.011 161.673 298.424 161.299 297.842 161.173C297.27 161.045 296.691 161.176 296.124 161.546C295.56 161.904 295.058 162.479 294.597 163.106C294.148 163.738 293.765 164.439 293.437 165.187C292.79 166.685 292.376 168.304 291.974 169.849C291.787 170.592 291.75 171.211 292.014 171.612C292.265 172.04 292.854 172.372 293.488 172.597C294.124 172.818 294.837 172.986 295.506 173.134C296.179 173.287 296.841 173.401 297.484 173.503C298.771 173.703 299.986 173.819 301.099 173.898C303.329 174.05 305.152 174.079 306.414 174.14C307.677 174.197 308.378 174.271 308.381 174.376Z" fill="#E0E0E0"/>
<path d="M307.536 174.751C307.52 174.647 308.279 174.428 309.662 174.113C311.043 173.791 313.051 173.387 315.498 172.797C317.942 172.202 320.835 171.42 323.87 170.153C324.625 169.842 325.371 169.495 325.969 169.037C326.264 168.81 326.511 168.552 326.644 168.291C326.781 168.031 326.815 167.773 326.76 167.444C326.705 167.116 326.551 166.744 326.362 166.338C326.166 165.923 325.968 165.506 325.769 165.085C325.366 164.253 324.932 163.439 324.429 162.674C323.922 161.912 323.356 161.218 322.708 160.641C322.061 160.06 321.352 159.563 320.626 159.301C319.893 159.03 319.149 158.99 318.464 159.207C317.773 159.418 317.129 159.866 316.53 160.381C314.088 162.537 312.212 164.875 310.922 166.986C309.617 169.1 308.874 170.986 308.433 172.311C307.996 173.639 307.822 174.407 307.705 174.39C307.614 174.379 307.591 173.577 307.863 172.161C308.138 170.75 308.754 168.726 309.994 166.45C311.225 164.171 313.076 161.671 315.608 159.331C316.262 158.747 317.036 158.154 318.024 157.828C319.011 157.49 320.152 157.546 321.128 157.904C321.621 158.077 322.083 158.317 322.515 158.596C322.932 158.877 323.34 159.176 323.715 159.519C324.478 160.192 325.13 160.991 325.693 161.838C326.252 162.688 326.714 163.565 327.127 164.429C327.327 164.86 327.526 165.289 327.724 165.713C327.919 166.148 328.132 166.63 328.226 167.204C328.329 167.771 328.241 168.458 327.94 168.983C327.65 169.515 327.245 169.89 326.845 170.19C326.034 170.784 325.192 171.135 324.397 171.447C321.215 172.689 318.227 173.376 315.723 173.845C313.213 174.308 311.17 174.552 309.757 174.695C308.342 174.832 307.553 174.854 307.536 174.751Z" fill="#FAFAFA"/>
<path d="M269.5 189.461L329.745 189.93L329.879 172.807L269.633 172.337L269.5 189.461Z" fill="#E0E0E0"/>
<path d="M291.646 189.634L346.103 190.058L346.236 172.935L291.78 172.51L291.646 189.634Z" fill="#EBEBEB"/>
<path d="M329.547 172.808L329.163 190.011L322.812 189.879L323.256 172.759L329.547 172.808Z" fill="#FAFAFA"/>
<path d="M284.424 172.541L283.81 189.589L276.827 189.534L277.201 172.399L284.424 172.541Z" fill="#FAFAFA"/>
<path d="M331.34 240.401L350.062 240.547L350.246 216.916L331.524 216.77L331.34 240.401Z" fill="#EBEBEB"/>
<path d="M342.939 217.612L342.607 240.493L339.649 240.47L340.283 217.592L342.939 217.612Z" fill="#FAFAFA"/>
<path d="M320.791 217.439L331.532 217.523L350.253 217.669L331.512 220.136L331.354 240.406L320.617 240.322L320.791 217.439Z" fill="#E0E0E0"/>
<path d="M326.639 217.485L326.212 240.365L323.024 240.34L323.545 217.461L326.639 217.485Z" fill="#FAFAFA"/>
<path d="M335.136 210.521C335.139 210.715 333.889 211.005 331.779 211.083C330.712 211.1 329.468 211.066 328.003 210.671C327.628 210.541 327.139 210.366 326.766 209.818C326.586 209.547 326.507 209.208 326.504 208.93C326.499 208.648 326.545 208.41 326.589 208.204C326.769 207.46 326.951 206.693 327.298 205.883C327.473 205.483 327.687 205.091 327.95 204.729C328.215 204.379 328.515 204.026 328.956 203.748C329.375 203.468 330.017 203.314 330.56 203.462C331.093 203.6 331.449 203.879 331.74 204.112C332.86 205.041 333.663 206.087 334.192 207.034C335.246 208.956 335.234 210.351 335.055 210.373C334.829 210.431 334.461 209.195 333.291 207.614C332.704 206.831 331.907 205.971 330.88 205.213C330.636 205.031 330.401 204.901 330.234 204.873C330.077 204.848 329.954 204.873 329.754 205C329.565 205.122 329.363 205.351 329.172 205.613C328.988 205.874 328.828 206.167 328.688 206.488C328.411 207.125 328.22 207.854 328.035 208.546C327.95 208.869 327.968 209.017 327.994 209.05C328.012 209.114 328.199 209.257 328.457 209.349C328.998 209.537 329.647 209.682 330.204 209.784C330.776 209.888 331.32 209.957 331.822 210.012C333.835 210.207 335.134 210.298 335.136 210.521Z" fill="#E0E0E0"/>
<path d="M334.751 210.693C334.712 210.475 336.118 210.108 338.327 209.515C339.426 209.209 340.722 208.827 342.069 208.24C342.402 208.099 342.718 207.941 342.933 207.769C343.04 207.685 343.109 207.6 343.127 207.554C343.145 207.507 343.146 207.506 343.133 207.42C343.115 207.269 342.881 206.816 342.71 206.455C342.529 206.084 342.338 205.73 342.123 205.403C341.907 205.078 341.672 204.79 341.407 204.552C341.14 204.309 340.851 204.109 340.593 204.014C340.324 203.914 340.092 203.9 339.861 203.966C339.626 204.031 339.368 204.197 339.109 204.413C338.018 205.347 337.154 206.371 336.549 207.29C335.318 209.14 335.061 210.565 334.827 210.526C334.73 210.514 334.665 210.139 334.745 209.468C334.826 208.8 335.072 207.838 335.621 206.754C336.167 205.667 337.006 204.482 338.187 203.363C338.5 203.078 338.89 202.767 339.421 202.586C339.955 202.4 340.583 202.429 341.095 202.617C341.355 202.707 341.594 202.83 341.815 202.972C342.024 203.112 342.227 203.259 342.414 203.429C342.794 203.762 343.115 204.156 343.387 204.566C343.657 204.977 343.877 205.395 344.068 205.798C344.16 205.998 344.251 206.197 344.341 206.393C344.432 206.599 344.545 206.849 344.599 207.179C344.659 207.502 344.604 207.933 344.422 208.244C344.247 208.56 344.018 208.764 343.808 208.921C343.38 209.229 342.969 209.391 342.594 209.533C341.102 210.094 339.711 210.381 338.551 210.561C336.223 210.899 334.784 210.886 334.751 210.693Z" fill="#FAFAFA"/>
<path d="M317.37 217.409L344.889 217.624L344.95 209.802L317.431 209.587L317.37 217.409Z" fill="#E0E0E0"/>
<path d="M327.49 217.487L352.364 217.682L352.425 209.86L327.551 209.666L327.49 217.487Z" fill="#EBEBEB"/>
<path d="M344.806 209.805L344.631 217.663L341.73 217.603L341.933 209.783L344.806 209.805Z" fill="#FAFAFA"/>
<path d="M324.193 209.683L323.913 217.47L320.724 217.444L320.894 209.618L324.193 209.683Z" fill="#FAFAFA"/>
<path d="M303.722 166.929L264.916 123.332C261.825 119.861 257.409 117.86 252.762 117.826L124.996 116.896C115.86 116.83 108.424 124.229 108.445 133.365L108.66 223.838C108.681 232.925 116.073 240.269 125.16 240.23L252.48 239.695C257.244 239.675 261.765 237.588 264.871 233.975L303.908 188.565C309.273 182.324 309.194 173.077 303.722 166.929ZM282.13 182.623C279.312 189.557 271.407 192.894 264.474 190.076C257.54 187.258 254.203 179.353 257.021 172.419C259.839 165.486 267.744 162.149 274.677 164.967C281.611 167.784 284.948 175.689 282.13 182.623Z" fill="#FF4F00"/>
<g opacity="0.4">
<path d="M303.722 166.929L264.916 123.332C261.825 119.861 257.409 117.86 252.762 117.826L124.996 116.896C115.86 116.83 108.424 124.229 108.445 133.365L108.66 223.838C108.681 232.925 116.073 240.269 125.16 240.23L252.48 239.695C257.244 239.675 261.765 237.588 264.871 233.975L303.908 188.565C309.273 182.324 309.194 173.077 303.722 166.929ZM282.13 182.623C279.312 189.557 271.407 192.894 264.474 190.076C257.54 187.258 254.203 179.353 257.021 172.419C259.839 165.486 267.744 162.149 274.677 164.967C281.611 167.784 284.948 175.689 282.13 182.623Z" fill="black"/>
</g>
<path d="M310.448 166.929L271.643 123.333C268.552 119.861 264.136 117.86 259.489 117.826L131.723 116.896C122.587 116.83 115.151 124.229 115.173 133.366L115.387 223.839C115.409 232.925 122.801 240.269 131.887 240.231L259.208 239.695C263.972 239.675 268.493 237.589 271.598 233.975L310.636 188.565C316 182.324 315.92 173.077 310.448 166.929ZM288.857 182.623C286.039 189.557 278.134 192.894 271.201 190.076C264.267 187.258 260.93 179.353 263.748 172.42C266.566 165.486 274.471 162.15 281.404 164.967C288.338 167.784 291.674 175.689 288.857 182.623Z" fill="#AD6D51"/>
<path d="M157.668 163.897C157.771 152.931 164.526 146.023 174.005 146.111C183.484 146.199 190.018 153.138 189.915 164.196C189.812 175.255 183.151 182.071 173.671 181.983C164.192 181.895 157.566 174.862 157.668 163.897ZM180.622 164.11C180.686 157.14 178.023 153.77 173.933 153.732C169.938 153.695 167.118 157.107 167.054 163.984C166.991 170.861 169.746 174.325 173.741 174.362C177.831 174.4 180.557 171.08 180.622 164.11ZM212.749 147.215L223.809 147.318L178.782 211.957L167.724 211.854L212.749 147.215ZM201.618 194.975C201.72 184.01 208.476 177.102 217.861 177.189C227.34 177.277 233.967 184.309 233.865 195.275C233.763 206.241 227.007 213.148 217.528 213.06C208.142 212.972 201.516 205.941 201.618 194.975ZM224.479 195.188C224.543 188.311 221.879 184.848 217.79 184.81C213.795 184.773 210.976 188.092 210.911 195.061C210.846 202.032 213.603 205.403 217.599 205.44C221.688 205.478 224.415 202.064 224.479 195.188Z" fill="white"/>
<path d="M306.201 193.845C306.235 193.806 306.672 194.121 307.47 194.758C308.269 195.395 309.432 196.351 310.906 197.613C312.382 198.872 314.17 200.435 316.189 202.317C318.207 204.2 320.46 206.402 322.791 208.994C325.113 211.59 327.544 214.564 329.737 218.054C330.01 218.491 330.285 218.932 330.563 219.376C330.821 219.832 331.082 220.291 331.344 220.755C331.882 221.671 332.373 222.653 332.823 223.667C333.709 225.698 334.433 227.942 334.505 230.377C334.538 231.589 334.376 232.843 333.968 234.042C333.567 235.242 332.91 236.382 332.052 237.34C330.345 239.28 327.962 240.58 325.391 241.149C322.812 241.713 320.107 241.551 317.526 240.963C314.935 240.374 312.444 239.394 310.026 238.206C305.183 235.813 301.034 232.479 297.505 228.878C295.74 227.071 294.132 225.177 292.665 223.25C291.202 221.336 289.811 219.432 288.496 217.543C283.243 209.985 279.183 202.697 276.624 196.191C275.984 194.569 275.426 193.005 274.949 191.504C274.717 190.751 274.495 190.019 274.315 189.294C274.142 188.564 273.949 187.881 273.894 187.142C273.705 185.697 274.067 184.245 274.85 183.238C275.622 182.218 276.663 181.637 277.612 181.316C278.089 181.141 278.561 181.07 279 180.994C279.445 180.972 279.859 180.921 280.244 180.968C281.016 180.995 281.65 181.197 282.138 181.384C282.615 181.605 282.962 181.809 283.15 182.006C283.35 182.186 283.439 182.285 283.422 182.304C283.405 182.323 283.279 182.263 283.059 182.131C282.851 181.983 282.495 181.834 282.033 181.67C281.556 181.54 280.955 181.396 280.231 181.418C279.871 181.396 279.485 181.469 279.075 181.509C278.671 181.604 278.24 181.689 277.812 181.87C276.957 182.204 276.058 182.768 275.434 183.662C274.802 184.547 274.533 185.76 274.735 187.036C274.794 187.672 275.005 188.365 275.19 189.058C275.384 189.755 275.619 190.469 275.865 191.202C276.369 192.665 276.953 194.198 277.617 195.787C280.257 202.132 284.373 209.299 289.639 216.74C290.957 218.6 292.35 220.478 293.812 222.367C295.263 224.247 296.839 226.085 298.567 227.838C302.018 231.332 306.046 234.549 310.702 236.848C313.023 237.989 315.428 238.933 317.86 239.491C320.286 240.049 322.769 240.192 325.076 239.697C327.364 239.203 329.493 238.043 330.968 236.38C332.472 234.732 333.158 232.554 333.11 230.403C333.067 228.242 332.426 226.137 331.602 224.196C331.182 223.223 330.727 222.283 330.209 221.377C329.958 220.921 329.71 220.47 329.463 220.021C329.198 219.584 328.934 219.149 328.672 218.719C326.575 215.276 324.231 212.31 321.989 209.701C319.737 207.095 317.555 204.858 315.604 202.927C313.652 200.996 311.926 199.375 310.514 198.05C309.11 196.724 308.019 195.692 307.27 194.985C306.536 194.277 306.167 193.884 306.201 193.845Z" fill="#263238"/>
<path d="M245.561 103.491C245.477 103.502 243.846 92.1107 241.915 78.05C239.985 63.9846 238.487 52.5765 238.571 52.5654C238.653 52.5538 240.286 63.9432 242.216 78.0086C244.146 92.0694 245.643 103.479 245.561 103.491Z" fill="#263238"/>
<path d="M293.558 41.1888C293.563 41.1905 293.545 41.2505 293.504 41.3651C293.457 41.4949 293.394 41.6614 293.317 41.8716C293.139 42.3332 292.888 42.9822 292.569 43.8076C291.906 45.5062 290.96 47.9313 289.794 50.9192C287.457 56.9265 284.277 65.2431 280.892 74.477C277.509 83.7144 274.564 92.1182 272.466 98.2134C271.426 101.247 270.582 103.71 269.99 105.434C269.7 106.27 269.473 106.928 269.31 107.395C269.234 107.605 269.173 107.773 269.126 107.903C269.083 108.017 269.059 108.074 269.054 108.073C269.049 108.071 269.063 108.01 269.097 107.893C269.136 107.761 269.187 107.591 269.252 107.376C269.401 106.904 269.611 106.241 269.878 105.397C270.426 103.68 271.239 101.201 272.263 98.1447C274.309 92.0309 277.223 83.6131 280.607 74.3734C283.993 65.1371 287.206 56.8299 289.594 50.8418C290.787 47.8475 291.767 45.4294 292.458 43.7646C292.8 42.9473 293.068 42.3058 293.259 41.8494C293.348 41.644 293.419 41.481 293.475 41.3541C293.525 41.2429 293.553 41.187 293.558 41.1888Z" fill="#263238"/>
<path d="M327.948 85.9874C327.999 86.0538 319.667 92.5798 309.339 100.562C299.008 108.547 290.593 114.965 290.542 114.898C290.491 114.832 298.822 108.308 309.154 100.322C319.482 92.3399 327.898 85.9211 327.948 85.9874Z" fill="#263238"/>
<path d="M225.353 105.616C225.287 105.666 222.065 101.56 218.159 96.4453C214.25 91.3286 211.137 87.141 211.204 87.0903C211.271 87.0397 214.492 91.1447 218.4 96.2614C222.306 101.376 225.42 105.565 225.353 105.616Z" fill="#263238"/>
<path d="M324.017 137.703C323.994 137.784 318.889 136.366 312.616 134.537C306.341 132.708 301.274 131.16 301.298 131.079C301.321 130.999 306.426 132.417 312.701 134.246C318.974 136.075 324.041 137.623 324.017 137.703Z" fill="#263238"/>
<path d="M250.661 137.518L254.445 135.339L256.455 131.463L258.634 135.247L262.51 137.257L258.726 139.436L256.716 143.312L254.537 139.528L250.661 137.518Z" fill="white"/>
<path d="M230.208 131.509L231.532 130.746L232.236 129.389L232.999 130.714L234.356 131.418L233.031 132.18L232.327 133.537L231.565 132.213L230.208 131.509Z" fill="white"/>
<path d="M243.269 158.245L245.83 156.771L247.19 154.148L248.665 156.708L251.288 158.069L248.727 159.544L247.367 162.167L245.892 159.606L243.269 158.245Z" fill="white"/>
<path d="M350.68 240.286C350.68 240.37 260.893 240.438 150.16 240.438C39.3891 240.438 -50.3789 240.369 -50.3789 240.286C-50.3789 240.203 39.3891 240.135 150.16 240.135C260.893 240.134 350.68 240.202 350.68 240.286Z" fill="#263238"/>
<path d="M66.5525 229.967C66.5525 229.967 42.2438 236.695 41.2688 237.038C39.8048 237.554 40.0505 242.919 42.3294 242.835C43.4074 242.796 61.001 243.491 63.224 243.352C65.4471 243.213 71.4294 240.849 71.4294 240.849L66.5525 229.967Z" fill="#455A64"/>
<path d="M56.4209 239.242C56.2987 239.258 56.1345 237.973 55.3499 236.632C54.5844 235.279 53.5552 234.492 53.6309 234.394C53.6734 234.301 54.8807 234.986 55.702 236.429C56.5373 237.863 56.5234 239.252 56.4209 239.242Z" fill="#263238"/>
<path d="M58.9605 238.093C58.8418 238.114 58.5949 236.964 57.9476 235.695C57.3131 234.418 56.5366 233.536 56.6239 233.453C56.6909 233.373 57.6403 234.168 58.3109 235.512C58.9914 236.85 59.0641 238.086 58.9605 238.093Z" fill="#263238"/>
<path d="M61.3405 237.456C61.2182 237.449 61.3114 236.234 60.7717 234.888C60.2548 233.532 59.3631 232.703 59.448 232.615C59.4969 232.522 60.5866 233.274 61.1507 234.74C61.7305 236.199 61.4388 237.491 61.3405 237.456Z" fill="#263238"/>
<path d="M60.9121 234.316C60.8691 234.327 60.6531 233.649 60.6514 232.508C60.6531 231.94 60.7183 231.26 60.8976 230.526C60.9867 230.159 61.1066 229.78 61.2597 229.397C61.3382 229.204 61.4279 228.982 61.6491 228.801C61.8755 228.598 62.2882 228.64 62.4838 228.843C62.7068 229.037 62.7772 229.311 62.8081 229.53C62.8325 229.754 62.8447 229.962 62.8395 230.172C62.8337 230.591 62.7795 230.992 62.6893 231.362C62.5094 232.104 62.2201 232.727 61.9413 233.22C61.3749 234.206 60.8842 234.711 60.8493 234.684C60.7934 234.645 61.2009 234.079 61.6863 233.087C61.925 232.591 62.1747 231.982 62.3238 231.279C62.3988 230.929 62.4407 230.555 62.4407 230.169C62.4297 229.795 62.4355 229.328 62.2166 229.149C62.1008 229.053 61.9966 229.046 61.8953 229.122C61.7882 229.204 61.698 229.371 61.6287 229.547C61.478 229.91 61.3557 230.271 61.2608 230.62C61.0693 231.318 60.9768 231.969 60.9395 232.518C60.8673 233.618 60.9779 234.306 60.9121 234.316Z" fill="#263238"/>
<path d="M60.9377 234.069C60.9266 234.025 61.5128 233.823 62.5053 233.816C62.9989 233.814 63.592 233.867 64.23 234.027C64.5449 234.112 64.8832 234.193 65.2231 234.393C65.5561 234.562 65.9042 235.024 65.772 235.504C65.6678 235.956 65.2807 236.273 64.8965 236.372C64.5094 236.48 64.1346 236.441 63.8063 236.369C63.1392 236.216 62.6205 235.887 62.227 235.592C61.4482 234.981 61.0675 234.514 61.0966 234.479C61.1391 234.427 61.5995 234.827 62.3912 235.356C62.7893 235.611 63.2882 235.886 63.8819 236.002C64.1776 236.058 64.4961 236.076 64.7836 235.99C65.07 235.911 65.3075 235.693 65.3756 235.412C65.4455 235.14 65.2807 234.891 65.0147 234.734C64.7545 234.572 64.432 234.479 64.1328 234.39C63.5315 234.218 62.9692 234.139 62.4948 234.104C61.5442 234.037 60.9475 234.134 60.9377 234.069Z" fill="#263238"/>
<path d="M52.6935 239.502C52.573 239.489 52.6924 238.449 52.2144 237.309C51.7592 236.16 50.9478 235.5 51.0246 235.406C51.0648 235.307 52.0811 235.883 52.5916 237.156C53.1155 238.422 52.7919 239.545 52.6935 239.502Z" fill="#263238"/>
<path d="M69.6537 240.625C69.6641 240.65 69.33 240.806 68.7136 241.067C68.089 241.303 67.1751 241.633 66.0085 241.905C63.6836 242.492 60.3691 242.824 56.728 242.785C53.0852 242.745 49.8027 242.579 47.4219 242.484C46.295 242.424 45.3508 242.374 44.6051 242.335C43.9404 242.291 43.5731 242.253 43.5742 242.225C43.5754 242.197 43.9439 242.181 44.6104 242.177C45.3572 242.182 46.3025 242.189 47.4312 242.196C49.8935 242.245 53.1405 242.308 56.7309 242.379C60.3557 242.416 63.6306 242.133 65.9462 241.625C68.2683 241.147 69.6251 240.549 69.6537 240.625Z" fill="#263238"/>
<path d="M70.3736 241.179C70.341 241.234 69.6756 240.846 68.5522 240.354C67.4421 239.878 65.779 239.307 63.9524 239.589C62.1205 239.869 60.8218 241.1 59.9766 241.954C59.1244 242.839 58.625 243.426 58.5755 243.385C58.5388 243.354 58.9533 242.709 59.7653 241.759C60.1757 241.289 60.6961 240.745 61.3772 240.252C62.0506 239.757 62.9174 239.336 63.8883 239.187C65.8477 238.887 67.5748 239.542 68.6738 240.093C69.7891 240.663 70.3986 241.138 70.3736 241.179Z" fill="#263238"/>
<path d="M45.9874 242.23C45.9432 242.2 46.151 241.879 46.3425 241.311C46.5358 240.75 46.6842 239.916 46.5206 239.027C46.3559 238.138 45.9193 237.412 45.5386 236.957C45.1567 236.495 44.8482 236.269 44.8791 236.226C44.8983 236.193 45.2615 236.353 45.7115 236.8C46.1586 237.238 46.6673 238.002 46.846 238.968C47.0236 239.933 46.8216 240.828 46.5602 241.397C46.2994 241.974 46.0165 242.253 45.9874 242.23Z" fill="#263238"/>
<path d="M91.9188 230.687C91.9188 230.687 116.855 234.477 117.864 234.702C119.379 235.04 119.772 240.396 117.5 240.584C116.425 240.673 99.0385 243.455 96.8148 243.581C94.5912 243.707 87.6182 241.881 87.6182 241.881L91.9188 230.687Z" fill="#455A64"/>
<path d="M103.08 238.692C103.203 238.695 103.213 237.398 103.833 235.973C104.432 234.539 105.361 233.635 105.274 233.547C105.22 233.459 104.103 234.283 103.459 235.814C102.801 237.338 102.979 238.715 103.08 238.692Z" fill="#263238"/>
<path d="M100.427 237.854C100.548 237.86 100.656 236.689 101.147 235.352C101.626 234.009 102.292 233.041 102.195 232.969C102.119 232.897 101.271 233.799 100.765 235.214C100.249 236.623 100.324 237.859 100.427 237.854Z" fill="#263238"/>
<path d="M97.9921 237.504C98.1132 237.481 97.8757 236.287 98.2512 234.886C98.6028 233.478 99.3904 232.549 99.2955 232.471C99.2361 232.385 98.243 233.261 97.8571 234.784C97.4554 236.302 97.8984 237.55 97.9921 237.504Z" fill="#263238"/>
<path d="M98.0436 234.334C98.0879 234.34 98.2212 233.641 98.0873 232.508C98.018 231.944 97.8725 231.277 97.607 230.569C97.4749 230.215 97.3108 229.853 97.1134 229.491C97.0121 229.309 96.8969 229.1 96.6559 228.946C96.4067 228.771 96.0022 228.861 95.8316 229.086C95.6331 229.306 95.5959 229.586 95.5918 229.807C95.5941 230.032 95.6063 230.24 95.6366 230.449C95.6919 230.863 95.7938 231.256 95.9271 231.612C96.1937 232.328 96.5552 232.912 96.8911 233.369C97.5709 234.281 98.1181 234.723 98.1496 234.692C98.2002 234.647 97.7287 234.133 97.1286 233.206C96.8323 232.742 96.5127 232.167 96.281 231.488C96.1646 231.149 96.079 230.782 96.0324 230.399C95.9987 230.027 95.9381 229.563 96.1337 229.36C96.2374 229.251 96.3404 229.232 96.4498 229.295C96.5662 229.363 96.6751 229.517 96.7647 229.685C96.9574 230.027 97.1216 230.37 97.2578 230.706C97.5308 231.377 97.6996 232.011 97.8026 232.552C98.0046 233.636 97.9761 234.333 98.0436 234.334Z" fill="#263238"/>
<path d="M97.9821 234.093C97.9879 234.047 97.3813 233.916 96.3952 234.028C95.9051 234.085 95.3224 234.208 94.7077 234.443C94.405 234.564 94.0791 234.685 93.7647 234.924C93.4545 235.131 93.1634 235.632 93.3514 236.092C93.5086 236.529 93.9306 236.797 94.3241 236.85C94.7211 236.911 95.0884 236.828 95.4062 236.717C96.0501 236.485 96.5262 236.098 96.8819 235.758C97.5827 235.059 97.9047 234.549 97.8721 234.519C97.8232 234.473 97.4139 234.925 96.6904 235.543C96.3248 235.843 95.8626 236.176 95.2869 236.361C95.0005 236.453 94.6862 236.508 94.3905 236.456C94.0971 236.412 93.8352 236.223 93.7339 235.953C93.6326 235.691 93.7665 235.425 94.0115 235.236C94.2508 235.045 94.5599 234.914 94.8463 234.79C95.4231 234.547 95.9721 234.403 96.4389 234.311C97.3761 234.133 97.9797 234.159 97.9821 234.093Z" fill="#263238"/>
<path d="M106.815 238.507C106.933 238.479 106.691 237.462 107.03 236.273C107.345 235.077 108.073 234.326 107.986 234.242C107.934 234.148 106.993 234.841 106.638 236.165C106.268 237.485 106.723 238.561 106.815 238.507Z" fill="#263238"/>
<path d="M90.1066 241.638C90.099 241.666 90.4494 241.78 91.0927 241.966C91.7405 242.126 92.6876 242.346 93.878 242.477C96.2559 242.783 99.5867 242.719 103.198 242.247C106.809 241.775 110.049 241.219 112.402 240.842C113.514 240.649 114.445 240.487 115.181 240.359C115.836 240.236 116.196 240.155 116.191 240.127C116.187 240.099 115.819 240.128 115.157 240.202C114.416 240.296 113.478 240.415 112.359 240.557C109.92 240.898 106.704 241.347 103.147 241.844C99.5524 242.312 96.267 242.42 93.9077 242.191C91.5438 241.992 90.1252 241.56 90.1066 241.638Z" fill="#263238"/>
<path d="M89.4572 242.273C89.4968 242.325 90.1109 241.86 91.1674 241.237C92.2129 240.633 93.7968 239.868 95.6438 239.931C97.4961 239.992 98.9315 241.059 99.8728 241.807C100.825 242.584 101.39 243.108 101.434 243.061C101.467 243.026 100.978 242.435 100.06 241.588C99.5963 241.171 99.0148 240.691 98.2802 240.283C97.5525 239.872 96.6421 239.557 95.6601 239.525C93.6786 239.46 92.0423 240.315 91.0167 240.993C89.9759 241.692 89.4275 242.237 89.4572 242.273Z" fill="#263238"/>
<path d="M169.473 128.231C169.27 127.749 168.743 127.515 168.743 127.515L169.336 126.325C169.336 126.325 169.279 125.63 168.992 125.129C168.705 124.628 167.684 124.668 167.684 124.668L167.838 124.334C168.057 123.858 168.012 123.3 167.712 122.87C167.666 122.805 167.617 122.739 167.563 122.673C167.148 122.165 166.273 122.018 166.273 122.018C166.273 122.018 166.852 120.9 166.595 120.433C166.253 119.813 165.022 119.149 164.116 119.454C163.131 119.784 161.045 120.8 159.602 121.605C159.034 121.923 158.319 121.659 158.091 121.049C157.656 119.886 156.891 118.116 155.886 116.905C154.792 115.587 153.763 115.693 153.167 115.923C152.88 116.035 152.762 116.376 152.922 116.639C153.377 117.389 154.268 118.889 154.506 119.525C154.79 120.284 155.107 126.022 155.107 126.022L153.536 129.015L137.655 154.084C137.655 154.084 113.702 137.939 113.796 137.537L112.669 156.048L130.724 168.038C133.86 170.121 137.758 170.706 141.368 169.635C144.958 168.571 147.896 165.976 149.397 162.545L161.546 136.179L163.02 134.023L168.742 130.357C168.742 130.357 169.676 128.713 169.473 128.231Z" fill="white"/>
<path d="M166.841 122.052C166.844 122.056 166.805 122.092 166.727 122.156C166.635 122.23 166.522 122.321 166.383 122.433C166.064 122.68 165.631 123.017 165.102 123.427C164.553 123.846 163.907 124.34 163.192 124.886C162.827 125.154 162.468 125.462 162.037 125.725C161.615 125.979 161.043 126.152 160.517 125.925C160.259 125.811 160.063 125.59 159.954 125.346C159.842 125.101 159.805 124.834 159.821 124.58C159.848 124.059 160.128 123.617 160.427 123.276C160.734 122.931 161.074 122.66 161.381 122.402C161.69 122.146 161.978 121.907 162.243 121.688C162.76 121.264 163.185 120.916 163.497 120.66C163.637 120.55 163.751 120.459 163.843 120.387C163.922 120.326 163.966 120.295 163.969 120.299C163.973 120.303 163.936 120.341 163.862 120.409C163.774 120.487 163.666 120.585 163.534 120.703C163.23 120.968 162.815 121.327 162.31 121.766C162.049 121.99 161.764 122.234 161.46 122.495C161.155 122.758 160.822 123.029 160.529 123.364C160.242 123.698 159.987 124.112 159.964 124.588C159.931 125.05 160.122 125.587 160.578 125.791C160.8 125.89 161.055 125.905 161.294 125.862C161.534 125.821 161.758 125.722 161.966 125.601C162.378 125.352 162.746 125.042 163.112 124.779C163.834 124.242 164.487 123.756 165.041 123.344C165.581 122.95 166.024 122.625 166.35 122.387C166.495 122.285 166.614 122.2 166.71 122.133C166.793 122.076 166.837 122.048 166.841 122.052Z" fill="#EB996E"/>
<path d="M168.111 124.746C168.117 124.754 168.022 124.833 167.846 124.967C167.669 125.101 167.41 125.29 167.086 125.517C166.437 125.97 165.522 126.572 164.48 127.186C164.219 127.338 163.967 127.495 163.7 127.612C163.434 127.729 163.145 127.799 162.867 127.77C162.309 127.703 161.91 127.296 161.79 126.903C161.667 126.503 161.765 126.159 161.864 125.961C161.915 125.86 161.97 125.79 162.007 125.745C162.048 125.702 162.071 125.682 162.075 125.685C162.085 125.693 162 125.785 161.915 125.985C161.835 126.181 161.762 126.509 161.887 126.871C162.007 127.223 162.382 127.586 162.881 127.636C163.127 127.659 163.389 127.595 163.641 127.482C163.895 127.369 164.145 127.213 164.406 127.062C165.444 126.449 166.365 125.863 167.027 125.432C167.339 125.229 167.602 125.058 167.813 124.921C168 124.801 168.105 124.738 168.111 124.746Z" fill="#EB996E"/>
<path d="M168.854 127.374C168.858 127.383 168.76 127.44 168.579 127.535C168.368 127.641 168.109 127.772 167.804 127.925C167.147 128.249 166.236 128.687 165.225 129.163C164.971 129.279 164.728 129.406 164.47 129.491C164.214 129.578 163.937 129.613 163.686 129.554C163.435 129.501 163.209 129.345 163.102 129.135C162.992 128.928 162.98 128.705 163.012 128.517C163.084 128.133 163.318 127.902 163.468 127.768C163.626 127.633 163.73 127.582 163.734 127.589C163.741 127.599 163.649 127.666 163.507 127.809C163.371 127.951 163.165 128.185 163.113 128.533C163.09 128.704 163.109 128.903 163.207 129.077C163.303 129.251 163.491 129.378 163.714 129.423C163.938 129.471 164.183 129.439 164.424 129.356C164.666 129.274 164.909 129.148 165.162 129.031C166.173 128.555 167.091 128.131 167.76 127.832C168.072 127.694 168.338 127.578 168.554 127.484C168.744 127.404 168.85 127.365 168.854 127.374Z" fill="#EB996E"/>
<path d="M169.268 129.815C169.272 129.835 168.924 129.924 168.358 130.052C167.792 130.18 167.008 130.348 166.14 130.525C165.923 130.568 165.712 130.611 165.507 130.651C165.303 130.692 165.098 130.733 164.895 130.725C164.692 130.718 164.495 130.654 164.352 130.531C164.205 130.411 164.138 130.226 164.145 130.069C164.169 129.747 164.364 129.556 164.494 129.46C164.632 129.363 164.728 129.35 164.729 129.356C164.734 129.368 164.648 129.4 164.53 129.505C164.417 129.606 164.254 129.8 164.248 130.07C164.25 130.202 164.306 130.343 164.43 130.438C164.55 130.536 164.72 130.589 164.899 130.591C165.08 130.596 165.274 130.555 165.478 130.512C165.683 130.47 165.894 130.426 166.111 130.382C166.979 130.206 167.766 130.054 168.337 129.952C168.909 129.849 169.264 129.795 169.268 129.815Z" fill="#EB996E"/>
<path d="M163.058 128.653C163.045 128.698 162.336 128.442 161.429 128.49C160.521 128.528 159.84 128.849 159.823 128.806C159.8 128.779 160.479 128.384 161.422 128.345C162.365 128.296 163.077 128.625 163.058 128.653Z" fill="#EB996E"/>
<path d="M77.526 123.164C77.526 123.164 69.4691 116.368 71.3365 111.687C73.2039 107.007 78.3718 104.686 80.9139 96.1765C82.9454 89.3769 95.0491 76.2796 109.39 86.1247C109.39 86.1247 114.245 85.3587 117.007 87.5701C119.769 89.7815 120.432 94.1944 121.605 99.2907C123.411 107.143 124.401 113.18 120.904 117.018C117.407 120.855 116.131 121.893 116.318 126.26C116.562 131.96 119.075 131.197 116.908 135.352L104.878 131.426L104.754 128.114L103.535 131.231L96.5358 128.713L77.526 123.164Z" fill="#263238"/>
<path d="M117.577 94.5085C116.796 96.3043 117.437 98.3772 118.179 100.189C118.922 102.001 119.782 103.921 119.406 105.843C118.741 109.249 114.514 111.147 114.044 114.586C113.793 116.429 114.718 118.304 114.361 120.13C114.015 121.895 112.538 123.225 110.974 124.114C109.41 125.003 107.676 125.592 106.205 126.628C106.205 126.628 102.968 129.282 97.3945 124.907" fill="#263238"/>
<path d="M94.729 90.059C93.2306 89.7092 91.7137 90.5649 91.2369 92.0277L79.6787 130.391C78.1862 134.877 83.8308 139.667 88.6466 141.229C93.51 142.806 94.4938 140.494 96.0404 136.271C98.6244 129.214 99.5476 126.549 99.5366 126.59C99.5366 126.59 105.989 127.698 110.02 120.178C112.025 116.438 114.082 109.879 115.592 104.457C116.951 99.5776 115.824 92.6191 110.891 91.4683L94.729 90.059Z" fill="white"/>
<path d="M111.502 108.475C111.333 109.021 110.733 109.328 110.159 109.163C109.587 108.997 109.259 108.422 109.427 107.876C109.595 107.331 110.196 107.023 110.768 107.188C111.341 107.353 111.67 107.93 111.502 108.475Z" fill="#263238"/>
<path d="M113.1 107.084C112.927 107.173 112.353 106.332 111.253 105.953C110.161 105.558 109.158 105.843 109.085 105.668C109.048 105.588 109.26 105.392 109.7 105.259C110.134 105.125 110.81 105.082 111.492 105.322C112.175 105.564 112.664 106.016 112.905 106.389C113.152 106.765 113.183 107.046 113.1 107.084Z" fill="#263238"/>
<path d="M100.609 104.997C100.441 105.543 99.84 105.85 99.2666 105.685C98.6944 105.52 98.3661 104.945 98.5343 104.399C98.7025 103.854 99.3038 103.546 99.876 103.71C100.449 103.876 100.777 104.452 100.609 104.997Z" fill="#263238"/>
<path d="M102.148 103.796C101.975 103.885 101.399 103.043 100.301 102.665C99.2083 102.27 98.2053 102.555 98.1331 102.379C98.0959 102.3 98.3066 102.104 98.7478 101.971C99.1821 101.836 99.8573 101.794 100.541 102.034C101.223 102.276 101.711 102.728 101.953 103.101C102.199 103.477 102.23 103.758 102.148 103.796Z" fill="#263238"/>
<path d="M103.296 113.328C103.313 113.264 104.037 113.383 105.192 113.626C105.483 113.694 105.767 113.731 105.881 113.556C106.018 113.376 106.006 113.034 105.983 112.66C105.955 111.889 105.927 111.082 105.896 110.236C105.801 106.795 105.837 104.004 105.975 104.002C106.114 103.999 106.303 106.786 106.398 110.228C106.414 111.074 106.431 111.881 106.445 112.653C106.441 113.009 106.498 113.434 106.209 113.804C106.06 113.988 105.802 114.068 105.605 114.054C105.406 114.046 105.247 113.995 105.105 113.955C103.971 113.627 103.279 113.392 103.296 113.328Z" fill="#263238"/>
<path d="M99.5412 126.591C99.5412 126.591 94.0665 125.074 89.8701 120.042C89.8701 120.042 90.6565 126.449 98.8823 128.474L99.5412 126.591Z" fill="#263238"/>
<path d="M102.962 100.652C102.79 100.941 101.677 100.576 100.307 100.483C98.9374 100.362 97.782 100.548 97.6568 100.235C97.6027 100.087 97.8472 99.8307 98.3414 99.613C98.8315 99.3953 99.5772 99.2416 100.399 99.3051C101.22 99.3703 101.933 99.6386 102.383 99.9303C102.838 100.222 103.039 100.514 102.962 100.652Z" fill="#263238"/>
<path d="M114.682 103.437C114.374 103.625 113.523 103.1 112.415 102.775C111.316 102.417 110.312 102.367 110.17 102.04C110.112 101.884 110.332 101.671 110.811 101.546C111.285 101.42 112.018 101.416 112.777 101.65C113.536 101.886 114.133 102.303 114.447 102.673C114.766 103.045 114.821 103.343 114.682 103.437Z" fill="#263238"/>
<path d="M81.2812 115.23C83.4484 107.972 85.6156 100.715 87.7828 93.4563C88.2269 91.9679 88.7403 90.377 89.9796 89.4404C91.1508 88.5556 92.7184 88.4502 94.1865 88.4199C100.516 88.289 106.862 88.9159 113.044 90.2821C113.34 91.76 112.063 93.1629 110.634 93.6426C109.205 94.1222 107.653 93.954 106.146 93.9691C104.639 93.9843 103.001 94.2555 101.98 95.365C100.895 96.545 100.789 98.3693 99.7636 99.6016C98.0004 101.723 94.3105 101.275 92.5595 103.406C91.2352 105.017 91.5926 107.373 91.1561 109.414C90.6613 111.725 90.6613 111.725 88.8527 115.126C87.7426 117.214 90.5367 121.195 87.7531 126.36L82.3535 124.824L84.7244 116.846L81.5118 124.328L81.2812 115.23Z" fill="#263238"/>
<path d="M100.041 113.195C100.154 113.261 100.096 113.551 100.089 113.969C100.077 114.384 100.136 114.949 100.405 115.465C100.676 115.981 101.107 116.35 101.455 116.577C101.803 116.809 102.074 116.926 102.064 117.057C102.059 117.174 101.733 117.293 101.211 117.171C100.699 117.058 100.001 116.647 99.5999 115.886C99.2035 115.124 99.2634 114.317 99.4607 113.831C99.6586 113.332 99.9416 113.132 100.041 113.195Z" fill="#263238"/>
<path d="M98.4351 95.6973C98.4392 95.7072 98.3356 95.7654 98.1353 95.8678C97.931 95.9621 97.6411 96.1211 97.2773 96.3417C96.5549 96.7841 95.5526 97.5303 94.6119 98.7231C93.6828 99.9071 92.7986 101.549 92.5122 103.532C92.3603 104.52 92.408 105.57 92.5349 106.66C92.6496 107.749 92.8254 108.892 92.7392 110.083C92.6968 110.677 92.5739 111.263 92.3679 111.811C92.1571 112.356 91.8731 112.851 91.5937 113.326C91.025 114.269 90.5028 115.186 90.3747 116.174C90.2246 117.153 90.3258 118.111 90.4475 118.995C90.5703 119.883 90.7281 120.709 90.7898 121.48C90.926 123.019 90.6751 124.299 90.2554 125.063C90.0587 125.452 89.8276 125.704 89.678 125.874C89.5109 126.028 89.4207 126.105 89.4137 126.098C89.384 126.073 89.781 125.776 90.1495 125.011C90.5238 124.254 90.7362 123.009 90.5761 121.5C90.5022 120.746 90.3334 119.924 90.1984 119.032C90.0656 118.141 89.9492 117.161 90.0982 116.132C90.3264 113.989 92.3946 112.418 92.4366 110.061C92.5204 108.917 92.3516 107.788 92.2392 106.691C92.1152 105.597 92.071 104.507 92.2357 103.491C92.5466 101.451 93.475 99.7796 94.4448 98.5886C95.4268 97.3883 96.4676 96.656 97.2174 96.2398C97.5952 96.032 97.8967 95.8888 98.1103 95.812C98.3199 95.727 98.4311 95.6874 98.4351 95.6973Z" fill="#263238"/>
<path d="M124.524 128.431C124.527 128.435 124.494 128.462 124.427 128.511C124.357 128.558 124.261 128.639 124.118 128.718C123.839 128.888 123.4 129.102 122.794 129.258C122.192 129.413 121.413 129.486 120.534 129.34C119.66 129.197 118.673 128.794 117.856 128.007C117.046 127.228 116.418 126.085 116.252 124.763C116.167 124.106 116.193 123.405 116.386 122.719C116.579 122.036 116.911 121.377 117.346 120.775C118.215 119.562 119.426 118.584 120.563 117.492C121.13 116.944 121.686 116.365 122.147 115.703C122.607 115.043 122.969 114.301 123.232 113.515C123.758 111.937 123.881 110.286 123.844 108.713C123.802 107.137 123.603 105.617 123.372 104.182C122.9 101.31 122.175 98.7793 121.431 96.7081C120.692 94.6329 119.933 93.0147 119.39 91.9093C119.116 91.3569 118.897 90.9308 118.745 90.6438C118.596 90.3551 118.522 90.2008 118.531 90.1956C118.54 90.1903 118.632 90.3347 118.798 90.6141C118.968 90.8918 119.205 91.3091 119.495 91.8552C120.072 92.9472 120.864 94.5579 121.632 96.6342C122.406 98.7065 123.157 101.246 123.647 104.135C123.888 105.579 124.094 107.106 124.141 108.705C124.182 110.3 124.062 111.984 123.519 113.611C123.248 114.421 122.873 115.19 122.394 115.875C121.915 116.561 121.344 117.153 120.769 117.705C119.616 118.805 118.417 119.771 117.573 120.938C117.151 121.516 116.831 122.144 116.643 122.79C116.456 123.437 116.426 124.104 116.502 124.732C116.649 125.996 117.24 127.099 118.007 127.854C118.777 128.616 119.719 129.018 120.564 129.173C121.414 129.331 122.175 129.278 122.768 129.143C123.966 128.865 124.504 128.387 124.524 128.431Z" fill="#263238"/>
<path d="M75.0074 120.537C74.9818 120.485 75.8043 120.453 76.8789 119.608C77.9296 118.778 79.0955 117.027 79.3581 114.604C79.5094 113.4 79.4855 112.064 79.4588 110.628C79.4425 109.196 79.4116 107.628 79.8162 106.034C80.0106 105.239 80.3121 104.444 80.7551 103.701C81.2039 102.965 81.814 102.287 82.5922 101.816C84.1697 100.849 86.1058 100.896 87.8236 100.294C88.6921 100.006 89.4378 99.4793 90.0519 98.8367C90.6684 98.1929 91.1573 97.446 91.6282 96.7085C92.5584 95.2416 93.452 93.6996 94.8717 92.7898C95.5673 92.3334 96.3573 92.0796 97.1256 91.9696C97.8963 91.8514 98.6502 91.8514 99.3702 91.8718C100.811 91.9213 102.143 92.0191 103.344 91.8415C105.757 91.5109 107.531 90.5108 108.627 89.7308C109.183 89.3391 109.572 88.9782 109.842 88.7418C109.961 88.6289 110.058 88.5363 110.138 88.4607C110.206 88.3984 110.243 88.3681 110.247 88.3716C110.247 88.3716 109.791 88.9904 108.697 89.8257C107.611 90.643 105.829 91.6884 103.374 92.054C102.149 92.249 100.792 92.1617 99.365 92.1239C97.9546 92.0947 96.3543 92.1448 95.0237 93.0255C93.6836 93.8888 92.8099 95.3895 91.8791 96.8686C91.407 97.6113 90.9117 98.3739 90.2702 99.0457C89.6357 99.7145 88.8318 100.281 87.9237 100.581C86.1285 101.198 84.2239 101.158 82.7459 102.07C81.2645 102.966 80.4681 104.577 80.0869 106.103C79.6852 107.651 79.7038 109.193 79.7097 110.625C79.7254 112.06 79.7376 113.41 79.5699 114.632C79.2742 117.103 78.0501 118.881 76.9511 119.702C76.3975 120.118 75.8951 120.331 75.5465 120.428C75.3747 120.487 75.235 120.499 75.1454 120.521C75.0552 120.536 75.008 120.542 75.0074 120.537Z" fill="#455A64"/>
<path d="M80.8381 96.4227C80.8509 96.3901 81.2286 96.6189 81.9871 96.7324C82.7363 96.8488 83.8836 96.7842 85.1293 96.2143C86.3808 95.6561 87.6266 94.5641 88.8915 93.2543C89.5312 92.6035 90.1971 91.905 90.9568 91.2467C91.7153 90.593 92.5762 89.9695 93.5803 89.5661C94.5844 89.1587 95.6439 89.0201 96.6474 89.0021C97.6545 88.9852 98.6173 89.076 99.5277 89.1621C100.438 89.2489 101.301 89.3391 102.106 89.3461C102.913 89.3577 103.663 89.2914 104.335 89.1645C105.681 88.9147 106.69 88.385 107.259 87.8763C107.838 87.3757 108.054 86.9938 108.083 87.0159C108.092 87.0218 108.037 87.1137 107.925 87.286C107.873 87.3751 107.795 87.4752 107.695 87.5881C107.602 87.7075 107.483 87.8338 107.337 87.9642C106.778 88.5131 105.75 89.0923 104.377 89.374C103.692 89.5178 102.927 89.5976 102.106 89.597C101.283 89.6005 100.414 89.5184 99.5027 89.4398C98.5922 89.3618 97.6382 89.278 96.6538 89.2984C95.6718 89.3199 94.6526 89.4573 93.6938 89.8467C91.7642 90.6436 90.3788 92.1745 89.09 93.4511C87.8105 94.7538 86.5211 95.8593 85.2161 96.4105C83.9209 96.9722 82.7311 97.0048 81.9673 96.8488C81.5802 96.779 81.2979 96.6585 81.1093 96.5793C80.9265 96.4856 80.8334 96.432 80.8381 96.4227Z" fill="#455A64"/>
<path d="M122.957 112.746C122.918 112.731 123.169 112.374 123.242 111.638C123.332 110.91 123.11 109.818 122.412 108.697C121.74 107.55 120.488 106.555 119.219 105.314C118.592 104.687 117.96 103.966 117.525 103.077C117.088 102.191 116.874 101.179 116.804 100.151C116.669 98.0841 117.023 96.1515 116.977 94.4011C116.966 92.656 116.542 91.075 115.695 90.0598C114.878 89.0242 113.859 88.5347 113.14 88.4194C112.412 88.2949 112 88.4311 111.996 88.3909C111.994 88.3804 112.094 88.3542 112.289 88.3135C112.485 88.2797 112.781 88.2559 113.159 88.303C113.91 88.3857 114.99 88.8653 115.862 89.9248C116.769 90.9661 117.233 92.6205 117.257 94.3953C117.317 96.1806 116.973 98.1167 117.106 100.13C117.175 101.133 117.38 102.104 117.792 102.948C118.201 103.793 118.804 104.494 119.417 105.118C120.653 106.35 121.923 107.387 122.596 108.586C123.291 109.755 123.49 110.9 123.359 111.652C123.305 112.03 123.198 112.308 123.113 112.487C123.019 112.662 122.966 112.751 122.957 112.746Z" fill="#455A64"/>
<path d="M71.439 116.234C71.4338 116.243 71.3069 116.173 71.067 116.03C70.8348 115.877 70.5047 115.622 70.1601 115.215C69.4732 114.429 68.7369 112.893 69.0431 110.967C69.1356 110.495 69.2905 110.01 69.5402 109.544C69.805 109.086 70.1525 108.659 70.5664 108.273C71.4076 107.512 72.481 106.956 73.5945 106.409C74.7023 105.858 75.8904 105.285 76.8293 104.349C77.7799 103.419 78.3072 102.097 78.6606 100.726C79.0133 99.3461 79.2537 97.952 79.7066 96.658C80.1479 95.3645 80.7387 94.1788 81.3959 93.1135C82.7114 90.9755 84.3256 89.3456 85.824 88.1971C87.3217 87.037 88.7013 86.3419 89.6734 85.9374C90.1548 85.7202 90.5483 85.6009 90.8108 85.513C91.0745 85.4263 91.2142 85.3861 91.2177 85.396C91.23 85.4298 90.6723 85.6044 89.7212 86.0456C88.77 86.4805 87.4201 87.1982 85.9567 88.3665C84.4927 89.5231 82.9169 91.1466 81.6346 93.2602C80.9937 94.3138 80.418 95.4827 79.9878 96.7552C79.5483 98.0236 79.312 99.402 78.954 100.804C78.5966 102.193 78.0488 103.578 77.04 104.559C76.0469 105.541 74.8268 106.115 73.7179 106.661C72.6009 107.201 71.549 107.738 70.7352 108.461C70.3353 108.827 69.9994 109.231 69.7451 109.66C69.5035 110.098 69.3498 110.557 69.2544 111.007C69.0925 111.914 69.1845 112.768 69.3917 113.472C69.6048 114.177 69.9273 114.738 70.2521 115.142C70.9017 115.959 71.4698 116.196 71.439 116.234Z" fill="#263238"/>
<path d="M124.594 113.287C124.569 113.263 124.842 113.009 125.214 112.46C125.586 111.914 126.018 111.04 126.246 109.88C126.472 108.724 126.473 107.287 126.103 105.77C125.734 104.251 124.97 102.684 124.017 101.144C123.058 99.6016 122.024 98.2034 121.152 96.8791C120.276 95.5583 119.568 94.3074 119.093 93.2014C118.617 92.0948 118.364 91.1471 118.252 90.4847C118.198 90.1523 118.165 89.8944 118.157 89.7169C118.145 89.5405 118.143 89.448 118.153 89.4468C118.182 89.4433 118.22 89.8124 118.368 90.4608C118.513 91.1093 118.794 92.0331 119.288 93.1141C119.783 94.1944 120.501 95.4192 121.385 96.7243C122.264 98.0323 123.307 99.427 124.275 100.985C125.238 102.542 126.01 104.141 126.374 105.705C126.739 107.266 126.715 108.742 126.456 109.924C126.194 111.11 125.718 111.993 125.31 112.528C125.101 112.795 124.931 112.993 124.798 113.111C124.671 113.234 124.601 113.295 124.594 113.287Z" fill="#263238"/>
<path d="M64.1376 194.436L59.3561 202.753C59.3561 202.753 35.5987 194.06 21.6917 196.593C16.4038 197.556 10.7446 209.553 18.4494 217.258C25.9661 224.774 39.4103 235.401 64.63 238.841C65.2593 238.926 75.5893 241.145 74.9531 241.07C74.3168 240.995 89.4358 243.387 89.4358 243.387L92.9849 229.966L121.154 234.387C137.755 233.253 145.88 215.501 135.882 209.787C126.557 204.457 109.021 204.029 109.021 204.029L102.665 194.061L64.1376 194.436Z" fill="#263238"/>
<path d="M89.9945 243.873C90.069 243.419 90.2692 242.197 90.6796 239.69C90.9037 238.351 91.1796 236.719 91.5353 234.842C91.714 233.904 91.9137 232.903 92.1512 231.851C92.2723 231.325 92.4015 230.786 92.5552 230.236C92.6337 229.962 92.7158 229.685 92.8165 229.407C92.9213 229.13 93.011 228.85 93.2438 228.579L93.2863 228.782C87.29 226.653 79.7954 223.841 71.8061 220.473C66.8937 218.383 62.2595 216.273 58.1819 214.076C56.1504 212.972 54.2376 211.859 52.5937 210.611C50.9359 209.387 49.4602 208.165 48.0766 207.1C45.3354 204.937 42.8504 203.54 40.9906 202.947C40.5348 202.771 40.1128 202.675 39.7502 202.58C39.3892 202.475 39.0767 202.419 38.8229 202.379C38.5825 202.335 38.3927 202.3 38.2477 202.274C38.1179 202.249 38.0522 202.234 38.0527 202.228C38.0533 202.223 38.1209 202.228 38.2518 202.243C38.3985 202.263 38.5906 202.288 38.8333 202.319C39.09 202.349 39.4061 202.395 39.7711 202.493C40.1384 202.579 40.5663 202.667 41.0285 202.835C41.9703 203.114 43.0722 203.609 44.2894 204.286C45.506 204.967 46.8152 205.87 48.2076 206.93C49.6029 207.986 51.0861 209.199 52.7427 210.409C54.3837 211.641 56.2848 212.735 58.3152 213.831C62.3864 216.007 67.0177 218.107 71.9248 220.194C79.906 223.56 87.3902 226.391 93.3678 228.554L93.5349 228.615L93.4103 228.758C93.2531 228.939 93.1349 229.227 93.0406 229.49C92.9417 229.758 92.859 230.031 92.7793 230.301C92.6233 230.843 92.4911 231.379 92.3671 231.902C92.1227 232.949 91.9149 233.945 91.728 234.881C91.3555 236.752 91.0603 238.38 90.8164 239.715C90.5714 241.035 90.3787 242.072 90.2436 242.8C90.1738 243.154 90.1173 243.423 90.0737 243.604C90.0306 243.784 89.9945 243.873 89.9945 243.873Z" fill="#455A64"/>
<path d="M130.416 211.406C130.415 211.411 130.364 211.406 130.264 211.392C130.148 211.374 130.004 211.351 129.826 211.323C129.438 211.272 128.88 211.127 128.143 211.056C126.68 210.841 124.534 210.7 121.894 210.835C119.253 210.962 116.132 211.47 112.748 212.344C111.059 212.797 109.302 213.328 107.502 213.951C105.703 214.576 103.869 215.294 101.99 216.042C100.107 216.802 98.212 217.39 96.3697 217.897C94.5267 218.406 92.7251 218.803 91.0021 219.137C87.5554 219.808 84.4214 220.222 81.7897 220.543C79.1568 220.86 77.0228 221.08 75.5484 221.232C74.8295 221.302 74.2613 221.358 73.8492 221.398C73.6693 221.413 73.5238 221.424 73.4068 221.434C73.3067 221.441 73.2555 221.441 73.2549 221.436C73.2543 221.431 73.3044 221.42 73.4033 221.403C73.5197 221.386 73.6641 221.364 73.8428 221.338C74.2532 221.283 74.819 221.209 75.5356 221.115C77.031 220.927 79.1522 220.659 81.7635 220.331C84.39 219.983 87.5159 219.548 90.9485 218.864C92.6652 218.524 94.4586 218.122 96.2917 217.612C98.1247 217.104 100.008 216.517 101.878 215.762C103.755 215.014 105.601 214.294 107.406 213.672C109.213 213.051 110.979 212.522 112.678 212.075C116.083 211.212 119.226 210.722 121.884 210.623C124.541 210.513 126.696 210.689 128.16 210.941C128.897 211.03 129.454 211.194 129.838 211.264C130.014 211.304 130.157 211.338 130.271 211.364C130.368 211.386 130.418 211.401 130.416 211.406Z" fill="#455A64"/>
<path d="M87.0189 206.575C87.0364 206.775 85.758 207.095 83.6485 207.293C81.5413 207.492 78.6011 207.529 75.3815 207.187C72.1613 206.839 69.2956 206.18 67.2786 205.538C65.2587 204.898 64.077 204.314 64.1369 204.123C64.2702 203.698 69.26 205.026 75.5433 205.68C81.8201 206.372 86.9787 206.132 87.0189 206.575Z" fill="#263238"/>
<path d="M109.286 204.22C109.289 204.241 108.957 204.327 108.356 204.468C108.054 204.531 107.688 204.625 107.268 204.751C106.846 204.869 106.365 205 105.846 205.187C104.792 205.514 103.58 206.023 102.249 206.615C100.932 207.239 99.5128 207.985 98.0674 208.848C95.1831 210.589 92.7406 212.429 91.0152 213.808C90.1508 214.496 89.461 215.066 88.9872 215.463C88.5122 215.859 88.2421 216.071 88.2281 216.055C88.2141 216.039 88.4569 215.798 88.9092 215.375C89.3597 214.95 90.0297 214.354 90.879 213.642C92.5741 212.216 95.0085 210.34 97.9103 208.588C99.3649 207.721 100.799 206.975 102.132 206.361C103.48 205.779 104.71 205.287 105.78 204.983C106.307 204.808 106.796 204.691 107.225 204.588C107.651 204.476 108.023 204.398 108.331 204.352C108.943 204.247 109.282 204.199 109.286 204.22Z" fill="#455A64"/>
<path d="M82.8782 216.055C82.8689 216.09 82.2169 215.949 81.2093 215.579C80.1999 215.214 78.8494 214.601 77.3971 213.858C75.9977 213.125 74.7328 212.462 73.7019 211.922C72.7571 211.429 72.1646 211.138 72.182 211.097C72.1972 211.061 72.8223 211.284 73.7956 211.73C74.7706 212.172 76.0856 212.846 77.5345 213.588C78.9833 214.329 80.3076 214.967 81.2885 215.38C82.2664 215.798 82.8916 216.009 82.8782 216.055Z" fill="#455A64"/>
<path d="M85.4462 195.422C85.4922 195.428 85.4113 196.296 85.3222 197.699C85.2326 199.102 85.1545 201.043 85.1947 203.186C85.2372 205.33 85.3903 207.266 85.5341 208.665C85.6767 210.064 85.7914 210.928 85.746 210.935C85.725 210.939 85.6726 210.727 85.5946 210.34C85.5149 209.953 85.4206 209.39 85.3216 208.691C85.1231 207.294 84.9351 205.348 84.892 203.192C84.8519 201.037 84.9642 199.086 85.1086 197.682C85.1802 196.98 85.2529 196.413 85.3175 196.024C85.381 195.634 85.4258 195.419 85.4462 195.422Z" fill="#455A64"/>
<path d="M88.0925 196.287C88.1076 196.312 87.9929 196.379 87.8445 196.552C87.6955 196.72 87.5296 197.014 87.4731 197.41C87.4242 197.797 87.4941 198.31 87.8387 198.684C88.171 199.067 88.8003 199.179 89.3568 198.971C89.915 198.767 90.319 198.271 90.3213 197.764C90.3388 197.256 90.0577 196.822 89.7678 196.56C89.4674 196.297 89.1502 196.182 88.9272 196.151C88.7025 196.117 88.5715 196.141 88.5669 196.112C88.5628 196.1 88.688 196.034 88.9365 196.033C89.1822 196.029 89.5495 196.121 89.9057 196.395C90.2474 196.667 90.6013 197.144 90.6008 197.771C90.6136 198.406 90.1147 199.023 89.4621 199.256C88.816 199.504 88.0348 199.361 87.6314 198.872C87.2222 198.397 87.1803 197.805 87.2618 197.375C87.3532 196.935 87.5721 196.626 87.7607 196.469C87.9498 196.307 88.0878 196.275 88.0925 196.287Z" fill="#455A64"/>
<path d="M95.3218 186.699C95.3376 186.712 95.1763 186.923 94.869 187.293C94.5674 187.667 94.0907 188.176 93.469 188.771C92.8508 189.37 92.0621 190.028 91.1417 190.699C90.2121 191.357 89.1463 192.021 87.9716 192.613C86.7911 193.195 85.6193 193.647 84.5343 193.993C83.444 194.323 82.4434 194.557 81.5929 194.69C80.7442 194.828 80.0509 194.903 79.5701 194.918C79.0899 194.94 78.825 194.943 78.8233 194.922C78.8192 194.864 79.8798 194.805 81.5539 194.479C82.3916 194.321 83.3759 194.067 84.4487 193.726C85.5163 193.369 86.67 192.916 87.836 192.341C88.9961 191.756 90.0526 191.109 90.9799 190.471C91.8979 189.82 92.6925 189.186 93.3235 188.613C94.5931 187.473 95.2788 186.661 95.3218 186.699Z" fill="#263238"/>
<path d="M105.95 193.158C105.947 193.249 104.901 193.25 103.665 193.559C102.427 193.858 101.5 194.343 101.456 194.264C101.411 194.201 102.304 193.577 103.593 193.265C104.878 192.944 105.959 193.082 105.95 193.158Z" fill="#263238"/>
<g opacity="0.3">
<path d="M81.5174 194.615C86.5328 193.715 91.2065 191.015 94.4908 187.119C95.1142 188.947 94.5979 191.111 93.2166 192.461C94.6951 193.162 96.4257 192.697 98.0469 192.474C99.668 192.251 101.646 192.469 102.42 193.911C95.1812 194.583 87.899 194.79 80.6338 194.533" fill="black"/>
</g>
<path d="M67.0666 183.208C67.0206 183.272 66.2994 182.267 64.556 181.58C63.6974 181.237 62.596 181.008 61.3736 181.043C60.1535 181.075 58.817 181.401 57.5684 182.062C55.0304 183.38 53.5274 185.627 52.3766 187.068C51.8324 187.824 51.4831 188.498 51.234 188.96C50.9889 189.424 50.8509 189.681 50.8311 189.671C50.8131 189.663 50.915 189.39 51.128 188.908C51.3446 188.43 51.6694 187.732 52.2003 186.945C52.7364 186.16 53.4355 185.291 54.2423 184.333C55.0718 183.393 56.1353 182.473 57.427 181.793C58.7152 181.11 60.1046 180.781 61.3666 180.763C62.631 180.742 63.7626 181.002 64.6363 181.381C65.5194 181.748 66.1387 182.23 66.5258 182.589C66.7203 182.77 66.8588 182.922 66.9438 183.033C67.0323 183.142 67.0742 183.201 67.0666 183.208Z" fill="#263238"/>
<path d="M82.3055 127.373L74.1758 129.101L78.2406 144.311L92.6285 147.402L102.5 140.395L103.855 132.011L95.3912 128.81L82.3055 127.373Z" fill="white"/>
<path d="M76.5814 128.474C76.5814 128.474 82.0806 144.448 92.2453 142.972C102.41 141.497 101.561 131.144 101.561 131.144C101.561 131.144 112.17 134.376 115.449 137.819C118.728 141.262 116.806 148.739 116.806 148.739L114.054 162.256L108.071 188.15C108.071 188.15 110.359 195.212 104.511 196.958L102.664 194.061L67.5815 195.053C67.5815 195.053 60.0782 203.704 57.7399 200.719C55.4016 197.735 53.1494 191.921 53.1494 191.921L69.2522 130.383L76.5814 128.474Z" fill="#FF4F00"/>
<path d="M112.669 135.777C112.953 135.941 137.579 153.843 137.579 153.843C137.579 153.843 135.647 168.562 147.455 166.218C147.455 166.218 142.681 178.528 136.219 175.943C134.382 175.208 111.686 160.846 111.686 160.846L106.863 150.572L112.669 135.777Z" fill="#DB4806"/>
<path d="M76.5804 129.264C76.5804 129.264 76.024 129.279 75.0844 129.369C70.264 129.832 52.4738 133.517 50.8276 146.07C49.9661 152.638 49.7198 171.841 48.7861 179.89C48.7861 179.89 50.2746 191.081 50.8276 193.155C51.8113 196.844 69.6575 190.939 69.6575 190.939L69.6947 155.403L76.0245 129.278" fill="#FF4F00"/>
<path d="M65.324 161.52C65.3345 161.521 65.3438 161.621 65.352 161.81C65.3572 161.999 65.3625 162.277 65.409 162.632C65.4835 163.342 65.7024 164.359 66.1599 165.555C66.6146 166.753 67.3067 168.117 68.0017 169.678C68.3446 170.46 68.6805 171.297 68.9313 172.201C69.1764 173.105 69.3406 174.064 69.4133 175.051C69.5647 177.029 69.4122 178.91 69.2713 180.606C69.1252 182.302 68.9832 183.833 68.7718 185.108C68.5658 186.384 68.2974 187.399 68.0692 188.084C67.9534 188.426 67.8562 188.69 67.7794 188.864C67.7048 189.039 67.6612 189.128 67.6513 189.124C67.6274 189.115 67.7625 188.741 67.9563 188.05C68.1484 187.359 68.3824 186.346 68.56 185.075C68.7427 183.805 68.8621 182.28 68.993 180.583C69.1188 178.888 69.2602 177.02 69.1112 175.075C69.0396 174.103 68.8807 173.164 68.6449 172.279C68.404 171.395 68.0786 170.567 67.7456 169.789C67.0704 168.234 66.3934 166.85 65.9591 165.629C65.5214 164.409 65.3304 163.365 65.2914 162.642C65.2623 162.279 65.2763 161.998 65.2909 161.808C65.3025 161.619 65.3136 161.52 65.324 161.52Z" fill="#263238"/>
<path d="M66.1278 157.042C66.1767 157.04 66.2209 157.945 66.4235 159.389C66.6243 160.831 67.0126 162.813 67.7227 164.918C67.9032 165.443 68.0854 165.954 68.2815 166.439C68.3304 166.55 68.3758 166.707 68.4265 166.772C68.4963 166.88 68.5662 166.987 68.6349 167.094C68.7711 167.312 68.8997 167.529 69.0092 167.75C69.4626 168.627 69.671 169.518 69.6652 170.268C69.6693 171.02 69.4731 171.605 69.3189 171.987C69.1349 172.359 69.0144 172.551 68.9981 172.542C68.9184 172.519 69.4888 171.721 69.4504 170.272C69.4289 169.557 69.2106 168.716 68.7606 167.879C68.6518 167.668 68.5249 167.46 68.3904 167.25C68.3205 167.144 68.2495 167.038 68.1785 166.93C68.0819 166.78 68.065 166.678 68.0056 166.55C67.8031 166.061 67.6168 165.545 67.4346 165.015C66.7169 162.887 66.3577 160.875 66.2098 159.415C66.1313 158.684 66.1103 158.09 66.0987 157.68C66.0981 157.27 66.1074 157.043 66.1278 157.042Z" fill="#263238"/>
<path d="M66.8525 151.707C66.8048 151.723 66.5411 150.982 66.0137 149.832C65.4887 148.682 64.6667 147.135 63.5502 145.563C62.4291 143.994 61.2358 142.712 60.3202 141.84C59.4051 140.966 58.7916 140.474 58.8224 140.434C58.8352 140.417 59.0011 140.525 59.2904 140.733C59.582 140.938 59.9854 141.262 60.4651 141.682C61.4261 142.521 62.6614 143.798 63.7965 145.387C64.9275 146.98 65.7302 148.564 66.2093 149.746C66.4503 150.337 66.6238 150.824 66.7221 151.167C66.8258 151.508 66.8723 151.7 66.8525 151.707Z" fill="#263238"/>
<path d="M117.305 141.276C117.347 141.284 117.289 141.821 117.184 142.687C117.079 143.553 116.932 144.747 116.794 146.069C116.656 147.392 116.553 148.591 116.478 149.459C116.402 150.328 116.348 150.866 116.304 150.864C116.263 150.863 116.242 150.322 116.263 149.447C116.284 148.573 116.354 147.365 116.492 146.037C116.631 144.709 116.812 143.514 116.972 142.654C117.132 141.795 117.265 141.269 117.305 141.276Z" fill="#263238"/>
<path d="M122.367 156.223C122.374 156.279 121.598 156.352 120.407 156.692C119.22 157.018 117.618 157.745 116.305 159.098C115.653 159.775 115.15 160.522 114.739 161.227C114.353 161.947 114.054 162.623 113.839 163.205C113.737 163.487 113.643 163.75 113.555 163.995C113.488 164.214 113.427 164.415 113.37 164.602C113.265 164.935 113.197 165.117 113.176 165.113C113.156 165.108 113.185 164.916 113.255 164.572C113.297 164.38 113.343 164.173 113.392 163.947C113.467 163.695 113.549 163.424 113.636 163.133C113.828 162.534 114.112 161.837 114.494 161.092C114.901 160.362 115.413 159.587 116.087 158.886C117.448 157.483 119.13 156.762 120.351 156.484C120.657 156.406 120.936 156.348 121.184 156.315C121.431 156.275 121.644 156.243 121.82 156.234C122.171 156.207 122.365 156.202 122.367 156.223Z" fill="#263238"/>
<path d="M138.674 172.427C138.655 172.437 138.516 172.204 138.279 171.775C138.158 171.561 138.017 171.296 137.876 170.977C137.732 170.66 137.553 170.303 137.403 169.891C137.068 169.078 136.746 168.079 136.465 166.95C136.201 165.818 135.989 164.553 135.892 163.213C135.808 161.872 135.85 160.59 135.959 159.432C136.087 158.276 136.272 157.243 136.495 156.393C136.589 155.963 136.719 155.587 136.819 155.253C136.916 154.918 137.02 154.636 137.112 154.408C137.289 153.951 137.396 153.702 137.416 153.709C137.471 153.729 137.082 154.742 136.704 156.442C136.509 157.29 136.348 158.315 136.237 159.459C136.144 160.604 136.112 161.869 136.195 163.193C136.29 164.515 136.492 165.765 136.737 166.887C136.999 168.005 137.297 168.999 137.603 169.814C138.205 171.448 138.726 172.4 138.674 172.427Z" fill="#263238"/>
<path d="M132.274 168.051C132.254 168.057 132.175 167.837 132.047 167.429C131.924 167.021 131.78 166.417 131.68 165.659C131.474 164.149 131.516 161.981 132.229 159.745C132.928 157.501 134.146 155.707 135.205 154.601C135.75 154.049 136.354 153.748 136.805 153.741C137.029 153.733 137.196 153.792 137.301 153.836C137.402 153.892 137.449 153.928 137.444 153.937C137.433 153.968 137.223 153.817 136.814 153.858C136.409 153.899 135.862 154.204 135.359 154.75C134.366 155.866 133.201 157.642 132.519 159.836C131.821 162.025 131.745 164.142 131.894 165.636C132.041 167.136 132.331 168.036 132.274 168.051Z" fill="#263238"/>
<path d="M92.2444 165.155C92.2647 165.16 92.2123 165.405 92.1006 165.845C92.0482 166.066 91.9749 166.335 91.8625 166.637C91.7537 166.941 91.6471 167.294 91.4754 167.664C91.1698 168.418 90.7198 169.281 90.1453 170.192C89.5545 171.093 88.8297 172.036 87.9647 172.931C87.0892 173.817 86.1631 174.563 85.2766 175.175C84.3784 175.77 83.5262 176.24 82.7788 176.563C82.4138 176.744 82.0628 176.858 81.7612 176.974C81.4609 177.093 81.1949 177.172 80.9742 177.23C80.5365 177.352 80.2932 177.41 80.2874 177.389C80.2693 177.331 81.2397 177.067 82.6874 176.369C83.4138 176.025 84.2422 175.543 85.1177 174.944C85.9815 174.33 86.8867 173.59 87.7476 172.719C88.5981 171.838 89.317 170.917 89.9113 170.04C90.4893 169.151 90.9527 168.311 91.2792 167.577C91.944 166.114 92.1856 165.137 92.2444 165.155Z" fill="#263238"/>
<g opacity="0.3">
<path d="M72.0854 170.92C70.9672 166.836 69.849 162.753 68.7307 158.669C68.5672 158.073 68.2947 157.371 67.6858 157.261C67.1189 157.159 66.5985 157.694 66.4931 158.26C66.3878 158.826 66.4058 159.478 66.4628 160.051C66.7271 162.71 66.9361 164.517 68.1748 166.578C70.5894 170.594 68.9979 172.542 68.9979 172.542C69.19 177.431 68.7779 184.104 67.2568 189.126L68.6917 195.185C70.0562 190.681 73.1693 186.923 73.6943 182.246C74.1222 178.432 73.0988 174.621 72.0854 170.92Z" fill="black"/>
</g>
<g opacity="0.3">
<path d="M114.05 162.338C118.035 164.412 121.581 167.274 125.468 169.491C123.944 166.319 121.404 163.183 118.314 161.499C117.482 161.046 116.552 160.653 115.613 160.786C114.675 160.919 113.998 161.448 114.141 162.385" fill="black"/>
</g>
<g opacity="0.3">
<path d="M136.9 153.564C135.538 153.531 134.509 154.768 133.842 155.956C131.965 159.303 131.183 163.253 131.642 167.063C131.725 167.751 131.979 168.579 132.659 168.712C133.152 168.809 133.644 168.448 133.863 167.997C134.083 167.544 134.092 167.023 134.09 166.52C134.083 164.187 133.931 161.838 134.263 159.529C134.595 157.219 135.469 154.897 137.189 153.319" fill="black"/>
</g>
<path d="M75.3301 157.934C75.3301 157.931 75.3761 157.925 75.4669 157.918C75.5693 157.911 75.702 157.902 75.8714 157.891C76.2428 157.871 76.769 157.843 77.4478 157.807C78.8419 157.743 80.8583 157.65 83.4109 157.532C88.5514 157.314 95.8464 157.004 104.523 156.636L104.661 156.63L104.664 156.768C104.838 163.87 105.037 172.039 105.249 180.69C105.256 180.981 105.263 181.272 105.269 181.557L105.273 181.71L105.119 181.712C95.5565 181.817 86.6357 182.609 79.1271 183.653L79.013 183.668L78.9828 183.558C76.9146 175.953 76.1584 169.403 75.8831 164.832C75.7451 162.543 75.7189 160.742 75.7195 159.515C75.7189 158.902 75.7329 158.431 75.7387 158.115C75.7434 157.965 75.7469 157.848 75.7498 157.756C75.7533 157.675 75.7568 157.634 75.7603 157.634C75.7637 157.634 75.7672 157.675 75.7701 157.756C75.7725 157.848 75.7754 157.965 75.7795 158.115C75.7841 158.446 75.7911 158.913 75.7993 159.515C75.8243 160.741 75.8743 162.539 76.0344 164.823C76.354 169.383 77.1457 175.913 79.2337 183.49L79.0899 183.395C86.6043 182.324 95.5378 181.515 105.115 181.41L104.965 181.565C104.958 181.281 104.952 180.99 104.945 180.699C104.745 172.046 104.556 163.878 104.393 156.775L104.533 156.907C95.8539 157.23 88.5578 157.502 83.4161 157.694C80.8624 157.78 78.8442 157.848 77.4501 157.894C76.7708 157.912 76.244 157.926 75.8726 157.936C75.7026 157.938 75.5699 157.94 75.4675 157.941C75.3767 157.94 75.3301 157.938 75.3301 157.934Z" fill="white"/>
<path d="M82.9996 175.582C82.9169 175.596 82.1893 171.662 81.3743 166.797C80.5588 161.93 79.9651 157.974 80.0477 157.961C80.1304 157.947 80.858 161.88 81.6735 166.747C82.4879 171.612 83.0816 175.568 82.9996 175.582Z" fill="white"/>
<path d="M83.8784 183.087C83.7957 183.1 83.5053 181.68 83.2294 179.915C82.9534 178.149 82.7968 176.708 82.8795 176.695C82.9622 176.682 83.2526 178.103 83.5286 179.868C83.8045 181.632 83.9611 183.074 83.8784 183.087Z" fill="white"/>
<path d="M88.8875 171.685C88.8671 171.689 88.8101 171.496 88.7239 171.144C88.6372 170.792 88.5278 170.279 88.4061 169.643C88.1622 168.371 87.8863 166.6 87.689 164.631C87.4934 162.662 87.4142 160.871 87.402 159.575C87.3956 158.928 87.4014 158.403 87.4171 158.041C87.4317 157.679 87.4497 157.479 87.4707 157.479C87.5155 157.479 87.5493 158.279 87.6168 159.569C87.6837 160.859 87.7961 162.64 87.9911 164.601C88.1872 166.561 88.4288 168.329 88.618 169.607C88.8066 170.885 88.9312 171.676 88.8875 171.685Z" fill="white"/>
<path d="M88.2302 182.309C88.1469 182.319 87.8506 180.477 87.5683 178.195C87.286 175.913 87.1242 174.055 87.2074 174.045C87.2906 174.034 87.5869 175.876 87.8693 178.158C88.1516 180.44 88.3134 182.298 88.2302 182.309Z" fill="white"/>
<path d="M94.806 181.838C94.785 181.839 94.7443 181.497 94.6878 180.879C94.6296 180.209 94.5527 179.326 94.4602 178.261C94.2693 176.05 93.9852 172.998 93.5993 169.635C93.2116 166.272 92.7954 163.235 92.4793 161.039C92.3274 159.98 92.2016 159.103 92.1062 158.438C92.0206 157.823 91.9828 157.481 92.0037 157.477C92.0241 157.474 92.1015 157.808 92.2226 158.418C92.3454 159.027 92.5061 159.911 92.6906 161.006C93.0614 163.196 93.5119 166.233 93.9002 169.601C94.2867 172.968 94.5376 176.027 94.6732 178.244C94.7419 179.353 94.7862 180.25 94.8048 180.871C94.8258 181.492 94.8269 181.836 94.806 181.838Z" fill="white"/>
<path d="M100.402 182.149C100.381 182.149 100.367 181.8 100.361 181.171C100.355 180.491 100.347 179.593 100.337 178.508C100.316 176.26 100.256 173.155 100.094 169.729C99.9304 166.303 99.6958 163.206 99.5037 160.966C99.4106 159.885 99.3332 158.991 99.2744 158.313C99.2214 157.686 99.2022 157.338 99.2232 157.335C99.2441 157.333 99.3029 157.676 99.392 158.299C99.4822 158.922 99.5945 159.826 99.7174 160.945C99.9642 163.182 100.233 166.282 100.397 169.715C100.559 173.146 100.585 176.258 100.552 178.508C100.535 179.633 100.51 180.544 100.479 181.173C100.449 181.802 100.423 182.15 100.402 182.149Z" fill="white"/>
<g opacity="0.3">
<path d="M80.7516 177.433C81.6376 178.035 82.7482 178.247 83.8176 178.179C84.8869 178.11 85.9224 177.777 86.912 177.366C88.2218 176.822 89.5001 176.113 90.4343 175.046C91.4338 173.904 91.974 172.419 92.2127 170.921C92.4507 169.423 92.4065 167.895 92.3617 166.378C92.3599 166.313 92.3564 166.242 92.318 166.188C92.2458 166.088 92.0828 166.1 91.9885 166.18C91.8942 166.26 91.8518 166.384 91.8122 166.501C90.0816 171.572 85.742 175.673 80.5811 177.115" fill="black"/>
</g>
<path d="M77.142 226.188L73.5842 219.517L65.5878 182.082C65.5878 182.082 58.2283 177.859 52.2082 187.118C51.966 187.492 60.4944 214.3 62.8747 221.76L63.2088 228.893C63.2088 228.893 62.7862 237.339 63.2088 238.078C63.6308 238.817 64.6868 239.239 64.6868 239.239C64.6868 239.239 64.3701 241.35 66.798 241.562C66.798 241.562 67.0093 243.884 68.804 243.567C70.5986 243.251 71.2319 242.09 71.2319 242.09C71.2319 242.09 71.2319 245.045 72.8153 244.729C74.3986 244.412 74.6576 243.145 74.9504 242.723C75.2432 242.301 75.5768 237.972 75.5768 237.972L75.5488 230.821L79.6724 234.16C80.8634 234.753 82.6068 235.489 83.5987 234.602L77.142 226.188Z" fill="white"/>
<path d="M75.5486 230.466C75.6353 230.452 75.8856 232.184 75.7826 234.319C75.7348 235.31 75.6918 236.21 75.6516 237.036C75.6161 237.731 75.5922 238.162 75.5486 238.163C75.4543 238.168 75.3763 236.431 75.4799 234.307C75.5823 232.188 75.4694 230.477 75.5486 230.466Z" fill="#EB996E"/>
<path d="M71.0086 235.447C71.0925 235.446 71.1815 237.029 71.2077 238.982C71.2339 240.936 71.1873 242.521 71.1041 242.522C71.0203 242.523 70.9312 240.94 70.905 238.986C70.8783 237.033 70.9248 235.448 71.0086 235.447Z" fill="#EB996E"/>
<path d="M67.2022 236.745C67.2814 236.739 67.4188 237.852 67.2843 239.223C67.1551 240.593 66.8087 241.66 66.7319 241.639C66.6463 241.618 66.8559 240.538 66.9822 239.193C67.1143 237.849 67.1143 236.749 67.2022 236.745Z" fill="#EB996E"/>
<path d="M64.7491 235.922C64.8323 235.93 64.8294 236.649 64.7421 237.528C64.6548 238.407 64.5168 239.112 64.4336 239.104C64.3503 239.096 64.3532 238.377 64.4406 237.498C64.5279 236.619 64.6658 235.914 64.7491 235.922Z" fill="#EB996E"/>
<path d="M72.7412 90.0682L67.3853 80.6288C69.7544 76.7829 71.1241 72.2552 71.1241 67.4069C71.1241 53.4632 59.8202 42.1593 45.8765 42.1593C31.9328 42.1593 20.6289 53.4632 20.6289 67.4069C20.6289 81.3506 31.9328 92.6545 45.8765 92.6545C51.6987 92.6545 57.057 90.6783 61.3279 87.3673L61.3192 87.3783L72.7412 90.0682Z" fill="white"/>
<path d="M72.7418 90.0681C72.2144 89.9477 68.5891 89.1182 61.3023 87.4522C61.2616 87.4429 61.2365 87.4027 61.2459 87.3619C61.2482 87.3515 61.2534 87.341 61.2598 87.3323L61.2686 87.3212L61.3745 87.4266C59.9344 88.5419 58.209 89.6415 56.181 90.5571C54.1506 91.4571 51.8245 92.1928 49.2563 92.5339C47.9739 92.6975 46.6345 92.8035 45.2578 92.7359C44.5697 92.6969 43.8695 92.6801 43.1634 92.6213C42.4619 92.5153 41.7506 92.4076 41.03 92.2988C38.1707 91.7341 35.2473 90.6485 32.5208 88.9563C29.7954 87.2706 27.2725 84.9806 25.2497 82.1678C23.2304 79.3598 21.6989 76.0301 20.9823 72.4123C20.2721 68.7992 20.3315 64.9265 21.2803 61.1789C22.2356 57.4441 24.0209 53.7949 26.6927 50.7936L27.7242 49.6591C28.063 49.2778 28.4676 48.9629 28.8349 48.6124C29.2197 48.2812 29.5666 47.9063 29.9799 47.6141L31.1918 46.7078C31.5842 46.3905 32.0167 46.135 32.4468 45.8777C32.8753 45.6181 33.3019 45.3585 33.728 45.1C34.1763 44.8823 34.6233 44.6652 35.0692 44.4486C35.5192 44.2414 35.9517 43.9958 36.4232 43.8467C40.0916 42.3903 44.0034 41.8362 47.7428 42.1074C51.4834 42.3769 55.0622 43.4497 58.1328 45.178C61.2127 46.8923 63.81 49.1817 65.8148 51.7383C67.8254 54.2967 69.2422 57.1181 70.1195 59.9274C70.9909 62.75 71.2266 65.5493 71.2173 68.1409C71.1422 70.7388 70.6695 73.1318 69.9809 75.2321C69.2905 77.3352 68.3842 79.1444 67.4482 80.6666L67.4493 80.5927C70.8325 86.65 72.4892 89.6159 72.7418 90.0681C72.4834 89.6199 70.7871 86.6762 67.323 80.6648C67.3096 80.6416 67.3114 80.6124 67.3242 80.5909C68.2445 79.0716 69.1351 77.2688 69.8104 75.1773C70.4839 73.0887 70.9426 70.712 71.0072 68.135C71.0066 65.5645 70.7644 62.7907 69.893 59.9972C69.0158 57.2165 67.6059 54.4265 65.6105 51.899C63.6208 49.3727 61.0468 47.1123 57.9983 45.4213C54.9591 43.7164 51.4194 42.661 47.7218 42.3985C44.0243 42.1342 40.1591 42.6854 36.5355 44.1256C36.0693 44.2728 35.6426 44.5162 35.1979 44.7211C34.7572 44.9353 34.3154 45.1495 33.873 45.3649C33.4521 45.6204 33.0307 45.8771 32.6075 46.1344C32.1826 46.3888 31.7553 46.6408 31.3676 46.9552L30.1702 47.8505C29.7616 48.1392 29.4193 48.5106 29.0392 48.8371C28.6765 49.1835 28.2766 49.4937 27.9419 49.8709L26.9227 50.9921C24.2817 53.9579 22.5185 57.5629 21.572 61.2528C20.6324 64.9556 20.5707 68.7835 21.2693 72.3559C21.9742 75.9329 23.4842 79.2259 25.4773 82.0066C27.4739 84.792 29.9659 87.0616 32.6593 88.7363C35.3544 90.4168 38.2458 91.4984 41.0765 92.0653C41.7902 92.1754 42.4945 92.2836 43.1896 92.3907C43.8893 92.4513 44.5831 92.4699 45.2648 92.5107C46.6292 92.5817 47.9576 92.4816 49.2295 92.3238C51.7774 91.9943 54.0877 91.2749 56.1076 90.3906C58.1252 89.4907 59.8447 88.4086 61.2831 87.3084C61.3163 87.2828 61.3634 87.2886 61.3891 87.3218C61.4106 87.3491 61.4094 87.3876 61.3891 87.4143L61.3803 87.4254L61.3378 87.3061C68.6013 89.0646 72.2162 89.9407 72.7418 90.0681Z" fill="#263238"/>
<path d="M38.4617 62.5972C38.0909 62.3981 37.6327 62.3277 37.2055 62.2735C35.8614 62.1035 34.7129 62.4854 33.7373 63.5553C36.4709 65.1398 40.1888 67.2406 42.8484 68.7576L46.206 66.8378C43.7897 65.5025 40.7505 63.8277 38.4617 62.5972Z" fill="#FF4F00"/>
<g opacity="0.3">
<path d="M38.4617 62.5972C38.0909 62.3981 37.6327 62.3277 37.2055 62.2735C35.8614 62.1035 34.7129 62.4854 33.7373 63.5553C36.4709 65.1398 40.1888 67.2406 42.8484 68.7576L46.206 66.8378C43.7897 65.5025 40.7505 63.8277 38.4617 62.5972Z" fill="black"/>
</g>
<path d="M48.747 72.2969C48.6609 72.2259 48.644 72.2073 48.6236 72.1956C47.7877 71.7125 46.9018 70.7898 46.0548 70.8073C45.7323 70.8137 45.3848 71.0914 44.5518 71.5611C43.1635 72.3441 40.8322 73.7102 39.4369 74.4804C38.2459 75.1376 36.7935 75.63 35.4372 75.2033C34.7777 74.9955 34.2521 74.6259 33.5576 74.0671C38.7581 71.0524 43.7223 68.1744 48.7441 65.2633C48.665 65.0381 48.5858 64.8209 48.5119 64.6021C47.8966 62.7777 48.5555 60.7707 50.133 59.6612C51.7251 58.5418 53.8701 58.6221 55.3941 59.8579C56.8773 61.0605 57.3866 63.1328 56.6346 64.9024C55.8761 66.6883 54.0646 67.7309 52.1442 67.5359C51.8147 67.5027 51.4364 67.5958 51.1331 67.7402C50.5551 68.0161 50.0143 68.3712 49.3251 68.7705C50.4934 69.2962 51.2873 70.1309 52.6518 70.004C54.5367 69.8288 56.2119 71.195 56.7847 73.0164C57.3453 74.7982 56.6933 76.7384 55.1671 77.8321C53.6315 78.9329 51.5324 78.9084 50.0184 77.7722C48.5247 76.6516 47.9141 74.6888 48.5113 72.918C48.5794 72.716 48.6626 72.5187 48.747 72.2969ZM52.625 65.3029C53.8073 65.3082 54.7357 64.371 54.7247 63.1835C54.7142 62.0495 53.7735 61.1124 52.6407 61.1077C51.4911 61.103 50.5097 62.092 50.5254 63.2394C50.5411 64.3669 51.4882 65.2977 52.625 65.3029ZM52.6012 76.4095C53.7287 76.4293 54.695 75.502 54.7241 74.3727C54.7549 73.1805 53.8469 72.2288 52.6652 72.2142C51.5254 72.2003 50.5673 73.1054 50.526 74.2371C50.484 75.3768 51.4515 76.3891 52.6012 76.4095Z" fill="#FF4F00"/>
<path d="M46.9774 68.6856C46.925 68.7025 46.9466 68.2903 46.5216 67.9842C46.3185 67.8404 45.9995 67.7688 45.698 67.8875C45.3988 67.9975 45.1461 68.3165 45.149 68.6856C45.1455 69.0552 45.3988 69.3742 45.698 69.4842C45.9995 69.603 46.3185 69.5308 46.5216 69.3876C46.9466 69.0808 46.925 68.6687 46.9774 68.6856C46.9949 68.685 47.0246 68.7747 47.0036 68.9417C46.9827 69.1053 46.893 69.355 46.6514 69.5576C46.4186 69.7602 46.0106 69.8876 45.6025 69.7468C45.1985 69.6193 44.8405 69.1903 44.8458 68.6856C44.8411 68.1809 45.1985 67.7525 45.6025 67.625C46.0106 67.4841 46.4186 67.6116 46.6509 67.8142C46.8924 68.0168 46.9821 68.2671 47.003 68.4301C47.0246 68.5965 46.9949 68.6862 46.9774 68.6856Z" fill="#263238"/>
<path d="M50.69 67.9493C50.6941 67.9563 50.5847 68.0296 50.3821 68.1554C50.1155 68.3172 49.8303 68.4901 49.5188 68.6787C48.6853 69.1682 47.7172 69.7369 46.6473 70.365C45.571 70.9821 44.5965 71.5397 43.7577 72.0205C43.4399 72.1969 43.1477 72.3587 42.8753 72.5101C42.6657 72.6236 42.5481 72.6824 42.5441 72.6748C42.54 72.6672 42.65 72.5945 42.8526 72.4682C43.1192 72.3069 43.4044 72.1334 43.7158 71.9448C44.5494 71.4553 45.5174 70.8872 46.5868 70.2591C47.6625 69.6426 48.6364 69.085 49.4746 68.6042C49.793 68.4278 50.0846 68.266 50.3571 68.1146C50.5678 68.0017 50.6859 67.9423 50.69 67.9493Z" fill="#263238"/>
<path d="M48.164 65.621C48.1663 65.6245 48.1174 65.6583 48.0226 65.7188C47.8968 65.7968 47.76 65.8824 47.6052 65.979C47.1843 66.234 46.6674 66.5466 46.0585 66.9156C44.7506 67.7032 42.9408 68.7865 40.9122 69.9321C38.9167 71.0649 37.1122 72.0894 35.7233 72.8781C35.101 73.2251 34.5736 73.519 34.144 73.7589C33.984 73.8456 33.8419 73.9224 33.7115 73.9929C33.612 74.0453 33.559 74.0709 33.5567 74.0674C33.5549 74.0639 33.6038 74.0307 33.6993 73.9719C33.8262 73.8956 33.9642 73.8118 34.1208 73.7181C34.5451 73.4696 35.0661 73.1639 35.6808 72.8042C37.065 72.0073 38.8626 70.9729 40.851 69.8279C42.8791 68.6829 44.6958 67.6112 46.0149 66.8423C46.6319 66.4866 47.1552 66.1845 47.5813 65.9389C47.7402 65.8498 47.8817 65.7706 48.0103 65.6985C48.1093 65.6437 48.1623 65.6175 48.164 65.621Z" fill="#263238"/>
<path d="M144.329 97.3186L145.434 99.3379L147.453 100.443L145.434 101.547L144.329 103.567L143.225 101.547L141.205 100.443L143.225 99.3379L144.329 97.3186Z" fill="#FF4F00"/>
<path d="M151.711 69.6535L152.859 69.5784L153.786 68.895L153.861 70.0435L154.545 70.9696L153.396 71.0453L152.47 71.7287L152.394 70.5802L151.711 69.6535Z" fill="#FF4F00"/>
<path d="M337.903 161.509L339.052 161.433L339.978 160.75L340.054 161.898L340.736 162.824L339.588 162.9L338.662 163.583L338.586 162.435L337.903 161.509Z" fill="#FF4F00"/>
<path d="M206.75 104.04L207.898 103.964L208.825 103.281L208.9 104.429L209.584 105.355L208.435 105.431L207.508 106.114L207.433 104.966L206.75 104.04Z" fill="#FF4F00"/>
<path d="M213.744 54.8534L214.893 54.7777L215.819 54.0944L215.894 55.2428L216.578 56.169L215.429 56.2447L214.503 56.928L214.428 55.7796L213.744 54.8534Z" fill="#FF4F00"/>
<path d="M178.499 85.379L180.246 84.3732L181.174 82.5844L182.18 84.3307L183.969 85.2591L182.222 86.265L181.294 88.0544L180.288 86.3075L178.499 85.379Z" fill="#FF4F00"/>
<path d="M325.217 184.632L326.964 183.626L327.892 181.837L328.897 183.584L330.687 184.512L328.94 185.518L328.012 187.307L327.006 185.56L325.217 184.632Z" fill="#FF4F00"/>
<path d="M316.447 152.703L318.194 151.698L319.122 149.908L320.128 151.655L321.917 152.583L320.17 153.589L319.242 155.378L318.236 153.631L316.447 152.703Z" fill="#FF4F00"/>
</g>
<defs>
<clipPath id="clip0_265_37784">
<rect width="370" height="270.678" fill="white"/>
</clipPath>
</defs>
</svg>
