<svg width="11" height="11" viewBox="0 0 11 11" fill="none" xmlns="http://www.w3.org/2000/svg">
<path d="M5.60009 4.10005C5.30342 4.10005 5.01341 4.18803 4.76674 4.35285C4.52006 4.51767 4.32781 4.75194 4.21427 5.02603C4.10074 5.30012 4.07104 5.60172 4.12892 5.89269C4.18679 6.18366 4.32965 6.45093 4.53943 6.66071C4.74921 6.87049 5.01649 7.01335 5.30746 7.07123C5.59843 7.12911 5.90003 7.0994 6.17412 6.98587C6.44821 6.87234 6.68248 6.68008 6.8473 6.43341C7.01212 6.18673 7.10009 5.89673 7.10009 5.60005C7.10009 5.20223 6.94206 4.8207 6.66075 4.53939C6.37945 4.25809 5.99792 4.10005 5.60009 4.10005ZM5.60009 6.50005C5.42209 6.50005 5.24808 6.44727 5.10008 6.34838C4.95208 6.24948 4.83672 6.10892 4.7686 5.94447C4.70048 5.78001 4.68266 5.59905 4.71739 5.42447C4.75211 5.24989 4.83783 5.08952 4.9637 4.96366C5.08956 4.83779 5.24993 4.75207 5.42451 4.71735C5.5991 4.68262 5.78006 4.70044 5.94451 4.76856C6.10896 4.83668 6.24952 4.95204 6.34842 5.10004C6.44731 5.24804 6.50009 5.42205 6.50009 5.60005C6.50009 5.83875 6.40527 6.06767 6.23649 6.23645C6.06771 6.40523 5.83879 6.50005 5.60009 6.50005ZM8.36422 6.7678C8.23533 7.07252 8.05692 7.35382 7.83622 7.6003C7.78278 7.65813 7.70874 7.69263 7.63009 7.69635C7.55144 7.70008 7.47448 7.67273 7.41581 7.62022C7.35714 7.5677 7.32147 7.49422 7.3165 7.41564C7.31152 7.33706 7.33764 7.25967 7.38922 7.20018C7.78313 6.76036 8.00095 6.19067 8.00095 5.60024C8.00095 5.00981 7.78313 4.44013 7.38922 4.0003C7.36221 3.97108 7.34128 3.93677 7.32766 3.89937C7.31404 3.86198 7.30799 3.82225 7.30987 3.78249C7.31176 3.74274 7.32153 3.70376 7.33863 3.66782C7.35572 3.63188 7.3798 3.5997 7.40945 3.57316C7.4391 3.54662 7.47374 3.52624 7.51135 3.51321C7.54895 3.50019 7.58877 3.49477 7.62849 3.49729C7.66821 3.4998 7.70703 3.51019 7.7427 3.52786C7.77836 3.54552 7.81015 3.57011 7.83622 3.60018C8.21502 4.02405 8.46573 4.54675 8.5592 5.10748C8.65267 5.66822 8.58505 6.24397 8.36422 6.7678ZM3.38759 4.66593C3.21059 5.08494 3.1563 5.54563 3.23106 5.99431C3.30581 6.44299 3.50654 6.86119 3.80984 7.20018C3.86142 7.25967 3.88754 7.33706 3.88256 7.41564C3.87759 7.49422 3.84192 7.5677 3.78325 7.62022C3.72458 7.67273 3.64762 7.70008 3.56897 7.69635C3.49032 7.69263 3.41629 7.65813 3.36284 7.6003C2.87031 7.05054 2.59796 6.33837 2.59796 5.60024C2.59796 4.86212 2.87031 4.14994 3.36284 3.60018C3.4159 3.54075 3.4904 3.50484 3.56994 3.50034C3.64947 3.49584 3.72754 3.52312 3.78697 3.57618C3.84639 3.62924 3.88231 3.70373 3.88681 3.78327C3.89131 3.86281 3.86403 3.94088 3.81097 4.0003C3.63397 4.19721 3.4909 4.42215 3.38759 4.66593ZM10.1001 5.60005C10.1019 6.7782 9.64 7.90974 8.81422 8.75005C8.7869 8.77926 8.75401 8.80271 8.7175 8.81903C8.68098 8.83535 8.64157 8.84419 8.60159 8.84506C8.5616 8.84592 8.52185 8.83878 8.48466 8.82405C8.44748 8.80933 8.41361 8.78732 8.38506 8.75931C8.35651 8.73131 8.33384 8.69788 8.31839 8.66098C8.30295 8.62409 8.29503 8.58449 8.29512 8.54449C8.2952 8.5045 8.30328 8.46492 8.31889 8.4281C8.33449 8.39127 8.3573 8.35794 8.38597 8.33005C9.10099 7.60156 9.50158 6.62157 9.50158 5.6008C9.50158 4.58004 9.10099 3.60004 8.38597 2.87155C8.33007 2.81476 8.29903 2.7381 8.29966 2.65842C8.30029 2.57874 8.33255 2.50257 8.38934 2.44668C8.44613 2.39078 8.5228 2.35974 8.60248 2.36037C8.68216 2.361 8.75832 2.39326 8.81422 2.45005C9.64 3.29036 10.1019 4.4219 10.1001 5.60005ZM2.81422 8.3293C2.84185 8.35742 2.86366 8.39071 2.87843 8.42726C2.89319 8.46381 2.90061 8.50291 2.90026 8.54233C2.89991 8.58175 2.8918 8.62071 2.8764 8.657C2.86099 8.69328 2.83859 8.72618 2.81047 8.7538C2.78235 8.78143 2.74906 8.80325 2.71251 8.81801C2.67596 8.83277 2.63686 8.84019 2.59744 8.83985C2.55802 8.8395 2.51906 8.83139 2.48277 8.81598C2.44649 8.80058 2.4136 8.77817 2.38597 8.75005C1.56029 7.90948 1.09766 6.77832 1.09766 5.60005C1.09766 4.42179 1.56029 3.29063 2.38597 2.45005C2.41329 2.42084 2.44617 2.39739 2.48269 2.38108C2.5192 2.36476 2.55861 2.35591 2.5986 2.35505C2.63858 2.35419 2.67834 2.36133 2.71552 2.37605C2.75271 2.39078 2.78657 2.41279 2.81513 2.4408C2.84368 2.4688 2.86635 2.50223 2.88179 2.53912C2.89724 2.57601 2.90515 2.61562 2.90507 2.65562C2.90498 2.69561 2.8969 2.73518 2.8813 2.77201C2.8657 2.80884 2.84289 2.84217 2.81422 2.87005C2.09919 3.59854 1.69861 4.57854 1.69861 5.5993C1.69861 6.62007 2.09919 7.60006 2.81422 8.32855V8.3293Z" fill="#1C1C1C"/>
</svg>
