<svg width="11" height="11" viewBox="0 0 11 11" fill="none" xmlns="http://www.w3.org/2000/svg">
<path d="M8.6002 6.20007H9.2002C9.27976 6.20007 9.35607 6.16846 9.41233 6.1122C9.46859 6.05594 9.5002 5.97963 9.5002 5.90007C9.5002 5.8205 9.46859 5.7442 9.41233 5.68794C9.35607 5.63168 9.27976 5.60007 9.2002 5.60007H8.6002V5.00007H9.2002C9.27976 5.00007 9.35607 4.96846 9.41233 4.9122C9.46859 4.85594 9.5002 4.77963 9.5002 4.70007C9.5002 4.6205 9.46859 4.5442 9.41233 4.48794C9.35607 4.43168 9.27976 4.40007 9.2002 4.40007H8.5852C8.51893 3.74163 8.23617 3.12375 7.7812 2.64319L8.51245 1.91232C8.54032 1.88445 8.56243 1.85136 8.57751 1.81494C8.5926 1.77852 8.60036 1.73949 8.60036 1.70007C8.60036 1.66065 8.5926 1.62162 8.57751 1.5852C8.56243 1.54878 8.54032 1.51569 8.51245 1.48782C8.48457 1.45995 8.45148 1.43784 8.41506 1.42275C8.37865 1.40767 8.33961 1.3999 8.3002 1.3999C8.26078 1.3999 8.22174 1.40767 8.18533 1.42275C8.14891 1.43784 8.11582 1.45995 8.08795 1.48782L7.32707 2.24907C6.82209 1.89185 6.21875 1.70003 5.6002 1.70003C4.98164 1.70003 4.3783 1.89185 3.87332 2.24907L3.11245 1.48782C3.05615 1.43153 2.9798 1.3999 2.9002 1.3999C2.82059 1.3999 2.74424 1.43153 2.68795 1.48782C2.63165 1.54411 2.60003 1.62046 2.60003 1.70007C2.60003 1.77968 2.63165 1.85603 2.68795 1.91232L3.4192 2.64319C2.96422 3.12375 2.68146 3.74163 2.6152 4.40007H2.0002C1.92063 4.40007 1.84432 4.43168 1.78806 4.48794C1.7318 4.5442 1.7002 4.6205 1.7002 4.70007C1.7002 4.77963 1.7318 4.85594 1.78806 4.9122C1.84432 4.96846 1.92063 5.00007 2.0002 5.00007H2.6002V5.60007H2.0002C1.92063 5.60007 1.84432 5.63168 1.78806 5.68794C1.7318 5.7442 1.7002 5.8205 1.7002 5.90007C1.7002 5.97963 1.7318 6.05594 1.78806 6.1122C1.84432 6.16846 1.92063 6.20007 2.0002 6.20007H2.6002V6.50007C2.6002 6.60132 2.60545 6.70145 2.6152 6.80007H2.0002C1.92063 6.80007 1.84432 6.83168 1.78806 6.88794C1.7318 6.9442 1.7002 7.02051 1.7002 7.10007C1.7002 7.17964 1.7318 7.25594 1.78806 7.3122C1.84432 7.36846 1.92063 7.40007 2.0002 7.40007H2.7382C2.92962 8.00919 3.31039 8.54136 3.82513 8.91915C4.33986 9.29694 4.9617 9.50065 5.6002 9.50065C6.23869 9.50065 6.86053 9.29694 7.37526 8.91915C7.89 8.54136 8.27077 8.00919 8.4622 7.40007H9.2002C9.27976 7.40007 9.35607 7.36846 9.41233 7.3122C9.46859 7.25594 9.5002 7.17964 9.5002 7.10007C9.5002 7.02051 9.46859 6.9442 9.41233 6.88794C9.35607 6.83168 9.27976 6.80007 9.2002 6.80007H8.5852C8.59495 6.70145 8.6002 6.60132 8.6002 6.50007V6.20007ZM5.6002 2.30007C6.18448 2.3008 6.74848 2.51442 7.18665 2.90095C7.62481 3.28748 7.9071 3.82043 7.9807 4.40007H3.2182C3.29182 3.82018 3.57433 3.28702 4.01281 2.90045C4.45128 2.51389 5.01565 2.30043 5.6002 2.30007ZM5.9002 8.88057V5.90007C5.9002 5.8205 5.86859 5.7442 5.81233 5.68794C5.75607 5.63168 5.67976 5.60007 5.6002 5.60007C5.52063 5.60007 5.44432 5.63168 5.38806 5.68794C5.3318 5.7442 5.3002 5.8205 5.3002 5.90007V8.88057C4.72056 8.80698 4.18761 8.52468 3.80107 8.08652C3.41454 7.64836 3.20092 7.08436 3.2002 6.50007V5.00007H8.0002V6.50007C7.99947 7.08436 7.78585 7.64836 7.39932 8.08652C7.01278 8.52468 6.47983 8.80698 5.9002 8.88057Z" fill="#1C1C1C"/>
</svg>
