<svg width="1341" height="1080" viewBox="0 0 1341 1080" fill="none" xmlns="http://www.w3.org/2000/svg">
<g clip-path="url(#clip0_11_20151)">
<path d="M670 1295.64C1027.88 1295.64 1318 1005.52 1318 647.64C1318 289.76 1027.88 -0.359985 670 -0.359985C312.12 -0.359985 22 289.76 22 647.64C22 1005.52 312.12 1295.64 670 1295.64Z" fill="#FFEEE6" fill-opacity="0.03"/>
<path d="M670 1150C968.234 1150 1210 908.234 1210 610C1210 311.766 968.234 70 670 70C371.766 70 130 311.766 130 610C130 908.234 371.766 1150 670 1150Z" fill="#934623" fill-opacity="0.18"/>
<path d="M670 1007C908.587 1007 1102 813.587 1102 575C1102 336.413 908.587 143 670 143C431.413 143 238 336.413 238 575C238 813.587 431.413 1007 670 1007Z" fill="#C65C2C" fill-opacity="0.19"/>
</g>
<defs>
<clipPath id="clip0_11_20151">
<rect width="1341" height="1080" fill="white"/>
</clipPath>
</defs>
</svg>
