<svg width="1341" height="1080" viewBox="0 0 1341 1080" fill="none" xmlns="http://www.w3.org/2000/svg">
<g clip-path="url(#clip0_168_2471)">
<path d="M670 1296C1027.88 1296 1318 1005.88 1318 648C1318 290.12 1027.88 0 670 0C312.12 0 22 290.12 22 648C22 1005.88 312.12 1296 670 1296Z" fill="#FFEEE6" fill-opacity="0.03"/>
<path d="M670 1188C968.234 1188 1210 946.234 1210 648C1210 349.766 968.234 108 670 108C371.766 108 130 349.766 130 648C130 946.234 371.766 1188 670 1188Z" fill="#934623" fill-opacity="0.18"/>
<path d="M670 1080C908.587 1080 1102 886.587 1102 648C1102 409.413 908.587 216 670 216C431.413 216 238 409.413 238 648C238 886.587 431.413 1080 670 1080Z" fill="#C65C2C" fill-opacity="0.19"/>
</g>
<defs>
<clipPath id="clip0_168_2471">
<rect width="1341" height="1080" fill="white"/>
</clipPath>
</defs>
</svg>
