<svg width="72" height="72" viewBox="0 0 72 72" fill="none" xmlns="http://www.w3.org/2000/svg">
<rect x="1" y="1" width="70" height="70" rx="35" fill="#FF4F00" fill-opacity="0.1"/>
<rect x="1" y="1" width="70" height="70" rx="35" stroke="url(#paint0_linear_301_38416)" stroke-opacity="0.5"/>
<path d="M27.8664 41.2224C25.7442 42.486 20.18 45.0662 23.569 48.2949C25.2245 49.872 27.0682 51 29.3863 51H42.6137C44.9318 51 46.7756 49.872 48.431 48.2949C51.8199 45.0662 46.2558 42.486 44.1336 41.2224C39.1572 38.2592 32.8428 38.2592 27.8664 41.2224Z" stroke="white" stroke-width="2.25" stroke-linecap="round" stroke-linejoin="round"/>
<path d="M42.75 27.75C42.75 31.4779 39.728 34.5 36 34.5C32.2721 34.5 29.25 31.4779 29.25 27.75C29.25 24.0221 32.2721 21 36 21C39.728 21 42.75 24.0221 42.75 27.75Z" stroke="white" stroke-width="2.25"/>
<defs>
<linearGradient id="paint0_linear_301_38416" x1="58" y1="61.5" x2="12.5" y2="9.5" gradientUnits="userSpaceOnUse">
<stop stop-color="#FFBA9A" stop-opacity="0.1"/>
<stop offset="1" stop-color="#FF4F00"/>
</linearGradient>
</defs>
</svg>
