<svg width="182" height="182" viewBox="0 0 182 182" fill="none" xmlns="http://www.w3.org/2000/svg">
<g filter="url(#filter0_bd_168_2537)">
<rect x="31" y="16" width="120" height="120" rx="60" fill="url(#paint0_linear_168_2537)" fill-opacity="0.04" shape-rendering="crispEdges"/>
<rect x="31" y="16" width="120" height="120" rx="60" stroke="url(#paint1_linear_168_2537)" stroke-opacity="0.82" stroke-width="0.75" shape-rendering="crispEdges"/>
<path d="M94.7277 91.4388C94.7277 91.7238 95.0839 91.4388 94.7277 91.4388V91.4388ZM86.7714 85.0263C86.0352 83.6013 87.6977 85.43 86.7714 85.0263V85.0263ZM74.8252 85.6913C74.8252 85.4063 75.1814 86.3088 74.8252 85.6913V85.6913ZM88.1252 86.6175C87.4839 85.62 87.6502 86.76 88.1252 87.3775C89.2652 88.4938 88.5527 86.76 88.1252 86.6175Z" fill="white"/>
<path d="M111.443 94.8442C110.066 96.4816 108.844 94.6623 107.207 95.1821C104.348 95.1821 107.441 93.8826 107.363 92.5831C105.855 91.4136 104.14 94.1685 103.152 94.9222C100.755 94.5083 98.4224 93.7831 96.2131 92.765C93.64 91.5635 91.3402 89.8475 89.4558 87.723C87.3472 85.6216 85.693 83.1093 84.5957 80.342C83.193 75.4917 82.4585 70.4727 82.4125 65.4239C82.5945 62.0452 86.1551 65.7877 87.6105 64.5662C87.0647 62.8249 84.2578 62.2791 82.6984 61.5514C81.191 61.5514 80.6453 60.122 79.0599 60.018C79.0599 58.1208 76.123 59.1603 75.0055 57.8349C76.097 55.028 71.4449 57.8349 71.8087 55.4698C73.3161 52.351 67.1826 52.8708 69.7296 55.6257C72.1986 57.0292 67.3125 58.0428 68.742 58.9784C68.8628 59.2132 68.921 59.4753 68.9108 59.7392C68.9007 60.0031 68.8225 60.2599 68.684 60.4847C68.5454 60.7095 68.3512 60.8948 68.12 61.0224C67.8888 61.1501 67.6286 61.216 67.3645 61.2135C65.4413 61.3955 65.6232 64.0464 67.5204 62.643C69.6256 61.9932 67.8843 62.9289 66.8707 63.1108C66.3358 63.1921 65.8283 63.4007 65.3908 63.7191C64.9533 64.0374 64.5987 64.4561 64.3567 64.9401C64.1147 65.424 63.9925 65.9589 64.0004 66.4999C64.0082 67.0409 64.1458 67.5721 64.4017 68.0488C65.417 70.966 66.2844 73.9326 67.0006 76.9373C68.6049 81.4921 70.9783 85.7379 74.0179 89.4903C75.6162 91.4963 77.5089 93.2488 79.6317 94.6883C81.5808 96.0309 83.706 97.0979 85.9472 97.859C89.9421 99.0358 94.0764 99.6739 98.2403 99.7563C100.766 99.7703 103.288 99.5616 105.777 99.1325C108.038 99.3664 109.65 97.4432 111.651 98.4568C112.898 97.3652 114.666 97.859 115.887 97.0534C116.719 93.8826 112.717 96.3516 111.443 94.8442ZM106.921 92.921C106.349 92.921 107.051 92.0373 106.921 92.921V92.921ZM87.0907 64.3323C86.8308 64.3323 86.8828 64.0204 86.6749 63.9425C84.5957 62.9808 87.6885 63.3447 87.0907 64.4363V64.3323ZM104.66 93.9346C103.75 93.7267 105.387 93.2848 104.66 93.9346V93.9346ZM97.3566 94.2205C96.7589 94.2205 97.8245 93.8566 97.3566 94.2205V94.2205ZM92.4706 91.1537C92.1327 91.1537 92.4706 90.8158 92.4706 91.1537V91.1537ZM91.8988 90.7119C90.9632 90.7119 91.6649 90.1141 91.8988 90.7119V90.7119ZM90.8072 89.7762C89.9496 89.9841 90.8072 88.8926 90.8072 89.7762V89.7762ZM75.2134 59.4722C73.8359 58.7445 75.4993 60.3299 74.3297 60.3039C73.706 60.3039 72.5365 58.9524 72.9263 58.2767C73.706 58.6925 75.0835 58.8225 75.3174 59.5762L75.2134 59.4722ZM72.8223 57.3671H72.5365C72.4585 56.6653 74.7976 57.2111 72.9263 57.471L72.8223 57.3671ZM70.1714 55.3139C69.0798 54.8201 70.1714 52.8968 71.3149 53.8065C72.6404 55.7037 68.8459 53.5985 70.1714 55.3139ZM71.4449 57.1072C70.7432 57.393 71.8607 56.5614 71.4449 57.1072V57.1072ZM72.6924 59.4982C74.2518 60.6937 71.8087 59.4982 70.8211 60.2519C69.2358 60.4079 72.5365 59.3683 72.6924 59.4982ZM73.1342 61.0576C74.0439 61.0576 78.0203 59.2643 76.6948 60.8757C77.9163 62.3051 76.9547 61.8373 76.149 60.8757C76.8767 61.3695 76.305 63.4746 75.1874 62.0452C74.0699 60.6158 73.8879 61.5774 74.7456 62.591C73.9139 60.9017 71.5229 61.6294 69.7815 62.2011C68.664 62.0972 72.7184 61.2395 73.1342 61.0576ZM68.1442 64.8261C67.7284 65.8657 68.7679 66.2036 69.7556 66.3855C71.3669 65.9437 68.69 65.6578 69.9115 65.2419C70.5872 65.2419 67.7803 64.5662 70.1194 64.2543C72.4585 63.9425 74.6676 62.9029 77.0327 62.4091C79.0368 61.9684 81.0914 61.8023 83.1403 61.9153C83.92 62.8249 82.5425 64.3583 81.1391 64.5142C79.4526 65.0567 77.7078 65.3969 75.9411 65.5278C73.8619 65.2679 72.3805 67.1132 70.2494 67.3471C70.8211 66.3075 69.7815 66.9832 68.716 66.9313C69.2618 69.0624 64.8955 66.3855 67.4685 65.8657C65.5452 65.19 65.5192 67.2172 65.7272 68.4647C64.0378 66.0996 65.9091 65.112 68.1442 64.8261ZM73.0303 67.633C72.4585 67.503 73.4721 67.1132 73.0303 67.633V67.633ZM71.159 69.9201C71.159 69.9201 70.2754 69.7122 70.6392 69.4783C73.2382 69.8161 68.3001 68.6206 70.9771 68.9065C72.6924 68.8545 72.1206 69.8421 71.159 69.9201ZM72.0167 70.3619C71.7048 70.6738 72.0167 69.7382 72.0167 70.3619V70.3619ZM70.1714 70.3619C69.0278 70.128 70.7172 69.7901 70.1714 70.3619V70.3619ZM70.0155 74.0784C69.7556 73.8705 69.8335 74.3383 70.0155 74.0784V74.0784ZM69.2358 73.6366C67.8063 73.1428 69.2358 73.0908 69.2358 73.6366V73.6366ZM68.9239 76.9633C68.2482 76.7294 68.2741 75.6638 67.9623 75.092C66.9747 72.4151 69.0278 76.1316 68.8199 76.9633H68.9239ZM69.5217 73.0908C67.7284 72.8829 69.3917 71.8173 69.5217 73.0908V73.0908ZM69.5217 72.2072H69.2877C67.3125 71.2975 70.4573 71.7654 69.2358 72.2072H69.5217ZM69.2358 70.154C67.6504 69.3483 70.7432 69.2184 69.2358 70.154V70.154ZM69.7815 70.8297C68.8979 70.9857 69.9115 69.9981 69.7815 70.8297V70.8297ZM66.4029 71.0117C66.091 71.2196 66.4029 70.4139 66.4029 71.0117V71.0117ZM66.6368 70.6478C66.221 70.6478 66.6368 69.9461 66.6368 70.6478V70.6478ZM66.8447 68.0488C65.8051 67.7889 67.7024 67.3991 66.8447 68.0488V68.0488ZM67.5204 73.2468C66.3769 72.9869 67.2086 71.5574 67.5204 73.2468V73.2468ZM68.3001 76.4955C69.3917 77.821 68.9759 78.5487 70.0934 80.16C68.638 79.2504 68.3521 77.0413 67.4945 75.6118C66.4289 73.2728 68.0922 75.5858 68.3001 76.4955ZM78.9299 93.0769C78.0463 92.895 77.4485 91.9594 76.8248 91.3616C75.0506 90.063 73.6445 88.3255 72.7444 86.3196C71.2481 84.409 69.975 82.3337 68.9499 80.134C67.8843 77.743 69.5996 80.316 69.8595 81.2256C70.4053 82.9929 72.1466 84.0065 72.3026 85.1761C74.2258 86.2676 73.2382 88.0869 74.9015 88.5807C75.6032 88.2168 75.6812 90.7638 77.2146 90.244C76.3569 90.6339 77.5525 91.1017 77.9943 91.8294C78.9039 91.6995 81.0351 93.9606 78.9299 93.1809V93.0769ZM70.8471 76.4955C70.0414 76.3136 71.7048 76.2096 70.8471 76.4955V76.4955ZM71.3669 77.717C69.9375 77.3531 72.7184 77.1972 71.3669 77.717V77.717ZM74.9795 78.9385C76.0191 78.4967 75.3953 80.9657 76.4089 81.2776C78.3841 83.8766 75.0315 81.2776 73.81 81.0957C73.9659 81.0957 72.8223 80.7838 73.3162 80.6798C72.9523 80.29 72.1466 78.9645 73.9919 79.8482C75.5513 80.4719 75.6812 80.0041 74.9795 78.8346V78.9385ZM78.3841 83.5127C78.3841 83.9026 76.5129 83.8506 78.2282 84.6043C77.2406 84.6043 76.9287 84.6043 78.2282 85.384C77.6564 85.8258 79.3458 86.1896 78.774 86.8654C80.4893 88.2168 78.4621 87.2032 77.7344 86.6575C77.0067 86.1117 75.5253 85.7478 75.7852 85.358C77.8903 86.4495 76.331 85.358 75.3953 84.5783C77.0847 84.9941 74.0699 83.3308 75.6552 83.7726C76.149 83.9026 74.9535 82.785 76.5129 83.5907C75.1094 82.2392 77.7344 83.2788 78.3841 83.4088V83.5127ZM79.6317 83.0709C78.0463 82.707 79.6317 82.1872 79.6317 83.0709V83.0709ZM79.1898 88.2688C77.6045 87.5931 80.2034 88.2688 79.1898 88.2688V88.2688ZM78.0203 87.827C76.175 87.2292 79.3718 87.827 78.0203 87.827V87.827ZM77.7864 88.1129C77.2146 88.1129 77.7864 87.6711 77.7864 88.1129V88.1129ZM74.9795 84.0845C73.1082 83.3048 74.4597 83.2268 74.9795 84.0845V84.0845ZM73.576 83.1748C72.0686 82.3172 73.3681 82.3172 73.576 83.1748V83.1748ZM73.576 84.8642C72.0946 83.7206 73.3941 84.2144 73.576 84.8642V84.8642ZM73.1862 81.3816C72.2766 81.3816 73.5241 80.8618 73.1862 81.3816V81.3816ZM79.6317 90.478C78.3062 90.0881 79.6317 90.1141 79.6317 90.478V90.478ZM78.67 89.4903H78.2542C76.4869 88.0869 79.0599 88.5027 80.2034 89.1265C82.7244 89.4903 79.6317 90.1401 78.67 89.4903ZM85.6873 93.7786C83.92 93.3628 86.1031 93.0769 85.6873 93.7786V93.7786ZM85.2454 92.4272C84.9855 92.1413 85.1155 92.4272 85.2454 92.4272V92.4272ZM83.0103 88.9446C81.4769 88.5807 83.5561 88.4508 83.9459 88.9446C86.5969 89.4903 83.79 89.6203 83.0103 88.9446ZM83.5561 92.0893H83.2702L82.9323 91.9334C81.4769 90.4 86.0251 92.6611 83.5561 92.0893ZM82.8284 93.8826C82.4385 94.0385 82.8284 93.5187 82.8284 93.8826V93.8826ZM83.5821 90.7898L83.1663 90.6599C81.4509 89.4903 85.3494 90.8938 83.5821 90.6599V90.7898ZM83.9979 95.2601C82.9583 94.8442 84.6737 94.6103 83.9979 95.2601V95.2601ZM84.2578 93.3368C82.7504 92.973 85.1935 92.999 84.2578 93.3368V93.3368ZM84.5957 91.7514C83.4521 91.5955 84.7256 91.2057 84.5957 91.7514V91.7514ZM82.7244 89.4644C83.92 89.6203 83.9459 90.1661 82.7244 89.8282C82.4905 89.8282 82.1007 89.8282 81.9967 89.3864C80.0215 88.0869 82.0747 88.7366 82.7244 89.3344V89.4644ZM82.5685 94.6623C82.0487 94.9742 82.5685 94.0905 82.5685 94.6623V94.6623ZM81.7628 93.3368C80.3854 93.3368 82.8024 92.6611 81.7628 93.3368V93.3368ZM81.4509 94.2465C80.7752 93.9866 81.8928 94.0385 81.4509 94.2465V94.2465ZM82.2306 91.9334C80.8792 91.5695 82.8804 91.4656 82.2306 91.9334V91.9334ZM81.8148 90.452C81.0871 90.452 81.6588 90.0361 81.8148 90.452V90.452ZM80.4113 87.9829C78.9299 86.7874 83.4781 88.9706 80.4113 87.9829V87.9829ZM80.2554 88.4767C79.9695 88.2428 80.2554 88.6327 80.2554 88.4767V88.4767ZM89.7417 98.3009C87.4292 97.8882 85.1883 97.1441 83.0883 96.0917L82.2306 95.5719C80.7492 94.7663 80.9311 94.5843 82.3866 95.39C82.8804 95.8058 86.5189 97.2873 84.8036 96.2997C84.0499 96.1177 79.8656 93.8306 82.6205 94.8182C84.916 96.0353 87.2958 97.0862 89.7417 97.963C91.809 98.4535 93.9452 98.5854 96.0572 98.3528C97.7465 99.2105 99.5138 98.1449 101.255 98.8986C97.3942 99.3639 93.482 99.1617 89.6897 98.3009H89.7417ZM86.4929 96.4816C85.1675 96.2477 86.9088 95.8838 86.4929 96.4816V96.4816ZM88.3902 93.8826C86.8828 93.5967 89.9496 93.2848 88.3902 93.8826V93.8826ZM90.5733 97.2873C93.1723 98.2489 89.0139 97.5991 88.1563 97.0534C85.7652 96.0657 90.0275 97.2873 90.5733 97.2873ZM87.8184 94.4284C85.7132 94.1165 90.1575 94.4284 87.8184 94.4284V94.4284ZM91.7688 96.6375C91.0151 97.2353 91.7688 95.8578 91.7688 96.6375V96.6375ZM92.5225 96.7675C92.1327 96.9234 92.5225 96.3256 92.5225 96.7675V96.7675ZM93.2243 95.7799C92.8084 96.2996 93.2243 95.1821 93.2243 95.7799V95.7799ZM94.03 95.7799C92.8604 96.2217 95.2515 94.7663 94.03 95.7799V95.7799ZM94.3938 95.7799C95.6673 94.6883 95.7193 95.2081 95.6933 96.1177C94.5757 97.3652 95.2515 95.5979 94.5497 96.2737C93.848 96.9494 94.0559 96.0138 94.3938 95.8318V95.7799ZM96.551 96.9494C95.2515 96.9494 97.8764 95.5459 96.551 96.9494V96.9494ZM96.551 97.4172C96.0312 97.5472 96.551 97.0793 96.551 97.4172V97.4172ZM96.1351 96.5076C95.1215 95.8318 98.5782 94.9222 96.1351 96.5076V96.5076ZM97.6165 96.7415H97.4086C97.3306 96.1437 98.8121 96.0397 97.6165 96.7935V96.7415ZM98.0064 97.2353C97.2267 97.0274 99.2279 96.1957 98.0064 97.2353V97.2353ZM98.942 96.9754C97.6165 97.4432 100.19 95.9358 98.942 96.9754V96.9754ZM99.5138 97.2613L99.2019 97.4692C98.6041 97.1053 101.047 96.2217 99.5138 97.2873V97.2613ZM98.3962 95.8838C96.9928 95.416 94.7577 93.9086 93.1983 94.9222C91.1191 96.2477 94.2639 93.4668 92.5745 94.7143C90.8592 96.7675 91.405 93.4148 89.7417 94.4284C89.7417 94.1165 88.2602 94.0126 89.2998 93.4668C88.3642 93.4668 88.962 93.3368 89.2998 92.5831C88.884 92.5831 86.7009 92.5831 85.7652 91.8294C84.7256 90.478 85.9472 91.0497 87.0127 91.2317C85.2714 91.5435 87.6365 92.5311 88.78 91.9854C88.2602 91.7514 87.6625 90.6339 86.1811 89.6463C84.3918 88.6654 82.5429 87.7974 80.6453 87.0473C78.4621 85.7478 81.1131 86.5795 81.8668 87.2552C84.0499 88.2168 83.1922 85.9298 81.8668 85.332C80.4633 85.332 80.1255 83.7986 79.0079 83.8766C80.7492 84.1625 81.9707 83.4347 80.0215 81.6674C78.0723 79.9001 80.8012 83.3048 79.7356 82.811C79.2418 82.1612 79.6057 81.2516 78.0463 80.9137C78.0463 81.5115 77.8384 82.4211 77.5005 81.1736C77.0587 81.1736 76.5649 81.7194 76.201 80.4459C76.5389 78.9645 74.7456 78.6266 74.4597 77.691C76.0191 78.6786 76.7208 77.8989 75.6292 76.8334C74.5377 75.7678 74.7716 76.5475 74.3557 76.8334C72.8223 78.3927 74.1998 74.2344 73.5241 75.3779C72.8483 75.3779 73.2382 76.1316 73.2642 77.0673C71.0291 76.5215 73.784 78.2368 74.4337 79.1724C73.4201 78.1328 73.602 79.9781 72.7444 79.1724C72.4585 78.3927 72.4325 77.1712 71.0031 76.9633C72.6144 76.3915 70.0674 75.274 70.2754 75.222C71.185 74.3903 71.3149 73.2468 72.4065 75.0401C71.0291 75.0401 72.4065 77.3272 72.7184 76.5994C72.7184 75.3779 73.2902 74.0005 71.185 73.5067C70.5612 74.3383 69.4957 71.8693 70.7172 72.3891C70.5612 70.7518 72.6404 71.7134 72.5105 71.0117C73.602 70.5438 71.211 69.0104 72.5105 68.4127C73.4981 69.0364 76.0451 67.4771 74.3297 67.2691C75.4213 67.2691 76.279 67.7369 76.3829 66.6454C77.2406 66.8273 79.6057 67.581 77.4745 66.4115C78.4099 66.0311 79.4028 65.8114 80.4113 65.7617C82.4645 64.1764 82.0487 68.3607 81.5809 69.5302C82.3606 68.9845 82.2046 71.9733 81.9447 73.0908C82.3606 72.5191 82.5425 74.0265 81.9447 75.092C81.9447 74.9101 82.9843 74.7542 82.2566 76.0017C81.6848 74.7802 81.4509 78.6007 81.8148 76.8334C82.7764 75.248 82.5425 76.8334 82.8284 77.4571C83.0363 78.8865 83.6601 80.212 83.868 81.5115C84.7776 82.4211 83.4781 81.7974 83.4781 83.0449C83.764 82.681 84.9855 83.5387 84.9595 84.8122C84.9595 82.785 85.1935 84.3444 86.1811 84.8122C86.8457 86.1727 87.723 87.4185 88.78 88.5027C89.7417 89.6203 88.78 88.8406 89.1439 89.5163C89.7853 90.4016 90.5954 91.1512 91.5276 91.7221C92.4598 92.2931 93.4957 92.674 94.5757 92.843C94.976 93.5389 95.5866 94.0899 96.3198 94.4168C97.053 94.7437 97.871 94.8297 98.6561 94.6623C97.0967 95.6239 103.022 95.8838 101.021 96.4036C100.423 96.8194 99.4098 95.8838 98.3962 95.9358V95.8838ZM81.4509 86.6055C80.8272 86.6055 81.4509 86.0857 81.4509 86.6055V86.6055ZM82.4385 87.1773C81.9707 87.1773 82.1267 86.5535 82.4385 87.1773V87.1773ZM75.6552 77.691C75.0315 77.5091 75.9151 77.4571 75.6552 77.691V77.691ZM74.1218 77.691C73.4461 77.691 74.1218 76.8074 74.1218 77.691V77.691ZM73.3421 77.4831C73.0822 77.613 73.3421 77.1972 73.3421 77.4831V77.4831ZM101.931 98.9246C100.917 98.7427 102.762 98.3528 101.931 98.9246V98.9246ZM103.828 96.1957H103.048C103.204 95.0262 106.505 95.9358 107.856 95.9618C107.441 96.8454 104.92 96.0657 103.828 96.2997V96.1957ZM109.026 96.1957C108.324 96.1957 109.338 95.364 109.026 96.1957V96.1957ZM111.625 95.9618C110.975 96.2996 111.625 95.1821 111.625 95.9618V95.9618ZM112.873 96.2477C111.521 95.9358 113.496 95.9358 113.912 95.8838C116.355 95.9358 113.912 96.2997 112.691 96.2997L112.873 96.2477Z" fill="white"/>
<path d="M77.4616 64.8865C79.8366 64.4115 76.5591 64.1027 75.8229 64.8865C76.2504 65.1952 76.7966 64.3877 77.4616 64.8865ZM75.5141 65.1952C75.5141 65.6465 75.9416 64.6727 75.5141 65.1952V65.1952ZM81.7366 64.0552C83.3279 63.794 81.9979 63.0815 81.5229 64.2927C81.6891 64.6252 81.7841 64.174 81.7366 64.0552ZM80.2641 64.2927C80.1454 61.9177 82.4729 65.1477 80.2641 64.2927V64.2927ZM73.3291 66.5015C73.61 66.4873 73.8871 66.5712 74.1129 66.739C75.8941 67.974 73.8754 64.744 73.3291 66.5015Z" fill="white"/>
<path d="M73.4238 65.6459C73.8038 65.9546 74.1126 65.1471 73.4238 65.6459V65.6459ZM74.3026 65.6696L74.6351 65.9546C76.2501 66.0971 74.3738 64.8621 74.3026 65.6696ZM87.3888 85.9996C87.3888 85.0734 87.6026 86.7121 87.3888 85.9996V85.9996ZM76.0363 74.1246C76.2738 74.5521 76.4638 73.6971 76.0363 74.1246V74.1246ZM76.2501 75.5734C76.2501 74.3621 76.7013 76.3809 76.2501 75.5734V75.5734ZM76.7488 74.4096C76.0838 73.1746 77.5326 74.9084 76.7488 74.4096V74.4096ZM75.7751 72.4621C75.9413 72.8184 76.3451 72.8421 76.6538 72.9371C79.7888 74.3859 74.3976 70.5621 75.7751 72.4621ZM77.0576 75.8584C77.4851 74.9796 77.7938 77.1171 77.0576 75.8584V75.8584ZM78.1976 75.4784C79.0763 77.6634 77.6513 75.1934 77.4851 74.4571C77.5054 75.2919 77.734 76.1082 78.1501 76.8321C78.9576 78.0434 78.6013 76.1671 79.4563 77.3784C78.9813 76.3096 79.6938 76.9034 79.5988 76.4284C79.5038 75.9534 77.2238 73.6496 78.1976 75.4784ZM79.0526 79.7059C79.2663 80.4421 79.4801 79.7059 79.0526 79.7059V79.7059ZM75.8938 69.3746C76.0363 69.7071 76.1551 69.3746 75.8938 69.3746V69.3746ZM77.4851 70.3721C77.8888 69.5171 78.2451 71.3459 77.4851 70.3721V70.3721ZM75.3713 73.0796L75.7038 73.4359C78.0551 74.1246 73.2101 71.1796 75.3713 73.0796ZM77.0338 72.2009C79.4088 73.1746 76.8201 71.5596 75.9888 71.7259C76.2501 72.0346 76.7488 71.8921 77.0338 72.2009ZM76.6063 71.1559C77.0338 71.5834 78.5538 72.3671 77.3426 71.2984C78.1026 71.1559 77.3426 70.9184 76.7726 70.5384C75.7276 68.9471 76.9388 70.6809 76.6063 71.1559Z" fill="white"/>
<path d="M75.0867 73.2704C73.8279 72.2254 75.4667 73.7692 74.9442 73.7454C73.6379 72.7954 74.1842 73.4842 74.9442 74.2204C75.7279 75.4079 76.3692 73.5079 75.0867 73.2704ZM80.1692 74.7904C80.0267 73.1754 80.4542 75.0517 80.1692 74.7904V74.7904ZM82.5917 66.4779C82.5917 66.7629 82.7579 66.2404 82.5917 66.4779V66.4779ZM83.3754 77.6167C83.3754 77.1892 83.3754 78.1154 83.3754 77.6167V77.6167ZM82.6867 74.7192C82.8767 75.8117 82.9242 72.8667 82.6867 74.7192V74.7192ZM83.0192 75.2417V75.4792C83.5179 74.2679 83.1142 73.6029 83.0192 75.2417ZM82.7817 68.8292C82.4492 70.4917 82.1404 69.8029 82.5917 68.5679C82.4729 66.9767 81.5229 69.5417 81.9504 70.2779C82.6392 71.3942 83.3754 67.5229 82.7817 68.8292ZM85.1804 83.0317C85.4417 82.0342 85.4892 83.8629 85.1804 83.0317V83.0317ZM81.9742 72.8667C81.9742 72.5342 81.9742 73.3417 81.9742 72.8667V72.8667ZM83.4942 76.9042C83.4942 77.5217 83.7554 76.0017 83.4942 76.9042V76.9042ZM84.5629 81.2504L84.7292 81.5117C85.0617 80.3479 83.8742 79.6354 84.5629 81.2504ZM80.8579 80.0154C80.5492 79.4692 81.4992 80.5379 80.8579 80.0154V80.0154ZM83.7792 77.9967C83.7792 76.9992 83.9692 78.6854 83.7792 77.9967V77.9967ZM81.3329 71.2992C81.2142 70.6579 81.6892 72.0829 81.3329 71.2992V71.2992Z" fill="white"/>
<path d="M81.7125 72.2966C81.095 70.7766 82.2825 73.1041 81.7125 72.2966V72.2966ZM81.57 75.0279C81.2613 72.6529 80.5725 76.0966 81.57 76.6666C81.8788 77.4741 82.1638 77.1416 82.2825 76.2154C81.5225 76.2154 82.4725 74.7429 81.57 75.0279Z" fill="white"/>
</g>
<defs>
<filter id="filter0_bd_168_2537" x="0.624998" y="0.624999" width="180.75" height="180.75" filterUnits="userSpaceOnUse" color-interpolation-filters="sRGB">
<feFlood flood-opacity="0" result="BackgroundImageFix"/>
<feGaussianBlur in="BackgroundImageFix" stdDeviation="7.5"/>
<feComposite in2="SourceAlpha" operator="in" result="effect1_backgroundBlur_168_2537"/>
<feColorMatrix in="SourceAlpha" type="matrix" values="0 0 0 0 0 0 0 0 0 0 0 0 0 0 0 0 0 0 127 0" result="hardAlpha"/>
<feOffset dy="15"/>
<feGaussianBlur stdDeviation="15"/>
<feComposite in2="hardAlpha" operator="out"/>
<feColorMatrix type="matrix" values="0 0 0 0 0 0 0 0 0 0 0 0 0 0 0 0 0 0 0.1 0"/>
<feBlend mode="normal" in2="effect1_backgroundBlur_168_2537" result="effect2_dropShadow_168_2537"/>
<feBlend mode="normal" in="SourceGraphic" in2="effect2_dropShadow_168_2537" result="shape"/>
</filter>
<linearGradient id="paint0_linear_168_2537" x1="31" y1="9.69747" x2="190.482" y2="78.4497" gradientUnits="userSpaceOnUse">
<stop stop-color="white" stop-opacity="0.7"/>
<stop offset="1" stop-color="#FF4F00"/>
</linearGradient>
<linearGradient id="paint1_linear_168_2537" x1="31" y1="76" x2="123.974" y2="25.8733" gradientUnits="userSpaceOnUse">
<stop stop-color="#FF4F00" stop-opacity="0.1"/>
<stop offset="1" stop-color="#FF4F00"/>
</linearGradient>
</defs>
</svg>
