<svg width="182" height="182" viewBox="0 0 182 182" fill="none" xmlns="http://www.w3.org/2000/svg">
<g filter="url(#filter0_bd_168_2552)">
<rect x="31" y="16" width="120" height="120" rx="60" fill="url(#paint0_linear_168_2552)" fill-opacity="0.04" shape-rendering="crispEdges"/>
<rect x="31" y="16" width="120" height="120" rx="60" stroke="url(#paint1_linear_168_2552)" stroke-opacity="0.82" stroke-width="0.75" shape-rendering="crispEdges"/>
<path d="M102.165 58C102.018 58 101.878 58.0581 101.774 58.1616C101.671 58.265 101.613 58.4053 101.613 58.5516V68.659L99.3219 67.3223C99.1804 67.2386 99.0191 67.1945 98.8548 67.1945C98.6905 67.1945 98.5292 67.2386 98.3878 67.3223L92.8827 70.5326C92.742 70.6139 92.6251 70.7308 92.5437 70.8715C92.4624 71.0122 92.4195 71.1718 92.4194 71.3343V77.7624C92.4194 78.0934 92.5959 78.3986 92.8827 78.5641L98.3878 81.7745C98.5292 81.8582 98.6905 81.9023 98.8548 81.9023C99.0191 81.9023 99.1804 81.8582 99.3219 81.7745L104.827 78.5641C104.968 78.4829 105.085 78.366 105.166 78.2253C105.247 78.0846 105.29 77.925 105.29 77.7624V60.2616C105.29 60.1013 105.248 59.9438 105.168 59.8048C105.088 59.6658 104.973 59.5501 104.834 59.4691L102.438 58.0754C102.356 58.0267 102.262 58.0007 102.166 58H102.165ZM84.1452 67.1972C83.9812 67.197 83.8201 67.2402 83.6781 67.3223L78.173 70.5326C78.0323 70.6139 77.9154 70.7308 77.8341 70.8715C77.7527 71.0122 77.7098 71.1718 77.7097 71.3343V77.7624C77.7097 78.0934 77.8862 78.3986 78.173 78.5641L83.6781 81.7745C83.9668 81.94 84.3217 81.94 84.6122 81.7745L90.1173 78.5641C90.258 78.4829 90.3749 78.366 90.4563 78.2253C90.5376 78.0846 90.5805 77.925 90.5806 77.7624V71.3343C90.5809 71.1717 90.5381 71.012 90.4568 70.8712C90.3754 70.7304 90.2583 70.6136 90.1173 70.5326L84.6122 67.3223C84.4703 67.2402 84.3091 67.197 84.1452 67.1972ZM113.565 67.1972C113.4 67.1964 113.239 67.2396 113.097 67.3223L107.592 70.5326C107.452 70.6139 107.335 70.7308 107.253 70.8715C107.172 71.0122 107.129 71.1718 107.129 71.3343V77.7624C107.129 78.0934 107.306 78.3986 107.592 78.5641L112.932 81.7911C113.073 81.8767 113.235 81.9226 113.4 81.9239C113.565 81.9252 113.727 81.8818 113.87 81.7984L116.495 80.2723C116.557 80.2359 116.608 80.184 116.644 80.1218C116.68 80.0596 116.698 79.9891 116.698 79.9174C116.698 79.8457 116.68 79.7753 116.644 79.713C116.608 79.6508 116.557 79.5989 116.495 79.5625L110.806 76.2106V72.9119L113.565 71.3067L116.323 72.9119V75.2103C116.323 75.5174 116.58 75.5652 116.753 75.4622C117.682 74.9195 118.613 74.3783 119.544 73.8386C119.683 73.7578 119.798 73.6421 119.878 73.5031C119.957 73.3641 120 73.2066 120 73.0462V71.3362C120 71.1736 119.957 71.0138 119.876 70.873C119.795 70.7322 119.678 70.6155 119.537 70.5345L114.032 67.3241C113.89 67.2417 113.729 67.1985 113.565 67.1991V67.1972ZM69.4355 67.2009C69.2714 67.2001 69.1102 67.2433 68.9685 67.3259L63.4634 70.5326C63.3224 70.6146 63.2055 70.7322 63.1242 70.8735C63.0429 71.0148 63.0001 71.175 63 71.338V79.5442C63 79.945 63.4339 80.1932 63.7796 79.9928L66.2214 78.5715C66.3601 78.4903 66.4751 78.3743 66.5551 78.235C66.6351 78.0957 66.6773 77.9378 66.6774 77.7772V72.9175L69.4355 71.3086L72.1935 72.9175V77.7772C72.1938 77.9376 72.2361 78.0951 72.316 78.2341C72.396 78.3731 72.511 78.4888 72.6495 78.5696L75.0914 79.9928C75.1702 80.0388 75.2598 80.0631 75.351 80.0633C75.4423 80.0636 75.532 80.0398 75.6111 79.9942C75.6902 79.9487 75.7559 79.8831 75.8015 79.8041C75.8471 79.7251 75.8711 79.6354 75.871 79.5442V71.338C75.8709 71.175 75.8281 71.0148 75.7468 70.8735C75.6655 70.7322 75.5485 70.6146 75.4076 70.5326L69.9025 67.3259C69.7608 67.2433 69.5995 67.2001 69.4355 67.2009ZM98.8548 71.3049L101.613 72.9138V76.183L98.8548 77.7919L96.0968 76.183V72.9119L98.8548 71.3031V71.3049ZM113.565 72.717L111.989 73.6364V75.4714L113.565 76.3871L115.14 75.4714V73.6364L113.565 72.717ZM91.3272 80.0608C91.1362 80.0598 90.9481 80.1079 90.7811 80.2006L85.6106 83.1903C85.4442 83.2847 85.3059 83.4216 85.21 83.587C85.114 83.7525 85.0638 83.9405 85.0645 84.1317V90.1002C85.0645 90.4845 85.2796 90.8467 85.6106 91.0416L86.9713 91.8175C87.624 92.1393 87.8649 92.1393 88.1609 92.1393C89.1354 92.1393 89.6907 91.5564 89.6907 90.5268V84.63C89.6912 84.6099 89.6877 84.5899 89.6803 84.5712C89.6729 84.5525 89.6619 84.5354 89.6479 84.521C89.6338 84.5066 89.617 84.4952 89.5985 84.4874C89.58 84.4796 89.56 84.4756 89.5399 84.4756H88.8854C88.8444 84.4756 88.8051 84.4919 88.7761 84.5208C88.7472 84.5498 88.7309 84.5891 88.7309 84.63V90.5268C88.7309 90.9736 88.2584 91.4333 87.4879 91.049L86.0721 90.2326C86.049 90.218 86.0299 90.198 86.0164 90.1743C86.0029 90.1505 85.9956 90.1238 85.9949 90.0965V84.1281C85.9949 84.0747 86.0206 84.0122 86.074 83.9846L91.2444 81.0041C91.2692 80.9904 91.297 80.9832 91.3253 80.9832C91.3536 80.9832 91.3815 80.9904 91.4062 81.0041L96.5822 83.9828C96.6355 84.0122 96.6613 84.0655 96.6613 84.1281V90.0965C96.6611 90.1251 96.6538 90.1532 96.64 90.1783C96.6262 90.2034 96.6063 90.2246 96.5822 90.2399L91.4062 93.2315C91.3815 93.2452 91.3536 93.2524 91.3253 93.2524C91.297 93.2524 91.2692 93.2452 91.2444 93.2315L89.9242 92.4445C89.8875 92.4262 89.8323 92.417 89.7974 92.4354C89.5554 92.5905 89.293 92.7112 89.0177 92.7939C88.9276 92.8215 88.8063 92.8766 89.0655 93.0201L90.7811 94.0405C90.9488 94.1318 91.1362 94.181 91.3272 94.184C91.5174 94.1859 91.7043 94.1336 91.8659 94.0332L97.0382 91.0416C97.2046 90.9473 97.3429 90.8104 97.4388 90.6449C97.5348 90.4795 97.585 90.2915 97.5843 90.1002V84.1317C97.5819 83.9411 97.5304 83.7543 97.4347 83.5894C97.339 83.4245 97.2025 83.2871 97.0382 83.1903L91.8659 80.2024C91.7017 80.1093 91.5159 80.0611 91.3272 80.0627V80.0608ZM99.3936 82.8152C99.2632 82.8155 99.1341 82.8414 99.0138 82.8915C98.8934 82.9416 98.7841 83.015 98.692 83.1073C98.6 83.1997 98.5271 83.3093 98.4774 83.4299C98.4277 83.5504 98.4023 83.6796 98.4025 83.81C98.4028 83.9404 98.4287 84.0694 98.4788 84.1898C98.5289 84.3102 98.6023 84.4195 98.6946 84.5115C98.787 84.6035 98.8966 84.6765 99.0172 84.7262C99.1377 84.7758 99.2669 84.8013 99.3973 84.801C99.6606 84.8005 99.9129 84.6955 100.099 84.5089C100.285 84.3224 100.389 84.0696 100.388 83.8063C100.388 83.543 100.283 83.2906 100.096 83.1047C99.9097 82.9189 99.6569 82.8147 99.3936 82.8152ZM99.3825 82.9734C99.8496 82.9734 100.228 83.3411 100.228 83.8063C100.225 84.0296 100.135 84.2428 99.977 84.4007C99.819 84.5586 99.6058 84.6488 99.3825 84.6521C99.1605 84.6497 98.9485 84.5593 98.793 84.4007C98.6375 84.2421 98.5513 84.0283 98.5533 83.8063C98.5526 83.697 98.5735 83.5887 98.6149 83.4875C98.6562 83.3864 98.7172 83.2944 98.7943 83.217C98.8714 83.1396 98.9631 83.0781 99.0641 83.0363C99.165 82.9945 99.2733 82.9731 99.3825 82.9734ZM99.0203 83.2436V84.3597H99.2318V83.9148H99.4304C99.5113 83.9148 99.5296 83.9479 99.548 84.0104C99.548 84.0196 99.5811 84.3101 99.5903 84.3634H99.8202C99.791 84.2665 99.7731 84.1666 99.7668 84.0655C99.7411 83.9221 99.7337 83.8228 99.5811 83.8136C99.662 83.7861 99.7963 83.7438 99.7963 83.5378C99.7963 83.2418 99.5388 83.2436 99.4046 83.2436H99.0203ZM99.2318 83.422H99.412C99.4671 83.422 99.5738 83.422 99.5738 83.5728C99.5738 83.6353 99.5462 83.7383 99.4009 83.7346H99.2318V83.422ZM92.7135 84.334C91.2371 84.334 90.36 84.9647 90.36 86.0017C90.36 87.138 91.2389 87.4414 92.6529 87.583C94.3445 87.754 94.4769 87.9967 94.4769 88.3277C94.4769 88.9087 94.0098 89.1496 92.9176 89.1496C91.5478 89.1496 91.2481 88.8113 91.1488 88.1309C91.1396 88.0574 91.0753 88.0041 90.9944 88.0041H90.3214C90.3013 88.0041 90.2814 88.0081 90.2628 88.0159C90.2443 88.0237 90.2275 88.0351 90.2135 88.0495C90.1994 88.0639 90.1884 88.081 90.181 88.0997C90.1737 88.1184 90.1701 88.1384 90.1706 88.1585C90.1706 89.0264 90.645 90.0653 92.9085 90.0653C94.5688 90.0653 95.5084 89.4217 95.5084 88.2927C95.5084 87.1748 94.7545 86.8769 93.1622 86.6618C91.5515 86.4467 91.3915 86.3382 91.3915 85.9613C91.3915 85.6487 91.5239 85.2386 92.7154 85.2386C93.7782 85.2386 94.1753 85.4722 94.3371 86.1874C94.3555 86.261 94.4052 86.3033 94.4769 86.3033H95.148C95.1921 86.3033 95.2307 86.2849 95.2565 86.2591C95.2841 86.2242 95.3006 86.1893 95.2933 86.1451C95.1866 84.9095 94.3702 84.334 92.7135 84.334Z" fill="white"/>
</g>
<defs>
<filter id="filter0_bd_168_2552" x="0.624998" y="0.624999" width="180.75" height="180.75" filterUnits="userSpaceOnUse" color-interpolation-filters="sRGB">
<feFlood flood-opacity="0" result="BackgroundImageFix"/>
<feGaussianBlur in="BackgroundImageFix" stdDeviation="7.5"/>
<feComposite in2="SourceAlpha" operator="in" result="effect1_backgroundBlur_168_2552"/>
<feColorMatrix in="SourceAlpha" type="matrix" values="0 0 0 0 0 0 0 0 0 0 0 0 0 0 0 0 0 0 127 0" result="hardAlpha"/>
<feOffset dy="15"/>
<feGaussianBlur stdDeviation="15"/>
<feComposite in2="hardAlpha" operator="out"/>
<feColorMatrix type="matrix" values="0 0 0 0 0 0 0 0 0 0 0 0 0 0 0 0 0 0 0.1 0"/>
<feBlend mode="normal" in2="effect1_backgroundBlur_168_2552" result="effect2_dropShadow_168_2552"/>
<feBlend mode="normal" in="SourceGraphic" in2="effect2_dropShadow_168_2552" result="shape"/>
</filter>
<linearGradient id="paint0_linear_168_2552" x1="31" y1="9.69747" x2="190.482" y2="78.4497" gradientUnits="userSpaceOnUse">
<stop stop-color="white" stop-opacity="0.7"/>
<stop offset="1" stop-color="#FF4F00"/>
</linearGradient>
<linearGradient id="paint1_linear_168_2552" x1="31" y1="76" x2="123.974" y2="25.8733" gradientUnits="userSpaceOnUse">
<stop stop-color="#FF4F00" stop-opacity="0.1"/>
<stop offset="1" stop-color="#FF4F00"/>
</linearGradient>
</defs>
</svg>
