<svg width="182" height="182" viewBox="0 0 182 182" fill="none" xmlns="http://www.w3.org/2000/svg">
<g filter="url(#filter0_bd_168_2530)">
<rect x="31" y="16" width="120" height="120" rx="60" fill="url(#paint0_linear_168_2530)" fill-opacity="0.04" shape-rendering="crispEdges"/>
<rect x="31" y="16" width="120" height="120" rx="60" stroke="url(#paint1_linear_168_2530)" stroke-opacity="0.82" stroke-width="0.75" shape-rendering="crispEdges"/>
<path d="M96.8139 86.0705C95.5415 87.8784 94.1557 89.6037 92.6647 91.2361C96.6381 95.0907 100.331 96.8957 102.381 95.7106C104.43 94.5279 104.713 90.4262 103.362 85.0611C101.336 85.5124 99.1366 85.8567 96.8139 86.0705ZM93.7026 86.2747C91.9023 86.3479 90.0998 86.3479 88.2995 86.2747C89.1925 87.4432 90.0997 88.5262 90.9999 89.5118C91.9039 88.5254 92.8049 87.448 93.7026 86.2747ZM105.673 67.5241C112.002 69.3386 116.137 72.3549 116.137 75.9957C116.137 79.6366 112.004 82.6529 105.675 84.4674C107.266 90.8561 106.72 95.9434 103.568 97.7626C100.417 99.5842 95.738 97.5132 90.9999 92.939C86.2641 97.5108 81.5854 99.5842 78.4337 97.7626C75.2821 95.941 74.7359 90.8561 76.3271 84.4674C69.9977 82.6576 65.8652 79.6414 65.8652 76.0005C65.8652 72.3596 69.9977 69.3434 76.3271 67.5289C74.7359 61.1401 75.2821 56.0529 78.4337 54.2312C81.5854 52.412 86.2641 54.483 90.9999 59.0572C95.738 54.483 100.417 52.412 103.568 54.2312C106.72 56.0529 107.266 61.1401 105.675 67.5289M103.364 66.9399C104.718 61.5724 104.433 57.4731 102.383 56.288C100.334 55.1052 96.6405 56.9102 92.6695 60.7649C94.1596 62.3973 95.5446 64.1226 96.8162 65.9305C99.139 66.1442 101.338 66.4862 103.364 66.9399ZM78.6404 85.0611C77.289 90.4286 77.5716 94.5279 79.6236 95.7106C81.6732 96.8933 85.3664 95.0907 89.3374 91.2361C87.8472 89.6029 86.4621 87.8768 85.1906 86.0681C82.9888 85.8705 80.8018 85.5334 78.6427 85.0587M88.3042 65.7215C90.1045 65.6483 91.9071 65.6483 93.7074 65.7215C92.8509 64.6055 91.9476 63.5263 90.9999 62.4867C90.0974 63.4763 89.1972 64.5561 88.2995 65.7262M85.1882 65.9329C86.4598 64.125 87.8449 62.3997 89.335 60.7672C85.364 56.9102 81.6709 55.1052 79.6236 56.288C77.574 57.4731 77.289 61.5747 78.6427 66.9399C80.6686 66.4886 82.8679 66.1466 85.1906 65.9305M95.4981 83.7905C97.1893 81.3094 98.6929 78.7055 99.9964 76.0005C98.6937 73.2956 97.1909 70.6917 95.5005 68.2105C92.5066 67.9867 89.5002 67.9867 86.5064 68.2105C84.8143 70.6915 83.31 73.2954 82.0057 76.0005C83.3092 78.7055 84.8128 81.3094 86.504 83.7905C89.4979 84.0143 92.5042 84.0143 95.4981 83.7905ZM98.55 83.477C100.013 83.287 101.398 83.0471 102.706 82.7574C102.278 81.4177 101.793 80.0969 101.253 78.7982C100.416 80.3937 99.5155 81.9546 98.5524 83.477M83.4545 68.5216C81.9915 68.7132 80.6061 68.9539 79.2982 69.2436C79.702 70.5198 80.1873 71.8395 80.7541 73.2027C81.5905 71.6072 82.4914 70.0463 83.4545 68.524M79.2982 82.7597C80.6061 83.0479 81.9915 83.2878 83.4545 83.4794C82.4914 81.957 81.5905 80.3961 80.7541 78.8006C80.2132 80.0992 79.7275 81.4201 79.2982 82.7597ZM76.9755 82.1779C77.5977 80.1971 78.4005 78.1214 79.3742 76.0029C78.4448 73.9973 77.6436 71.9349 76.9755 69.8279C71.6531 71.3384 68.2426 73.6374 68.2426 76.0029C68.2426 78.3684 71.6531 80.665 76.9755 82.1779ZM102.709 69.2436C101.399 68.9539 100.014 68.7132 98.5524 68.5216C99.5155 70.044 100.416 71.6048 101.253 73.2004C101.818 71.8387 102.303 70.5198 102.709 69.2436ZM105.029 69.8255C104.411 71.8062 103.604 73.882 102.63 76.0005C103.604 78.119 104.411 80.1947 105.029 82.1755C110.354 80.6626 113.764 78.366 113.764 76.0005C113.764 73.635 110.354 71.3384 105.029 69.8255ZM90.9999 80.4631C90.4016 80.4826 89.8055 80.3816 89.247 80.1662C88.6885 79.9507 88.1791 79.6251 87.7489 79.2088C87.3188 78.7925 86.9768 78.2939 86.7432 77.7427C86.5096 77.1916 86.3892 76.5991 86.3892 76.0005C86.3892 75.4019 86.5096 74.8094 86.7432 74.2582C86.9768 73.7071 87.3188 73.2085 87.7489 72.7922C88.1791 72.3759 88.6885 72.0503 89.247 71.8348C89.8055 71.6193 90.4016 71.5183 90.9999 71.5379C92.1582 71.5757 93.2565 72.0624 94.0625 72.8952C94.8686 73.7279 95.3192 74.8415 95.3192 76.0005C95.3192 77.1595 94.8686 78.273 94.0625 79.1058C93.2565 79.9386 92.1582 80.4253 90.9999 80.4631Z" fill="white"/>
</g>
<defs>
<filter id="filter0_bd_168_2530" x="0.624998" y="0.624999" width="180.75" height="180.75" filterUnits="userSpaceOnUse" color-interpolation-filters="sRGB">
<feFlood flood-opacity="0" result="BackgroundImageFix"/>
<feGaussianBlur in="BackgroundImageFix" stdDeviation="7.5"/>
<feComposite in2="SourceAlpha" operator="in" result="effect1_backgroundBlur_168_2530"/>
<feColorMatrix in="SourceAlpha" type="matrix" values="0 0 0 0 0 0 0 0 0 0 0 0 0 0 0 0 0 0 127 0" result="hardAlpha"/>
<feOffset dy="15"/>
<feGaussianBlur stdDeviation="15"/>
<feComposite in2="hardAlpha" operator="out"/>
<feColorMatrix type="matrix" values="0 0 0 0 0 0 0 0 0 0 0 0 0 0 0 0 0 0 0.1 0"/>
<feBlend mode="normal" in2="effect1_backgroundBlur_168_2530" result="effect2_dropShadow_168_2530"/>
<feBlend mode="normal" in="SourceGraphic" in2="effect2_dropShadow_168_2530" result="shape"/>
</filter>
<linearGradient id="paint0_linear_168_2530" x1="31" y1="9.69747" x2="190.482" y2="78.4497" gradientUnits="userSpaceOnUse">
<stop stop-color="white" stop-opacity="0.7"/>
<stop offset="1" stop-color="#FF4F00"/>
</linearGradient>
<linearGradient id="paint1_linear_168_2530" x1="31" y1="76" x2="123.974" y2="25.8733" gradientUnits="userSpaceOnUse">
<stop stop-color="#FF4F00" stop-opacity="0.1"/>
<stop offset="1" stop-color="#FF4F00"/>
</linearGradient>
</defs>
</svg>
