<svg width="182" height="182" viewBox="0 0 182 182" fill="none" xmlns="http://www.w3.org/2000/svg">
<g filter="url(#filter0_bd_168_2578)">
<rect x="31" y="16" width="120" height="120" rx="60" fill="url(#paint0_linear_168_2578)" fill-opacity="0.04" shape-rendering="crispEdges"/>
<rect x="31" y="16" width="120" height="120" rx="60" stroke="url(#paint1_linear_168_2578)" stroke-opacity="0.82" stroke-width="0.75" shape-rendering="crispEdges"/>
<g clip-path="url(#clip0_168_2578)">
<path d="M119.15 60.896C119.171 60.9734 119.182 61.0532 119.183 61.1335V73.3624C119.183 73.683 119.01 73.9799 118.735 74.1366L108.467 80.0504V91.7686C108.467 91.9253 108.425 92.0791 108.347 92.2149C108.268 92.3507 108.156 92.4637 108.021 92.5429L86.5841 104.879C86.5346 104.906 86.482 104.928 86.4274 104.943L86.3704 104.966C86.2214 105.009 86.0634 105.009 85.9144 104.966C85.889 104.959 85.8653 104.949 85.8431 104.938C85.7941 104.922 85.745 104.902 85.6959 104.879L64.2663 92.5429C64.1306 92.464 64.0178 92.3511 63.9391 92.2153C63.8604 92.0795 63.8184 91.9256 63.8174 91.7686V55.063C63.8174 54.9838 63.8285 54.9062 63.8506 54.8302C63.8578 54.8017 63.8744 54.7827 63.8839 54.7542C63.8985 54.707 63.9167 54.6609 63.9385 54.6165C63.948 54.5856 63.9741 54.5642 63.9931 54.5381L64.0715 54.4312L64.1594 54.3671C64.191 54.3386 64.2235 54.3117 64.2568 54.2864L74.9775 48.1185C75.1133 48.0415 75.2667 48.001 75.4228 48.001C75.5789 48.001 75.7324 48.0415 75.8681 48.1185L86.5841 54.2864H86.5889C86.6221 54.3101 86.6538 54.3362 86.6839 54.3647L86.7741 54.4289C86.805 54.4621 86.8216 54.5001 86.8525 54.5357C86.8715 54.5619 86.9 54.5856 86.9119 54.6141C86.934 54.66 86.9531 54.7059 86.9689 54.7519C86.976 54.778 86.9926 54.8017 86.9998 54.8279C87.0219 54.9023 87.033 54.9799 87.033 55.0606V77.9841L95.963 72.8446V61.1264C95.963 61.0472 95.9733 60.9696 95.9939 60.8936C96.005 60.8714 96.0153 60.8461 96.0248 60.8176L96.0818 60.6775C96.0984 60.649 96.1245 60.63 96.1411 60.5991L96.2195 60.497C96.2496 60.4701 96.2789 60.4479 96.3074 60.4305C96.3391 60.4036 96.3715 60.3782 96.4048 60.3545H96.4071L107.126 54.1842C107.261 54.1072 107.415 54.0667 107.571 54.0667C107.727 54.0667 107.88 54.1072 108.016 54.1842L118.735 60.3545C118.773 60.3782 118.799 60.4044 118.834 60.4281L118.92 60.4946L119.001 60.5991C119.02 60.6276 119.046 60.649 119.058 60.6775C119.082 60.7228 119.101 60.7706 119.115 60.82C119.13 60.8437 119.142 60.8691 119.15 60.896ZM117.393 72.847V62.6749L113.645 64.8314L108.463 67.8144V77.9865L117.393 72.847ZM106.681 91.2532V81.0716L101.582 83.981L87.033 92.2887V102.561L106.681 91.2532ZM65.5963 56.6067V91.2532L85.2446 102.561V92.2887L74.9799 86.4819L74.9751 86.4747H74.9704L74.8754 86.4011L74.7923 86.337L74.7899 86.3322C74.7614 86.3037 74.7368 86.2721 74.7163 86.2372C74.6909 86.2119 74.6688 86.1834 74.6498 86.1517H74.645L74.5975 86.0401C74.5833 86.0021 74.5643 85.976 74.5548 85.938L74.5358 85.8026C74.5278 85.7709 74.5231 85.7385 74.5215 85.7052V61.7486L69.344 58.7632L65.5963 56.6067ZM75.4216 49.9235L66.4916 55.063L75.4216 60.2025L84.3469 55.063L75.4216 49.9235ZM80.0671 81.9979L85.2494 79.0149V56.6067L81.4969 58.768L76.3146 61.7486V84.1567L80.0671 81.9979ZM107.572 55.9916L98.642 61.1287L107.572 66.2659L116.5 61.1264L107.572 55.9916ZM106.679 67.8144L101.499 64.8314L97.7466 62.6772V72.8494L102.929 75.8324L106.681 77.9889L106.679 67.8144ZM86.1353 90.7426L99.231 83.2661L105.777 79.5326L96.8536 74.3955L86.5865 80.3069L77.2266 85.6981L86.1353 90.7426Z" fill="white"/>
</g>
</g>
<defs>
<filter id="filter0_bd_168_2578" x="0.624998" y="0.624999" width="180.75" height="180.75" filterUnits="userSpaceOnUse" color-interpolation-filters="sRGB">
<feFlood flood-opacity="0" result="BackgroundImageFix"/>
<feGaussianBlur in="BackgroundImageFix" stdDeviation="7.5"/>
<feComposite in2="SourceAlpha" operator="in" result="effect1_backgroundBlur_168_2578"/>
<feColorMatrix in="SourceAlpha" type="matrix" values="0 0 0 0 0 0 0 0 0 0 0 0 0 0 0 0 0 0 127 0" result="hardAlpha"/>
<feOffset dy="15"/>
<feGaussianBlur stdDeviation="15"/>
<feComposite in2="hardAlpha" operator="out"/>
<feColorMatrix type="matrix" values="0 0 0 0 0 0 0 0 0 0 0 0 0 0 0 0 0 0 0.1 0"/>
<feBlend mode="normal" in2="effect1_backgroundBlur_168_2578" result="effect2_dropShadow_168_2578"/>
<feBlend mode="normal" in="SourceGraphic" in2="effect2_dropShadow_168_2578" result="shape"/>
</filter>
<linearGradient id="paint0_linear_168_2578" x1="31" y1="9.69747" x2="190.482" y2="78.4497" gradientUnits="userSpaceOnUse">
<stop stop-color="white" stop-opacity="0.7"/>
<stop offset="1" stop-color="#FF4F00"/>
</linearGradient>
<linearGradient id="paint1_linear_168_2578" x1="31" y1="76" x2="123.974" y2="25.8733" gradientUnits="userSpaceOnUse">
<stop stop-color="#FF4F00" stop-opacity="0.1"/>
<stop offset="1" stop-color="#FF4F00"/>
</linearGradient>
<clipPath id="clip0_168_2578">
<rect width="57" height="57" fill="white" transform="translate(63 48)"/>
</clipPath>
</defs>
</svg>
