<svg width="182" height="182" viewBox="0 0 182 182" fill="none" xmlns="http://www.w3.org/2000/svg">
<g filter="url(#filter0_bd_168_2555)">
<rect x="31" y="16" width="120" height="120" rx="60" fill="url(#paint0_linear_168_2555)" fill-opacity="0.04" shape-rendering="crispEdges"/>
<rect x="31" y="16" width="120" height="120" rx="60" stroke="url(#paint1_linear_168_2555)" stroke-opacity="0.82" stroke-width="0.75" shape-rendering="crispEdges"/>
<g clip-path="url(#clip0_168_2555)">
<path d="M80.6313 47.7998L78.5888 47.8046C78.0156 47.8061 77.4425 47.8141 76.8693 47.8283C76.5558 47.8362 76.2431 47.8481 75.9312 47.8639C74.9908 47.8995 74.0538 47.997 73.1263 48.1561C71.8901 48.3749 70.6918 48.7709 69.5686 49.3317C67.3139 50.4786 65.4806 52.3102 64.3317 54.5638C63.7498 55.7038 63.3817 56.8723 63.1561 58.1263C62.9352 59.3613 62.8663 60.6201 62.8331 61.8693C62.8176 62.4424 62.8081 63.0156 62.8046 63.5888L62.7998 65.6313V86.9683L62.8046 89.0156C62.8077 89.5856 62.8172 90.1571 62.8331 90.7303C62.8663 91.9796 62.9352 93.2407 63.1561 94.4733C63.3817 95.7273 63.7498 96.8958 64.3317 98.0358C65.4793 100.29 67.313 102.122 69.5686 103.268C70.7086 103.847 71.8723 104.218 73.1263 104.444C74.3613 104.664 75.6201 104.738 76.8693 104.771C77.4425 104.787 78.0156 104.795 78.5888 104.795C79.2696 104.8 79.9505 104.801 80.6313 104.8H101.968L104.011 104.795C104.584 104.795 105.157 104.787 105.73 104.771C106.986 104.757 108.239 104.647 109.478 104.444C110.716 104.231 111.915 103.835 113.036 103.268C115.289 102.12 117.12 100.289 118.268 98.0358C118.85 96.8958 119.218 95.7273 119.444 94.4733C119.664 93.2383 119.738 91.9796 119.771 90.7303C119.787 90.1587 119.795 89.5871 119.795 89.0156C119.8 88.3331 119.801 87.6507 119.8 86.9683V65.6313L119.795 63.5888C119.793 63.0156 119.785 62.4424 119.771 61.8693C119.756 60.6152 119.647 59.364 119.444 58.1263C119.232 56.8867 118.836 55.6859 118.268 54.5638C117.12 52.311 115.289 50.4794 113.036 49.3317C111.915 48.7645 110.716 48.3682 109.478 48.1561C108.239 47.9526 106.986 47.843 105.73 47.8283C105.159 47.8145 104.587 47.8066 104.016 47.8046L101.968 47.7998H80.6313ZM94.9644 55.8986C104.735 61.7648 110.509 72.9083 108.143 82.3347C108.086 82.5556 108.025 82.7646 107.963 82.9807L107.968 82.9831C112.865 89.0108 111.53 95.4708 110.903 94.2524C108.357 89.2982 103.621 90.5284 101.194 91.7753C100.975 91.9055 100.752 92.0306 100.527 92.1506L100.479 92.1791L100.474 92.1838C95.4513 94.8509 88.7016 95.0457 81.9209 92.1316C76.4 89.7389 71.731 85.7338 68.5259 80.6413C70.0673 81.7813 71.7322 82.7836 73.5063 83.6148C80.6764 86.9731 87.8774 86.7284 92.9742 83.6101C85.7209 78.0336 79.6647 70.7661 75.0216 64.8784C74.1387 63.8488 73.3405 62.7496 72.6347 61.5914C78.1922 66.6787 86.9749 73.0627 90.1266 74.8344C83.4386 67.7688 77.5438 59.0644 77.8193 59.3423C88.3548 69.9586 98.0733 75.9578 98.0733 75.9578C98.4391 76.1597 98.7146 76.3236 98.9283 76.4637C99.131 75.9538 99.3083 75.425 99.4603 74.8772C101.142 68.7307 99.2466 61.7007 94.9644 55.8962V55.8986Z" fill="white"/>
</g>
</g>
<defs>
<filter id="filter0_bd_168_2555" x="0.624998" y="0.624999" width="180.75" height="180.75" filterUnits="userSpaceOnUse" color-interpolation-filters="sRGB">
<feFlood flood-opacity="0" result="BackgroundImageFix"/>
<feGaussianBlur in="BackgroundImageFix" stdDeviation="7.5"/>
<feComposite in2="SourceAlpha" operator="in" result="effect1_backgroundBlur_168_2555"/>
<feColorMatrix in="SourceAlpha" type="matrix" values="0 0 0 0 0 0 0 0 0 0 0 0 0 0 0 0 0 0 127 0" result="hardAlpha"/>
<feOffset dy="15"/>
<feGaussianBlur stdDeviation="15"/>
<feComposite in2="hardAlpha" operator="out"/>
<feColorMatrix type="matrix" values="0 0 0 0 0 0 0 0 0 0 0 0 0 0 0 0 0 0 0.1 0"/>
<feBlend mode="normal" in2="effect1_backgroundBlur_168_2555" result="effect2_dropShadow_168_2555"/>
<feBlend mode="normal" in="SourceGraphic" in2="effect2_dropShadow_168_2555" result="shape"/>
</filter>
<linearGradient id="paint0_linear_168_2555" x1="31" y1="9.69747" x2="190.482" y2="78.4497" gradientUnits="userSpaceOnUse">
<stop stop-color="white" stop-opacity="0.7"/>
<stop offset="1" stop-color="#FF4F00"/>
</linearGradient>
<linearGradient id="paint1_linear_168_2555" x1="31" y1="76" x2="123.974" y2="25.8733" gradientUnits="userSpaceOnUse">
<stop stop-color="#FF4F00" stop-opacity="0.1"/>
<stop offset="1" stop-color="#FF4F00"/>
</linearGradient>
<clipPath id="clip0_168_2555">
<rect width="57" height="57" fill="white" transform="translate(62.7998 47.7998)"/>
</clipPath>
</defs>
</svg>
