<svg width="182" height="182" viewBox="0 0 182 182" fill="none" xmlns="http://www.w3.org/2000/svg">
<g filter="url(#filter0_bd_168_2565)">
<rect x="31" y="16" width="120" height="120" rx="60" fill="url(#paint0_linear_168_2565)" fill-opacity="0.04" shape-rendering="crispEdges"/>
<rect x="31" y="16" width="120" height="120" rx="60" stroke="url(#paint1_linear_168_2565)" stroke-opacity="0.82" stroke-width="0.75" shape-rendering="crispEdges"/>
<path d="M88.9009 52.4884C95.8359 48.0709 105.424 50.1324 110.278 57.0817C111.43 58.6943 112.249 60.5206 112.686 62.4537C113.124 64.3868 113.17 66.3877 112.824 68.3392C112.488 70.2026 111.777 71.9784 110.734 73.5594C112.254 76.4593 112.765 79.7819 112.183 83.0048C111.84 84.9178 111.102 86.7382 110.015 88.3495C108.929 89.9608 107.518 91.3275 105.873 92.3623L93.696 100.124C86.761 104.541 77.1732 102.482 72.3163 95.5329C71.1646 93.9197 70.3467 92.0928 69.9103 90.1592C69.4739 88.2257 69.4279 86.2246 69.775 84.2731C70.1118 82.4096 70.8228 80.6338 71.865 79.0528C70.3447 76.1532 69.8341 72.8297 70.4139 69.6074C70.757 67.6943 71.4957 65.8738 72.5827 64.2624C73.6698 62.6511 75.0812 61.2845 76.7267 60.2499L88.9009 52.4884ZM81.916 95.8939C83.7733 96.5827 85.7944 96.6824 87.711 96.1861C88.5874 95.9509 89.421 95.5852 90.1858 95.0983L102.365 87.3392C103.354 86.7163 104.202 85.8941 104.856 84.9249C105.509 83.9557 105.953 82.8609 106.16 81.7104C106.368 80.537 106.34 79.3339 106.077 78.1716C105.814 77.0093 105.321 75.9112 104.628 74.9417C103.5 73.3148 101.9 72.0734 100.044 71.3853C98.1879 70.6972 96.1652 70.5956 94.2494 71.0942C93.373 71.3293 92.5394 71.6951 91.7747 72.1819L87.1268 75.1412C86.8969 75.2888 86.6452 75.3993 86.381 75.4689C86.0069 75.5658 85.6171 75.5872 85.2346 75.532C84.852 75.4768 84.4842 75.3461 84.1527 75.1474C83.8212 74.9487 83.5325 74.686 83.3034 74.3746C83.0744 74.0633 82.9095 73.7095 82.8185 73.3338C82.737 72.983 82.729 72.6191 82.7948 72.2651C82.8574 71.9193 82.9911 71.5903 83.1873 71.2989C83.3835 71.0074 83.638 70.7598 83.9348 70.5717L96.1162 62.8102C96.3461 62.6626 96.5977 62.552 96.8619 62.4824C97.4395 62.3335 98.0488 62.365 98.608 62.5726C99.1671 62.7802 99.6493 63.1541 99.9898 63.6438C100.363 64.1711 100.536 64.8123 100.481 65.4536L100.439 65.9048L100.892 66.0426C102.604 66.5592 104.214 67.3649 105.654 68.4247L106.279 68.8807L106.507 68.1801C106.63 67.808 106.728 67.4296 106.799 67.0448C107.007 65.8716 106.979 64.6685 106.717 63.5062C106.454 62.3439 105.962 61.2458 105.269 60.2761C104.142 58.6483 102.541 57.4061 100.685 56.7175C98.828 56.029 96.8047 55.9273 94.8883 56.4262C94.0122 56.659 93.1774 57.0259 92.4135 57.5139L80.2322 65.2731C79.2422 65.8954 78.3929 66.7175 77.7385 67.6867C77.0842 68.6559 76.6393 69.7509 76.4322 70.9018C76.2242 72.0752 76.2526 73.2783 76.5156 74.4406C76.7787 75.6029 77.2711 76.701 77.964 77.6706C79.092 79.2979 80.6926 80.5396 82.5492 81.2277C84.4059 81.9159 86.4291 82.0172 88.3452 81.5181C89.2215 81.2829 90.0552 80.9172 90.8199 80.4327L95.4654 77.4687C95.6998 77.3214 95.9491 77.213 96.2135 77.1433C96.5877 77.0474 96.9772 77.0267 97.3594 77.0824C97.7416 77.138 98.109 77.2689 98.4403 77.4675C98.7717 77.666 99.0603 77.9283 99.2896 78.2392C99.5188 78.55 99.6842 78.9033 99.776 79.2784C99.8568 79.6276 99.8639 79.9909 99.8022 80.3448C99.739 80.6909 99.6046 81.0202 99.4076 81.3117C99.2105 81.6032 98.9551 81.8506 98.6574 82.0382L86.4808 89.8021C86.2507 89.9488 85.9991 90.0586 85.735 90.1274C85.1577 90.2766 84.5486 90.2455 83.9894 90.0383C83.4303 89.8311 82.9479 89.4578 82.6072 88.9684C82.2348 88.4421 82.0607 87.8011 82.1155 87.1587L82.1559 86.7074L81.7047 86.5697C79.9931 86.053 78.3826 85.2473 76.9428 84.1876L76.3182 83.7316L76.0902 84.4322C75.9695 84.8042 75.872 85.1834 75.798 85.5674C75.5898 86.7407 75.6178 87.9437 75.8804 89.106C76.143 90.2683 76.635 91.3665 77.3275 92.3362C78.4551 93.9635 80.0551 95.2054 81.9113 95.8939" fill="white"/>
</g>
<defs>
<filter id="filter0_bd_168_2565" x="0.624998" y="0.624999" width="180.75" height="180.75" filterUnits="userSpaceOnUse" color-interpolation-filters="sRGB">
<feFlood flood-opacity="0" result="BackgroundImageFix"/>
<feGaussianBlur in="BackgroundImageFix" stdDeviation="7.5"/>
<feComposite in2="SourceAlpha" operator="in" result="effect1_backgroundBlur_168_2565"/>
<feColorMatrix in="SourceAlpha" type="matrix" values="0 0 0 0 0 0 0 0 0 0 0 0 0 0 0 0 0 0 127 0" result="hardAlpha"/>
<feOffset dy="15"/>
<feGaussianBlur stdDeviation="15"/>
<feComposite in2="hardAlpha" operator="out"/>
<feColorMatrix type="matrix" values="0 0 0 0 0 0 0 0 0 0 0 0 0 0 0 0 0 0 0.1 0"/>
<feBlend mode="normal" in2="effect1_backgroundBlur_168_2565" result="effect2_dropShadow_168_2565"/>
<feBlend mode="normal" in="SourceGraphic" in2="effect2_dropShadow_168_2565" result="shape"/>
</filter>
<linearGradient id="paint0_linear_168_2565" x1="31" y1="9.69747" x2="190.482" y2="78.4497" gradientUnits="userSpaceOnUse">
<stop stop-color="white" stop-opacity="0.7"/>
<stop offset="1" stop-color="#FF4F00"/>
</linearGradient>
<linearGradient id="paint1_linear_168_2565" x1="31" y1="76" x2="123.974" y2="25.8733" gradientUnits="userSpaceOnUse">
<stop stop-color="#FF4F00" stop-opacity="0.1"/>
<stop offset="1" stop-color="#FF4F00"/>
</linearGradient>
</defs>
</svg>
