<svg width="182" height="182" viewBox="0 0 182 182" fill="none" xmlns="http://www.w3.org/2000/svg">
<g filter="url(#filter0_bd_168_2545)">
<rect x="31" y="16" width="120" height="120" rx="60" fill="url(#paint0_linear_168_2545)" fill-opacity="0.04" shape-rendering="crispEdges"/>
<rect x="31" y="16" width="120" height="120" rx="60" stroke="url(#paint1_linear_168_2545)" stroke-opacity="0.82" stroke-width="0.75" shape-rendering="crispEdges"/>
<g clip-path="url(#clip0_168_2545)">
<path d="M90.4998 57.5C86.601 57.5 83.2494 58.5526 80.6198 60.806C78.0054 63.048 76.2992 66.3046 75.3492 70.3668C75.2483 70.797 75.3006 71.249 75.497 71.6448C75.6934 72.0407 76.0216 72.3557 76.4252 72.5356C76.8288 72.7156 77.2825 72.7493 77.7082 72.6309C78.1339 72.5124 78.5051 72.2493 78.7578 71.8868C79.9586 70.1692 81.1594 69.1394 82.3146 68.6074C83.4318 68.0944 84.6364 67.9918 86.0196 68.3604C87.4104 68.7328 88.4896 69.8272 90.1806 71.6664L90.2376 71.7272C91.5144 73.1142 93.0686 74.8052 95.1966 76.12C97.4082 77.4842 100.156 78.4 103.8 78.4C107.699 78.4 111.05 77.3474 113.68 75.094C116.294 72.852 118.004 69.5954 118.95 65.5332C119.051 65.103 118.999 64.651 118.803 64.2552C118.606 63.8593 118.278 63.5443 117.874 63.3644C117.471 63.1844 117.017 63.1507 116.591 63.2691C116.166 63.3876 115.794 63.6507 115.542 64.0132C114.341 65.7308 113.14 66.7606 111.985 67.2926C110.868 67.8056 109.663 67.9082 108.28 67.5396C106.889 67.1672 105.81 66.0728 104.119 64.2336L104.062 64.1728C102.785 62.7858 101.231 61.0948 99.103 59.78C96.8913 58.4158 94.144 57.5 90.4998 57.5ZM77.1998 74.6C73.301 74.6 69.9494 75.6526 67.3198 77.906C64.7054 80.148 62.9992 83.4046 62.0492 87.4668C61.9483 87.897 62.0006 88.349 62.197 88.7448C62.3934 89.1406 62.7216 89.4557 63.1252 89.6356C63.5288 89.8156 63.9825 89.8493 64.4082 89.7309C64.8339 89.6124 65.2051 89.3493 65.4578 88.9868C66.6586 87.2692 67.8594 86.2394 69.0146 85.7074C70.1318 85.1944 71.3364 85.0918 72.7196 85.4604C74.1104 85.8328 75.1896 86.9272 76.8806 88.7664L76.9376 88.8272C78.2144 90.2142 79.7686 91.9052 81.8966 93.22C84.1082 94.5842 86.8556 95.5 90.4998 95.5C94.3986 95.5 97.7502 94.4474 100.38 92.194C102.994 89.952 104.704 86.6954 105.65 82.6332C105.751 82.203 105.699 81.751 105.503 81.3552C105.306 80.9593 104.978 80.6443 104.574 80.4644C104.171 80.2844 103.717 80.2507 103.291 80.3691C102.866 80.4876 102.494 80.7507 102.242 81.1132C101.041 82.8308 99.8402 83.8606 98.685 84.3926C97.5678 84.9056 96.3632 85.0082 94.9799 84.6396C93.5892 84.2672 92.51 83.1728 90.819 81.3336L90.762 81.2728C89.489 79.8858 87.931 78.1948 85.803 76.88C83.5914 75.512 80.844 74.6 77.1998 74.6Z" fill="white"/>
</g>
</g>
<defs>
<filter id="filter0_bd_168_2545" x="0.624998" y="0.624999" width="180.75" height="180.75" filterUnits="userSpaceOnUse" color-interpolation-filters="sRGB">
<feFlood flood-opacity="0" result="BackgroundImageFix"/>
<feGaussianBlur in="BackgroundImageFix" stdDeviation="7.5"/>
<feComposite in2="SourceAlpha" operator="in" result="effect1_backgroundBlur_168_2545"/>
<feColorMatrix in="SourceAlpha" type="matrix" values="0 0 0 0 0 0 0 0 0 0 0 0 0 0 0 0 0 0 127 0" result="hardAlpha"/>
<feOffset dy="15"/>
<feGaussianBlur stdDeviation="15"/>
<feComposite in2="hardAlpha" operator="out"/>
<feColorMatrix type="matrix" values="0 0 0 0 0 0 0 0 0 0 0 0 0 0 0 0 0 0 0.1 0"/>
<feBlend mode="normal" in2="effect1_backgroundBlur_168_2545" result="effect2_dropShadow_168_2545"/>
<feBlend mode="normal" in="SourceGraphic" in2="effect2_dropShadow_168_2545" result="shape"/>
</filter>
<linearGradient id="paint0_linear_168_2545" x1="31" y1="9.69747" x2="190.482" y2="78.4497" gradientUnits="userSpaceOnUse">
<stop stop-color="white" stop-opacity="0.7"/>
<stop offset="1" stop-color="#FF4F00"/>
</linearGradient>
<linearGradient id="paint1_linear_168_2545" x1="31" y1="76" x2="123.974" y2="25.8733" gradientUnits="userSpaceOnUse">
<stop stop-color="#FF4F00" stop-opacity="0.1"/>
<stop offset="1" stop-color="#FF4F00"/>
</linearGradient>
<clipPath id="clip0_168_2545">
<rect width="57" height="57" fill="white" transform="translate(62 48)"/>
</clipPath>
</defs>
</svg>
