<svg width="210" height="200" viewBox="0 0 210 200" fill="none" xmlns="http://www.w3.org/2000/svg">
<path d="M31.6468 113.5C30.3278 112.874 28.1143 111.571 26.7468 111.059C25.3793 110.547 23.8463 110.306 22.4613 110.769C21.6518 111.04 20.8483 111.682 20.8428 112.535L26.2193 116.477L31.6468 115.049V113.5Z" fill="white"/>
<path d="M25.7659 113.445C25.7659 113.445 16.1074 111.352 14.5184 110.523C12.9289 109.694 4.49485 105.473 3.09635 105.473C1.69785 105.473 0.489852 105.854 0.235352 107.253L2.07235 108.681L2.30585 109.41L5.44585 111.046L6.02085 112.1L14.0098 116.369C14.0098 116.369 22.4018 120.629 23.8004 120.883C25.1989 121.138 32.1924 121.71 35.1804 124.253L47.1803 119.328C47.1803 119.328 43.7129 114.403 41.0464 113.193C38.6669 112.113 34.6719 112.11 31.8744 113.255L25.7659 113.445Z" fill="white"/>
<path d="M33.7969 121.517C33.7969 121.517 49.0719 154.826 51.5299 161.498C51.5299 161.498 68.6054 158.692 69.1904 149.212L47.1804 119.216L33.7969 121.517Z" fill="white"/>
<path d="M19.6084 114.199C19.6074 114.208 19.5514 114.206 19.4449 114.195C19.3364 114.189 19.1829 114.154 18.9854 114.102C18.5934 113.993 18.0454 113.777 17.3954 113.46C16.7439 113.146 15.9909 112.731 15.1604 112.267C14.7444 112.036 14.3099 111.79 13.8534 111.553C13.4024 111.314 12.9054 111.117 12.4019 110.896C11.3954 110.462 10.4249 110.081 9.51187 109.845C8.60637 109.62 7.73587 109.449 7.08087 109.668C6.42187 109.895 6.12687 110.458 5.95937 110.801C5.78887 111.161 5.72938 111.378 5.70438 111.37C5.69588 111.368 5.70438 111.312 5.72888 111.208C5.75038 111.103 5.79387 110.952 5.86637 110.761C5.94037 110.572 6.04388 110.34 6.22138 110.103C6.39438 109.866 6.66137 109.627 7.01937 109.495C7.37537 109.356 7.79537 109.341 8.22387 109.377C8.65437 109.415 9.10387 109.497 9.57137 109.613C10.5069 109.842 11.4949 110.221 12.5049 110.657C13.0069 110.877 13.5079 111.078 13.9719 111.327C14.4334 111.571 14.8664 111.821 15.2794 112.058C16.1039 112.535 16.8439 112.964 17.4794 113.296C18.1134 113.631 18.6419 113.869 19.0174 114.006C19.3914 114.144 19.6119 114.173 19.6084 114.199Z" fill="white"/>
<path d="M10.3957 109.411C10.3852 109.44 9.85667 109.293 9.04367 108.942C8.24017 108.579 7.13817 108.068 5.87017 107.675C5.24517 107.485 4.60767 107.472 4.04417 107.519C3.48167 107.565 3.01017 107.789 2.75567 108.119C2.49967 108.448 2.42617 108.801 2.37667 109.035C2.34367 109.275 2.32367 109.411 2.30417 109.411C2.28767 109.411 2.27317 109.274 2.27567 109.023C2.29667 108.778 2.34017 108.396 2.60867 108.007C2.74767 107.82 2.94217 107.641 3.18817 107.516C3.43417 107.392 3.71817 107.318 4.01567 107.28C4.60617 107.217 5.27467 107.225 5.94067 107.424C7.24117 107.827 8.34167 108.372 9.12067 108.775C9.90617 109.165 10.4102 109.373 10.3957 109.411Z" fill="white"/>
<path d="M34.4763 112.505C34.4818 112.522 34.3423 112.583 34.0843 112.677C33.8273 112.774 33.4473 112.891 32.9723 113.016C32.0233 113.268 30.6793 113.515 29.1778 113.582C27.6758 113.646 26.3153 113.517 25.3478 113.349C24.8638 113.265 24.4748 113.181 24.2103 113.107C23.9453 113.036 23.8008 112.988 23.8048 112.97C23.8138 112.929 24.4078 113.047 25.3743 113.167C26.3403 113.287 27.6838 113.385 29.1668 113.322C30.6488 113.255 31.9788 113.041 32.9303 112.837C33.8818 112.634 34.4633 112.465 34.4763 112.505Z" fill="white"/>
<path d="M176.722 92.726L154.475 88.126L149.007 84.001L119.654 89.6615C119.186 90.5195 114.428 97.144 114.428 97.144L102.87 101.07C97.9275 102.398 93.519 105.181 90.328 109.079C87.8895 112.058 85.171 116.171 82.8445 121.63C77.644 133.833 70.138 147.934 70.138 147.934L65.4325 140.357L45.6055 149.692C45.6055 149.692 57.2205 173.111 61.066 176.454C65.3405 180.171 75.1675 180.599 81.963 173.668C86.0595 169.49 97.8955 152.967 100.36 148.832L104 166.129L107.367 185.867L101.926 199.448H181.325L178.04 186.612C178.04 186.612 181.277 153.143 182.169 146.917C184.276 132.222 176.722 92.726 176.722 92.726Z" fill="#FF4F00"/>
<path d="M176.722 92.726C176.722 92.726 192.622 97.1869 196.121 112.988C198.242 122.565 205.443 149.858 207.975 172.33C209.48 185.689 209.433 198.036 209.48 199.448H185.079L174.736 97.186L176.722 92.726Z" fill="#FF4F00"/>
<path d="M135.942 106.297C135.948 106.3 135.925 106.356 135.875 106.462C135.814 106.586 135.74 106.737 135.649 106.922C135.452 107.325 135.166 107.916 134.825 108.674C134.123 110.18 133.291 112.402 131.953 114.885L131.885 115.012L131.774 114.917C130.126 113.512 128.333 111.822 126.484 109.996C123.212 106.747 120.341 103.721 118.218 101.576C117.17 100.522 116.315 99.662 115.698 99.042C115.414 98.7595 115.185 98.532 115.008 98.3565C114.853 98.1975 114.774 98.111 114.78 98.1045C114.786 98.098 114.877 98.1715 115.044 98.318C115.229 98.4845 115.469 98.7005 115.767 98.9685C116.387 99.5425 117.274 100.384 118.348 101.446C120.506 103.559 123.398 106.566 126.666 109.811C128.513 111.635 130.295 113.328 131.926 114.739L131.747 114.772C133.092 112.32 133.957 110.107 134.697 108.615C135.057 107.863 135.364 107.281 135.582 106.888C135.686 106.71 135.771 106.564 135.841 106.444C135.903 106.344 135.937 106.294 135.942 106.297Z" fill="black"/>
<path d="M154.81 88.688C154.819 88.6895 154.803 88.81 154.763 89.038C154.715 89.2915 154.654 89.622 154.577 90.034C154.396 90.895 154.095 92.1325 153.667 93.646C152.805 96.6715 151.405 100.788 149.686 105.266C148.775 107.636 147.875 109.873 147.034 111.861L146.969 112.013L146.845 111.904C144.579 109.905 142.55 108.33 141.173 107.157C140.481 106.575 139.941 106.106 139.58 105.777C139.414 105.622 139.28 105.497 139.171 105.395C139.08 105.307 139.035 105.258 139.039 105.253C139.044 105.248 139.097 105.287 139.197 105.366C139.312 105.46 139.455 105.576 139.63 105.719C140.031 106.046 140.581 106.492 141.265 107.047C142.666 108.188 144.714 109.734 147.004 111.726L146.816 111.769C147.641 109.78 148.533 107.54 149.444 105.172C151.161 100.699 152.586 96.6 153.491 93.5945C153.941 92.091 154.268 90.864 154.478 90.012C154.575 89.605 154.652 89.2785 154.712 89.0285C154.768 88.8035 154.801 88.6865 154.81 88.688Z" fill="black"/>
<path d="M103.375 163.916C103.371 163.917 103.356 163.879 103.331 163.802C103.303 163.711 103.269 163.599 103.227 163.462C103.135 163.141 103.009 162.702 102.851 162.147C102.681 161.577 102.514 160.869 102.314 160.049C102.105 159.231 101.9 158.292 101.684 157.251C100.796 153.095 99.9065 147.28 99.354 140.819C98.791 134.356 98.6665 128.48 98.694 124.232C98.7115 122.108 98.752 120.389 98.811 119.203C98.8395 118.626 98.862 118.17 98.878 117.837C98.8875 117.694 98.8955 117.577 98.902 117.482C98.909 117.402 98.9145 117.361 98.919 117.361C98.9235 117.361 98.9265 117.403 98.9285 117.483C98.929 117.578 98.9295 117.695 98.9305 117.839C98.926 118.173 98.92 118.629 98.912 119.206C98.8845 120.392 98.8715 122.11 98.878 124.233C98.8975 128.477 99.0515 134.343 99.6135 140.797C100.165 147.249 101.024 153.056 101.864 157.215C102.068 158.256 102.26 159.196 102.456 160.016C102.642 160.838 102.795 161.548 102.949 162.121C103.088 162.681 103.198 163.124 103.278 163.448C103.31 163.588 103.336 163.702 103.358 163.795C103.373 163.874 103.38 163.915 103.375 163.916Z" fill="black"/>
<path d="M178.041 110.257C178.045 110.256 178.068 110.302 178.109 110.394C178.155 110.5 178.213 110.635 178.286 110.805C178.443 111.185 178.662 111.718 178.942 112.396C179.081 112.743 179.246 113.125 179.405 113.55C179.552 113.982 179.71 114.45 179.88 114.952C180.05 115.456 180.232 115.994 180.424 116.564C180.583 117.146 180.751 117.76 180.927 118.405C182.416 123.552 183.173 130.993 182.743 139.14C182.304 147.291 181.354 154.616 180.764 159.922C180.458 162.561 180.21 164.703 180.036 166.205C179.948 166.933 179.878 167.504 179.829 167.912C179.804 168.095 179.784 168.241 179.768 168.356C179.753 168.455 179.743 168.506 179.739 168.506C179.734 168.505 179.735 168.454 179.742 168.353C179.751 168.238 179.762 168.091 179.776 167.907C179.814 167.497 179.867 166.924 179.935 166.194C180.076 164.707 180.296 162.557 180.581 159.902C181.124 154.59 182.044 147.262 182.483 139.128C182.91 130.997 182.186 123.593 180.749 118.451C180.579 117.807 180.418 117.193 180.265 116.612C180.08 116.041 179.905 115.502 179.742 114.998C179.579 114.495 179.428 114.025 179.288 113.592C179.135 113.165 178.978 112.781 178.847 112.432C178.587 111.747 178.383 111.209 178.237 110.825C178.174 110.651 178.123 110.512 178.084 110.404C178.052 110.309 178.037 110.259 178.041 110.257Z" fill="black"/>
<path d="M70.2536 164.967C70.1816 164.967 70.0981 161.154 70.0666 156.452C70.0351 151.747 70.0681 147.935 70.1401 147.934C70.2121 147.934 70.2956 151.746 70.3271 156.45C70.3586 161.153 70.3256 164.966 70.2536 164.967Z" fill="black"/>
<path d="M142.402 188.04C142.398 188.039 142.403 187.968 142.417 187.83C142.434 187.681 142.456 187.478 142.486 187.22C142.554 186.67 142.651 185.883 142.775 184.876C142.84 184.366 142.912 183.801 142.991 183.184C143.057 182.563 143.128 181.889 143.205 181.166C143.351 179.717 143.552 178.071 143.683 176.242C143.758 175.329 143.836 174.372 143.918 173.375C143.998 172.378 144.043 171.338 144.111 170.263C144.261 168.113 144.323 165.811 144.41 163.389C144.52 158.545 144.503 153.216 144.252 147.629C143.977 142.041 143.495 136.732 142.93 131.919C142.615 129.517 142.338 127.23 141.987 125.103C141.819 124.039 141.676 123.008 141.503 122.023C141.328 121.038 141.16 120.093 140.999 119.19C140.696 117.382 140.342 115.762 140.061 114.333C139.917 113.62 139.782 112.956 139.658 112.344C139.522 111.737 139.397 111.181 139.285 110.68C139.066 109.689 138.896 108.915 138.776 108.374C138.723 108.12 138.681 107.92 138.65 107.773C138.623 107.637 138.612 107.567 138.616 107.566C138.621 107.565 138.641 107.633 138.676 107.766C138.713 107.912 138.763 108.109 138.827 108.362C138.958 108.9 139.144 109.671 139.383 110.657C139.502 111.157 139.635 111.712 139.779 112.318C139.91 112.929 140.051 113.592 140.203 114.303C140.498 115.73 140.865 117.349 141.179 119.157C141.345 120.059 141.519 121.004 141.7 121.989C141.879 122.974 142.026 124.005 142.2 125.07C142.56 127.198 142.846 129.485 143.167 131.89C143.746 136.707 144.236 142.022 144.512 147.617C144.763 153.21 144.773 158.547 144.649 163.396C144.555 165.82 144.485 168.124 144.326 170.276C144.254 171.352 144.203 172.392 144.118 173.39C144.03 174.387 143.946 175.345 143.866 176.259C143.723 178.088 143.509 179.734 143.349 181.182C143.265 181.905 143.186 182.578 143.113 183.199C143.026 183.816 142.947 184.381 142.875 184.89C142.729 185.894 142.616 186.679 142.537 187.228C142.497 187.485 142.465 187.686 142.442 187.835C142.421 187.971 142.407 188.04 142.402 188.04Z" fill="black"/>
<path d="M152.973 134.068C152.97 134.066 153.004 134.061 153.073 134.052C153.153 134.042 153.255 134.03 153.385 134.014C153.676 133.981 154.086 133.936 154.614 133.877C155.709 133.761 157.292 133.592 159.295 133.378C163.354 132.958 169.114 132.362 175.972 131.652L176.096 131.639L176.099 131.764C176.229 136.813 176.375 142.52 176.53 148.575L176.531 148.628L176.495 148.667C175.856 149.354 175.172 150.088 174.483 150.829C171.966 153.53 169.523 156.151 167.201 158.644L167.137 158.713L167.053 158.671C162.582 156.452 158.436 154.394 154.767 152.573L154.713 152.546L154.708 152.487C154.173 146.912 153.732 142.3 153.422 139.068C153.275 137.477 153.159 136.226 153.079 135.359C153.043 134.945 153.014 134.623 152.994 134.392C152.975 134.175 152.973 134.068 152.973 134.068C152.973 134.068 152.993 134.189 153.019 134.413C153.045 134.648 153.082 134.976 153.129 135.398C153.223 136.269 153.358 137.526 153.53 139.125C153.864 142.338 154.342 146.923 154.92 152.467L154.861 152.382C158.535 154.193 162.687 156.239 167.164 158.446L167.016 158.473C169.337 155.978 171.777 153.355 174.292 150.652C174.982 149.911 175.666 149.177 176.305 148.49L176.27 148.582C176.126 142.526 175.989 136.819 175.869 131.77L175.996 131.882C169.163 132.542 163.425 133.095 159.381 133.485C157.365 133.674 155.771 133.823 154.668 133.926C154.13 133.974 153.711 134.011 153.414 134.037C153.279 134.048 153.172 134.057 153.089 134.063C153.014 134.068 152.975 134.07 152.973 134.068Z" fill="black"/>
<path d="M176.127 137.59C176.13 137.608 175.821 137.665 175.262 137.755C174.702 137.846 173.89 137.959 172.885 138.088C170.875 138.347 168.09 138.641 165.014 138.934C161.958 139.233 159.193 139.504 157.138 139.705C156.163 139.807 155.359 139.892 154.753 139.955C154.189 140.014 153.877 140.037 153.874 140.02C153.872 140.002 154.18 139.944 154.74 139.855C155.299 139.764 156.111 139.65 157.117 139.522C159.127 139.263 161.911 138.968 164.989 138.675C168.044 138.376 170.808 138.106 172.863 137.905C173.838 137.802 174.642 137.718 175.248 137.654C175.812 137.596 176.125 137.572 176.127 137.59Z" fill="black"/>
<g opacity="0.3">
<path d="M180.955 157.255C181.235 160.66 181.515 164.066 181.795 167.472C183.649 158.721 186.563 149.317 186.111 140.383C185.661 131.508 184.817 122.912 179.787 114.828C179.787 114.828 183.199 123.371 182.739 133.823C182.278 144.276 180.955 157.255 180.955 157.255Z" fill="black"/>
</g>
<path d="M66.941 138.24C66.606 137.663 66.2205 137.043 65.5895 136.826C64.8875 136.584 64.131 136.922 63.4665 137.253C57.4185 140.264 51.3705 143.275 45.3225 146.287C44.1315 146.88 42.837 147.585 42.386 148.836C41.8085 150.437 42.8615 152.124 43.863 153.5C45.5355 155.797 47.534 158.294 50.357 158.619L65.9575 147.919C67.865 147.639 69.051 145.516 68.977 143.59C68.9035 141.662 67.909 139.908 66.941 138.24Z" fill="#FF4F00"/>
<path d="M68.9122 144.778C68.9182 144.785 68.8632 144.845 68.7532 144.953C68.6187 145.08 68.4572 145.234 68.2622 145.418C67.8337 145.819 67.1987 146.383 66.4012 147.065C64.8072 148.43 62.5402 150.243 59.9237 152.093C57.3047 153.94 54.8367 155.47 53.0172 156.515C52.1077 157.039 51.3637 157.448 50.8422 157.718C50.6037 157.839 50.4047 157.941 50.2402 158.025C50.1012 158.092 50.0262 158.124 50.0217 158.116C50.0172 158.108 50.0842 158.061 50.2147 157.979C50.3727 157.883 50.5632 157.768 50.7927 157.629C51.3317 157.307 52.0507 156.878 52.9232 156.356C54.7162 155.272 57.1612 153.722 59.7737 151.879C62.3832 150.035 64.6622 148.249 66.2837 146.923C67.0667 146.275 67.7122 145.741 68.1962 145.341C68.4032 145.171 68.5757 145.03 68.7192 144.913C68.8397 144.819 68.9062 144.772 68.9122 144.778Z" fill="black"/>
<g opacity="0.3">
<path d="M154.576 89.8335C152.44 96.927 149.449 104.944 146.926 111.815C144.774 109.988 141.764 107.573 139.611 105.746C141.463 109.422 143.694 112.908 146.256 116.13C146.552 116.503 146.954 116.912 147.422 116.822C147.865 116.737 148.093 116.255 148.253 115.833C149.565 112.362 150.878 108.891 152.191 105.42C154.028 100.561 155.807 94.882 154.576 89.8335Z" fill="black"/>
</g>
<path d="M120.823 12.6998C127.305 10.8283 133.403 12.7158 139.398 15.8098C145.394 18.9043 150.227 24.0523 153.359 30.0288C156.657 36.3233 158.116 43.6613 156.922 50.6663C155.728 57.6718 151.77 64.2693 145.836 68.1798C137.733 73.5193 126.566 73.2413 118.216 68.2963C109.866 63.3513 104.38 54.2333 102.921 44.6393C101.915 38.0298 102.733 31.0588 105.819 25.1278C108.905 19.1968 114.359 14.4088 120.823 12.6998Z" fill="#263238"/>
<path d="M142.164 33.0475C140.911 30.628 140.966 27.763 140.28 25.1265C138.77 19.3205 133.48 15.1275 127.72 13.449C122.362 11.888 116.167 13.062 110.23 15.7515C106.16 17.595 102.454 20.4265 100.026 24.177C96.8045 29.1545 96.2155 35.7375 98.5035 41.208L128.198 33.3935C131.29 35.412 134.453 37.463 138.029 38.3785C139.079 38.6475 140.194 38.813 141.238 38.524C142.282 38.235 143.233 37.3955 143.367 36.3205C143.512 35.1455 142.708 34.0985 142.164 33.0475Z" fill="#263238"/>
<path d="M149.249 85.7005L141.583 31.788C141.245 29.238 140.09 26.642 137.52 26.7605L110.528 24.1595C102.071 24.55 98.101 35.643 98.85 44.0765C99.682 53.446 101.068 64.852 103.225 71.6085C107.562 85.194 118.503 85.337 118.503 85.337C118.499 85.2895 119.169 88.036 120.001 93.0865L137.5 104.724L149.249 85.7005Z" fill="white"/>
<path d="M105.366 54.3285C105.476 55.2765 106.371 55.965 107.363 55.8675C108.353 55.77 109.068 54.925 108.958 53.9765C108.847 53.0285 107.953 52.3395 106.963 52.4365C105.97 52.5335 105.255 53.3805 105.366 54.3285Z" fill="#263238"/>
<path d="M102.215 49.6065C102.472 49.8055 103.672 48.598 105.594 48.3095C107.51 47.994 109.071 48.7675 109.244 48.5C109.331 48.38 109.04 47.9945 108.359 47.641C107.686 47.2885 106.589 47.013 105.393 47.2005C104.197 47.39 103.257 47.9845 102.747 48.5235C102.226 49.0675 102.09 49.519 102.215 49.6065Z" fill="#263238"/>
<path d="M123.136 51.4415C123.246 52.3895 124.141 53.0775 125.133 52.98C126.123 52.8825 126.838 52.0375 126.728 51.089C126.617 50.141 125.723 49.4515 124.733 49.549C123.74 49.646 123.025 50.4935 123.136 51.4415Z" fill="#263238"/>
<path d="M120.479 47.062C120.737 47.261 121.938 46.0535 123.859 45.7655C125.775 45.4495 127.336 46.223 127.509 45.956C127.595 45.836 127.308 45.45 126.623 45.097C125.95 44.7435 124.853 44.468 123.657 44.656C122.462 44.8455 121.522 45.44 121.012 45.9795C120.492 46.5225 120.355 46.9745 120.479 47.062Z" fill="#263238"/>
<path d="M116.359 62.3961C116.351 62.2856 115.125 62.2616 113.152 62.3096C112.654 62.3336 112.174 62.3071 112.041 61.9851C111.871 61.6476 111.996 61.0881 112.146 60.4806C112.426 59.2226 112.719 57.9041 113.027 56.5226C114.23 50.8956 115.021 46.2986 114.794 46.2526C114.567 46.2056 113.407 50.7296 112.205 56.3566C111.92 57.7421 111.647 59.0636 111.389 60.3276C111.288 60.9131 111.065 61.5951 111.428 62.2921C111.617 62.6386 112.017 62.8496 112.345 62.8861C112.674 62.9341 112.951 62.8971 113.196 62.8746C115.159 62.6826 116.368 62.5066 116.359 62.3961Z" fill="#263238"/>
<path d="M118.504 85.337C118.504 85.337 127.963 84.511 136.391 77.516C136.391 77.516 132.026 88.4385 119.378 89.5385L118.504 85.337Z" fill="#C7C7C7"/>
<path d="M122.227 62.862C121.912 62.8915 122.226 64.9775 120.667 66.731C119.112 68.4885 116.853 68.5935 116.881 68.8875C116.872 69.023 117.438 69.2175 118.38 69.0995C119.306 68.9905 120.605 68.49 121.559 67.417C122.51 66.343 122.793 65.06 122.733 64.1935C122.679 63.3095 122.368 62.8285 122.227 62.862Z" fill="#263238"/>
<path d="M119.949 41.321C120.218 41.8145 122.098 41.274 124.393 41.2015C126.689 41.083 128.607 41.465 128.835 40.951C128.934 40.7065 128.542 40.2635 127.73 39.87C126.924 39.476 125.688 39.1735 124.312 39.2295C122.936 39.288 121.73 39.692 120.96 40.1515C120.183 40.6115 119.829 41.0855 119.949 41.321Z" fill="#263238"/>
<path d="M101.496 41.1196C101.9 41.5041 103.155 40.8491 104.743 40.5846C106.322 40.2646 107.728 40.4291 107.968 39.9251C108.071 39.6826 107.791 39.2781 107.14 38.9546C106.496 38.6316 105.474 38.4436 104.385 38.6436C103.297 38.8456 102.41 39.3856 101.924 39.9171C101.43 40.4516 101.314 40.9291 101.496 41.1196Z" fill="#263238"/>
<path d="M146.533 28.4295C142.892 20.712 129.722 11.1255 121.363 12.8405L108.967 22.7195C110.395 27.2025 114.473 30.727 119.116 31.4905C121.595 31.898 124.491 31.7145 126.18 33.5745C127.906 35.4735 127.467 38.6325 129.101 40.6105C131.366 43.352 136.448 42.5295 138.28 45.5775C139.08 46.9095 138.986 48.6405 139.809 49.9575C140.907 51.7125 145.952 53.45 147.825 52.569C149.698 51.688 149.26 48.357 149.666 46.5265C150.361 43.399 149.705 41.913 149.123 40.2955C147.746 36.465 148.27 32.112 146.533 28.4295Z" fill="#263238"/>
<path d="M142.273 54.988C142.117 53.9505 142.942 51.3235 143.942 51.007C146.611 50.163 151.573 49.6305 152.68 56.568C154.192 66.0515 144.359 65.6135 144.298 65.344C144.251 65.1335 142.811 58.5695 142.273 54.988Z" fill="white"/>
<path d="M146.623 61.2891C146.66 61.2521 146.807 61.3781 147.106 61.4621C147.398 61.5431 147.88 61.5546 148.345 61.2906C149.288 60.7631 149.878 59.0381 149.652 57.3216C149.538 56.4546 149.227 55.6616 148.812 55.0296C148.412 54.3821 147.886 53.9686 147.367 53.9601C146.847 53.9236 146.538 54.2826 146.464 54.5676C146.379 54.8536 146.47 55.0331 146.422 55.0571C146.4 55.0856 146.194 54.9311 146.208 54.5276C146.217 54.3331 146.292 54.0911 146.486 53.8736C146.684 53.6521 147.004 53.5051 147.362 53.4866C148.101 53.4211 148.867 53.9886 149.322 54.6821C149.818 55.3726 150.189 56.2606 150.316 57.2341C150.56 59.1546 149.867 61.0986 148.559 61.7136C147.92 61.9936 147.331 61.8816 147.008 61.7036C146.677 61.5156 146.593 61.3111 146.623 61.2891Z" fill="#C7C7C7"/>
<path d="M111.412 19.5234C110.974 23.5044 105.638 29.1484 103.391 32.4634C99.1032 38.7879 98.3462 40.8129 99.8532 53.6959C97.0167 49.5089 94.7367 45.3489 94.3472 40.3064C93.9577 35.2639 95.2382 30.0229 98.3207 26.0134C101.403 22.0039 106.357 19.3659 111.412 19.5234Z" fill="#263238"/>
<path d="M134.064 5.96144C136.079 3.75344 138.955 2.31794 141.954 1.56944C146.232 0.501939 150.922 0.790441 154.816 2.64944C158.709 4.50844 161.714 7.98744 162.516 11.9959C163.317 16.0044 161.772 20.4514 158.374 23.1144C160.536 25.2344 163.278 26.8404 166.28 27.7449C165.469 28.9589 163.973 29.6709 162.465 29.9264C160.957 30.1814 159.415 30.0389 157.897 29.8954C158.874 31.3999 160.454 32.5529 162.265 33.0824C159.828 33.7089 157.219 33.5119 154.819 32.8419C152.419 32.1719 150.204 31.0469 148.086 29.8169C140.772 25.5679 136.738 21.8504 131.796 15.2924C131.132 12.5024 132.049 8.16944 134.064 5.96144Z" fill="#263238"/>
<path d="M149.832 25.9973C144.465 18.1568 137.631 13.9578 131.444 12.6543L149.832 25.9973Z" fill="#263238"/>
<path d="M131.444 12.6549C131.44 12.6739 131.753 12.7679 132.32 12.9204C132.885 13.0804 133.699 13.3264 134.679 13.6989C136.64 14.4329 139.252 15.7454 141.804 17.6779C144.356 19.6114 146.371 21.7219 147.712 23.3344C148.374 24.1499 148.91 24.8104 149.255 25.2864C149.611 25.7544 149.816 26.0084 149.832 25.9974C149.848 25.9864 149.674 25.7114 149.344 25.2224C149.026 24.7254 148.512 24.0434 147.867 23.2074C146.559 21.5549 144.55 19.4029 141.975 17.4519C139.399 15.5014 136.743 14.2019 134.748 13.5109C133.751 13.1594 132.923 12.9414 132.347 12.8134C131.769 12.6929 131.448 12.6354 131.444 12.6549Z" fill="#455A64"/>
<path d="M156.236 32.6844C156.234 32.6799 156.193 32.6934 156.114 32.7234C156.02 32.7614 155.906 32.8069 155.767 32.8629C155.466 32.9944 155.013 33.1649 154.426 33.3709C153.248 33.7684 151.495 34.2344 149.277 34.4214C147.063 34.6134 144.393 34.5009 141.507 33.9329C138.618 33.3754 135.529 32.3644 132.378 31.0899C129.229 29.8034 126.26 28.4844 123.615 27.1879C120.973 25.8834 118.672 24.5484 116.849 23.2699C115.019 21.9999 113.657 20.8114 112.759 19.9489C112.301 19.5254 111.972 19.1709 111.741 18.9364C111.635 18.8304 111.548 18.7434 111.477 18.6719C111.416 18.6134 111.383 18.5849 111.379 18.5884C111.376 18.5919 111.401 18.6264 111.455 18.6914C111.521 18.7679 111.601 18.8614 111.699 18.9749C111.916 19.2219 112.234 19.5899 112.682 20.0274C113.559 20.9174 114.909 22.1354 116.734 23.4334C118.552 24.7399 120.854 26.0999 123.499 27.4214C126.148 28.7364 129.113 30.0624 132.272 31.3529C135.433 32.6314 138.544 33.6414 141.458 34.1894C144.37 34.7479 147.065 34.8404 149.295 34.6214C151.53 34.4069 153.29 33.9069 154.463 33.4749C155.048 33.2519 155.497 33.0644 155.791 32.9154C155.926 32.8489 156.036 32.7944 156.127 32.7499C156.201 32.7109 156.238 32.6889 156.236 32.6844Z" fill="#455A64"/>
</svg>
