<svg width="13" height="13" viewBox="0 0 13 13" fill="none" xmlns="http://www.w3.org/2000/svg">
<path d="M5.08698 6.25771C5.144 6.22479 5.19135 6.17743 5.22426 6.12041C5.25718 6.06339 5.2745 5.9987 5.27448 5.93286V2.55786C5.27415 2.49807 5.25952 2.43923 5.23183 2.38625C5.20413 2.33326 5.16417 2.28767 5.11527 2.25326C5.06637 2.21886 5.00996 2.19665 4.95073 2.18848C4.8915 2.18031 4.83118 2.18642 4.7748 2.2063C3.68025 2.59368 2.75979 3.35879 2.17887 4.36408C1.59794 5.36938 1.39467 6.54892 1.60558 7.69067C1.61651 7.74972 1.64146 7.80527 1.67833 7.85266C1.7152 7.90006 1.76291 7.9379 1.81745 7.96302C1.8666 7.986 1.92022 7.99785 1.97448 7.99771C2.0403 7.99773 2.10497 7.98043 2.16198 7.94755L5.08698 6.25771ZM4.52448 3.12599V5.7163L2.28011 7.01146C2.27448 6.94067 2.27448 6.86942 2.27448 6.80005C2.27515 6.03991 2.48556 5.29469 2.88254 4.64644C3.27953 3.9982 3.84769 3.47207 4.52448 3.12599ZM11.2745 6.80005C11.2749 7.87027 10.923 8.91086 10.2733 9.76129C9.62361 10.6117 8.7121 11.2247 7.67943 11.5057C6.64676 11.7867 5.55032 11.7201 4.55928 11.3161C3.56824 10.9121 2.73767 10.1932 2.19573 9.27036C2.17047 9.22774 2.1539 9.18052 2.147 9.13146C2.14009 9.08239 2.14297 9.03244 2.15548 8.9845C2.16799 8.93655 2.18988 8.89156 2.21988 8.85212C2.24988 8.81269 2.2874 8.77959 2.33026 8.75474L6.02448 6.60458V2.30005C6.02448 2.20059 6.06399 2.10521 6.13432 2.03488C6.20464 1.96456 6.30003 1.92505 6.39948 1.92505C7.2502 1.92548 8.08602 2.14842 8.82394 2.57174C9.56186 2.99505 10.1762 3.60402 10.606 4.33817C10.6112 4.34567 10.6159 4.35317 10.6206 4.36114C10.6253 4.36911 10.63 4.37849 10.6342 4.38692C11.0548 5.12153 11.2756 5.95354 11.2745 6.80005Z" fill="white"/>
</svg>
