<svg width="13" height="13" viewBox="0 0 13 13" fill="none" xmlns="http://www.w3.org/2000/svg">
<path d="M11.2746 7.72533V10.8191C11.2746 10.8937 11.245 10.9652 11.1922 11.018C11.1395 11.0707 11.068 11.1003 10.9934 11.1003H7.89961C7.20154 11.1005 6.52058 10.8842 5.95056 10.4812C5.38054 10.0783 4.94949 9.50848 4.7168 8.85033H4.89961C5.79472 8.85033 6.65316 8.49475 7.28609 7.86182C7.91903 7.22888 8.27461 6.37044 8.27461 5.47533C8.27485 5.0941 8.21033 4.71559 8.08383 4.35596C8.94565 4.40307 9.75668 4.77857 10.3502 5.40527C10.9436 6.03197 11.2745 6.86222 11.2746 7.72533Z" fill="#1C1C1C" fill-opacity="0.1"/>
<path d="M8.34801 4.0026C8.00863 3.20805 7.4053 2.55506 6.64002 2.15403C5.87473 1.75299 4.99445 1.62852 4.14797 1.80165C3.3015 1.97478 2.54078 2.43489 1.99442 3.1042C1.44805 3.77351 1.14956 4.61095 1.14941 5.47494V8.5687C1.14941 8.74274 1.21855 8.90966 1.34163 9.03273C1.4647 9.1558 1.63162 9.22495 1.80566 9.22495H4.46207C4.7547 9.89322 5.23557 10.4618 5.84596 10.8614C6.45636 11.2609 7.16988 11.4741 7.89941 11.4749H10.9932C11.1672 11.4749 11.3341 11.4058 11.4572 11.2827C11.5803 11.1597 11.6494 10.9927 11.6494 10.8187V7.72494C11.6492 6.80819 11.3132 5.92326 10.7049 5.2374C10.0966 4.55154 9.25818 4.11227 8.34801 4.0026ZM1.89941 5.47494C1.89941 4.8816 2.07536 4.30158 2.40501 3.80823C2.73465 3.31489 3.20319 2.93037 3.75136 2.70331C4.29954 2.47624 4.90274 2.41683 5.48468 2.53259C6.06663 2.64834 6.60118 2.93407 7.02073 3.35362C7.44029 3.77318 7.72601 4.30773 7.84177 4.88967C7.95753 5.47162 7.89812 6.07482 7.67105 6.623C7.44399 7.17117 7.05947 7.63971 6.56612 7.96935C6.07278 8.299 5.49276 8.47495 4.89941 8.47495H1.89941V5.47494ZM10.8994 10.7249H7.89941C7.36894 10.7243 6.84806 10.5834 6.38967 10.3164C5.93127 10.0494 5.55168 9.6659 5.28941 9.20479C5.80303 9.15149 6.30009 8.9926 6.74938 8.73809C7.19868 8.48357 7.59052 8.13894 7.9003 7.72581C8.21008 7.31267 8.43112 6.83997 8.54955 6.33736C8.66797 5.83474 8.68123 5.31308 8.58848 4.8051C9.24626 4.96034 9.83235 5.33313 10.2518 5.86309C10.6712 6.39304 10.8994 7.04909 10.8994 7.72494V10.7249Z" fill="#1C1C1C"/>
</svg>
