<svg width="13" height="13" viewBox="0 0 13 13" fill="none" xmlns="http://www.w3.org/2000/svg">
<path d="M10.3916 6.3999C10.3916 7.21575 10.1497 8.01328 9.69642 8.69163C9.24316 9.36998 8.59892 9.89869 7.84517 10.2109C7.09143 10.5231 6.26203 10.6048 5.46186 10.4456C4.66168 10.2865 3.92668 9.89361 3.34979 9.31672C2.7729 8.73983 2.38003 8.00482 2.22086 7.20465C2.0617 6.40448 2.14339 5.57508 2.4556 4.82133C2.76781 4.06759 3.29652 3.42335 3.97488 2.97009C4.65323 2.51683 5.45076 2.2749 6.2666 2.2749C7.36062 2.2749 8.40983 2.7095 9.18342 3.48309C9.95701 4.25667 10.3916 5.30588 10.3916 6.3999Z" fill="#1C1C1C" fill-opacity="0.1"/>
<path d="M6.6416 4.14992V6.18757L8.33473 7.20335C8.42001 7.25457 8.48145 7.33758 8.50554 7.4341C8.52963 7.53062 8.51438 7.63276 8.46316 7.71804C8.41194 7.80333 8.32894 7.86477 8.23242 7.88886C8.1359 7.91294 8.03376 7.8977 7.94848 7.84648L6.07348 6.72148C6.01798 6.68814 5.97207 6.641 5.94019 6.58465C5.90832 6.5283 5.89158 6.46466 5.8916 6.39992V4.14992C5.8916 4.05046 5.93111 3.95508 6.00144 3.88475C6.07176 3.81443 6.16715 3.77492 6.2666 3.77492C6.36606 3.77492 6.46144 3.81443 6.53177 3.88475C6.60209 3.95508 6.6416 4.05046 6.6416 4.14992ZM6.2666 1.89992C5.67504 1.89844 5.08905 2.01431 4.54257 2.2408C3.99608 2.4673 3.49993 2.79993 3.08285 3.21945C2.74207 3.56445 2.43926 3.89632 2.1416 4.24367V3.39992C2.1416 3.30046 2.10209 3.20508 2.03177 3.13475C1.96144 3.06443 1.86606 3.02492 1.7666 3.02492C1.66715 3.02492 1.57176 3.06443 1.50144 3.13475C1.43111 3.20508 1.3916 3.30046 1.3916 3.39992V5.27492C1.3916 5.37437 1.43111 5.46976 1.50144 5.54008C1.57176 5.61041 1.66715 5.64992 1.7666 5.64992H3.6416C3.74106 5.64992 3.83644 5.61041 3.90677 5.54008C3.97709 5.46976 4.0166 5.37437 4.0166 5.27492C4.0166 5.17546 3.97709 5.08008 3.90677 5.00975C3.83644 4.93943 3.74106 4.89992 3.6416 4.89992H2.56348C2.89863 4.50523 3.23238 4.13351 3.61301 3.7482C4.13419 3.22702 4.7974 2.87098 5.51977 2.72458C6.24215 2.57817 6.99165 2.64789 7.67462 2.92502C8.3576 3.20215 8.94377 3.6744 9.35988 4.28276C9.77599 4.89113 10.0036 5.60863 10.0143 6.34561C10.0249 7.08259 9.81817 7.80638 9.41982 8.42652C9.02148 9.04667 8.44922 9.53568 7.77455 9.83245C7.09987 10.1292 6.3527 10.2206 5.6264 10.0951C4.90009 9.96969 4.22686 9.63299 3.69082 9.1271C3.65499 9.09325 3.61285 9.06678 3.56679 9.04921C3.52074 9.03164 3.47167 9.02331 3.4224 9.02471C3.37313 9.0261 3.32461 9.03719 3.27962 9.05733C3.23463 9.07747 3.19405 9.10628 3.1602 9.1421C3.12634 9.17793 3.09987 9.22007 3.0823 9.26613C3.06473 9.31218 3.05641 9.36125 3.0578 9.41052C3.05919 9.4598 3.07028 9.50831 3.09042 9.5533C3.11056 9.59829 3.13937 9.63887 3.1752 9.67273C3.70931 10.1768 4.35867 10.5424 5.0666 10.7378C5.77453 10.9331 6.51952 10.9523 7.23654 10.7935C7.95357 10.6347 8.62084 10.3029 9.18012 9.82692C9.7394 9.35096 10.1737 8.74535 10.4451 8.06295C10.7165 7.38055 10.8168 6.6421 10.7371 5.91203C10.6575 5.18197 10.4004 4.48249 9.98832 3.87463C9.57619 3.26678 9.02157 2.76903 8.37284 2.42481C7.72411 2.0806 7.00099 1.90039 6.2666 1.89992Z" fill="#1C1C1C"/>
</svg>
