<svg width="124" height="125" viewBox="0 0 124 125" fill="none" xmlns="http://www.w3.org/2000/svg">
<path d="M39.7402 101.401C42.7938 101.401 44.3206 101.401 45.7116 101.917C45.9048 101.988 46.0952 102.067 46.2825 102.153C47.631 102.772 48.7106 103.851 50.8699 106.01C55.84 110.98 58.3246 113.465 61.3823 113.694C61.793 113.725 62.2063 113.725 62.6171 113.694C65.6747 113.465 68.1599 110.98 73.1292 106.01C75.2889 103.851 76.3682 102.772 77.7167 102.153C77.9042 102.067 78.0944 101.988 78.2876 101.917C79.679 101.401 81.2057 101.401 84.2592 101.401H84.8224C92.6132 101.401 96.5089 101.401 98.9289 98.98C101.35 96.5599 101.35 92.6642 101.35 84.8734V84.3102C101.35 81.2567 101.35 79.73 101.866 78.3386C101.937 78.1454 102.016 77.9552 102.102 77.7677C102.721 76.4192 103.8 75.3399 105.959 73.1802C110.929 68.2109 113.414 65.7257 113.643 62.6681C113.674 62.2574 113.674 61.844 113.643 61.4333C113.414 58.3756 110.929 55.891 105.959 50.9209C103.8 48.7617 102.721 47.682 102.102 46.3335C102.016 46.1463 101.937 45.9558 101.866 45.7626C101.35 44.3717 101.35 42.8449 101.35 39.7912V39.2279C101.35 31.4371 101.35 27.5417 98.9289 25.1214C96.5089 22.7011 92.6132 22.7011 84.8224 22.7011H84.2592C81.2057 22.7011 79.679 22.7011 78.2876 22.185C78.0944 22.1133 77.9042 22.0344 77.7167 21.9485C76.3682 21.3299 75.2889 20.2502 73.1292 18.091C68.1599 13.1212 65.6747 10.6363 62.6171 10.4071C62.2063 10.3763 61.793 10.3763 61.3823 10.4071C58.3246 10.6363 55.84 13.1212 50.8699 18.091C48.7106 20.2502 47.631 21.3299 46.2825 21.9485C46.0952 22.0344 45.9048 22.1133 45.7116 22.185C44.3206 22.7011 42.7938 22.7011 39.7402 22.7011H39.1769C31.3861 22.7011 27.4906 22.7011 25.0704 25.1214C22.65 27.5417 22.65 31.4371 22.65 39.2279V39.7912C22.65 42.8449 22.65 44.3717 22.1339 45.7626C22.0623 45.9558 21.9834 46.1463 21.8975 46.3335C21.2788 47.682 20.1992 48.7617 18.04 50.9209C13.0702 55.891 10.5852 58.3756 10.3561 61.4333C10.3253 61.844 10.3253 62.2574 10.3561 62.6681C10.5852 65.7257 13.0702 68.2109 18.04 73.1802C20.1992 75.3399 21.2788 76.4192 21.8975 77.7677C21.9834 77.9552 22.0623 78.1454 22.1339 78.3386C22.65 79.73 22.65 81.2567 22.65 84.3102V84.8734C22.65 92.6642 22.65 96.5599 25.0704 98.98C27.4906 101.401 31.3861 101.401 39.1769 101.401H39.7402Z" stroke="white" stroke-width="6"/>
<path d="M77.5 46.5508L46.5 77.5508" stroke="#FF4F00" stroke-width="6" stroke-linecap="round" stroke-linejoin="round"/>
<path d="M77.5 77.5508H77.4442M46.5556 46.5508H46.5" stroke="#FF4F00" stroke-width="10.3333" stroke-linecap="round" stroke-linejoin="round"/>
</svg>
