<svg width="13" height="13" viewBox="0 0 13 13" fill="none" xmlns="http://www.w3.org/2000/svg">
<path d="M6.39941 4.55005L4.99926 5.60005C4.93435 5.64873 4.8554 5.67505 4.77426 5.67505H1.89941V3.80005C1.89941 3.70059 1.93892 3.60521 2.00925 3.53488C2.07958 3.46456 2.17496 3.42505 2.27441 3.42505H4.77426C4.8554 3.42505 4.93435 3.45137 4.99926 3.50005L6.39941 4.55005Z" fill="#1C1C1C" fill-opacity="0.1"/>
<path d="M10.5244 4.17505H6.52457L5.22426 3.20005C5.09425 3.10304 4.93647 3.05045 4.77426 3.05005H2.27441C2.0755 3.05005 1.88474 3.12907 1.74408 3.26972C1.60343 3.41037 1.52441 3.60114 1.52441 3.80005V10.175C1.52441 10.374 1.60343 10.5647 1.74408 10.7054C1.88474 10.846 2.0755 10.925 2.27441 10.925H10.5244C10.7233 10.925 10.9141 10.846 11.0547 10.7054C11.1954 10.5647 11.2744 10.374 11.2744 10.175V4.92505C11.2744 4.72614 11.1954 4.53537 11.0547 4.39472C10.9141 4.25407 10.7233 4.17505 10.5244 4.17505ZM2.27441 3.80005H4.77426L5.77457 4.55005L4.77426 5.30005H2.27441V3.80005ZM10.5244 10.175H2.27441V6.05005H4.77426C4.93647 6.04965 5.09425 5.99705 5.22426 5.90005L6.52457 4.92505H10.5244V10.175Z" fill="#1C1C1C"/>
</svg>
