<svg width="18" height="21" viewBox="0 0 18 21" fill="none" xmlns="http://www.w3.org/2000/svg">
<mask id="mask0_301_40860" style="mask-type:alpha" maskUnits="userSpaceOnUse" x="1" y="0" width="17" height="20">
<path fill-rule="evenodd" clip-rule="evenodd" d="M8.14155 18.3411C8.77696 19.4417 10.156 19.8387 11.3548 19.4167C12.5011 19.0132 13.7006 18.7225 14.9399 18.5578C16.2538 18.3833 17.333 17.3256 17.333 16.0001V2.80015C17.333 1.47466 16.2572 0.391776 14.9346 0.478775C10.5167 0.769372 6.31641 1.85693 2.47624 3.59904C1.24448 4.15783 0.822484 5.6641 1.49878 6.83547L8.14155 18.3411Z" fill="url(#paint0_linear_301_40860)"/>
</mask>
<g mask="url(#mask0_301_40860)">
<path fill-rule="evenodd" clip-rule="evenodd" d="M8.14155 18.3411C8.77696 19.4417 10.156 19.8387 11.3548 19.4167C12.5011 19.0132 13.7006 18.7225 14.9399 18.5578C16.2538 18.3833 17.333 17.3256 17.333 16.0001V2.80015C17.333 1.47466 16.2572 0.391776 14.9346 0.478775C10.5167 0.769372 6.31641 1.85693 2.47624 3.59904C1.24448 4.15783 0.822484 5.6641 1.49878 6.83547L8.14155 18.3411Z" fill="#E3F5FF"/>
</g>
<defs>
<linearGradient id="paint0_linear_301_40860" x1="17.333" y1="0.400146" x2="11.0507" y2="9.6229" gradientUnits="userSpaceOnUse">
<stop/>
<stop offset="1"/>
</linearGradient>
</defs>
</svg>
