<svg width="46" height="73" viewBox="0 0 46 73" fill="none" xmlns="http://www.w3.org/2000/svg">
<mask id="mask0_301_40839" style="mask-type:alpha" maskUnits="userSpaceOnUse" x="1" y="0" width="45" height="73">
<path fill-rule="evenodd" clip-rule="evenodd" d="M1.29069 69.5744C1.02938 70.5496 1.62053 71.5535 2.61227 71.7426C4.80883 72.1613 7.07617 72.3805 9.39469 72.3805C29.2769 72.3805 45.3947 56.2628 45.3947 36.3805C45.3947 17.5279 30.9031 2.06005 12.4517 0.508493C11.4381 0.423258 10.5947 1.24286 10.5947 2.26007L10.5947 16.7345C10.5947 17.6827 11.333 18.4586 12.2693 18.6088C20.844 19.985 27.3947 27.4178 27.3947 36.3805C27.3947 46.3216 19.3358 54.3805 9.39469 54.3805C8.64296 54.3805 7.902 54.3344 7.17447 54.245C6.2179 54.1273 5.2798 54.6868 5.03036 55.6177L1.29069 69.5744Z" fill="url(#paint0_linear_301_40839)"/>
</mask>
<g mask="url(#mask0_301_40839)">
<path fill-rule="evenodd" clip-rule="evenodd" d="M1.29069 69.5744C1.02938 70.5496 1.62053 71.5535 2.61227 71.7426C4.80883 72.1613 7.07617 72.3805 9.39469 72.3805C29.2769 72.3805 45.3947 56.2628 45.3947 36.3805C45.3947 17.5279 30.9031 2.06005 12.4517 0.508493C11.4381 0.423258 10.5947 1.24286 10.5947 2.26007L10.5947 16.7345C10.5947 17.6827 11.333 18.4586 12.2693 18.6088C20.844 19.985 27.3947 27.4178 27.3947 36.3805C27.3947 46.3216 19.3358 54.3805 9.39469 54.3805C8.64296 54.3805 7.902 54.3344 7.17447 54.245C6.2179 54.1273 5.2798 54.6868 5.03036 55.6177L1.29069 69.5744Z" fill="url(#paint1_linear_301_40839)"/>
<path fill-rule="evenodd" clip-rule="evenodd" d="M1.29069 69.5744C1.02938 70.5496 1.62053 71.5535 2.61227 71.7426C4.80883 72.1613 7.07617 72.3805 9.39469 72.3805C29.2769 72.3805 45.3947 56.2628 45.3947 36.3805C45.3947 17.5279 30.9031 2.06005 12.4517 0.508493C11.4381 0.423258 10.5947 1.24286 10.5947 2.26007L10.5947 16.7345C10.5947 17.6827 11.333 18.4586 12.2693 18.6088C20.844 19.985 27.3947 27.4178 27.3947 36.3805C27.3947 46.3216 19.3358 54.3805 9.39469 54.3805C8.64296 54.3805 7.902 54.3344 7.17447 54.245C6.2179 54.1273 5.2798 54.6868 5.03036 55.6177L1.29069 69.5744Z" fill="#1C1C1C" style="mix-blend-mode:screen"/>
</g>
<defs>
<linearGradient id="paint0_linear_301_40839" x1="45.3947" y1="0.400146" x2="21.018" y2="26.2406" gradientUnits="userSpaceOnUse">
<stop/>
<stop offset="1"/>
</linearGradient>
<linearGradient id="paint1_linear_301_40839" x1="23.1046" y1="0.400146" x2="23.1046" y2="72.3805" gradientUnits="userSpaceOnUse">
<stop/>
<stop offset="1" stop-color="#1C1C1C" stop-opacity="0.6"/>
<stop offset="1" stop-opacity="0.6"/>
</linearGradient>
</defs>
</svg>
