<svg width="26" height="26" viewBox="0 0 26 26" fill="none" xmlns="http://www.w3.org/2000/svg">
<mask id="mask0_301_40853" style="mask-type:alpha" maskUnits="userSpaceOnUse" x="0" y="1" width="25" height="25">
<path fill-rule="evenodd" clip-rule="evenodd" d="M17.6985 2.28816C17.0336 1.13655 15.5538 0.738597 14.4527 1.48405C8.34774 5.61686 3.57892 11.5744 0.929278 18.5735C0.449742 19.8402 1.21624 21.207 2.52454 21.5575L15.3637 24.9978C16.588 25.3258 17.8412 24.6358 18.3927 23.4946C19.5993 20.9978 21.3655 18.8221 23.5284 17.1303C24.5664 16.3185 24.9633 14.8712 24.3044 13.7299L17.6985 2.28816Z" fill="url(#paint0_linear_301_40853)"/>
</mask>
<g mask="url(#mask0_301_40853)">
<path fill-rule="evenodd" clip-rule="evenodd" d="M17.6985 2.28816C17.0336 1.13655 15.5538 0.738597 14.4527 1.48405C8.34774 5.61686 3.57892 11.5744 0.929278 18.5735C0.449742 19.8402 1.21624 21.207 2.52454 21.5575L15.3637 24.9978C16.588 25.3258 17.8412 24.6358 18.3927 23.4946C19.5993 20.9978 21.3655 18.8221 23.5284 17.1303C24.5664 16.3185 24.9633 14.8712 24.3044 13.7299L17.6985 2.28816Z" fill="#FFDFD0"/>
</g>
<defs>
<linearGradient id="paint0_linear_301_40853" x1="25.4946" y1="0.200195" x2="17.991" y2="13.0329" gradientUnits="userSpaceOnUse">
<stop/>
<stop offset="1"/>
</linearGradient>
</defs>
</svg>
