<svg width="32" height="45" viewBox="0 0 32 45" fill="none" xmlns="http://www.w3.org/2000/svg">
<mask id="mask0_301_40846" style="mask-type:alpha" maskUnits="userSpaceOnUse" x="0" y="0" width="31" height="44">
<path fill-rule="evenodd" clip-rule="evenodd" d="M0.494141 9.64543C0.494141 7.28563 0.721191 4.97887 1.15464 2.74579C1.4077 1.44201 2.73415 0.679556 4.01701 1.0233L16.7766 4.44222C18.0524 4.78408 18.7952 6.09289 18.6324 7.40365C18.5411 8.1381 18.4941 8.88628 18.4941 9.64543C18.4941 16.9957 22.8998 23.317 29.2146 26.1127C30.4062 26.6402 31.1445 27.9233 30.8072 29.1821L27.3816 41.9668C27.0357 43.2576 25.6979 44.0247 24.4386 43.5773C10.4853 38.6196 0.494141 25.2993 0.494141 9.64543Z" fill="url(#paint0_linear_301_40846)"/>
</mask>
<g mask="url(#mask0_301_40846)">
<path fill-rule="evenodd" clip-rule="evenodd" d="M0.494141 9.64543C0.494141 7.28563 0.721191 4.97887 1.15464 2.74579C1.4077 1.44201 2.73415 0.679556 4.01701 1.0233L16.7766 4.44222C18.0524 4.78408 18.7952 6.09289 18.6324 7.40365C18.5411 8.1381 18.4941 8.88628 18.4941 9.64543C18.4941 16.9957 22.8998 23.317 29.2146 26.1127C30.4062 26.6402 31.1445 27.9233 30.8072 29.1821L27.3816 41.9668C27.0357 43.2576 25.6979 44.0247 24.4386 43.5773C10.4853 38.6196 0.494141 25.2993 0.494141 9.64543Z" fill="#B1E3FF"/>
</g>
<defs>
<linearGradient id="paint0_linear_301_40846" x1="31.4138" y1="0.400391" x2="16.7732" y2="18.0449" gradientUnits="userSpaceOnUse">
<stop/>
<stop offset="1"/>
</linearGradient>
</defs>
</svg>
