<svg width="11" height="12" viewBox="0 0 11 12" fill="none" xmlns="http://www.w3.org/2000/svg">
<path d="M8.04583 8.58408C9.47884 7.15107 9.47884 4.8277 8.04583 3.39468C6.61281 1.96167 4.28944 1.96166 2.85642 3.39468C1.42341 4.82769 1.42341 7.15107 2.85642 8.58408C4.28944 10.0171 6.61281 10.0171 8.04583 8.58408Z" fill="#FF4F00"/>
<path d="M9.1219 5.99C9.0849 5.9915 9.09139 5.663 8.93639 5.112C8.78289 4.571 8.40889 3.7825 7.59239 3.179C6.80339 2.574 5.50989 2.2385 4.26189 2.7065C3.02389 3.136 1.95739 4.45301 1.97139 5.98951C1.95739 7.52651 3.02389 8.844 4.26189 9.2735C5.50989 9.7415 6.80339 9.40601 7.59239 8.80101C8.40889 8.19751 8.78289 7.409 8.93639 6.868C9.09139 6.3165 9.0849 5.988 9.1219 5.99C9.1349 5.99 9.1434 6.0705 9.1479 6.226C9.1554 6.381 9.1399 6.61251 9.0779 6.90351C8.9624 7.47651 8.60889 8.33451 7.75339 9.012C6.92739 9.69051 5.5239 10.0945 4.1434 9.599C2.7754 9.1475 1.5784 7.69401 1.5949 5.98951C1.5789 4.28551 2.7754 2.8325 4.1434 2.381C5.5239 1.8855 6.92689 2.28951 7.75339 2.96801C8.60939 3.64551 8.96289 4.5035 9.07839 5.0765C9.13989 5.367 9.15539 5.599 9.14839 5.754C9.14389 5.909 9.1349 5.99 9.1219 5.99Z" fill="#263238"/>
</svg>
