<svg width="57" height="32" viewBox="0 0 57 32" fill="none" xmlns="http://www.w3.org/2000/svg">
<path d="M2.57139 31.0541C3.73539 31.0731 4.67839 31.1711 4.67789 31.2731C4.67689 31.3751 3.73289 31.4586 2.56839 31.4601C1.40489 31.4616 0.461891 31.3636 0.462891 31.2411C0.463391 31.1186 1.40789 31.0351 2.57139 31.0541Z" fill="#263238"/>
<path d="M7.59919 15.0866C8.57369 15.7241 9.27419 16.3816 9.16419 16.5556C9.05419 16.7296 8.16019 16.3771 7.16719 15.7691C6.17519 15.1611 5.47419 14.5036 5.60319 14.3006C5.73119 14.0971 6.62569 14.4491 7.59919 15.0866Z" fill="#263238"/>
<path d="M20.2028 4.08008C20.6743 5.14458 20.9083 6.07658 20.7253 6.16158C20.5423 6.24658 19.9808 5.46708 19.4708 4.42058C18.9613 3.37458 18.7273 2.44258 18.9488 2.33958C19.1698 2.23658 19.7318 3.01658 20.2028 4.08008Z" fill="#263238"/>
<path d="M36.7996 2.77157C36.5096 3.89907 36.1156 4.77558 35.9201 4.72907C35.7241 4.68257 35.7666 3.72257 36.0141 2.58507C36.2616 1.44807 36.6556 0.571573 36.8936 0.628073C37.1316 0.684573 37.0896 1.64507 36.7996 2.77157Z" fill="#263238"/>
<path d="M50.3627 12.2977C49.3927 12.9417 48.5147 13.3317 48.4012 13.1682C48.2877 13.0047 48.9607 12.3187 49.9042 11.6362C50.8467 10.9542 51.7252 10.5642 51.8652 10.7662C52.0052 10.9682 51.3322 11.6542 50.3627 12.2977Z" fill="#263238"/>
<path d="M54.8258 28.0075C53.6613 28.006 52.7173 27.921 52.7168 27.8175C52.7163 27.714 53.6593 27.6175 54.8233 27.6025C55.9868 27.5875 56.9308 27.6725 56.9318 27.7925C56.9328 27.9125 55.9893 28.009 54.8258 28.0075Z" fill="#263238"/>
</svg>
