<svg width="13" height="13" viewBox="0 0 13 13" fill="none" xmlns="http://www.w3.org/2000/svg">
<path d="M10.5244 2.8501H2.27441C2.17496 2.8501 2.07958 2.88961 2.00925 2.95993C1.93892 3.03026 1.89941 3.12564 1.89941 3.2251V9.9751C1.89941 10.0746 1.93892 10.1699 2.00925 10.2403C2.07958 10.3106 2.17496 10.3501 2.27441 10.3501H10.5244C10.6239 10.3501 10.7193 10.3106 10.7896 10.2403C10.8599 10.1699 10.8994 10.0746 10.8994 9.9751V3.2251C10.8994 3.12564 10.8599 3.03026 10.7896 2.95993C10.7193 2.88961 10.6239 2.8501 10.5244 2.8501ZM4.89941 7.3501C4.67691 7.3501 4.4594 7.28412 4.2744 7.1605C4.08939 7.03688 3.9452 6.86118 3.86005 6.65562C3.7749 6.45005 3.75262 6.22385 3.79603 6.00562C3.83944 5.78739 3.94658 5.58694 4.10392 5.4296C4.26125 5.27227 4.46171 5.16512 4.67994 5.12171C4.89817 5.07831 5.12437 5.10058 5.32993 5.18573C5.5355 5.27088 5.7112 5.41508 5.83482 5.60008C5.95843 5.78509 6.02441 6.00259 6.02441 6.2251C6.02441 6.52347 5.90589 6.80961 5.69491 7.02059C5.48393 7.23157 5.19778 7.3501 4.89941 7.3501Z" fill="#1C1C1C" fill-opacity="0.1"/>
<path d="M9.77441 5.8501C9.77441 5.94955 9.73491 6.04494 9.66458 6.11526C9.59425 6.18559 9.49887 6.2251 9.39941 6.2251H7.52441C7.42496 6.2251 7.32957 6.18559 7.25925 6.11526C7.18892 6.04494 7.14941 5.94955 7.14941 5.8501C7.14941 5.75064 7.18892 5.65526 7.25925 5.58493C7.32957 5.51461 7.42496 5.4751 7.52441 5.4751H9.39941C9.49887 5.4751 9.59425 5.51461 9.66458 5.58493C9.73491 5.65526 9.77441 5.75064 9.77441 5.8501ZM9.39941 6.9751H7.52441C7.42496 6.9751 7.32957 7.01461 7.25925 7.08493C7.18892 7.15526 7.14941 7.25064 7.14941 7.3501C7.14941 7.44955 7.18892 7.54494 7.25925 7.61526C7.32957 7.68559 7.42496 7.7251 7.52441 7.7251H9.39941C9.49887 7.7251 9.59425 7.68559 9.66458 7.61526C9.73491 7.54494 9.77441 7.44955 9.77441 7.3501C9.77441 7.25064 9.73491 7.15526 9.66458 7.08493C9.59425 7.01461 9.49887 6.9751 9.39941 6.9751ZM11.2744 3.2251V9.9751C11.2744 10.174 11.1954 10.3648 11.0547 10.5054C10.9141 10.6461 10.7233 10.7251 10.5244 10.7251H2.27441C2.0755 10.7251 1.88474 10.6461 1.74408 10.5054C1.60343 10.3648 1.52441 10.174 1.52441 9.9751V3.2251C1.52441 3.02619 1.60343 2.83542 1.74408 2.69477C1.88474 2.55412 2.0755 2.4751 2.27441 2.4751H10.5244C10.7233 2.4751 10.9141 2.55412 11.0547 2.69477C11.1954 2.83542 11.2744 3.02619 11.2744 3.2251ZM10.5244 9.9751V3.2251H2.27441V9.9751H10.5244ZM6.76223 8.38135C6.78709 8.4777 6.77266 8.57997 6.72212 8.66568C6.67157 8.75139 6.58904 8.81351 6.4927 8.83838C6.39635 8.86324 6.29407 8.84881 6.20836 8.79827C6.12265 8.74772 6.06053 8.6652 6.03566 8.56885C5.91238 8.08791 5.42348 7.7251 4.89895 7.7251C4.37441 7.7251 3.88598 8.08791 3.76223 8.56885C3.73736 8.6652 3.67524 8.74772 3.58953 8.79827C3.50382 8.84881 3.40154 8.86324 3.3052 8.83838C3.20885 8.81351 3.12632 8.75139 3.07578 8.66568C3.02523 8.57997 3.0108 8.4777 3.03566 8.38135C3.15735 7.92842 3.445 7.53786 3.84145 7.28729C3.63077 7.07786 3.48703 6.81061 3.42842 6.51939C3.36982 6.22818 3.39901 5.92612 3.51227 5.65151C3.62554 5.3769 3.8178 5.14211 4.06466 4.97689C4.31153 4.81167 4.60189 4.72347 4.89895 4.72347C5.196 4.72347 5.48636 4.81167 5.73323 4.97689C5.9801 5.14211 6.17235 5.3769 6.28562 5.65151C6.39889 5.92612 6.42807 6.22818 6.36947 6.51939C6.31086 6.81061 6.16712 7.07786 5.95645 7.28729C6.35332 7.53749 6.64123 7.92818 6.7627 8.38135H6.76223ZM4.89941 6.9751C5.04775 6.9751 5.19275 6.93111 5.31609 6.8487C5.43943 6.76629 5.53556 6.64915 5.59232 6.51211C5.64909 6.37507 5.66394 6.22427 5.635 6.07878C5.60606 5.93329 5.53463 5.79966 5.42974 5.69477C5.32485 5.58988 5.19122 5.51845 5.04573 5.48951C4.90025 5.46057 4.74945 5.47542 4.6124 5.53219C4.47536 5.58895 4.35822 5.68508 4.27581 5.80842C4.1934 5.93176 4.14941 6.07676 4.14941 6.2251C4.14941 6.42401 4.22843 6.61478 4.36908 6.75543C4.50974 6.89608 4.7005 6.9751 4.89941 6.9751Z" fill="#1C1C1C"/>
</svg>
