<svg width="37" height="38" viewBox="0 0 37 38" fill="none" xmlns="http://www.w3.org/2000/svg">
<path opacity="0.25" fill-rule="evenodd" clip-rule="evenodd" d="M18.5 36.5C28.165 36.5 36 28.665 36 19C36 9.33502 28.165 1.5 18.5 1.5C8.83502 1.5 1 9.33502 1 19C1 28.665 8.83502 36.5 18.5 36.5Z" stroke="white" stroke-width="1.5"/>
<path d="M14.4835 15.4671C15.3029 15.4671 15.9671 14.8029 15.9671 13.9835C15.9671 13.1642 15.3029 12.5 14.4835 12.5C13.6642 12.5 13 13.1642 13 13.9835C13 14.8029 13.6642 15.4671 14.4835 15.4671Z" fill="white"/>
<path d="M15.7198 16.458H13.2473C13.1108 16.458 13 16.5688 13 16.7053V24.123C13 24.2595 13.1108 24.3703 13.2473 24.3703H15.7198C15.8563 24.3703 15.9671 24.2595 15.9671 24.123V16.7053C15.9671 16.5688 15.8563 16.458 15.7198 16.458Z" fill="white"/>
<path d="M23.0885 16.0464C22.0317 15.6844 20.7099 16.0024 19.9172 16.5726C19.89 16.4662 19.7931 16.3871 19.6778 16.3871H17.2053C17.0688 16.3871 16.958 16.4979 16.958 16.6344V24.0521C16.958 24.1886 17.0688 24.2994 17.2053 24.2994H19.6778C19.8143 24.2994 19.9251 24.1886 19.9251 24.0521V18.7212C20.3247 18.3771 20.8395 18.2673 21.2608 18.4463C21.6693 18.6189 21.9032 19.0402 21.9032 19.6015V24.0521C21.9032 24.1886 22.0139 24.2994 22.1504 24.2994H24.623C24.7595 24.2994 24.8703 24.1886 24.8703 24.0521V19.1035C24.8421 17.0715 23.8862 16.3194 23.0885 16.0464Z" fill="white"/>
</svg>
