<svg width="136" height="136" viewBox="0 0 136 136" fill="none" xmlns="http://www.w3.org/2000/svg">
<g filter="url(#filter0_bd_242_20245)">
<rect x="40" y="20" width="56" height="56" rx="28" fill="url(#paint0_linear_242_20245)" fill-opacity="0.15" shape-rendering="crispEdges"/>
<g clip-path="url(#clip0_242_20245)">
<path d="M76.0143 36H59.9857C57.7855 36 56.002 37.8267 56.002 40.08V55.8816C56.002 58.1349 57.7855 59.9616 59.9857 59.9616H76.0143C78.2145 59.9616 79.998 58.1349 79.998 55.8816V40.08C79.998 37.8267 78.2145 36 76.0143 36Z" fill="#470137"/>
<path d="M68.6162 42.3015L65.622 47.3629L68.8254 52.7375C68.846 52.7751 68.8517 52.8193 68.8415 52.8611C68.8365 52.879 68.8258 52.8834 68.8094 52.8841L68.7913 52.8838L68.7691 52.8832C68.7571 52.8832 68.7437 52.8838 68.7288 52.8863H66.4192L66.3738 52.8855C66.2494 52.8822 66.1596 52.8639 66.105 52.7704C65.8913 52.344 65.6766 51.9182 65.461 51.4928C65.2682 51.1134 65.0701 50.7368 64.8668 50.3631L64.777 50.1986C64.5338 49.756 64.295 49.3108 64.0606 48.8632H64.0445C63.8281 49.3061 63.6054 49.7458 63.3765 50.1821C63.1456 50.6218 62.9175 51.0587 62.6923 51.4928C62.4669 51.9271 62.2362 52.3586 62.0002 52.7869C61.9622 52.8743 61.8991 52.8925 61.8113 52.8955L61.7747 52.8961H59.5694L59.5599 52.8964L59.5284 52.8993C59.5109 52.9003 59.5004 52.8965 59.497 52.8694C59.491 52.8292 59.4996 52.7881 59.5212 52.754L62.6279 47.5278L59.6016 42.2852C59.5695 42.2414 59.5641 42.2057 59.5855 42.1781C59.5973 42.164 59.6123 42.1529 59.629 42.1458C59.6458 42.1386 59.664 42.1355 59.6821 42.1368H61.9518C62.0013 42.1341 62.0508 42.1425 62.0967 42.1616C62.1351 42.1839 62.1682 42.2149 62.1933 42.2523C62.3864 42.692 62.6011 43.1316 62.8372 43.5711C63.0715 44.0078 63.3103 44.442 63.5535 44.8736C63.7931 45.2984 64.0159 45.7329 64.2216 46.176H64.2377C64.4485 45.733 64.6658 45.2934 64.8896 44.8571C65.1095 44.4285 65.3348 43.9971 65.5657 43.5629C65.7935 43.1343 66.0162 42.7029 66.2337 42.2688C66.2461 42.2281 66.2682 42.1912 66.2981 42.1616C66.3379 42.1409 66.3825 42.1323 66.4269 42.1368H68.5356C68.555 42.1318 68.5755 42.1335 68.5939 42.1414C68.6123 42.1494 68.6276 42.1633 68.6377 42.181C68.6477 42.1987 68.6519 42.2192 68.6495 42.2395C68.6472 42.2599 68.6385 42.2789 68.6247 42.2937L68.6162 42.3015ZM73.3469 53.0989L73.236 53.1002C72.495 53.1118 71.7609 52.9541 71.0869 52.6386C70.4591 52.341 69.9342 51.8552 69.5818 51.2455C69.2264 50.641 69.0441 49.8879 69.0349 48.9861L69.0345 48.9127C69.0284 48.156 69.2173 47.4111 69.5819 46.753C69.9468 46.1016 70.4788 45.5649 71.1203 45.201L71.1755 45.1703C71.8729 44.7746 72.7153 44.5767 73.7028 44.5767L73.7459 44.5772L73.7952 44.5788L73.8505 44.5813L73.912 44.585L74.0153 44.5925L74.1323 44.6021L74.2178 44.6098V41.3619C74.2178 41.285 74.25 41.2466 74.3144 41.2465H76.3427C76.3558 41.2446 76.3692 41.2458 76.3818 41.2501C76.3943 41.2544 76.4058 41.2616 76.4151 41.2712C76.4245 41.2808 76.4316 41.2925 76.4358 41.3054C76.4399 41.3182 76.4411 41.3319 76.4393 41.3454V51.0889C76.4393 51.2525 76.4454 51.4287 76.4578 51.6173L76.4878 52.045L76.5037 52.2923C76.5057 52.3266 76.4976 52.3607 76.4803 52.3901C76.4631 52.4195 76.4376 52.4429 76.4071 52.4573C75.8838 52.6807 75.3388 52.8465 74.7813 52.9518C74.308 53.0413 73.8282 53.0905 73.3469 53.0989ZM74.2178 51.0559V46.5551C74.1308 46.531 74.042 46.5144 73.9523 46.5057C73.8426 46.4943 73.7325 46.4888 73.6222 46.4891C73.2316 46.4851 72.8456 46.5755 72.4955 46.753C72.1545 46.9267 71.8633 47.188 71.6503 47.5114C71.4378 47.8297 71.3279 48.2454 71.3207 48.7584L71.3203 48.8138C71.3125 49.1731 71.3698 49.5309 71.4893 49.8688C71.5866 50.1412 71.7405 50.3887 71.9402 50.5943C72.1313 50.7835 72.3627 50.9245 72.6162 51.0064C72.8839 51.0952 73.1638 51.1397 73.4452 51.1384C73.5953 51.1384 73.7349 51.1329 73.8637 51.1218C73.9665 51.1139 74.0684 51.0965 74.1682 51.07L74.2178 51.0559Z" fill="#FF61F6"/>
</g>
</g>
<defs>
<filter id="filter0_bd_242_20245" x="0" y="0" width="136" height="136" filterUnits="userSpaceOnUse" color-interpolation-filters="sRGB">
<feFlood flood-opacity="0" result="BackgroundImageFix"/>
<feGaussianBlur in="BackgroundImageFix" stdDeviation="10"/>
<feComposite in2="SourceAlpha" operator="in" result="effect1_backgroundBlur_242_20245"/>
<feColorMatrix in="SourceAlpha" type="matrix" values="0 0 0 0 0 0 0 0 0 0 0 0 0 0 0 0 0 0 127 0" result="hardAlpha"/>
<feOffset dy="20"/>
<feGaussianBlur stdDeviation="20"/>
<feComposite in2="hardAlpha" operator="out"/>
<feColorMatrix type="matrix" values="0 0 0 0 0 0 0 0 0 0 0 0 0 0 0 0 0 0 0.1 0"/>
<feBlend mode="normal" in2="effect1_backgroundBlur_242_20245" result="effect2_dropShadow_242_20245"/>
<feBlend mode="normal" in="SourceGraphic" in2="effect2_dropShadow_242_20245" result="shape"/>
</filter>
<linearGradient id="paint0_linear_242_20245" x1="40" y1="17.0588" x2="114.425" y2="49.1432" gradientUnits="userSpaceOnUse">
<stop stop-color="white" stop-opacity="0.7"/>
<stop offset="1" stop-color="white" stop-opacity="0.4"/>
</linearGradient>
<clipPath id="clip0_242_20245">
<rect width="24" height="24" fill="white" transform="translate(56 36)"/>
</clipPath>
</defs>
</svg>
