<svg width="136" height="136" viewBox="0 0 136 136" fill="none" xmlns="http://www.w3.org/2000/svg">
<g filter="url(#filter0_bd_242_20249)">
<rect x="40" y="20" width="56" height="56" rx="28" fill="url(#paint0_linear_242_20249)" fill-opacity="0.15" shape-rendering="crispEdges"/>
<g clip-path="url(#clip0_242_20249)">
<path d="M76.0143 36H59.9857C57.7855 36 56.002 37.8267 56.002 40.08V55.8816C56.002 58.1349 57.7855 59.9616 59.9857 59.9616H76.0143C78.2145 59.9616 79.998 58.1349 79.998 55.8816V40.08C79.998 37.8267 78.2145 36 76.0143 36Z" fill="#330000"/>
<path d="M67.6306 50.3799H63.9121L63.1555 52.7869C63.1452 52.8308 63.1203 52.8696 63.085 52.8967C63.0498 52.9238 63.0064 52.9375 62.9623 52.9353H61.0789C60.9716 52.9353 60.934 52.8748 60.9662 52.7539L64.1858 43.2577C64.2179 43.1589 64.2501 43.0462 64.2823 42.9198C64.3245 42.6998 64.346 42.4763 64.3467 42.2521C64.3445 42.2365 64.3459 42.2205 64.3508 42.2054C64.3557 42.1904 64.3639 42.1768 64.3748 42.1656C64.3858 42.1543 64.3991 42.1459 64.4138 42.1409C64.4284 42.1359 64.4441 42.1344 64.4594 42.1367H67.0189C67.0939 42.1367 67.1368 42.1642 67.1477 42.2192L70.8017 52.7704C70.8339 52.8805 70.8017 52.9354 70.7052 52.9353H68.6125C68.5765 52.9393 68.5404 52.9298 68.5108 52.9086C68.4812 52.8874 68.4601 52.8559 68.4515 52.8199L67.6306 50.3799ZM64.4916 48.3026H67.035L66.9987 48.18L66.9405 47.9859L66.899 47.8496L66.8327 47.635L66.6918 47.1831L66.5679 46.7825L66.2461 45.739C66.166 45.4796 66.0892 45.2191 66.0156 44.9577L65.9567 44.7455L65.8879 44.4947L65.7829 44.1059L65.7632 44.0327H65.7472C65.6666 44.4284 65.5685 44.8201 65.4532 45.2067L65.2144 45.9935L65.083 46.4282L64.9504 46.8683C64.9264 46.9478 64.9025 47.0264 64.8786 47.1041L64.8074 47.3343L64.7365 47.5591L64.6661 47.7784L64.5959 47.9922C64.5727 48.0626 64.5495 48.132 64.5263 48.2005L64.4916 48.3026ZM72.9747 43.8842C72.8105 43.891 72.6468 43.8621 72.4943 43.7996C72.3417 43.7371 72.2037 43.6424 72.0894 43.5215C71.9754 43.3954 71.8869 43.2475 71.8288 43.0862C71.7708 42.9249 71.7445 42.7535 71.7513 42.5818C71.7454 42.4118 71.7747 42.2424 71.8371 42.0848C71.8995 41.9272 71.9937 41.7848 72.1135 41.6669C72.3445 41.4398 72.6522 41.3126 72.9725 41.312L73.0069 41.3124C73.3932 41.3124 73.6964 41.4305 73.9165 41.6668C74.0275 41.7896 74.1138 41.9337 74.1704 42.0907C74.227 42.2477 74.2528 42.4146 74.2464 42.5818C74.2532 42.7542 74.2261 42.9263 74.1666 43.0877C74.1072 43.2492 74.0166 43.3968 73.9003 43.5216C73.783 43.6401 73.6437 43.7333 73.4906 43.7958C73.3376 43.8583 73.1738 43.8888 73.0091 43.8855L72.9747 43.8842ZM71.8639 52.7704V44.8899C71.8639 44.791 71.9068 44.7415 71.9927 44.7415H73.9728C74.0586 44.7415 74.1015 44.791 74.1016 44.8899V52.7704C74.1016 52.8805 74.0586 52.9354 73.9728 52.9353H72.0089C71.9174 52.9353 71.8692 52.886 71.8644 52.7873L71.8639 52.7704Z" fill="#FF9A00"/>
</g>
</g>
<defs>
<filter id="filter0_bd_242_20249" x="0" y="0" width="136" height="136" filterUnits="userSpaceOnUse" color-interpolation-filters="sRGB">
<feFlood flood-opacity="0" result="BackgroundImageFix"/>
<feGaussianBlur in="BackgroundImageFix" stdDeviation="10"/>
<feComposite in2="SourceAlpha" operator="in" result="effect1_backgroundBlur_242_20249"/>
<feColorMatrix in="SourceAlpha" type="matrix" values="0 0 0 0 0 0 0 0 0 0 0 0 0 0 0 0 0 0 127 0" result="hardAlpha"/>
<feOffset dy="20"/>
<feGaussianBlur stdDeviation="20"/>
<feComposite in2="hardAlpha" operator="out"/>
<feColorMatrix type="matrix" values="0 0 0 0 0 0 0 0 0 0 0 0 0 0 0 0 0 0 0.1 0"/>
<feBlend mode="normal" in2="effect1_backgroundBlur_242_20249" result="effect2_dropShadow_242_20249"/>
<feBlend mode="normal" in="SourceGraphic" in2="effect2_dropShadow_242_20249" result="shape"/>
</filter>
<linearGradient id="paint0_linear_242_20249" x1="40" y1="17.0588" x2="114.425" y2="49.1432" gradientUnits="userSpaceOnUse">
<stop stop-color="white" stop-opacity="0.7"/>
<stop offset="1" stop-color="white" stop-opacity="0.4"/>
</linearGradient>
<clipPath id="clip0_242_20249">
<rect width="24" height="24" fill="white" transform="translate(56 36)"/>
</clipPath>
</defs>
</svg>
