<svg width="136" height="136" viewBox="0 0 136 136" fill="none" xmlns="http://www.w3.org/2000/svg">
<g filter="url(#filter0_bd_242_20238)">
<rect x="40" y="20" width="56" height="56" rx="28" fill="url(#paint0_linear_242_20238)" fill-opacity="0.15" shape-rendering="crispEdges"/>
<path d="M64 60C66.208 60 68 58.208 68 56V52H64C61.792 52 60 53.792 60 56C60 58.208 61.792 60 64 60Z" fill="#0ACF83"/>
<path d="M60 48C60 45.792 61.792 44 64 44H68V52H64C61.792 52 60 50.208 60 48Z" fill="#A259FF"/>
<path d="M60 40C60 37.792 61.792 36 64 36H68V44H64C61.792 44 60 42.208 60 40Z" fill="#F24E1E"/>
<path d="M68 36H72C74.208 36 76 37.792 76 40C76 42.208 74.208 44 72 44H68V36Z" fill="#FF7262"/>
<path d="M76 48C76 50.208 74.208 52 72 52C69.792 52 68 50.208 68 48C68 45.792 69.792 44 72 44C74.208 44 76 45.792 76 48Z" fill="#1ABCFE"/>
</g>
<defs>
<filter id="filter0_bd_242_20238" x="0" y="0" width="136" height="136" filterUnits="userSpaceOnUse" color-interpolation-filters="sRGB">
<feFlood flood-opacity="0" result="BackgroundImageFix"/>
<feGaussianBlur in="BackgroundImageFix" stdDeviation="10"/>
<feComposite in2="SourceAlpha" operator="in" result="effect1_backgroundBlur_242_20238"/>
<feColorMatrix in="SourceAlpha" type="matrix" values="0 0 0 0 0 0 0 0 0 0 0 0 0 0 0 0 0 0 127 0" result="hardAlpha"/>
<feOffset dy="20"/>
<feGaussianBlur stdDeviation="20"/>
<feComposite in2="hardAlpha" operator="out"/>
<feColorMatrix type="matrix" values="0 0 0 0 0 0 0 0 0 0 0 0 0 0 0 0 0 0 0.1 0"/>
<feBlend mode="normal" in2="effect1_backgroundBlur_242_20238" result="effect2_dropShadow_242_20238"/>
<feBlend mode="normal" in="SourceGraphic" in2="effect2_dropShadow_242_20238" result="shape"/>
</filter>
<linearGradient id="paint0_linear_242_20238" x1="40" y1="17.0588" x2="114.425" y2="49.1432" gradientUnits="userSpaceOnUse">
<stop stop-color="white" stop-opacity="0.7"/>
<stop offset="1" stop-color="white" stop-opacity="0.4"/>
</linearGradient>
</defs>
</svg>
