<svg width="136" height="136" viewBox="0 0 136 136" fill="none" xmlns="http://www.w3.org/2000/svg">
<g filter="url(#filter0_bd_242_20290)">
<rect x="40" y="20" width="56" height="56" rx="28" fill="url(#paint0_linear_242_20290)" fill-opacity="0.15" shape-rendering="crispEdges"/>
<g clip-path="url(#clip0_242_20290)">
<path d="M76.6775 39.172C74.4513 35.9858 70.0547 35.0415 66.8759 37.0668L61.2929 40.6252C60.5387 41.0996 59.8918 41.7263 59.3936 42.465C58.8953 43.2037 58.5567 44.0382 58.3993 44.9152C58.133 46.3926 58.367 47.9165 59.0644 49.2458C58.5865 49.9707 58.2605 50.785 58.1063 51.6395C57.9473 52.5342 57.9685 53.4517 58.1687 54.338C58.369 55.2244 58.7442 56.0619 59.2723 56.8014C61.4989 59.9879 65.8955 60.9318 69.0739 58.9065L74.6569 55.3483C75.4111 54.8739 76.0581 54.2473 76.5564 53.5085C77.0546 52.7698 77.3932 51.9352 77.5505 51.0581C77.8168 49.5808 77.5829 48.0569 76.8858 46.7275C77.3636 46.0025 77.6894 45.1883 77.8435 44.3339C78.0027 43.4392 77.9815 42.5217 77.7813 41.6353C77.5811 40.7489 77.2057 39.9114 76.6775 39.172Z" fill="#FF3E00"/>
<path d="M66.3298 57.1044C64.5297 57.5725 62.6288 56.8678 61.5686 55.3396C61.2508 54.8948 61.0251 54.391 60.9047 53.8578C60.7842 53.3245 60.7714 52.7726 60.867 52.2344C60.8995 52.0577 60.9441 51.8834 61.0005 51.7129L61.1057 51.3922L61.3918 51.6024C62.0526 52.0878 62.7914 52.4569 63.5764 52.6938L63.7839 52.7568L63.7648 52.964C63.7394 53.2587 63.8192 53.5528 63.99 53.7943C64.1457 54.0191 64.3667 54.1907 64.6231 54.2858C64.8795 54.381 65.1589 54.3951 65.4235 54.3264C65.5449 54.2939 65.6606 54.2431 65.7666 54.1756L71.3513 50.6168C71.488 50.5307 71.6052 50.4172 71.6955 50.2833C71.7859 50.1495 71.8474 49.9982 71.876 49.8393C71.9047 49.6771 71.9008 49.5108 71.8645 49.3501C71.8282 49.1894 71.7602 49.0376 71.6646 48.9034C71.5087 48.6786 71.2877 48.5071 71.0312 48.4119C70.7748 48.3167 70.4953 48.3024 70.2305 48.371C70.1094 48.4035 69.9938 48.4543 69.888 48.5217L67.7568 49.8802C67.4064 50.103 67.024 50.2709 66.6228 50.3782C64.8228 50.8462 62.9218 50.1416 61.8617 48.6133C61.5439 48.1685 61.3181 47.6647 61.1977 47.1315C61.0772 46.5983 61.0644 46.0464 61.1601 45.5082C61.2548 44.9806 61.4585 44.4787 61.7582 44.0344C62.058 43.59 62.4472 43.2132 62.9009 42.9279L68.4851 39.3686C68.8357 39.1454 69.2184 38.9773 69.6199 38.8701C71.4199 38.402 73.3209 39.1066 74.381 40.6349C74.6987 41.0797 74.9245 41.5835 75.0449 42.1167C75.1654 42.6499 75.1782 43.2018 75.0826 43.7401C75.0499 43.9167 75.0053 44.0909 74.9491 44.2615L74.8439 44.5822L74.5579 44.3724C73.8972 43.8867 73.1583 43.5174 72.3732 43.2805L72.1657 43.2174L72.1848 43.0103C72.21 42.7156 72.1302 42.4216 71.9596 42.18C71.8039 41.9552 71.5829 41.7836 71.3265 41.6885C71.0701 41.5933 70.7907 41.5792 70.526 41.6479C70.4047 41.6804 70.289 41.7312 70.183 41.7987L64.5983 45.3577C64.4617 45.4437 64.3445 45.5572 64.2542 45.6911C64.1639 45.8249 64.1025 45.9761 64.0739 46.135C64.0451 46.2972 64.0489 46.4635 64.0852 46.6243C64.1214 46.785 64.1894 46.9368 64.285 47.071C64.4409 47.2958 64.662 47.4673 64.9184 47.5625C65.1748 47.6577 65.4543 47.6719 65.7191 47.6033C65.8405 47.5709 65.9561 47.52 66.0621 47.4526L68.1929 46.0946C68.5432 45.8716 68.9256 45.7034 69.3268 45.5962C71.1269 45.1282 73.0279 45.8328 74.088 47.3611C74.4058 47.8059 74.6315 48.3096 74.752 48.8428C74.8725 49.376 74.8852 49.9279 74.7895 50.4661C74.6948 50.9937 74.4911 51.4958 74.1914 51.9401C73.8916 52.3845 73.5025 52.7615 73.0488 53.0469L67.4645 56.6058C67.114 56.829 66.7314 56.9972 66.3298 57.1044Z" fill="white"/>
</g>
</g>
<defs>
<filter id="filter0_bd_242_20290" x="0" y="0" width="136" height="136" filterUnits="userSpaceOnUse" color-interpolation-filters="sRGB">
<feFlood flood-opacity="0" result="BackgroundImageFix"/>
<feGaussianBlur in="BackgroundImageFix" stdDeviation="10"/>
<feComposite in2="SourceAlpha" operator="in" result="effect1_backgroundBlur_242_20290"/>
<feColorMatrix in="SourceAlpha" type="matrix" values="0 0 0 0 0 0 0 0 0 0 0 0 0 0 0 0 0 0 127 0" result="hardAlpha"/>
<feOffset dy="20"/>
<feGaussianBlur stdDeviation="20"/>
<feComposite in2="hardAlpha" operator="out"/>
<feColorMatrix type="matrix" values="0 0 0 0 0 0 0 0 0 0 0 0 0 0 0 0 0 0 0.1 0"/>
<feBlend mode="normal" in2="effect1_backgroundBlur_242_20290" result="effect2_dropShadow_242_20290"/>
<feBlend mode="normal" in="SourceGraphic" in2="effect2_dropShadow_242_20290" result="shape"/>
</filter>
<linearGradient id="paint0_linear_242_20290" x1="40" y1="17.0588" x2="114.425" y2="49.1432" gradientUnits="userSpaceOnUse">
<stop stop-color="white" stop-opacity="0.7"/>
<stop offset="1" stop-color="white" stop-opacity="0.4"/>
</linearGradient>
<clipPath id="clip0_242_20290">
<rect width="19.95" height="24" fill="white" transform="translate(58 36)"/>
</clipPath>
</defs>
</svg>
