<svg width="136" height="136" viewBox="0 0 136 136" fill="none" xmlns="http://www.w3.org/2000/svg">
<g filter="url(#filter0_bd_242_20305)">
<rect x="40" y="20" width="56" height="56" rx="28" fill="url(#paint0_linear_242_20305)" fill-opacity="0.15" shape-rendering="crispEdges"/>
<path d="M66.8283 37H70.4628V53.6548C68.9116 53.9745 67.3323 54.1388 65.7484 54.1452C61.31 54.1406 59 52.1579 59 48.3501C59 44.6834 61.4502 42.3001 65.248 42.3001C65.7806 42.2903 66.3121 42.352 66.8283 42.4835V37ZM66.8283 45.3801C66.4331 45.2499 66.0187 45.1879 65.6027 45.1968C63.7694 45.1968 62.7033 46.3178 62.7033 48.2822C62.7033 50.1953 63.718 51.2513 65.5798 51.2513C65.9977 51.2524 66.415 51.2218 66.8283 51.1596V45.3847V45.3801Z" fill="#44B78B"/>
<path d="M76.2373 42.5543V50.8959C76.2373 53.7678 76.0219 55.1483 75.3913 56.339C74.7474 57.5495 73.695 58.4924 72.4213 59.0001L69.0498 57.4115C70.275 56.9927 71.301 56.1339 71.929 55.0016C72.4479 53.974 72.6119 52.7833 72.6119 49.651V42.5543H76.2373ZM72.6083 37.0186H76.2419V40.7109H72.6083V37.0186Z" fill="#44B78B"/>
</g>
<defs>
<filter id="filter0_bd_242_20305" x="0" y="0" width="136" height="136" filterUnits="userSpaceOnUse" color-interpolation-filters="sRGB">
<feFlood flood-opacity="0" result="BackgroundImageFix"/>
<feGaussianBlur in="BackgroundImageFix" stdDeviation="10"/>
<feComposite in2="SourceAlpha" operator="in" result="effect1_backgroundBlur_242_20305"/>
<feColorMatrix in="SourceAlpha" type="matrix" values="0 0 0 0 0 0 0 0 0 0 0 0 0 0 0 0 0 0 127 0" result="hardAlpha"/>
<feOffset dy="20"/>
<feGaussianBlur stdDeviation="20"/>
<feComposite in2="hardAlpha" operator="out"/>
<feColorMatrix type="matrix" values="0 0 0 0 0 0 0 0 0 0 0 0 0 0 0 0 0 0 0.1 0"/>
<feBlend mode="normal" in2="effect1_backgroundBlur_242_20305" result="effect2_dropShadow_242_20305"/>
<feBlend mode="normal" in="SourceGraphic" in2="effect2_dropShadow_242_20305" result="shape"/>
</filter>
<linearGradient id="paint0_linear_242_20305" x1="40" y1="17.0588" x2="114.425" y2="49.1432" gradientUnits="userSpaceOnUse">
<stop stop-color="white" stop-opacity="0.7"/>
<stop offset="1" stop-color="white" stop-opacity="0.4"/>
</linearGradient>
</defs>
</svg>
