<svg width="136" height="136" viewBox="0 0 136 136" fill="none" xmlns="http://www.w3.org/2000/svg">
<g filter="url(#filter0_bd_242_20310)">
<rect x="40" y="20" width="56" height="56" rx="28" fill="url(#paint0_linear_242_20310)" fill-opacity="0.15" shape-rendering="crispEdges"/>
<path d="M67.9997 58.4998C67.7164 58.4999 67.4381 58.4254 67.1927 58.2838L64.6247 56.7635C64.2415 56.549 64.4282 56.4733 64.555 56.429C64.9627 56.3033 65.353 56.1269 65.7167 55.904C65.7471 55.8897 65.7807 55.8835 65.8142 55.886C65.8477 55.8885 65.88 55.8996 65.908 55.9183L67.8812 57.0905C67.918 57.11 67.9589 57.1201 68.0005 57.1201C68.0421 57.1201 68.083 57.11 68.1197 57.0905L75.8147 52.649C75.8509 52.6276 75.8808 52.5971 75.9015 52.5605C75.9221 52.5239 75.9328 52.4825 75.9325 52.4405V43.556C75.9326 43.5134 75.9217 43.4714 75.9008 43.4342C75.8799 43.397 75.8497 43.3659 75.8132 43.3438L68.1182 38.906C68.082 38.8854 68.041 38.8745 67.9994 38.8745C67.9577 38.8745 67.9167 38.8854 67.8805 38.906L60.19 43.3453C60.1533 43.367 60.1228 43.3978 60.1016 43.4347C60.0803 43.4716 60.0689 43.5134 60.0685 43.556V52.4368C60.069 52.4786 60.0804 52.5195 60.1015 52.5556C60.1227 52.5916 60.153 52.6215 60.1892 52.6423L62.2997 53.8603C63.4435 54.4318 64.144 53.7583 64.144 53.0818V44.3135C64.144 44.2539 64.1677 44.1966 64.2099 44.1544C64.2521 44.1122 64.3093 44.0885 64.369 44.0885H65.344C65.4037 44.0885 65.4609 44.1122 65.5031 44.1544C65.5453 44.1966 65.569 44.2539 65.569 44.3135V53.0825C65.569 54.6088 64.738 55.4825 63.2905 55.4825C62.6661 55.493 62.0515 55.326 61.5182 55.001L59.4955 53.8408C59.2501 53.6975 59.0465 53.4926 58.905 53.2463C58.7634 53 58.6888 52.7209 58.6885 52.4368V43.556C58.6876 43.2714 58.7617 42.9916 58.9034 42.7447C59.0451 42.4978 59.2493 42.2926 59.4955 42.1498L67.1912 37.7068C67.4392 37.5714 67.7172 37.5005 67.9997 37.5005C68.2823 37.5005 68.5603 37.5714 68.8082 37.7068L76.5032 42.1498C76.7485 42.2928 76.9521 42.4975 77.0938 42.7435C77.2355 42.9895 77.3104 43.2684 77.311 43.5523V52.4368C77.3106 52.721 77.2359 53.0001 77.0942 53.2464C76.9525 53.4927 76.7487 53.6976 76.5032 53.8408L68.8082 58.2838C68.5624 58.4257 68.2835 58.5002 67.9997 58.4998Z" fill="#83CD29"/>
<path d="M66.54 49.4646C66.54 49.4049 66.5637 49.3477 66.6059 49.3055C66.6481 49.2633 66.7054 49.2396 66.765 49.2396H67.7603C67.8135 49.2398 67.8649 49.2588 67.9054 49.2932C67.9459 49.3277 67.9729 49.3754 67.9815 49.4278C68.1315 50.4411 68.5815 50.9518 70.6163 50.9518C72.237 50.9518 72.9278 50.5851 72.9278 49.7248C72.9278 49.2291 72.732 48.8608 70.2128 48.6141C68.1068 48.4056 66.8048 47.9391 66.8048 46.2561C66.8048 44.7036 68.1135 43.7773 70.3073 43.7773C72.7725 43.7773 73.9928 44.6331 74.1473 46.4691C74.1496 46.4997 74.1457 46.5306 74.1357 46.5596C74.1257 46.5887 74.1098 46.6154 74.0891 46.6381C74.0684 46.6608 74.0432 46.679 74.0152 46.6916C73.9871 46.7042 73.9568 46.7109 73.926 46.7113H72.924C72.8738 46.7106 72.8252 46.6931 72.786 46.6616C72.7469 46.63 72.7194 46.5863 72.708 46.5373C72.4688 45.4716 71.883 45.1311 70.308 45.1311C68.538 45.1311 68.3325 45.7476 68.3325 46.2096C68.3325 46.7691 68.5755 46.9326 70.965 47.2483C73.3298 47.5611 74.4533 48.0036 74.4533 49.6656C74.4533 51.3426 73.0553 52.3026 70.617 52.3026C67.2458 52.3071 66.54 50.7613 66.54 49.4646Z" fill="#83CD29"/>
</g>
<defs>
<filter id="filter0_bd_242_20310" x="0" y="0" width="136" height="136" filterUnits="userSpaceOnUse" color-interpolation-filters="sRGB">
<feFlood flood-opacity="0" result="BackgroundImageFix"/>
<feGaussianBlur in="BackgroundImageFix" stdDeviation="10"/>
<feComposite in2="SourceAlpha" operator="in" result="effect1_backgroundBlur_242_20310"/>
<feColorMatrix in="SourceAlpha" type="matrix" values="0 0 0 0 0 0 0 0 0 0 0 0 0 0 0 0 0 0 127 0" result="hardAlpha"/>
<feOffset dy="20"/>
<feGaussianBlur stdDeviation="20"/>
<feComposite in2="hardAlpha" operator="out"/>
<feColorMatrix type="matrix" values="0 0 0 0 0 0 0 0 0 0 0 0 0 0 0 0 0 0 0.1 0"/>
<feBlend mode="normal" in2="effect1_backgroundBlur_242_20310" result="effect2_dropShadow_242_20310"/>
<feBlend mode="normal" in="SourceGraphic" in2="effect2_dropShadow_242_20310" result="shape"/>
</filter>
<linearGradient id="paint0_linear_242_20310" x1="40" y1="17.0588" x2="114.425" y2="49.1432" gradientUnits="userSpaceOnUse">
<stop stop-color="white" stop-opacity="0.7"/>
<stop offset="1" stop-color="white" stop-opacity="0.4"/>
</linearGradient>
</defs>
</svg>
