<svg width="136" height="136" viewBox="0 0 136 136" fill="none" xmlns="http://www.w3.org/2000/svg">
<g filter="url(#filter0_bd_242_20314)">
<rect x="40" y="20" width="56" height="56" rx="28" fill="url(#paint0_linear_242_20314)" fill-opacity="0.15" shape-rendering="crispEdges"/>
<g clip-path="url(#clip0_242_20314)">
<path d="M67.8985 36.0068C61.822 36.0068 62.2014 38.653 62.2014 38.653L62.2081 41.3944H68.0068V42.2175H59.905C59.905 42.2175 56.0166 41.7746 56.0166 47.9314C56.0166 54.0882 59.4105 53.8699 59.4105 53.8699H61.4359V51.0129C61.4359 51.0129 61.3267 47.6049 64.7756 47.6049H70.5269C70.5269 47.6049 73.7581 47.6573 73.7581 44.469V39.1972C73.7581 39.1972 74.2489 36.0068 67.8985 36.0068ZM64.7011 37.8504C64.8381 37.8503 64.9738 37.8773 65.1004 37.9299C65.2271 37.9825 65.3421 38.0597 65.439 38.157C65.5359 38.2542 65.6127 38.3698 65.6651 38.4969C65.7175 38.6241 65.7444 38.7603 65.7443 38.8979C65.7444 39.0355 65.7175 39.1718 65.6651 39.299C65.6127 39.4261 65.5359 39.5416 65.439 39.6389C65.3421 39.7362 65.2271 39.8134 65.1004 39.866C64.9738 39.9186 64.8381 39.9456 64.7011 39.9455C64.564 39.9456 64.4283 39.9186 64.3017 39.866C64.1751 39.8134 64.0601 39.7362 63.9632 39.6389C63.8663 39.5416 63.7894 39.4261 63.737 39.299C63.6847 39.1718 63.6578 39.0355 63.6579 38.8979C63.6578 38.7603 63.6847 38.6241 63.737 38.4969C63.7894 38.3698 63.8663 38.2542 63.9632 38.157C64.0601 38.0597 64.1751 37.9825 64.3017 37.9299C64.4283 37.8773 64.564 37.8503 64.7011 37.8504Z" fill="url(#paint1_linear_242_20314)"/>
<path d="M68.0707 59.9177C74.1472 59.9177 73.7678 57.2716 73.7678 57.2716L73.761 54.5302H67.9622V53.7072H76.0641C76.0641 53.7072 79.9525 54.15 79.9525 47.9931C79.9525 41.8363 76.5586 42.0547 76.5586 42.0547H74.5331V44.9116C74.5331 44.9116 74.6423 48.3196 71.1935 48.3196H65.4422C65.4422 48.3196 62.2109 48.2672 62.2109 51.4556V56.7274C62.2109 56.7274 61.7203 59.9177 68.0706 59.9177M71.268 58.0743C71.1309 58.0745 70.9952 58.0475 70.8686 57.9949C70.742 57.9423 70.627 57.8651 70.5301 57.7678C70.4332 57.6705 70.3563 57.555 70.304 57.4278C70.2516 57.3007 70.2247 57.1644 70.2248 57.0268C70.2247 56.8892 70.2515 56.7529 70.3039 56.6258C70.3563 56.4986 70.4331 56.3831 70.53 56.2858C70.6269 56.1884 70.742 56.1113 70.8686 56.0587C70.9952 56.0061 71.1309 55.9791 71.268 55.9792C71.405 55.9791 71.5407 56.0061 71.6673 56.0587C71.794 56.1113 71.909 56.1884 72.0059 56.2857C72.1028 56.383 72.1796 56.4985 72.232 56.6257C72.2844 56.7528 72.3113 56.8891 72.3112 57.0267C72.3113 57.1643 72.2844 57.3006 72.232 57.4277C72.1796 57.5549 72.1028 57.6704 72.0059 57.7677C71.909 57.865 71.794 57.9422 71.6673 57.9948C71.5407 58.0474 71.405 58.0745 71.268 58.0743Z" fill="url(#paint2_linear_242_20314)"/>
</g>
</g>
<defs>
<filter id="filter0_bd_242_20314" x="0" y="0" width="136" height="136" filterUnits="userSpaceOnUse" color-interpolation-filters="sRGB">
<feFlood flood-opacity="0" result="BackgroundImageFix"/>
<feGaussianBlur in="BackgroundImageFix" stdDeviation="10"/>
<feComposite in2="SourceAlpha" operator="in" result="effect1_backgroundBlur_242_20314"/>
<feColorMatrix in="SourceAlpha" type="matrix" values="0 0 0 0 0 0 0 0 0 0 0 0 0 0 0 0 0 0 127 0" result="hardAlpha"/>
<feOffset dy="20"/>
<feGaussianBlur stdDeviation="20"/>
<feComposite in2="hardAlpha" operator="out"/>
<feColorMatrix type="matrix" values="0 0 0 0 0 0 0 0 0 0 0 0 0 0 0 0 0 0 0.1 0"/>
<feBlend mode="normal" in2="effect1_backgroundBlur_242_20314" result="effect2_dropShadow_242_20314"/>
<feBlend mode="normal" in="SourceGraphic" in2="effect2_dropShadow_242_20314" result="shape"/>
</filter>
<linearGradient id="paint0_linear_242_20314" x1="40" y1="17.0588" x2="114.425" y2="49.1432" gradientUnits="userSpaceOnUse">
<stop stop-color="white" stop-opacity="0.7"/>
<stop offset="1" stop-color="white" stop-opacity="0.4"/>
</linearGradient>
<linearGradient id="paint1_linear_242_20314" x1="286.043" y1="251.072" x2="1477.13" y2="1425.39" gradientUnits="userSpaceOnUse">
<stop stop-color="#387EB8"/>
<stop offset="1" stop-color="#366994"/>
</linearGradient>
<linearGradient id="paint2_linear_242_20314" x1="401.73" y1="409.677" x2="1680.58" y2="1613.6" gradientUnits="userSpaceOnUse">
<stop stop-color="#FFE052"/>
<stop offset="1" stop-color="#FFC331"/>
</linearGradient>
<clipPath id="clip0_242_20314">
<rect width="24" height="24" fill="white" transform="translate(56 36)"/>
</clipPath>
</defs>
</svg>
