<svg width="136" height="136" viewBox="0 0 136 136" fill="none" xmlns="http://www.w3.org/2000/svg">
<g filter="url(#filter0_bd_242_20253)">
<rect x="40" y="20" width="56" height="56" rx="28" fill="url(#paint0_linear_242_20253)" fill-opacity="0.15" shape-rendering="crispEdges"/>
<g clip-path="url(#clip0_242_20253)">
<path d="M76.0143 36H59.9857C57.7855 36 56.002 37.8267 56.002 40.08V55.8816C56.002 58.1349 57.7855 59.9616 59.9857 59.9616H76.0143C78.2145 59.9616 79.998 58.1349 79.998 55.8816V40.08C79.998 37.8267 78.2145 36 76.0143 36Z" fill="#001E36"/>
<path d="M61.4053 52.8032V42.2683C61.4053 42.1915 61.4375 42.153 61.5019 42.153L61.6038 42.1527L61.778 42.1507L62.02 42.1459L62.8308 42.1283L63.7002 42.1118C64.0059 42.1063 64.3091 42.1036 64.6096 42.1035C65.4251 42.1035 66.1119 42.2079 66.6701 42.4168C67.1736 42.5911 67.6329 42.8783 68.0142 43.2575C68.3376 43.5862 68.5875 43.9828 68.7467 44.4199C68.8972 44.8453 68.9735 45.2945 68.9721 45.747C68.9721 46.6264 68.7735 47.3518 68.3764 47.9232C67.9881 48.4807 67.4464 48.907 66.8204 49.1478L66.7667 49.168C66.1131 49.4177 65.3893 49.5079 64.5954 49.5136L64.4721 49.5139L64.289 49.513L64.1967 49.5116L64.0938 49.5091L64.0317 49.5067L63.994 49.5046L63.9013 49.5012L63.788 49.4988L63.6174 49.4975L63.5795 49.4974V52.7867C63.5823 52.8068 63.5805 52.8274 63.5742 52.8467C63.5679 52.8661 63.5573 52.8836 63.5432 52.898C63.5292 52.9124 63.512 52.9233 63.4932 52.9297C63.4743 52.9361 63.4542 52.938 63.4345 52.9351H61.518C61.4428 52.9352 61.4052 52.8912 61.4053 52.8032ZM63.5795 44.1313V47.5674C63.7189 47.5784 63.8476 47.5839 63.9657 47.5839H64.497C64.8633 47.5826 65.2275 47.5267 65.5781 47.4181L65.648 47.3957C65.967 47.2988 66.252 47.1099 66.469 46.8516C66.6707 46.6079 66.7752 46.2722 66.7825 45.8443L66.7829 45.7964C66.7914 45.4775 66.7104 45.1628 66.5494 44.8897C66.3804 44.6255 66.1359 44.4211 65.8492 44.3044C65.4751 44.1554 65.0754 44.0853 64.6741 44.0984L64.4699 44.099L64.3411 44.1001L64.2183 44.1018L64.0448 44.1052L63.9183 44.1089L63.8526 44.1114L63.7648 44.1156L63.69 44.1203L63.6473 44.1237L63.6105 44.1274L63.5943 44.1293L63.5795 44.1313ZM75.1961 46.9426C74.9153 46.7948 74.6174 46.6838 74.3095 46.6122L74.2383 46.5964C73.8996 46.5168 73.5538 46.473 73.2064 46.4656L73.1196 46.4645C72.9159 46.4588 72.7125 46.4838 72.5159 46.5387C72.3908 46.5673 72.2796 46.6403 72.2019 46.7447C72.1494 46.8283 72.1215 46.9256 72.1215 47.0251C72.1244 47.1214 72.1584 47.2142 72.218 47.2888C72.3035 47.3911 72.4062 47.4768 72.5213 47.5419L72.5561 47.5608C72.7857 47.6874 73.0221 47.8002 73.2644 47.8987C73.8046 48.0841 74.3208 48.336 74.8017 48.6489C75.1292 48.8606 75.4003 49.1524 75.5905 49.498C75.7504 49.8252 75.8305 50.1872 75.8239 50.5531C75.8335 51.0362 75.6987 51.5108 75.4376 51.9133C75.158 52.3218 74.7696 52.6394 74.3187 52.8282C73.8466 53.0406 73.2667 53.1505 72.5793 53.1576L72.5079 53.158C72.0817 53.1624 71.6561 53.1242 71.2372 53.044L71.1476 53.0261C70.7949 52.9599 70.4515 52.8491 70.1254 52.6963C70.0926 52.679 70.0649 52.6531 70.0451 52.6212C70.0253 52.5894 70.0141 52.5527 70.0127 52.5149V50.718C70.0108 50.7005 70.0135 50.6829 70.0206 50.6669C70.0277 50.6509 70.0389 50.6372 70.0531 50.6273C70.0669 50.6192 70.0827 50.6157 70.0986 50.6172C70.1144 50.6187 70.1294 50.6251 70.1415 50.6355C70.5267 50.8681 70.9448 51.0377 71.381 51.1384C71.7655 51.2371 72.1598 51.2897 72.5561 51.295C72.9316 51.295 73.208 51.2456 73.3851 51.1466C73.4651 51.1091 73.5327 51.0486 73.5799 50.9725C73.627 50.8965 73.6516 50.8081 73.6508 50.718C73.6508 50.5753 73.5703 50.4379 73.4093 50.3059C73.3418 50.2506 73.2451 50.1904 73.119 50.1254L73.0588 50.095L72.9944 50.064L72.9607 50.0483L72.89 50.0162L72.8532 49.9999L72.7763 49.9669L72.7363 49.9501L72.6533 49.916L72.6101 49.8987L72.5208 49.8635L72.4274 49.8277C71.9218 49.6476 71.4426 49.3981 71.0027 49.0858C70.688 48.8617 70.4289 48.5653 70.2461 48.2203C70.0879 47.8954 70.0079 47.5364 70.0127 47.1734C70.0118 46.7371 70.1287 46.3092 70.3508 45.9369C70.6038 45.527 70.9672 45.2006 71.3971 44.9972C71.8692 44.7556 72.4594 44.6347 73.1678 44.6345C73.5826 44.631 73.9971 44.6614 74.4073 44.7252C74.7043 44.7638 74.9947 44.8442 75.2702 44.9642C75.3146 44.9773 75.3503 45.0108 75.3668 45.0549C75.3777 45.0952 75.3831 45.1367 75.3829 45.1786V46.8437C75.3852 46.8831 75.3668 46.9208 75.3346 46.9426C75.3131 46.9535 75.2894 46.9592 75.2654 46.9592C75.2413 46.9592 75.2176 46.9535 75.1961 46.9426Z" fill="#31A8FF"/>
</g>
</g>
<defs>
<filter id="filter0_bd_242_20253" x="0" y="0" width="136" height="136" filterUnits="userSpaceOnUse" color-interpolation-filters="sRGB">
<feFlood flood-opacity="0" result="BackgroundImageFix"/>
<feGaussianBlur in="BackgroundImageFix" stdDeviation="10"/>
<feComposite in2="SourceAlpha" operator="in" result="effect1_backgroundBlur_242_20253"/>
<feColorMatrix in="SourceAlpha" type="matrix" values="0 0 0 0 0 0 0 0 0 0 0 0 0 0 0 0 0 0 127 0" result="hardAlpha"/>
<feOffset dy="20"/>
<feGaussianBlur stdDeviation="20"/>
<feComposite in2="hardAlpha" operator="out"/>
<feColorMatrix type="matrix" values="0 0 0 0 0 0 0 0 0 0 0 0 0 0 0 0 0 0 0.1 0"/>
<feBlend mode="normal" in2="effect1_backgroundBlur_242_20253" result="effect2_dropShadow_242_20253"/>
<feBlend mode="normal" in="SourceGraphic" in2="effect2_dropShadow_242_20253" result="shape"/>
</filter>
<linearGradient id="paint0_linear_242_20253" x1="40" y1="17.0588" x2="114.425" y2="49.1432" gradientUnits="userSpaceOnUse">
<stop stop-color="white" stop-opacity="0.7"/>
<stop offset="1" stop-color="white" stop-opacity="0.4"/>
</linearGradient>
<clipPath id="clip0_242_20253">
<rect width="24" height="24" fill="white" transform="translate(56 36)"/>
</clipPath>
</defs>
</svg>
