<svg width="136" height="136" viewBox="0 0 136 136" fill="none" xmlns="http://www.w3.org/2000/svg">
<g filter="url(#filter0_bd_242_20268)">
<rect x="40" y="20" width="56" height="56" rx="28" fill="url(#paint0_linear_242_20268)" fill-opacity="0.15" shape-rendering="crispEdges"/>
<g clip-path="url(#clip0_242_20268)">
<path d="M77.1571 43.7709C76.8703 43.6726 76.5811 43.5814 76.2897 43.4976C76.3387 43.2976 76.3837 43.1 76.4237 42.9059C77.0803 39.7184 76.6511 37.1505 75.1849 36.305C73.7791 35.4945 71.48 36.3397 69.1581 38.3604C68.9293 38.5599 68.7055 38.7652 68.4871 38.976C68.3408 38.8358 68.192 38.6983 68.0407 38.5637C65.6072 36.403 63.168 35.4924 61.7034 36.3403C60.2989 37.1534 59.883 39.5674 60.4741 42.5882C60.5329 42.8874 60.5994 43.185 60.6733 43.4808C60.328 43.5789 59.9949 43.6833 59.676 43.7945C56.823 44.7892 55.001 46.3481 55.001 47.965C55.001 49.635 56.957 51.3101 59.9286 52.3258C60.1695 52.4078 60.4124 52.4837 60.6571 52.5537C60.5776 52.8723 60.5071 53.193 60.4455 53.5156C59.8819 56.484 60.322 58.8409 61.7228 59.6488C63.1695 60.4831 65.5977 59.6257 67.962 57.5588C68.1537 57.3908 68.3412 57.218 68.5243 57.0406C68.7609 57.2689 69.0038 57.4905 69.2528 57.7052C71.5431 59.676 73.805 60.4718 75.2043 59.6617C76.6497 58.8249 77.1195 56.2929 76.5096 53.2124C76.4616 52.9711 76.4077 52.7309 76.348 52.4922C76.5186 52.4417 76.6859 52.3897 76.8491 52.3356C79.9383 51.3121 81.9483 49.6573 81.9483 47.965C81.9483 46.3422 80.0675 44.7728 77.1571 43.7709ZM76.4871 51.2429C76.3396 51.2916 76.1887 51.3388 76.0345 51.3845C75.6934 50.3048 75.2332 49.1568 74.6699 47.9706C75.2074 46.8127 75.6499 45.6793 75.9814 44.6067C76.2571 44.6865 76.5246 44.7706 76.7824 44.8594C79.2761 45.7179 80.7972 46.987 80.7972 47.965C80.7972 49.0067 79.1544 50.359 76.4871 51.2429ZM75.3803 53.436C75.65 54.7981 75.6884 56.0297 75.5098 56.9925C75.3494 57.8577 75.0267 58.4344 74.6275 58.6655C73.7783 59.157 71.9622 58.5181 70.0036 56.8326C69.7721 56.633 69.5461 56.4269 69.326 56.2147C70.0854 55.3843 70.8442 54.4189 71.5849 53.3467C72.8876 53.2311 74.1183 53.0421 75.2345 52.7841C75.2895 53.006 75.3382 53.2233 75.3803 53.436ZM64.1879 58.5805C63.3582 58.8735 62.6974 58.8819 62.2979 58.6516C61.4479 58.1614 61.0946 56.2688 61.5766 53.7303C61.6339 53.4303 61.6995 53.132 61.7733 52.8357C62.8771 53.0799 64.0989 53.2555 65.4047 53.3614C66.1503 54.4105 66.9311 55.3748 67.7179 56.2192C67.5507 56.381 67.3795 56.5387 67.2046 56.6921C66.159 57.606 65.1113 58.2544 64.1879 58.5805ZM60.301 51.2365C58.987 50.7874 57.9018 50.2037 57.158 49.5667C56.4896 48.9944 56.1522 48.4261 56.1522 47.965C56.1522 46.9838 57.6151 45.7322 60.055 44.8816C60.3511 44.7784 60.661 44.681 60.9826 44.5897C61.3198 45.6865 61.7621 46.8334 62.2959 47.993C61.7552 49.1699 61.3066 50.335 60.966 51.4448C60.7427 51.3808 60.5209 51.3114 60.301 51.2365ZM61.6039 42.367C61.0975 39.7789 61.4338 37.8266 62.2802 37.3366C63.1817 36.8147 65.1752 37.5588 67.2763 39.4245C67.4134 39.5464 67.5482 39.6708 67.6807 39.7977C66.8977 40.6384 66.1241 41.5956 65.3851 42.6385C64.1177 42.756 62.9046 42.9446 61.7892 43.1974C61.7205 42.9222 61.6587 42.6453 61.6039 42.367ZM73.2278 45.2375C72.9644 44.7824 72.6911 44.3331 72.4083 43.8898C73.2681 43.9985 74.0919 44.1428 74.8655 44.3192C74.6333 45.0637 74.3438 45.8419 74.0031 46.6398C73.754 46.1672 73.4956 45.6997 73.2278 45.2375ZM68.4876 40.6205C69.0186 41.1958 69.5503 41.838 70.0734 42.5348C69.0123 42.4847 67.9495 42.4845 66.8885 42.5342C67.412 41.8438 67.9483 41.2024 68.4876 40.6205ZM63.717 45.2452C63.4526 45.7038 63.1989 46.1684 62.9562 46.6387C62.6211 45.8437 62.3342 45.0619 62.1 44.3069C62.8689 44.1349 63.6888 43.9943 64.5431 43.8876C64.2571 44.3336 63.9817 44.7863 63.717 45.2452ZM64.5676 52.1243C63.685 52.0258 62.8528 51.8924 62.0841 51.725C62.322 50.9566 62.6152 50.1582 62.9576 49.3461C63.2013 49.8168 63.456 50.2817 63.7215 50.7404C63.9946 51.212 64.2773 51.6739 64.5676 52.1243ZM68.5194 55.3906C67.9737 54.802 67.4295 54.1507 66.898 53.4503C67.414 53.4705 67.94 53.4808 68.4747 53.4808C69.0239 53.4808 69.5669 53.4685 70.1013 53.4447C69.5766 54.1578 69.0468 54.81 68.5194 55.3906ZM74.0139 49.3046C74.3741 50.1257 74.6777 50.9199 74.9188 51.6751C74.1375 51.8535 73.2939 51.997 72.4051 52.1037C72.6899 51.6522 72.9657 51.195 73.2323 50.7325C73.5034 50.2624 73.764 49.7863 74.0139 49.3046ZM72.2352 50.1574C71.827 50.8664 71.3958 51.5621 70.9425 52.2431C70.1211 52.3013 69.298 52.3302 68.4747 52.3298C67.636 52.3298 66.8203 52.3037 66.0349 52.2527C65.5696 51.5732 65.1302 50.8764 64.7177 50.1637C64.3071 49.4547 63.9236 48.7305 63.568 47.9924C63.9227 47.2542 64.3051 46.5295 64.7143 45.8201L64.7142 45.8202C65.1233 45.1105 65.5591 44.4166 66.0209 43.7401C66.8222 43.6795 67.644 43.6479 68.4746 43.6479C69.3089 43.6479 70.1318 43.6798 70.933 43.7408C71.3901 44.4164 71.8231 45.1079 72.2314 45.814C72.6419 46.5219 73.0294 47.243 73.3931 47.9761C73.0331 48.7167 72.6469 49.4442 72.2352 50.1574ZM74.6099 37.3022C75.5122 37.8226 75.8632 39.9212 75.2962 42.6733C75.2599 42.8491 75.2195 43.0277 75.1752 43.2091C74.0571 42.951 72.8431 42.7591 71.572 42.6399C70.8316 41.5855 70.0643 40.6268 69.2941 39.7969C69.496 39.6024 69.7027 39.4128 69.9139 39.2285C71.9034 37.4972 73.7628 36.8137 74.6099 37.3022ZM68.4747 45.5587C69.8036 45.5587 70.881 46.6361 70.881 47.965C70.881 49.294 69.8036 50.3714 68.4747 50.3714C67.1457 50.3714 66.0683 49.294 66.0683 47.965C66.0683 46.6361 67.1457 45.5587 68.4747 45.5587Z" fill="#00D8FF"/>
</g>
</g>
<defs>
<filter id="filter0_bd_242_20268" x="0" y="0" width="136" height="136" filterUnits="userSpaceOnUse" color-interpolation-filters="sRGB">
<feFlood flood-opacity="0" result="BackgroundImageFix"/>
<feGaussianBlur in="BackgroundImageFix" stdDeviation="10"/>
<feComposite in2="SourceAlpha" operator="in" result="effect1_backgroundBlur_242_20268"/>
<feColorMatrix in="SourceAlpha" type="matrix" values="0 0 0 0 0 0 0 0 0 0 0 0 0 0 0 0 0 0 127 0" result="hardAlpha"/>
<feOffset dy="20"/>
<feGaussianBlur stdDeviation="20"/>
<feComposite in2="hardAlpha" operator="out"/>
<feColorMatrix type="matrix" values="0 0 0 0 0 0 0 0 0 0 0 0 0 0 0 0 0 0 0.1 0"/>
<feBlend mode="normal" in2="effect1_backgroundBlur_242_20268" result="effect2_dropShadow_242_20268"/>
<feBlend mode="normal" in="SourceGraphic" in2="effect2_dropShadow_242_20268" result="shape"/>
</filter>
<linearGradient id="paint0_linear_242_20268" x1="40" y1="17.0588" x2="114.425" y2="49.1432" gradientUnits="userSpaceOnUse">
<stop stop-color="white" stop-opacity="0.7"/>
<stop offset="1" stop-color="white" stop-opacity="0.4"/>
</linearGradient>
<clipPath id="clip0_242_20268">
<rect width="26.95" height="24" fill="white" transform="translate(55 36)"/>
</clipPath>
</defs>
</svg>
