<svg width="136" height="136" viewBox="0 0 136 136" fill="none" xmlns="http://www.w3.org/2000/svg">
<g filter="url(#filter0_bd_242_20280)">
<rect x="40" y="20" width="56" height="56" rx="28" fill="url(#paint0_linear_242_20280)" fill-opacity="0.15" shape-rendering="crispEdges"/>
<path d="M68.0001 37.5L58.2246 40.986L59.7156 53.9115L68.0001 58.5L76.2846 53.9115L77.7756 40.986L68.0001 37.5Z" fill="#DD0031"/>
<path d="M68 37.5V39.831V39.8205V58.5L76.2845 53.9115L77.7755 40.986L68 37.5Z" fill="#C3002F"/>
<path d="M67.9997 39.8203L61.8887 53.5228H64.1672L65.3957 50.4568H70.5827L71.8112 53.5228H74.0897L67.9997 39.8203ZM69.7847 48.5668H66.2147L67.9997 44.2723L69.7847 48.5668Z" fill="white"/>
</g>
<defs>
<filter id="filter0_bd_242_20280" x="0" y="0" width="136" height="136" filterUnits="userSpaceOnUse" color-interpolation-filters="sRGB">
<feFlood flood-opacity="0" result="BackgroundImageFix"/>
<feGaussianBlur in="BackgroundImageFix" stdDeviation="10"/>
<feComposite in2="SourceAlpha" operator="in" result="effect1_backgroundBlur_242_20280"/>
<feColorMatrix in="SourceAlpha" type="matrix" values="0 0 0 0 0 0 0 0 0 0 0 0 0 0 0 0 0 0 127 0" result="hardAlpha"/>
<feOffset dy="20"/>
<feGaussianBlur stdDeviation="20"/>
<feComposite in2="hardAlpha" operator="out"/>
<feColorMatrix type="matrix" values="0 0 0 0 0 0 0 0 0 0 0 0 0 0 0 0 0 0 0.1 0"/>
<feBlend mode="normal" in2="effect1_backgroundBlur_242_20280" result="effect2_dropShadow_242_20280"/>
<feBlend mode="normal" in="SourceGraphic" in2="effect2_dropShadow_242_20280" result="shape"/>
</filter>
<linearGradient id="paint0_linear_242_20280" x1="40" y1="17.0588" x2="114.425" y2="49.1432" gradientUnits="userSpaceOnUse">
<stop stop-color="white" stop-opacity="0.7"/>
<stop offset="1" stop-color="white" stop-opacity="0.4"/>
</linearGradient>
</defs>
</svg>
