<svg width="13" height="13" viewBox="0 0 13 13" fill="none" xmlns="http://www.w3.org/2000/svg">
<path d="M4.14941 2.4751V10.7251H2.64941C2.54996 10.7251 2.45458 10.6856 2.38425 10.6153C2.31392 10.5449 2.27441 10.4496 2.27441 10.3501V2.8501C2.27441 2.75064 2.31392 2.65526 2.38425 2.58493C2.45458 2.51461 2.54996 2.4751 2.64941 2.4751H4.14941Z" fill="#1C1C1C" fill-opacity="0.1"/>
<path d="M9.02441 5.8501C9.02441 5.94955 8.98491 6.04494 8.91458 6.11526C8.84425 6.18559 8.74887 6.2251 8.64941 6.2251H5.64941C5.54996 6.2251 5.45458 6.18559 5.38425 6.11526C5.31392 6.04494 5.27441 5.94955 5.27441 5.8501C5.27441 5.75064 5.31392 5.65526 5.38425 5.58493C5.45458 5.51461 5.54996 5.4751 5.64941 5.4751H8.64941C8.74887 5.4751 8.84425 5.51461 8.91458 5.58493C8.98491 5.65526 9.02441 5.75064 9.02441 5.8501ZM8.64941 6.9751H5.64941C5.54996 6.9751 5.45458 7.01461 5.38425 7.08493C5.31392 7.15526 5.27441 7.25064 5.27441 7.3501C5.27441 7.44955 5.31392 7.54494 5.38425 7.61526C5.45458 7.68559 5.54996 7.7251 5.64941 7.7251H8.64941C8.74887 7.7251 8.84425 7.68559 8.91458 7.61526C8.98491 7.54494 9.02441 7.44955 9.02441 7.3501C9.02441 7.25064 8.98491 7.15526 8.91458 7.08493C8.84425 7.01461 8.74887 6.9751 8.64941 6.9751ZM10.8994 2.8501V10.3501C10.8994 10.549 10.8204 10.7398 10.6797 10.8804C10.5391 11.0211 10.3483 11.1001 10.1494 11.1001H2.64941C2.4505 11.1001 2.25974 11.0211 2.11908 10.8804C1.97843 10.7398 1.89941 10.549 1.89941 10.3501V2.8501C1.89941 2.65119 1.97843 2.46042 2.11908 2.31977C2.25974 2.17912 2.4505 2.1001 2.64941 2.1001H10.1494C10.3483 2.1001 10.5391 2.17912 10.6797 2.31977C10.8204 2.46042 10.8994 2.65119 10.8994 2.8501ZM2.64941 10.3501H3.77441V2.8501H2.64941V10.3501ZM10.1494 10.3501V2.8501H4.52441V10.3501H10.1494Z" fill="#1C1C1C"/>
</svg>
