<svg width="141" height="91" viewBox="0 0 141 91" fill="none" xmlns="http://www.w3.org/2000/svg">
<path d="M22.6699 -3.05176e-05L27.4429 17.727L45.1699 22.5L27.4429 27.2729L22.6699 45L17.8969 27.2729L0.169922 22.5L17.8969 17.727L22.6699 -3.05176e-05Z" fill="#441703"/>
<path fill-rule="evenodd" clip-rule="evenodd" d="M97.534 34.0359L88.3699 -3.05176e-05L79.2058 34.0359L45.1699 43.2L79.2058 52.3641L88.3699 86.4L89.9483 80.5376L90.3989 82.211L91.7894 81.8366L90.694 77.7683L97.534 52.3641L122.938 45.524L127.007 46.6194L127.381 45.2289L125.708 44.7784L131.57 43.2L97.534 34.0359ZM125.708 44.7784L121.708 43.7016L121.334 45.0921L122.938 45.524L125.708 44.7784ZM90.694 77.7683L90.262 76.164L88.8715 76.5384L89.9483 80.5376L90.694 77.7683ZM93.4536 7.15629L93.4147 7.16676L93.3167 7.53068L92.6899 7.36191L92.0631 7.53068L91.9651 7.16676L91.9262 7.15629L92.6899 4.31997L93.4536 7.15629ZM94.9809 12.8289L96.5083 18.5016L95.1178 18.876L93.5905 13.2033L94.9809 12.8289ZM98.0357 24.1742L99.563 29.8469L98.1725 30.2213L96.6452 24.5486L98.0357 24.1742ZM101.09 35.5195L101.854 38.3559L104.69 39.1195L104.316 40.51L100.679 39.5308L99.6999 35.8939L101.09 35.5195ZM110.363 40.6469L116.036 42.1742L115.661 43.5647L109.989 42.0374L110.363 40.6469ZM133.043 46.7952L133.054 46.7563L135.89 47.52L133.054 48.2836L133.043 48.2448L132.679 48.1468L132.848 47.52L132.679 46.8932L133.043 46.7952ZM127.381 49.811L121.708 51.3383L121.334 49.9479L127.007 48.4205L127.381 49.811ZM116.036 52.8657L110.363 54.3931L109.989 53.0026L115.661 51.4752L116.036 52.8657ZM104.69 55.9204L101.854 56.6841L101.09 59.5204L99.6999 59.146L100.679 55.5091L104.316 54.5299L104.69 55.9204ZM99.563 65.1931L98.0357 70.8657L96.6452 70.4913L98.1725 64.8187L99.563 65.1931ZM96.5083 76.5383L94.9809 82.211L93.5905 81.8366L95.1178 76.164L96.5083 76.5383ZM93.4147 87.8732L93.4536 87.8837L92.6899 90.72L91.9262 87.8837L91.9651 87.8732L92.0631 87.5093L92.6899 87.678L93.3167 87.5093L93.4147 87.8732ZM87.3442 70.8657L85.8168 65.1931L87.2073 64.8187L88.7347 70.4913L87.3442 70.8657ZM84.2895 59.5204L83.5258 56.6841L80.6895 55.9204L81.0639 54.5299L84.7008 55.5091L85.68 59.146L84.2895 59.5204ZM75.0168 54.3931L69.3442 52.8657L69.7186 51.4752L75.3912 53.0026L75.0168 54.3931ZM63.6715 51.3383L57.9989 49.811L58.3733 48.4205L64.0459 49.9479L63.6715 51.3383ZM52.3367 48.2448L52.3262 48.2836L49.4899 47.52L52.3262 46.7563L52.3367 46.7952L52.7006 46.8932L52.5319 47.52L52.7006 48.1468L52.3367 48.2448ZM57.9989 45.2289L63.6715 43.7016L64.0459 45.0921L58.3733 46.6194L57.9989 45.2289ZM69.3442 42.1742L75.0168 40.6469L75.3912 42.0374L69.7186 43.5647L69.3442 42.1742ZM80.6895 39.1195L83.5258 38.3559L84.2895 35.5195L85.68 35.8939L84.7008 39.5308L81.0639 40.51L80.6895 39.1195ZM85.8168 29.8469L87.3442 24.1742L88.7347 24.5486L87.2073 30.2213L85.8168 29.8469ZM88.8715 18.5016L90.3989 12.8289L91.7894 13.2033L90.262 18.876L88.8715 18.5016Z" fill="#582007"/>
</svg>
