<svg width="19" height="22" viewBox="0 0 19 22" fill="none" xmlns="http://www.w3.org/2000/svg">
<g clip-path="url(#clip0_301_38355)">
<path d="M11.8377 2.33698C13.522 2.83894 15.0311 3.94849 15.9923 5.41986C16.7406 6.54255 17.2015 7.86723 17.242 9.21818C17.2754 9.53238 16.4636 9.29153 16.2863 9.31452C15.9135 9.29208 15.5429 9.19738 15.1773 9.12786C13.2975 8.59689 11.6959 7.30835 10.7511 5.6016C10.3904 4.87029 10.1232 4.09792 9.9842 3.29272C9.95464 2.8986 9.82546 2.44591 9.95519 2.06274C10.5732 1.9883 11.2235 2.20123 11.83 2.33534L11.8382 2.33698H11.8377Z" fill="#100A07"/>
<path d="M16.1261 9.98743C16.4091 9.92721 16.6855 9.95732 16.9871 9.9513C17.1065 9.9502 17.2751 9.94692 17.2411 10.1139C17.1979 11.2634 16.8662 12.4091 16.2728 13.3976C15.4085 14.9561 13.9601 16.1537 12.2977 16.7789C12.0245 16.8922 9.81858 17.5364 9.90999 17.0356C9.89685 15.9906 10.1519 14.9429 10.6052 14.0047C11.6014 11.8463 13.7685 10.2983 16.1168 9.98797L16.1256 9.98688L16.1261 9.98743Z" fill="#100A07"/>
<path d="M9.43615 2.35047C9.50512 2.22676 9.56697 1.91365 9.60638 2.0598C9.63649 6.55384 9.60803 12.753 9.61624 17.2471C9.602 17.5273 9.51114 17.1797 9.51114 17.1797C9.51114 17.1797 8.828 13.2052 7.72173 12.0157C6.6286 10.76 4.93827 10.3401 3.37931 9.98543C3.29611 9.91975 1.47441 9.7205 1.94462 9.62744C6.51968 8.75874 8.4202 7.11876 9.43286 2.35814L9.4356 2.35047H9.43615Z" fill="#FF4F00"/>
<path d="M6.75959 13.7959C6.75849 15.6379 6.75959 17.4859 6.75959 19.3289C6.75959 19.5982 6.75959 19.8698 6.75959 20.138C6.76287 20.3443 6.76944 20.5972 6.66653 20.7538C6.36985 21.3696 5.76663 21.4085 5.15629 21.3877C4.4228 21.4386 3.74623 20.9853 3.80206 20.2108C3.8037 18.1367 3.80315 16.061 3.80206 13.987C3.80315 13.8715 3.79659 13.7538 3.80753 13.6531C3.82177 13.4922 3.89074 13.3723 3.95861 13.2508C4.14582 12.9519 4.47918 12.734 4.83772 12.7411C5.13276 12.7417 5.46283 12.7411 5.75459 12.7411C5.84381 12.7439 5.94179 12.7537 6.02116 12.7773C6.43225 12.9322 6.77984 13.3241 6.76014 13.7856V13.7954L6.75959 13.7959Z" fill="#100A07"/>
</g>
<defs>
<clipPath id="clip0_301_38355">
<rect width="18.6" height="21.6" fill="white" transform="translate(0.399414 0.399902)"/>
</clipPath>
</defs>
</svg>
