<svg width="39" height="50" viewBox="0 0 39 50" fill="none" xmlns="http://www.w3.org/2000/svg">
<path d="M25.1773 1.79484C29.4306 3.0624 33.2416 5.8643 35.6689 9.57989C37.5585 12.415 38.7223 15.7601 38.8246 19.1716C38.9089 19.965 36.859 19.3568 36.4112 19.4149C35.4698 19.3582 34.534 19.1191 33.6106 18.9435C28.8639 17.6027 24.8193 14.3488 22.4334 10.0388C21.5225 8.19207 20.848 6.24166 20.4969 4.20831C20.4222 3.21307 20.096 2.06991 20.4236 1.10231C21.9842 0.914318 23.6264 1.45203 25.1579 1.79069L25.1787 1.79484H25.1773Z" fill="white"/>
<path d="M36.007 21.1157C36.7216 20.9636 37.4197 21.0396 38.1813 21.0244C38.4827 21.0217 38.9084 21.0134 38.8227 21.435C38.7135 24.3378 37.8758 27.2309 36.3774 29.7273C34.1948 33.6627 30.5373 36.6871 26.3393 38.2657C25.6495 38.5519 20.0789 40.1788 20.3097 38.914C20.2765 36.2752 20.9207 33.6295 22.0652 31.2603C24.581 25.8099 30.0535 21.9008 35.9835 21.117L36.0056 21.1143L36.007 21.1157Z" fill="white"/>
<path d="M19.1135 1.83015C19.2877 1.51775 19.4439 0.727071 19.5434 1.09614C19.6195 12.4447 19.5476 28.0992 19.5683 39.4478C19.5324 40.1555 19.3029 39.2778 19.3029 39.2778C19.3029 39.2778 17.5778 29.241 14.7842 26.2373C12.0238 23.0663 7.75526 22.0061 3.8185 21.1104C3.60839 20.9445 -0.991855 20.4413 0.195532 20.2064C11.7487 18.0127 16.548 13.8713 19.1052 1.84953L19.1122 1.83015H19.1135Z" fill="#FF4F00"/>
<path d="M12.3546 30.7325C12.3518 35.3839 12.3546 40.0505 12.3546 44.7046C12.3546 45.3847 12.3546 46.0703 12.3546 46.7477C12.3629 47.2688 12.3795 47.9074 12.1196 48.3027C11.3704 49.8578 9.84713 49.956 8.30587 49.9034C6.45361 50.032 4.74509 48.8874 4.88609 46.9315C4.89023 41.694 4.88885 36.4524 4.88609 31.2149C4.88885 30.9232 4.87227 30.626 4.89991 30.3717C4.93585 29.9653 5.11002 29.6626 5.28142 29.3557C5.75417 28.601 6.59598 28.0508 7.50138 28.0688C8.24644 28.0702 9.07996 28.0688 9.81672 28.0688C10.042 28.0757 10.2895 28.1006 10.4899 28.16C11.528 28.5512 12.4057 29.5409 12.356 30.7062V30.7311L12.3546 30.7325Z" fill="white"/>
</svg>
