<svg width="64" height="64" viewBox="0 0 64 64" fill="none" xmlns="http://www.w3.org/2000/svg">
<path d="M37.9761 9.43687C42.2294 10.7044 46.0404 13.5063 48.4677 17.2219C50.3573 20.057 51.5212 23.4021 51.6235 26.8136C51.7078 27.6071 49.6578 26.9989 49.21 27.0569C48.2686 27.0002 47.3328 26.7611 46.4095 26.5855C41.6627 25.2447 37.6181 21.9908 35.2323 17.6808C34.3213 15.8341 33.6468 13.8837 33.2957 11.8503C33.221 10.8551 32.8948 9.71194 33.2224 8.74434C34.783 8.55635 36.4252 9.09406 37.9568 9.43272L37.9775 9.43687H37.9761Z" fill="white"/>
<path d="M48.8048 28.7571C49.5195 28.6051 50.2175 28.6811 50.9792 28.6659C51.2805 28.6631 51.7063 28.6548 51.6206 29.0764C51.5114 31.9792 50.6737 34.8724 49.1753 37.3688C46.9927 41.3042 43.3351 44.3286 39.1371 45.9072C38.4473 46.1933 32.8767 47.8203 33.1076 46.5555C33.0744 43.9167 33.7185 41.271 34.8631 38.9018C37.3788 33.4514 42.8513 29.5423 48.7813 28.7585L48.8035 28.7557L48.8048 28.7571Z" fill="white"/>
<path d="M31.9114 9.47142C32.0856 9.15902 32.2418 8.36834 32.3413 8.73741C32.4173 20.086 32.3454 35.7405 32.3662 47.0891C32.3302 47.7968 32.1008 46.919 32.1008 46.919C32.1008 46.919 30.3757 36.8823 27.5821 33.8785C24.8216 30.7076 20.5531 29.6474 16.6164 28.7516C16.4062 28.5858 11.806 28.0826 12.9934 27.8476C24.5466 25.6539 29.3459 21.5126 31.9031 9.4908L31.91 9.47142H31.9114Z" fill="#FF4F00"/>
<path d="M25.1525 38.3737C25.1497 43.0251 25.1525 47.6917 25.1525 52.3459C25.1525 53.026 25.1525 53.7116 25.1525 54.3889C25.1607 54.91 25.1773 55.5487 24.9175 55.944C24.1683 57.4991 22.645 57.5972 21.1037 57.5447C19.2515 57.6732 17.5429 56.5287 17.6839 54.5728C17.6881 49.3353 17.6867 44.0936 17.6839 38.8561C17.6867 38.5645 17.6701 38.2673 17.6978 38.0129C17.7337 37.6066 17.9079 37.3038 18.0793 36.997C18.552 36.2422 19.3938 35.6921 20.2992 35.7101C21.0443 35.7114 21.8778 35.7101 22.6146 35.7101C22.8399 35.717 23.0873 35.7418 23.2877 35.8013C24.3258 36.1925 25.2036 37.1822 25.1538 38.3475V38.3723L25.1525 38.3737Z" fill="white"/>
</svg>
