<svg width="750" height="671" viewBox="0 0 750 671" fill="none" xmlns="http://www.w3.org/2000/svg">
<path d="M54.8084 378.452C56.5799 377.353 58.7957 377.415 60.5803 378.494C61.0638 378.787 61.5584 379.067 62.0606 379.337C62.5683 379.61 63.0798 379.867 63.5932 380.11C65.4711 380.997 66.7442 382.804 66.8095 384.88L67.0298 391.979L90.1509 391.26L89.9325 384.165C89.8691 382.083 91.0078 380.175 92.8371 379.177C93.8433 378.628 94.8215 378.023 95.7697 377.366C97.4741 376.183 99.6824 376.018 101.512 376.998L107.754 380.345L118.691 359.953L112.449 356.606C110.619 355.626 109.535 353.696 109.578 351.62C109.602 350.469 109.563 349.319 109.464 348.176C109.283 346.1 110.242 344.097 112.012 342.998L118.043 339.255L105.85 319.597L99.7869 323.353C98.0229 324.445 95.8183 324.383 94.043 323.31C93.5596 323.017 93.0649 322.737 92.5627 322.468C92.0606 322.199 91.5528 321.943 91.0414 321.701C89.156 320.81 87.8791 318.998 87.8175 316.914L87.6029 309.81L64.4817 310.528L64.7057 317.607C64.7711 319.688 63.6342 321.596 61.8086 322.597C60.7987 323.149 59.8168 323.758 58.8666 324.418C57.1623 325.606 54.9521 325.77 53.1209 324.788L46.8805 321.441L35.9434 341.835L42.1838 345.182C44.0132 346.164 45.0996 348.096 45.0529 350.174C45.0268 351.331 45.0641 352.485 45.1631 353.633C45.3404 355.708 44.3809 357.71 42.6113 358.807L36.5911 362.537L48.7845 382.195L54.8084 378.452ZM60.6045 341.939C65.5495 332.718 77.0503 329.246 86.2719 334.193C95.4935 339.138 98.9488 350.629 94.0038 359.851C89.0589 369.072 77.5842 372.537 68.3608 367.59C59.1392 362.645 55.6577 351.163 60.6045 341.939Z" fill="#EBEBEB"/>
<path d="M120.265 296.137C120.995 294.872 122.384 294.175 123.842 294.25C124.237 294.27 124.635 294.28 125.034 294.28C125.438 294.28 125.839 294.27 126.237 294.25C127.691 294.175 129.074 294.87 129.802 296.13L132.288 300.44L146.326 292.34L143.842 288.032C143.112 286.768 143.184 285.213 143.983 283.99C144.422 283.318 144.827 282.62 145.193 281.902C145.854 280.606 147.162 279.774 148.617 279.774H153.578V263.563H148.617C147.162 263.563 145.854 262.73 145.193 261.435C144.827 260.716 144.422 260.018 143.983 259.346C143.184 258.125 143.114 256.57 143.842 255.307L146.326 250.998L132.288 242.898L129.789 247.226C129.063 248.484 127.679 249.176 126.229 249.102C125.833 249.081 125.436 249.072 125.036 249.072C124.637 249.072 124.239 249.081 123.843 249.102C122.385 249.176 120.997 248.48 120.269 247.214L117.784 242.898L103.746 250.998L106.229 255.293C106.959 256.557 106.888 258.11 106.093 259.333C105.652 260.009 105.247 260.709 104.879 261.431C104.22 262.729 102.91 263.563 101.456 263.563H96.4941V279.774H101.456C102.91 279.774 104.22 280.608 104.879 281.905C105.247 282.628 105.652 283.328 106.093 284.004C106.89 285.226 106.961 286.779 106.229 288.043L103.746 292.338L117.784 300.438L120.265 296.137ZM111.755 271.678C111.755 264.347 117.706 258.396 125.036 258.396C132.367 258.396 138.305 264.347 138.305 271.678C138.305 279.008 132.367 284.946 125.036 284.946C117.706 284.946 111.755 279.008 111.755 271.678Z" fill="#EBEBEB"/>
<path d="M677.032 219.902C678.298 220.632 678.992 222.021 678.918 223.479C678.897 223.874 678.888 224.272 678.888 224.672C678.888 225.075 678.897 225.476 678.918 225.874C678.992 227.328 678.298 228.711 677.038 229.439L672.728 231.926L680.827 245.963L685.136 243.479C686.399 242.749 687.954 242.822 689.177 243.621C689.849 244.059 690.547 244.464 691.266 244.83C692.561 245.491 693.394 246.8 693.394 248.254V253.216H709.605V248.254C709.605 246.8 710.437 245.491 711.733 244.83C712.451 244.464 713.149 244.059 713.821 243.621C715.042 242.822 716.597 242.751 717.861 243.479L722.169 245.963L730.269 231.926L725.942 229.426C724.684 228.698 723.991 227.317 724.066 225.866C724.087 225.471 724.096 225.073 724.096 224.673C724.096 224.274 724.087 223.876 724.066 223.481C723.991 222.023 724.688 220.634 725.953 219.906L730.269 217.421L722.169 203.385L717.874 205.866C716.61 206.596 715.057 206.525 713.834 205.73C713.159 205.289 712.459 204.884 711.736 204.517C710.439 203.858 709.605 202.547 709.605 201.093V196.131H693.394V201.093C693.394 202.547 692.56 203.858 691.262 204.517C690.54 204.884 689.838 205.289 689.164 205.73C687.941 206.527 686.388 206.598 685.124 205.866L680.829 203.385L672.729 217.421L677.032 219.902ZM701.492 211.392C708.822 211.392 714.773 217.343 714.773 224.673C714.773 232.004 708.822 237.942 701.492 237.942C694.161 237.942 688.223 232.004 688.223 224.673C688.223 217.343 694.161 211.392 701.492 211.392Z" fill="#EBEBEB"/>
<path d="M153.696 87.3721C110.407 87.3721 75.3311 122.448 75.3311 165.737C75.3311 209.007 110.407 244.102 153.696 244.102C196.966 244.102 232.061 209.007 232.061 165.737C232.061 122.448 196.966 87.3721 153.696 87.3721ZM153.696 202.324C133.479 202.324 117.09 185.953 117.09 165.737C117.09 145.52 133.479 129.131 153.696 129.131C173.912 129.131 190.302 145.52 190.302 165.737C190.302 185.953 173.912 202.324 153.696 202.324Z" fill="#455A64"/>
<path d="M168.763 90.62H138.629L140.294 69.2891H167.098L168.763 90.62Z" fill="#455A64"/>
<path d="M111.403 100.775L90.0927 122.084L76.1875 105.821L95.1403 86.8682L111.403 100.775Z" fill="#455A64"/>
<path d="M78.0234 148.513V178.649L56.6924 176.984V150.18L78.0234 148.513Z" fill="#455A64"/>
<path d="M88.1767 205.873L109.487 227.182L93.2243 241.089L74.2715 222.136L88.1767 205.873Z" fill="#455A64"/>
<path d="M135.915 239.251H166.051L164.384 260.584H137.582L135.915 239.251Z" fill="#455A64"/>
<path d="M193.275 229.098L214.584 207.79L228.491 224.052L209.536 243.005L193.275 229.098Z" fill="#455A64"/>
<path d="M226.654 181.361V151.225L247.987 152.89V179.694L226.654 181.361Z" fill="#455A64"/>
<path d="M216.501 124L195.192 102.692L211.453 88.7847L230.408 107.737L216.501 124Z" fill="#455A64"/>
<path d="M158.896 146.588V183.258C158.896 185.185 157.279 186.676 155.416 186.676C153.49 186.676 151.996 185.185 151.996 183.258V152.68L149.512 154.109C148.952 154.483 148.33 154.606 147.772 154.606C146.59 154.606 145.472 153.984 144.85 152.866C143.794 151.313 144.352 149.138 145.969 148.205L153.613 143.667C153.674 143.605 153.799 143.605 153.861 143.544C153.984 143.544 154.048 143.421 154.171 143.357C154.294 143.357 154.419 143.296 154.544 143.296C154.606 143.234 154.731 143.234 154.793 143.234C154.918 143.172 155.104 143.172 155.227 143.172C155.289 143.172 155.353 143.172 155.414 143.172H155.476C155.662 143.172 155.787 143.172 155.911 143.172C155.972 143.234 156.097 143.234 156.159 143.234C156.346 143.234 156.407 143.296 156.532 143.357C156.594 143.357 156.719 143.357 156.781 143.421C156.967 143.544 157.029 143.607 157.154 143.607C157.216 143.669 157.277 143.731 157.402 143.794C157.464 143.856 157.589 143.917 157.65 143.981C157.776 144.042 157.837 144.167 157.899 144.229C157.96 144.291 158.024 144.352 158.085 144.477C158.147 144.539 158.272 144.664 158.334 144.725L158.397 144.851C158.397 144.912 158.459 144.974 158.459 145.037C158.52 145.162 158.582 145.224 158.582 145.347C158.644 145.472 158.644 145.595 158.707 145.659C158.707 145.784 158.769 145.907 158.769 145.969C158.769 146.155 158.769 146.28 158.892 146.404C158.896 146.465 158.896 146.527 158.896 146.588Z" fill="white"/>
<path d="M229.767 82.6342C227.538 101.516 215.404 104.975 213.368 110.01C212.279 112.735 210.833 119.664 210.833 119.664L191.103 119.644C191.103 119.644 189.685 112.713 188.589 109.985C186.575 104.947 174.436 101.464 172.257 82.5763C170.818 70.1664 180.166 50.5864 201.044 50.6069C221.923 50.6275 231.219 70.228 229.767 82.6342Z" fill="#FF4F00"/>
<path d="M190.93 89.4157L189.66 89.6514L195.484 121.041L196.754 120.806L190.93 89.4157Z" fill="white"/>
<path d="M211.082 89.4585L205.188 120.834L206.458 121.072L212.351 89.697L211.082 89.4585Z" fill="white"/>
<path d="M200.996 100.065C199.146 100.063 197.546 98.4114 196.417 96.3393C195.875 96.9124 195.3 97.2185 194.737 97.2185C191.722 97.2167 190.531 91.0677 190.482 90.8064L191.117 90.6869C191.425 92.324 192.674 96.5708 194.735 96.5727C195.164 96.5727 195.64 96.2721 196.099 95.7252C195.179 93.823 194.643 91.6856 194.645 90.1717C194.647 88.4207 195.317 87.4146 196.48 87.4146C197.221 87.4146 197.807 87.7487 198.17 88.3778C199.099 89.9944 198.41 93.179 197.238 95.2062C197.111 95.4265 196.979 95.63 196.844 95.8148C197.901 97.829 199.394 99.4175 200.992 99.4194C202.439 99.4194 203.714 98.1034 204.636 96.3449C203.486 95.0606 202.834 93.0054 202.836 91.0453C202.838 88.8109 203.691 87.422 205.06 87.422C206.176 87.4239 206.816 88.5178 206.814 90.4256C206.812 92.0421 206.31 94.3027 205.397 96.2292C205.918 96.6996 206.549 96.9908 207.296 96.9908C209.058 96.9908 210.637 92.716 211.097 91.0696L211.718 91.2432C211.535 91.8984 209.861 97.6367 207.296 97.6367C206.465 97.6367 205.728 97.3249 205.106 96.8041C204.111 98.6503 202.711 100.065 200.996 100.065ZM205.061 88.0679C203.899 88.0679 203.484 89.6714 203.484 91.0453C203.482 92.5387 203.953 94.4801 204.936 95.7308C205.711 94.0265 206.168 92.0291 206.17 90.4256C206.17 89.7162 206.064 88.0679 205.061 88.0679ZM196.48 88.0586C195.498 88.0586 195.291 89.2066 195.291 90.1698C195.289 91.6259 195.754 93.4795 196.518 95.1465C196.572 95.0606 196.626 94.9729 196.678 94.8814C197.744 93.0408 198.388 90.0485 197.61 88.6989C197.363 88.2695 196.994 88.0604 196.48 88.0586C196.482 88.0586 196.482 88.0586 196.48 88.0586Z" fill="white"/>
<path d="M213.148 118.816L188.804 118.792L188.799 123.55L213.143 123.575L213.148 118.816Z" fill="#263238"/>
<path d="M213.142 124.344L188.798 124.32L188.793 129.078L213.137 129.102L213.142 124.344Z" fill="#263238"/>
<path d="M213.136 129.871L188.792 129.847L188.787 134.603L213.131 134.627L213.136 129.871Z" fill="#263238"/>
<path d="M283.134 323.824C231.408 323.824 189.35 365.899 189.35 417.607C189.35 469.315 231.408 511.372 283.134 511.372C334.805 511.372 376.862 469.315 376.862 417.607C376.862 365.899 334.805 323.824 283.134 323.824ZM283.134 491.417C242.309 491.417 209.287 458.376 209.287 417.607C209.287 376.82 242.309 343.779 283.134 343.779C323.885 343.779 356.907 376.82 356.907 417.607C356.907 458.376 323.885 491.417 283.134 491.417ZM283.134 323.824C231.408 323.824 189.35 365.899 189.35 417.607C189.35 469.315 231.408 511.372 283.134 511.372C334.805 511.372 376.862 469.315 376.862 417.607C376.862 365.899 334.805 323.824 283.134 323.824ZM283.134 491.417C242.309 491.417 209.287 458.376 209.287 417.607C209.287 376.82 242.309 343.779 283.134 343.779C323.885 343.779 356.907 376.82 356.907 417.607C356.907 458.376 323.885 491.417 283.134 491.417ZM283.134 259.515C195.809 259.515 125.042 330.301 125.042 417.607C125.042 504.895 195.809 575.662 283.134 575.662C370.385 575.662 441.17 504.895 441.17 417.607C441.17 330.301 370.385 259.515 283.134 259.515ZM283.134 520.37C226.461 520.37 180.334 474.281 180.334 417.607C180.334 360.953 226.461 314.826 283.134 314.826C339.77 314.826 385.86 360.953 385.86 417.607C385.86 474.281 339.77 520.37 283.134 520.37ZM283.134 323.824C231.408 323.824 189.35 365.899 189.35 417.607C189.35 469.315 231.408 511.372 283.134 511.372C334.805 511.372 376.862 469.315 376.862 417.607C376.862 365.899 334.805 323.824 283.134 323.824ZM283.134 491.417C242.309 491.417 209.287 458.376 209.287 417.607C209.287 376.82 242.309 343.779 283.134 343.779C323.885 343.779 356.907 376.82 356.907 417.607C356.907 458.376 323.885 491.417 283.134 491.417Z" fill="#FF4F00"/>
<path d="M301.664 262.386H265.472L269.076 226.262H298.061L301.664 262.386Z" fill="#FF4F00"/>
<path d="M221.573 273.901L190.229 291.997L175.286 258.909L200.39 244.416L221.573 273.901Z" fill="#FF4F00"/>
<path d="M157.966 323.918L139.87 355.26L110.385 334.076L124.878 308.975L157.966 323.918Z" fill="#FF4F00"/>
<path d="M127.889 399.036V435.228L91.7627 431.625V402.639L127.889 399.036Z" fill="#FF4F00"/>
<path d="M139.401 479.129L157.497 510.473L124.409 525.415L109.918 500.313L139.401 479.129Z" fill="#FF4F00"/>
<path d="M189.418 542.736L220.762 560.832L199.578 590.315L174.477 575.824L189.418 542.736Z" fill="#FF4F00"/>
<path d="M264.538 572.81H300.73L297.125 608.937H268.141L264.538 572.81Z" fill="#FF4F00"/>
<path d="M344.63 561.299L375.974 543.203L390.917 576.29L365.813 590.783L344.63 561.299Z" fill="#FF4F00"/>
<path d="M408.236 511.282L426.332 479.938L455.817 501.121L441.324 526.223L408.236 511.282Z" fill="#FF4F00"/>
<path d="M438.312 436.164V399.972L474.439 403.574V432.559L438.312 436.164Z" fill="#FF4F00"/>
<path d="M426.801 356.07L408.705 324.726L441.793 309.785L456.284 334.887L426.801 356.07Z" fill="#FF4F00"/>
<path d="M376.783 292.464L345.439 274.368L366.623 244.885L391.725 259.376L376.783 292.464Z" fill="#FF4F00"/>
<path d="M296.898 440.589C296.898 442.516 295.406 444.007 293.48 444.007H271.477C271.477 444.007 271.477 444.007 271.415 444.007H271.353C270.422 444.007 269.427 443.634 268.805 442.889C267.501 441.459 267.626 439.346 268.992 438.041L287.389 421.384C289.192 419.768 289.998 417.655 289.998 415.418C289.998 413.428 289.315 411.565 287.947 410.011C286.33 408.209 284.155 407.401 281.981 407.401C280.054 407.401 278.128 408.084 276.575 409.452L274.648 411.192C273.218 412.497 271.105 412.374 269.8 410.944C268.557 409.514 268.621 407.403 270.049 406.096L271.975 404.354C274.771 401.745 278.438 400.501 281.981 400.501C286.02 400.501 290.123 402.18 293.043 405.411C295.652 408.207 296.896 411.873 296.896 415.417C296.896 419.456 295.218 423.557 291.986 426.479L280.241 437.106H293.48C295.406 437.11 296.898 438.663 296.898 440.589Z" fill="white"/>
<path d="M406.178 343.994L395.039 352.432L374.406 325.189L366.857 315.225C368.368 314.638 369.826 313.815 371.184 312.775C373.802 310.78 375.713 308.196 376.904 305.361L384.922 315.928L406.178 343.994Z" fill="#263238"/>
<path d="M384.253 279.846C374.036 266.527 354.947 264.011 341.628 274.228C328.309 284.444 325.793 303.533 336.009 316.852C345.184 328.829 361.524 332.066 374.406 325.189C375.866 324.401 377.275 323.511 378.617 322.471C381.1 320.559 383.213 318.344 384.925 315.928C392.44 305.344 392.556 290.701 384.253 279.846ZM371.186 312.775C369.827 313.815 368.367 314.636 366.859 315.224C359.478 318.176 350.771 316.029 345.705 309.421C339.599 301.454 341.092 290.029 349.059 283.923C357.027 277.817 368.434 279.327 374.557 287.295C378.651 292.646 379.321 299.557 376.905 305.361C375.714 308.196 373.803 310.78 371.186 312.775Z" fill="#263238"/>
<path d="M571.829 180.848C516.403 180.848 471.473 225.778 471.473 281.205C471.473 336.611 516.403 381.541 571.829 381.541C627.233 381.541 672.163 336.611 672.163 281.205C672.165 225.778 627.235 180.848 571.829 180.848ZM571.829 328.056C545.928 328.056 524.958 307.085 524.958 281.205C524.958 255.304 545.928 234.333 571.829 234.333C597.707 234.333 618.68 255.304 618.68 281.205C618.68 307.083 597.707 328.056 571.829 328.056Z" fill="#FFC5AC"/>
<path d="M591.111 185.018H552.524L554.658 157.705H588.978L591.111 185.018Z" fill="#FFC5AC"/>
<path d="M517.668 198.018L490.382 225.304L472.577 204.481L496.844 180.213L517.668 198.018Z" fill="#FFC5AC"/>
<path d="M474.927 259.144V297.731L447.613 295.597V261.278L474.927 259.144Z" fill="#FFC5AC"/>
<path d="M487.927 332.588L515.213 359.874L494.389 377.678L470.122 353.411L487.927 332.588Z" fill="#FFC5AC"/>
<path d="M549.052 375.329H587.639L585.505 402.642H551.185L549.052 375.329Z" fill="#FFC5AC"/>
<path d="M622.496 362.328L649.782 335.042L667.587 355.865L643.319 380.133L622.496 362.328Z" fill="#FFC5AC"/>
<path d="M665.237 301.204V262.617L692.551 264.75V299.07L665.237 301.204Z" fill="#FFC5AC"/>
<path d="M652.236 227.757L624.95 200.473L645.773 182.668L670.041 206.936L652.236 227.757Z" fill="#FFC5AC"/>
<path d="M512.465 297.639C512.155 297.46 512.068 297.075 512.252 296.794C513.199 295.179 514.19 292.564 513.781 290.049C513.526 288.36 512.798 286.913 511.864 285.978C510.925 285.015 509.813 284.589 508.732 284.751C507.625 284.919 506.875 285.571 506.313 286.732C505.781 287.889 505.489 289.519 505.415 291.457L505.422 291.513C505.362 293.363 505.103 295.016 504.479 296.329C503.886 297.635 502.842 298.615 501.403 298.832C499.936 299.054 498.54 298.444 497.47 297.359C496.4 296.275 495.628 294.72 495.351 292.892C494.965 290.346 495.922 288.246 496.69 286.573C496.841 286.267 497.188 286.131 497.522 286.278C497.823 286.402 497.965 286.777 497.813 287.083C497.046 288.755 496.245 290.577 496.568 292.709C496.807 294.288 497.491 295.629 498.329 296.493C499.195 297.354 500.222 297.764 501.218 297.613C502.183 297.438 502.835 296.887 503.354 295.817C503.871 294.748 504.125 293.237 504.192 291.442L504.185 291.386C504.25 289.394 504.545 287.593 505.211 286.189C505.85 284.789 506.992 283.738 508.543 283.504C510.093 283.269 511.612 283.947 512.751 285.106C513.888 286.265 514.735 287.921 515.026 289.859C515.448 292.825 514.341 295.625 513.311 297.425C513.128 297.708 512.743 297.796 512.465 297.639Z" fill="#FFC5AC"/>
<path d="M496.669 271.903L495.865 277.757C495.814 278.117 495.467 278.38 495.079 278.326C494.719 278.277 494.455 277.93 494.504 277.568L496.298 264.529C496.346 264.169 496.695 263.905 497.054 263.954C497.442 264.006 497.707 264.354 497.657 264.716L496.85 270.57L514.244 272.963C514.605 273.011 514.868 273.359 514.819 273.721C514.771 274.081 514.422 274.344 514.061 274.296L496.669 271.903Z" fill="#FFC5AC"/>
<path d="M517.018 252.188C515.719 251.599 514.601 251.892 513.656 252.416C512.738 252.952 512.028 253.768 511.829 254.076C511.769 254.141 511.73 254.154 511.718 254.18L509.751 258.513L516.813 261.716C517.145 261.867 517.298 262.274 517.136 262.631C516.986 262.961 516.578 263.114 516.245 262.965L499.624 255.425C499.32 255.287 499.154 254.905 499.267 254.587L499.292 254.537L499.327 254.46L501.582 249.489C502.855 246.685 506.152 245.446 508.982 246.728C511.022 247.654 512.237 249.65 512.267 251.753C512.353 251.701 512.413 251.636 512.51 251.557C513.707 250.686 515.562 250.051 517.574 250.966C518.622 251.44 519.305 251.628 519.743 251.673C520.096 251.711 520.255 251.628 520.292 251.615C520.395 251.324 520.686 251.087 521.013 251.111C521.379 251.186 521.668 251.5 521.644 251.89C521.633 251.916 521.601 252.054 521.53 252.207L521.508 252.257C521.356 252.588 520.858 253.008 520.171 253.034C519.443 253.075 518.521 252.872 517.018 252.188ZM502.829 250.057L500.83 254.468L508.528 257.96L510.472 253.678L510.576 253.448C511.463 251.36 510.518 248.903 508.427 247.955C506.284 246.982 503.791 247.942 502.829 250.057Z" fill="#FFC5AC"/>
<path d="M527.365 237.008L521.541 243.786L523.914 248.115C524.054 248.384 524.017 248.685 523.834 248.897C523.796 248.94 523.705 249.008 523.647 249.071C523.322 249.233 522.876 249.11 522.712 248.784L513.358 231.77C513.24 231.52 513.296 231.199 513.479 230.986C513.679 230.753 513.989 230.65 514.235 230.751L532.463 237.436C532.811 237.55 533.018 237.951 532.904 238.296C532.831 238.382 532.816 238.442 532.762 238.505C532.598 238.698 532.288 238.8 532.002 238.701L527.365 237.008ZM520.828 242.509L525.995 236.495L515.432 232.627L520.828 242.509Z" fill="#FFC5AC"/>
<path d="M527.21 220.049L522.391 223.469C522.094 223.68 521.663 223.607 521.435 223.286C521.226 222.989 521.299 222.56 521.595 222.347L532.333 214.729C532.628 214.518 533.059 214.591 533.27 214.89C533.496 215.209 533.423 215.638 533.126 215.849L528.306 219.269L538.469 233.592C538.678 233.889 538.605 234.318 538.308 234.531C538.011 234.742 537.582 234.669 537.371 234.371L527.21 220.049Z" fill="#FFC5AC"/>
<path d="M541.471 210.882C541.351 210.538 541.538 210.144 541.881 210.025L541.934 210.006L551.387 206.682C551.756 206.553 552.122 206.751 552.244 207.092C552.372 207.462 552.21 207.845 551.84 207.975L542.996 211.085L545.568 218.399L553.306 215.677C553.649 215.558 554.043 215.745 554.172 216.114C554.291 216.458 554.105 216.85 553.761 216.971L546.024 219.691L548.587 226.979L557.431 223.867C557.801 223.736 558.165 223.934 558.297 224.304C558.417 224.647 558.256 225.03 557.885 225.16L548.458 228.474L548.379 228.502L548.327 228.52C548.001 228.606 547.644 228.435 547.523 228.091L541.471 210.882Z" fill="#FFC5AC"/>
<path d="M571.017 214.895C570.625 214.905 570.309 214.63 570.3 214.238C570.292 213.846 570.593 213.533 570.985 213.523L577.031 213.389L577.115 213.385C577.453 213.406 577.741 213.708 577.748 214.072L577.897 220.792L577.901 220.904C577.877 221.1 577.797 221.298 577.66 221.414C575.954 222.825 573.789 223.658 571.381 223.712C565.751 223.809 561.089 219.515 560.966 213.971C560.845 208.511 565.308 203.956 570.936 203.831C573.372 203.777 575.547 204.569 577.343 205.901C577.599 206.092 577.692 206.566 577.448 206.852C577.231 207.137 576.811 207.203 576.471 206.986C575.019 205.842 573.07 205.158 570.97 205.203C566.07 205.313 562.236 209.237 562.34 213.941C562.448 218.701 566.453 222.45 571.353 222.34C573.259 222.299 575.062 221.642 576.495 220.544L576.367 214.776L571.017 214.895Z" fill="#FFC5AC"/>
<path d="M590.412 216.932L586.617 206.454C586.514 206.103 586.695 205.689 587.018 205.578C587.386 205.422 587.8 205.603 587.903 205.954L591.425 215.769L599.706 209.405C599.98 209.164 600.427 209.237 600.653 209.566C600.893 209.84 600.82 210.286 600.52 210.52L591.72 217.257L589.251 225.7C589.148 226.051 588.795 226.267 588.418 226.157C588.067 226.054 587.858 225.674 587.961 225.323L590.412 216.932Z" fill="#FFC5AC"/>
<path d="M580.72 279.725C583.765 282.708 585.256 286.686 585.256 290.602C585.256 294.519 583.765 298.497 580.72 301.541C577.735 304.524 573.757 306.079 569.781 306.079C565.865 306.079 561.887 304.524 558.906 301.541C557.539 300.175 557.539 297.937 558.906 296.569C560.272 295.202 562.51 295.202 563.877 296.569C565.493 298.185 567.606 298.992 569.781 298.992C571.956 298.992 574.071 298.183 575.747 296.569C577.427 294.89 578.234 292.777 578.234 290.602C578.234 288.428 577.425 286.315 575.747 284.698C574.132 283.02 572.019 282.275 569.843 282.213C568.85 282.275 567.916 281.84 567.295 281.093C567.233 281.093 567.233 281.093 567.233 281.032C565.803 279.665 565.803 277.489 567.11 276.059L573.451 269.596H563.38C561.456 269.596 559.901 268.041 559.901 266.053C559.901 264.127 561.456 262.574 563.38 262.574H581.715C583.703 262.574 585.256 264.127 585.256 266.053C585.256 266.675 585.07 267.235 584.823 267.731C584.637 268.043 584.45 268.353 584.202 268.601L576.371 276.68C577.984 277.425 579.477 278.418 580.72 279.725Z" fill="white"/>
<path d="M645.407 166.136C651.852 166.136 657.076 160.912 657.076 154.467C657.076 148.023 651.852 142.798 645.407 142.798C638.963 142.798 633.738 148.023 633.738 154.467C633.738 160.912 638.963 166.136 645.407 166.136Z" fill="#FF4F00"/>
<path d="M657.773 164.352H633.043V167.917H657.773V164.352Z" fill="#FF4F00"/>
<path opacity="0.1" d="M657.773 164.352H633.043V167.917H657.773V164.352Z" fill="black"/>
<path d="M670.456 213.443H620.359V217.008H670.456V213.443Z" fill="#FF4F00"/>
<path opacity="0.1" d="M670.456 213.443H620.359V217.008H670.456V213.443Z" fill="black"/>
<path d="M670.455 223.441H620.358V227.006H670.455V223.441Z" fill="#FF4F00"/>
<path opacity="0.1" d="M670.455 223.441H620.358V227.006H670.455V223.441Z" fill="black"/>
<path d="M668.591 217.007H622.224V223.44H668.591V217.007Z" fill="#FF4F00"/>
<path d="M655.496 167.917H635.318V171.482H655.496V167.917Z" fill="#FF4F00"/>
<path d="M665.899 213.445H624.911C624.911 213.445 634.258 204.098 636.214 192.903C637.842 183.463 638.641 171.486 638.641 171.486H652.167C652.167 171.486 652.966 183.463 654.609 192.903C656.552 204.098 665.899 213.445 665.899 213.445Z" fill="#FF4F00"/>
<path d="M81.8049 83.7002L80.7129 82.1845C82.6636 80.7788 83.8303 80.0919 83.8807 80.062L84.8253 81.6711C84.8141 81.6805 83.6754 82.3525 81.8049 83.7002Z" fill="#263238"/>
<path d="M570.961 406.25C568.433 406.225 565.908 406.141 563.455 406L563.565 404.137C565.984 404.277 568.48 404.361 570.98 404.383L570.961 406.25ZM578.465 406.112L578.374 404.247C580.866 404.125 583.336 403.918 585.717 403.634L585.939 405.488C583.515 405.776 581 405.986 578.465 406.112ZM555.981 405.365C553.479 405.085 550.982 404.73 548.551 404.314L548.868 402.475C551.26 402.886 553.724 403.233 556.188 403.509L555.981 405.365ZM593.345 404.314L592.981 402.484C595.419 401.997 597.818 401.409 600.112 400.734L600.636 402.526C598.292 403.213 595.837 403.815 593.345 404.314ZM541.2 402.813C538.751 402.229 536.315 401.564 533.959 400.832L534.513 399.05C536.828 399.768 539.223 400.422 541.633 400.997L541.2 402.813ZM526.871 398.355C524.547 397.45 522.227 396.448 519.975 395.374L520.778 393.69C522.988 394.743 525.267 395.729 527.55 396.617L526.871 398.355ZM513.313 391.898C511.153 390.668 509.003 389.339 506.921 387.95L507.957 386.397C510.003 387.762 512.117 389.068 514.235 390.276L513.313 391.898ZM500.821 383.567C498.868 382.065 496.916 380.459 495.019 378.796L496.248 377.392C498.118 379.029 500.039 380.608 501.96 382.089L500.821 383.567ZM489.518 373.696C487.778 371.99 486.02 370.174 484.291 368.301L485.661 367.034C487.369 368.885 489.107 370.678 490.827 372.363L489.518 373.696ZM479.313 362.662C477.765 360.834 476.171 358.878 474.577 356.849L476.042 355.695C477.625 357.706 479.204 359.643 480.739 361.454L479.313 362.662ZM470.033 350.89C468.551 348.891 467.091 346.866 465.645 344.82L467.168 343.743C468.607 345.777 470.059 347.792 471.53 349.78L470.033 350.89ZM461.377 338.671C459.975 336.617 458.583 334.549 457.194 332.471L458.747 331.434C460.132 333.507 461.521 335.57 462.919 337.62L461.377 338.671ZM453.057 326.246L448.921 320L450.478 318.968L454.614 325.216L453.057 326.246ZM444.763 313.782C443.373 311.719 441.971 309.66 440.552 307.611L442.087 306.548C443.509 308.605 444.917 310.67 446.311 312.738L444.763 313.782ZM436.255 301.512C434.805 299.494 433.335 297.491 431.838 295.509L433.328 294.383C434.834 296.379 436.313 298.393 437.771 300.422L436.255 301.512ZM427.271 289.627C425.691 287.652 424.093 285.723 422.525 283.894L423.942 282.679C425.525 284.523 427.134 286.468 428.728 288.46L427.271 289.627ZM417.577 278.339C415.869 276.498 414.129 274.7 412.404 272.998L413.714 271.669C415.46 273.392 417.22 275.208 418.947 277.071L417.577 278.339ZM137.483 268.941C134.988 268.897 132.456 268.76 129.962 268.535L130.13 266.675C132.581 266.897 135.066 267.03 137.517 267.075L137.483 268.941ZM145.017 268.801L144.915 266.938C147.373 266.802 149.85 266.574 152.281 266.259L152.522 268.111C150.046 268.432 147.523 268.665 145.017 268.801ZM407.002 267.917C405.148 266.257 403.25 264.642 401.357 263.119L402.527 261.665C404.446 263.209 406.371 264.846 408.247 266.526L407.002 267.917ZM122.488 267.59C120.016 267.187 117.532 266.69 115.101 266.115L115.531 264.299C117.916 264.865 120.358 265.352 122.787 265.748L122.488 267.59ZM159.953 266.862L159.574 265.033C161.984 264.532 164.399 263.937 166.753 263.257L167.271 265.051C164.872 265.744 162.41 266.352 159.953 266.862ZM107.838 264.118C105.439 263.364 103.052 262.52 100.735 261.607L101.42 259.869C103.694 260.765 106.04 261.596 108.396 262.335L107.838 264.118ZM174.435 262.877L173.884 261.094C176.274 260.355 178.646 259.61 181.004 258.863L181.57 260.642C179.206 261.393 176.828 262.137 174.435 262.877ZM395.462 258.637C393.459 257.2 391.394 255.807 389.326 254.499L390.324 252.921C392.425 254.25 394.519 255.662 396.55 257.121L395.462 258.637ZM93.832 258.592C91.5677 257.504 89.3239 256.324 87.1641 255.085L88.0937 253.466C90.2162 254.684 92.417 255.843 94.6403 256.91L93.832 258.592ZM188.684 258.367L188.111 256.589C190.492 255.822 192.858 255.053 195.212 254.286L195.788 256.061C193.436 256.826 191.067 257.597 188.684 258.367ZM202.891 253.745L202.313 251.969L209.415 249.66L209.992 251.435L202.891 253.745ZM80.7725 251.094C78.6929 249.684 76.6508 248.182 74.7 246.629L75.863 245.169C77.7764 246.692 79.7812 248.165 81.8197 249.55L80.7725 251.094ZM382.964 250.726C380.815 249.539 378.603 248.398 376.388 247.34L377.194 245.656C379.441 246.731 381.687 247.887 383.867 249.093L382.964 250.726ZM217.097 249.151L216.529 247.372C218.915 246.612 221.291 245.863 223.66 245.128L224.213 246.911C221.85 247.644 219.477 248.393 217.097 249.151ZM231.349 244.738L230.815 242.949C233.216 242.232 235.609 241.534 237.999 240.859L238.506 242.654C236.126 243.328 233.741 244.025 231.349 244.738ZM369.623 244.344C367.573 243.506 365.462 242.707 363.347 241.967L362.691 241.74L363.302 239.976L363.791 240.146C366.106 240.956 368.249 241.766 370.326 242.615L369.623 244.344ZM68.9879 241.708C67.151 239.996 65.3664 238.195 63.6789 236.352L65.0566 235.092C66.7086 236.897 68.4596 238.665 70.2591 240.343L68.9879 241.708ZM245.695 240.681L245.217 238.876C247.64 238.234 250.058 237.618 252.477 237.03L252.917 238.844C250.513 239.429 248.105 240.043 245.695 240.681ZM355.624 239.447C353.244 238.725 350.838 238.047 348.473 237.435L348.941 235.628C351.331 236.248 353.761 236.931 356.165 237.661L355.624 239.447ZM260.177 237.17L259.779 235.344C262.227 234.81 264.674 234.312 267.123 233.849L267.47 235.684C265.036 236.141 262.607 236.64 260.177 237.17ZM341.243 235.72C338.833 235.201 336.38 234.726 333.951 234.312L334.265 232.473C336.72 232.891 339.201 233.369 341.637 233.896L341.243 235.72ZM274.799 234.407L274.508 232.565C277.011 232.169 279.511 231.818 281.932 231.519L282.159 233.371C279.759 233.668 277.282 234.015 274.799 234.407ZM326.606 233.224C324.151 232.916 321.667 232.658 319.219 232.46L319.371 230.599C321.844 230.801 324.357 231.06 326.837 231.372L326.606 233.224ZM289.552 232.597L289.391 230.737C291.896 230.521 294.413 230.353 296.873 230.239L296.961 232.104C294.525 232.216 292.033 232.382 289.552 232.597ZM311.807 232.023C309.647 231.943 307.498 231.904 305.359 231.904L304.381 231.908L304.37 230.041L305.359 230.037C307.523 230.037 309.693 230.076 311.876 230.159L311.807 232.023ZM58.818 230.584C57.278 228.6 55.807 226.532 54.4424 224.437L56.0067 223.418C57.3414 225.469 58.7844 227.495 60.2927 229.44L58.818 230.584ZM50.5951 217.95C49.4098 215.746 48.3009 213.463 47.3022 211.167L49.014 210.424C49.9922 212.671 51.0767 214.908 52.2397 217.067L50.5951 217.95ZM44.5862 204.133C43.7853 201.775 43.0685 199.343 42.4581 196.901L44.2688 196.448C44.868 198.839 45.5699 201.223 46.3558 203.532L44.5862 204.133ZM40.9199 189.526C40.6959 188.191 40.4999 186.843 40.33 185.484C40.1863 184.334 40.0575 183.194 39.9436 182.063L41.801 181.876C41.9149 182.992 42.04 184.118 42.1818 185.253C42.348 186.588 42.5421 187.909 42.7624 189.218L40.9199 189.526ZM39.3836 174.568C39.2847 172.477 39.2324 170.366 39.2324 168.29L39.238 167.047L41.1047 167.064L41.0991 168.29C41.0991 170.336 41.1495 172.417 41.2485 174.478L39.3836 174.568ZM41.3978 159.664L39.5367 159.533C39.7122 157.026 39.9698 154.508 40.3002 152.048L42.1501 152.296C41.8253 154.717 41.5733 157.196 41.3978 159.664ZM43.3803 144.995L41.5509 144.624C42.0512 142.162 42.6392 139.698 43.3019 137.301L45.1014 137.797C44.448 140.153 43.8693 142.576 43.3803 144.995ZM47.3172 130.737L45.5587 130.116C46.3913 127.758 47.3228 125.4 48.3252 123.108L50.0351 123.855C49.0495 126.108 48.1367 128.424 47.3172 130.737ZM53.2421 117.189L51.5901 116.319C52.7568 114.103 54.0206 111.906 55.3441 109.785L56.9289 110.773C55.6278 112.856 54.3864 115.016 53.2421 117.189ZM61.0711 104.642L59.5628 103.541C61.0394 101.519 62.6074 99.5276 64.2278 97.6199L65.6521 98.8276C64.0616 100.702 62.5197 102.658 61.0711 104.642ZM70.6437 93.3637L69.3127 92.0552C71.0954 90.2445 72.9435 88.5065 74.8064 86.8862L76.031 88.2956C74.2054 89.8842 72.3928 91.5904 70.6437 93.3637Z" fill="white"/>
<path d="M90.1522 94.9409C97.9228 91.7409 101.628 82.8475 98.428 75.0769C95.228 67.3063 86.3346 63.6011 78.564 66.8011C70.7934 70.0011 67.0882 78.8945 70.2882 86.6651C73.4882 94.4357 82.3816 98.1409 90.1522 94.9409Z" fill="white"/>
<path d="M350.874 251.338C359.277 251.338 366.089 244.526 366.089 236.123C366.089 227.719 359.277 220.907 350.874 220.907C342.47 220.907 335.658 227.719 335.658 236.123C335.658 244.526 342.47 251.338 350.874 251.338Z" fill="white"/>
<path d="M572.488 423.556C580.891 423.556 587.704 416.743 587.704 408.34C587.704 399.937 580.891 393.125 572.488 393.125C564.085 393.125 557.272 399.937 557.272 408.34C557.272 416.743 564.085 423.556 572.488 423.556Z" fill="white"/>
</svg>
