<svg width="10" height="11" viewBox="0 0 10 11" fill="none" xmlns="http://www.w3.org/2000/svg">
<path d="M8.67617 9.21386C8.62017 9.26901 8.54477 9.29998 8.46617 9.30011C8.38651 9.29977 8.31001 9.2689 8.25242 9.21386L6.63242 7.59011C5.95014 8.16318 5.07296 8.45074 4.18382 8.39279C3.29468 8.33484 2.46224 7.93588 1.86011 7.27909C1.25799 6.62231 0.932659 5.75843 0.951986 4.86761C0.971314 3.9768 1.3338 3.12784 1.96385 2.49779C2.5939 1.86774 3.44286 1.50525 4.33368 1.48592C5.22449 1.46659 6.08837 1.79192 6.74516 2.39405C7.40194 2.99618 7.80091 3.82862 7.85885 4.71776C7.9168 5.6069 7.62925 6.48408 7.05617 7.16636L8.67617 8.78636C8.70452 8.81427 8.72703 8.84755 8.74239 8.88424C8.75776 8.92094 8.76567 8.96032 8.76567 9.00011C8.76567 9.03989 8.75776 9.07928 8.74239 9.11597C8.72703 9.15267 8.70452 9.18594 8.67617 9.21386ZM4.41617 7.80011C4.97985 7.80011 5.53087 7.63296 5.99955 7.3198C6.46823 7.00663 6.83352 6.56152 7.04923 6.04076C7.26494 5.51999 7.32138 4.94695 7.21141 4.3941C7.10144 3.84125 6.83 3.33343 6.43143 2.93485C6.03285 2.53627 5.52502 2.26484 4.97218 2.15487C4.41933 2.0449 3.84629 2.10134 3.32552 2.31705C2.80475 2.53276 2.35964 2.89805 2.04648 3.36673C1.73332 3.83541 1.56617 4.38643 1.56617 4.95011C1.56716 5.70567 1.86775 6.43 2.40201 6.96427C2.93628 7.49853 3.66061 7.79912 4.41617 7.80011Z" fill="#1C1C1C" fill-opacity="0.2"/>
</svg>
