<svg width="13" height="13" viewBox="0 0 13 13" fill="none" xmlns="http://www.w3.org/2000/svg">
<path d="M10.8994 3.42505V4.55005H1.89941V3.42505C1.89941 3.32559 1.93892 3.23021 2.00925 3.15988C2.07958 3.08956 2.17496 3.05005 2.27441 3.05005H10.5244C10.6239 3.05005 10.7193 3.08956 10.7896 3.15988C10.8599 3.23021 10.8994 3.32559 10.8994 3.42505Z" fill="#1C1C1C" fill-opacity="0.1"/>
<path d="M10.5244 2.67505H2.27441C2.0755 2.67505 1.88474 2.75407 1.74408 2.89472C1.60343 3.03537 1.52441 3.22614 1.52441 3.42505V10.175C1.52441 10.374 1.60343 10.5647 1.74408 10.7054C1.88474 10.846 2.0755 10.925 2.27441 10.925H10.5244C10.7233 10.925 10.9141 10.846 11.0547 10.7054C11.1954 10.5647 11.2744 10.374 11.2744 10.175V3.42505C11.2744 3.22614 11.1954 3.03537 11.0547 2.89472C10.9141 2.75407 10.7233 2.67505 10.5244 2.67505ZM10.5244 3.42505V4.17505H2.27441V3.42505H10.5244ZM10.5244 10.175H2.27441V4.92505H10.5244V10.175ZM8.64941 6.05005C8.64941 6.64679 8.41236 7.21908 7.9904 7.64104C7.56845 8.063 6.99615 8.30005 6.39941 8.30005C5.80268 8.30005 5.23038 8.063 4.80842 7.64104C4.38647 7.21908 4.14941 6.64679 4.14941 6.05005C4.14941 5.95059 4.18892 5.85521 4.25925 5.78488C4.32958 5.71456 4.42496 5.67505 4.52441 5.67505C4.62387 5.67505 4.71925 5.71456 4.78958 5.78488C4.85991 5.85521 4.89941 5.95059 4.89941 6.05005C4.89941 6.44787 5.05745 6.8294 5.33875 7.11071C5.62006 7.39201 6.00159 7.55005 6.39941 7.55005C6.79724 7.55005 7.17877 7.39201 7.46007 7.11071C7.74138 6.8294 7.89941 6.44787 7.89941 6.05005C7.89941 5.95059 7.93892 5.85521 8.00925 5.78488C8.07957 5.71456 8.17496 5.67505 8.27441 5.67505C8.37387 5.67505 8.46925 5.71456 8.53958 5.78488C8.60991 5.85521 8.64941 5.95059 8.64941 6.05005Z" fill="#1C1C1C"/>
</svg>
