<svg width="13" height="13" viewBox="0 0 13 13" fill="none" xmlns="http://www.w3.org/2000/svg">
<path d="M4.99219 2.6499V10.1499H2.74219C2.64273 10.1499 2.54735 10.1104 2.47702 10.0401C2.4067 9.96974 2.36719 9.87436 2.36719 9.7749V3.0249C2.36719 2.92545 2.4067 2.83006 2.47702 2.75974C2.54735 2.68941 2.64273 2.6499 2.74219 2.6499H4.99219Z" fill="#1C1C1C" fill-opacity="0.1"/>
<path d="M10.9922 2.2749H2.74219C2.54328 2.2749 2.35251 2.35392 2.21186 2.49457C2.07121 2.63522 1.99219 2.82599 1.99219 3.0249V9.7749C1.99219 9.97381 2.07121 10.1646 2.21186 10.3052C2.35251 10.4459 2.54328 10.5249 2.74219 10.5249H10.9922C11.1911 10.5249 11.3819 10.4459 11.5225 10.3052C11.6632 10.1646 11.7422 9.97381 11.7422 9.7749V3.0249C11.7422 2.82599 11.6632 2.63522 11.5225 2.49457C11.3819 2.35392 11.1911 2.2749 10.9922 2.2749ZM2.74219 7.5249H3.49219C3.59164 7.5249 3.68703 7.48539 3.75735 7.41507C3.82768 7.34474 3.86719 7.24936 3.86719 7.1499C3.86719 7.05045 3.82768 6.95506 3.75735 6.88474C3.68703 6.81441 3.59164 6.7749 3.49219 6.7749H2.74219V6.0249H3.49219C3.59164 6.0249 3.68703 5.98539 3.75735 5.91507C3.82768 5.84474 3.86719 5.74936 3.86719 5.6499C3.86719 5.55045 3.82768 5.45506 3.75735 5.38474C3.68703 5.31441 3.59164 5.2749 3.49219 5.2749H2.74219V4.5249H3.49219C3.59164 4.5249 3.68703 4.48539 3.75735 4.41507C3.82768 4.34474 3.86719 4.24936 3.86719 4.1499C3.86719 4.05045 3.82768 3.95506 3.75735 3.88474C3.68703 3.81441 3.59164 3.7749 3.49219 3.7749H2.74219V3.0249H4.61719V9.7749H2.74219V7.5249ZM10.9922 9.7749H5.36719V3.0249H10.9922V9.7749Z" fill="#1C1C1C"/>
</svg>
