<svg width="45" height="13" viewBox="0 0 45 13" fill="none" xmlns="http://www.w3.org/2000/svg">
<path d="M39.3027 7.02832L39.3027 4.02832H38.457V7.02832C38.457 8.21179 39.4036 9.17118 40.5713 9.17118C41.739 9.17118 42.6856 8.21179 42.6856 7.02832L42.6856 4.02832H41.8399L41.8399 7.02832C41.8399 7.7384 41.2719 8.31403 40.5713 8.31403C39.8707 8.31403 39.3027 7.7384 39.3027 7.02832Z" fill="#4F507F"/>
<path d="M39.3027 7.02832L39.3027 4.02832H38.457V7.02832C38.457 8.21179 39.4036 9.17118 40.5713 9.17118C41.739 9.17118 42.6856 8.21179 42.6856 7.02832L42.6856 4.02832H41.8399L41.8399 7.02832C41.8399 7.7384 41.2719 8.31403 40.5713 8.31403C39.8707 8.31403 39.3027 7.7384 39.3027 7.02832Z" fill="white" fill-opacity="0.4" style="mix-blend-mode:hard-light"/>
<path d="M43.9542 4.02832V9.17118H44.7999V4.02832H43.9542Z" fill="#4F507F"/>
<path d="M43.9542 4.02832V9.17118H44.7999V4.02832H43.9542Z" fill="white" fill-opacity="0.4" style="mix-blend-mode:hard-light"/>
<path d="M18.0541 8.78442C17.7021 9.04574 17.2292 9.17118 16.6352 9.17118C16.2723 9.17118 15.9423 9.11891 15.6453 9.02484C15.3483 8.93076 15.0513 8.80532 14.7764 8.63808L15.1173 7.89592C15.3923 8.07362 15.6453 8.1886 15.8873 8.26177C16.1293 8.33494 16.3712 8.37675 16.6022 8.37675C16.9432 8.37675 17.1962 8.32449 17.3832 8.20951C17.5592 8.09452 17.6472 7.93773 17.6472 7.72867C17.6472 7.4987 17.5482 7.321 17.3392 7.20602C17.1302 7.09104 16.8662 6.97606 16.5472 6.86107C16.0743 6.69383 15.7003 6.50567 15.4253 6.29661C15.1393 6.08755 14.9964 5.78442 14.9854 5.38721C14.9744 4.95863 15.1393 4.62414 15.4803 4.38372C15.8213 4.1433 16.2613 4.02832 16.8112 4.02832C17.0862 4.02832 17.3502 4.05968 17.6142 4.13285C17.8781 4.20602 18.1311 4.31055 18.3621 4.45689L18.0211 5.16769C17.8121 5.05271 17.6142 4.96909 17.4272 4.90637C17.2292 4.84365 17.0202 4.81229 16.8112 4.81229C16.5362 4.81229 16.3163 4.8541 16.1513 4.94818C15.9863 5.04226 15.9093 5.1886 15.9093 5.37675C15.9093 5.58581 16.0193 5.74261 16.2283 5.84714C16.4372 5.95167 16.7122 6.06665 17.0312 6.19208C17.5042 6.35933 17.8781 6.54748 18.1641 6.767C18.4391 6.98651 18.5821 7.28964 18.5821 7.69731C18.5821 8.16769 18.4061 8.52309 18.0541 8.78442Z" fill="#4F507F"/>
<path d="M23.2335 6.17118V9.17118H24.0792V6.17118C24.0792 4.98771 23.1326 4.02832 21.9649 4.02832C20.7973 4.02832 19.8507 4.98771 19.8507 6.17118V9.17118H20.6964V6.17118C20.6964 5.4611 21.2643 4.88546 21.9649 4.88546C22.6656 4.88546 23.2335 5.4611 23.2335 6.17118Z" fill="#4F507F"/>
<path fill-rule="evenodd" clip-rule="evenodd" d="M30.4221 6.59975C30.4221 8.01991 29.2862 9.17118 27.8849 9.17118C26.4837 9.17118 25.3478 8.01991 25.3478 6.59975C25.3478 5.17959 26.4837 4.02832 27.8849 4.02832C29.2862 4.02832 30.4221 5.17959 30.4221 6.59975ZM29.5764 6.59975C29.5764 7.54652 28.8191 8.31403 27.8849 8.31403C26.9508 8.31403 26.1935 7.54652 26.1935 6.59975C26.1935 5.65297 26.9508 4.88546 27.8849 4.88546C28.8191 4.88546 29.5764 5.65297 29.5764 6.59975Z" fill="#4F507F"/>
<path d="M31.2678 4.02832L32.0648 8.4647C32.2302 9.38495 33.4425 9.41477 33.6467 8.50362L34.1192 5.97481C34.1365 5.88192 34.2594 5.88381 34.2743 5.97721L34.6719 8.46605C34.8483 9.38485 36.0626 9.39666 36.2544 8.48145L37.1878 4.02832H36.367L35.5457 8.29706C35.528 8.38883 35.4069 8.38763 35.3908 8.29552L34.6448 4.02832H33.8186L32.945 8.30962C32.9263 8.40107 32.8054 8.39839 32.7902 8.30618L32.0848 4.02832H31.2678Z" fill="#4F507F"/>
<path d="M10.4634 4.79981C11.4443 4.79981 12.2394 5.60569 12.2394 6.59981C12.2394 7.59392 11.4443 8.39981 10.4634 8.39981L2.17541 8.39981C1.19456 8.39981 0.399414 7.59392 0.399414 6.5998C0.399414 5.60569 1.19456 4.7998 2.17541 4.7998L10.4634 4.79981Z" fill="#7094F4"/>
<path d="M4.54297 2.39961C4.54297 1.4055 5.33811 0.599609 6.31897 0.599609C7.29983 0.599609 8.09497 1.4055 8.09497 2.39961V10.7996C8.09497 11.7937 7.29983 12.5996 6.31897 12.5996C5.33811 12.5996 4.54297 11.7937 4.54297 10.7996V2.39961Z" fill="#7094F4"/>
<path d="M4.54297 2.39961C4.54297 1.4055 5.33811 0.599609 6.31897 0.599609C7.29983 0.599609 8.09497 1.4055 8.09497 2.39961V10.7996C8.09497 11.7937 7.29983 12.5996 6.31897 12.5996C5.33811 12.5996 4.54297 11.7937 4.54297 10.7996V2.39961Z" fill="white" fill-opacity="0.4" style="mix-blend-mode:screen"/>
<path d="M10.5059 8.2967C11.1995 8.99967 11.1995 10.1394 10.5059 10.8424C9.81229 11.5453 8.68776 11.5453 7.99416 10.8424L2.13348 4.90248C1.43988 4.19951 1.43988 3.05978 2.13348 2.35681C2.82707 1.65385 3.95161 1.65385 4.6452 2.35681L10.5059 8.2967Z" fill="#7094F4"/>
<path d="M10.5059 8.2967C11.1995 8.99967 11.1995 10.1394 10.5059 10.8424C9.81229 11.5453 8.68776 11.5453 7.99416 10.8424L2.13348 4.90248C1.43988 4.19951 1.43988 3.05978 2.13348 2.35681C2.82707 1.65385 3.95161 1.65385 4.6452 2.35681L10.5059 8.2967Z" fill="white" fill-opacity="0.2" style="mix-blend-mode:soft-light"/>
<path d="M7.99416 2.35681C8.68776 1.65385 9.81229 1.65385 10.5059 2.35681C11.1995 3.05978 11.1995 4.19951 10.5059 4.90248L4.6452 10.8424C3.95161 11.5453 2.82707 11.5453 2.13348 10.8424C1.43988 10.1394 1.43988 8.99967 2.13348 8.2967L7.99416 2.35681Z" fill="#7094F4"/>
<path d="M7.99416 2.35681C8.68776 1.65385 9.81229 1.65385 10.5059 2.35681C11.1995 3.05978 11.1995 4.19951 10.5059 4.90248L4.6452 10.8424C3.95161 11.5453 2.82707 11.5453 2.13348 10.8424C1.43988 10.1394 1.43988 8.99967 2.13348 8.2967L7.99416 2.35681Z" fill="white" fill-opacity="0.3" style="mix-blend-mode:overlay"/>
<path fill-rule="evenodd" clip-rule="evenodd" d="M6.31978 2.39941C6.189 2.39941 6.08298 2.50687 6.08298 2.63941V5.78824C6.08298 5.86094 6.08298 5.89728 6.0688 5.91412C6.05649 5.92872 6.03803 5.93647 6.01914 5.93496C5.99736 5.93323 5.972 5.90752 5.92128 5.85612L3.72442 3.62957C3.63194 3.53584 3.48201 3.53584 3.38953 3.62957C3.29706 3.72329 3.29706 3.87525 3.38953 3.96898L5.5864 6.19553C5.63712 6.24694 5.66248 6.27264 5.66419 6.29471C5.66568 6.31385 5.65803 6.33256 5.64362 6.34504C5.62701 6.35941 5.59115 6.35941 5.51942 6.35941H2.41258C2.2818 6.35941 2.17578 6.46687 2.17578 6.59941C2.17578 6.73196 2.2818 6.83941 2.41258 6.83941H5.51942C5.59115 6.83941 5.62702 6.83941 5.64362 6.85379C5.65803 6.86626 5.66568 6.88497 5.66419 6.90412C5.66248 6.92619 5.63712 6.95189 5.5864 7.0033L3.38953 9.22985C3.29706 9.32358 3.29706 9.47554 3.38953 9.56926C3.48201 9.66299 3.63194 9.66299 3.72442 9.56926L5.92128 7.34271C5.972 7.2913 5.99736 7.2656 6.01914 7.26386C6.03803 7.26236 6.05649 7.27011 6.0688 7.28471C6.08298 7.30154 6.08298 7.33789 6.08298 7.41059V10.5594C6.08298 10.692 6.189 10.7994 6.31978 10.7994C6.45056 10.7994 6.55658 10.692 6.55658 10.5594V7.41059C6.55658 7.33789 6.55658 7.30154 6.57077 7.28471C6.58307 7.27011 6.60153 7.26236 6.62043 7.26386C6.6422 7.2656 6.66756 7.2913 6.71828 7.34271L8.91515 9.56926C9.00762 9.66299 9.15756 9.66299 9.25003 9.56926C9.34251 9.47554 9.34251 9.32358 9.25003 9.22985L7.05317 7.0033C7.00245 6.95189 6.97709 6.92619 6.97537 6.90412C6.97389 6.88497 6.98153 6.86626 6.99594 6.85379C7.01255 6.83941 7.04841 6.83941 7.12014 6.83941H10.227C10.3578 6.83941 10.4638 6.73196 10.4638 6.59941C10.4638 6.46687 10.3578 6.35941 10.227 6.35941H7.12014C7.04841 6.35941 7.01255 6.35941 6.99594 6.34504C6.98153 6.33257 6.97389 6.31385 6.97537 6.29471C6.97709 6.27264 7.00245 6.24694 7.05317 6.19553L9.25003 3.96898C9.34251 3.87525 9.34251 3.72329 9.25003 3.62957C9.15756 3.53584 9.00762 3.53584 8.91515 3.62957L6.71828 5.85612C6.66756 5.90753 6.6422 5.93323 6.62043 5.93497C6.60153 5.93647 6.58307 5.92872 6.57077 5.91412C6.55658 5.89729 6.55658 5.86094 6.55658 5.78824V2.63941C6.55658 2.50687 6.45056 2.39941 6.31978 2.39941Z" fill="white"/>
</svg>
