<svg width="13" height="13" viewBox="0 0 13 13" fill="none" xmlns="http://www.w3.org/2000/svg">
<path d="M9.09871 7.32341C9.04731 7.36856 9.0091 7.42678 8.98814 7.4919C8.96717 7.55702 8.96424 7.6266 8.97964 7.69325L9.61339 10.4373C9.63014 10.509 9.62543 10.584 9.59984 10.653C9.57426 10.722 9.52893 10.782 9.46951 10.8254C9.41009 10.8688 9.3392 10.8938 9.26568 10.8972C9.19215 10.9007 9.11925 10.8824 9.05605 10.8447L6.66074 9.39153C6.60254 9.35614 6.53573 9.33743 6.46761 9.33743C6.3995 9.33743 6.33269 9.35614 6.27449 9.39153L3.87917 10.8447C3.81597 10.8824 3.74307 10.9007 3.66955 10.8972C3.59603 10.8938 3.52514 10.8688 3.46572 10.8254C3.4063 10.782 3.36097 10.722 3.33538 10.653C3.3098 10.584 3.30508 10.509 3.32183 10.4373L3.95558 7.69325C3.97099 7.6266 3.96805 7.55702 3.94709 7.4919C3.92612 7.42678 3.88791 7.36856 3.83652 7.32341L1.72199 5.47888C1.66546 5.43083 1.62445 5.36709 1.60415 5.29573C1.58385 5.22437 1.58518 5.14859 1.60796 5.07798C1.63075 5.00738 1.67396 4.94512 1.73214 4.89908C1.79032 4.85304 1.86085 4.82529 1.9348 4.81935L4.72199 4.57841C4.78999 4.57235 4.85504 4.54785 4.91014 4.50753C4.96524 4.46722 5.00829 4.41264 5.03464 4.34966L6.12355 1.75466C6.15263 1.68757 6.2007 1.63044 6.26183 1.59031C6.32296 1.55019 6.39449 1.52881 6.46761 1.52881C6.54074 1.52881 6.61227 1.55019 6.6734 1.59031C6.73453 1.63044 6.78259 1.68757 6.81167 1.75466L7.90058 4.34966C7.92694 4.41264 7.96998 4.46722 8.02508 4.50753C8.08018 4.54785 8.14524 4.57235 8.21324 4.57841L11.0004 4.81935C11.0744 4.82529 11.1449 4.85304 11.2031 4.89908C11.2613 4.94512 11.3045 5.00738 11.3273 5.07798C11.35 5.14859 11.3514 5.22437 11.3311 5.29573C11.3108 5.36709 11.2698 5.43083 11.2132 5.47888L9.09871 7.32341Z" fill="#1C1C1C" fill-opacity="0.1"/>
<path d="M11.6807 4.96052C11.6353 4.82055 11.5497 4.69702 11.4346 4.60534C11.3195 4.51365 11.1799 4.45786 11.0333 4.4449L8.24942 4.2049L7.15817 1.6099C7.10136 1.47373 7.00553 1.35742 6.88274 1.27561C6.75996 1.1938 6.61572 1.15015 6.46817 1.15015C6.32063 1.15015 6.17639 1.1938 6.05361 1.27561C5.93082 1.35742 5.83499 1.47373 5.77817 1.6099L4.69021 4.2049L1.90302 4.4463C1.75585 4.45867 1.6156 4.51421 1.49987 4.60597C1.38414 4.69772 1.29808 4.8216 1.25247 4.96207C1.20687 5.10254 1.20375 5.25335 1.24351 5.39559C1.28328 5.53783 1.36415 5.66516 1.47599 5.76162L3.59052 7.60943L2.95677 10.3535C2.92326 10.4971 2.93282 10.6474 2.98426 10.7856C3.0357 10.9238 3.12674 11.0437 3.24598 11.1305C3.36523 11.2172 3.50741 11.2669 3.65472 11.2732C3.80204 11.2796 3.94797 11.2424 4.07427 11.1663L6.46489 9.71318L8.86067 11.1663C8.98697 11.2424 9.1329 11.2796 9.28022 11.2732C9.42754 11.2669 9.56971 11.2172 9.68896 11.1305C9.80821 11.0437 9.89924 10.9238 9.95068 10.7856C10.0021 10.6474 10.0117 10.4971 9.97817 10.3535L9.34489 7.60662L11.459 5.76162C11.5708 5.66482 11.6515 5.53713 11.6909 5.39459C11.7304 5.25206 11.7268 5.10104 11.6807 4.96052ZM10.9672 5.1949L8.85317 7.0399C8.75028 7.1294 8.67374 7.24526 8.63178 7.37501C8.58983 7.50477 8.58404 7.64351 8.61505 7.7763L9.25021 10.5251L6.8563 9.07193C6.7395 9.0008 6.60539 8.96318 6.46864 8.96318C6.33189 8.96318 6.19778 9.0008 6.08099 9.07193L3.69036 10.5251L4.3213 7.77818C4.35231 7.64538 4.34652 7.50664 4.30456 7.37689C4.26261 7.24713 4.18606 7.13127 4.08317 7.04177L1.96817 5.19771C1.968 5.19631 1.968 5.19489 1.96817 5.19349L4.75442 4.95255C4.89046 4.94056 5.02063 4.89166 5.13091 4.81112C5.24119 4.73058 5.32739 4.62145 5.38021 4.49552L6.46817 1.9038L7.55567 4.49552C7.60849 4.62145 7.69469 4.73058 7.80497 4.81112C7.91525 4.89166 8.04542 4.94056 8.18146 4.95255L10.9682 5.19349C10.9682 5.19349 10.9682 5.1963 10.9682 5.19677L10.9672 5.1949Z" fill="#1C1C1C"/>
</svg>
