<svg width="13" height="13" viewBox="0 0 13 13" fill="none" xmlns="http://www.w3.org/2000/svg">
<path d="M9.29199 6.3999C9.29199 6.91908 9.13804 7.4266 8.8496 7.85827C8.56116 8.28995 8.15119 8.62641 7.67154 8.82509C7.19188 9.02377 6.66408 9.07575 6.15488 8.97446C5.64568 8.87318 5.17795 8.62317 4.81084 8.25606C4.44373 7.88894 4.19372 7.42121 4.09243 6.91201C3.99115 6.40281 4.04313 5.87501 4.24181 5.39536C4.44049 4.9157 4.77694 4.50573 5.20862 4.21729C5.6403 3.92886 6.14782 3.7749 6.66699 3.7749C7.36319 3.7749 8.03087 4.05146 8.52315 4.54375C9.01543 5.03603 9.29199 5.70371 9.29199 6.3999Z" fill="#1C1C1C" fill-opacity="0.1"/>
<path d="M6.29199 2.2749V1.1499C6.29199 1.05045 6.3315 0.955063 6.40183 0.884737C6.47215 0.814411 6.56754 0.774902 6.66699 0.774902C6.76645 0.774902 6.86183 0.814411 6.93216 0.884737C7.00248 0.955063 7.04199 1.05045 7.04199 1.1499V2.2749C7.04199 2.37436 7.00248 2.46974 6.93216 2.54007C6.86183 2.61039 6.76645 2.6499 6.66699 2.6499C6.56754 2.6499 6.47215 2.61039 6.40183 2.54007C6.3315 2.46974 6.29199 2.37436 6.29199 2.2749ZM9.66699 6.3999C9.66699 6.99325 9.49105 7.57327 9.1614 8.06661C8.83176 8.55996 8.36322 8.94448 7.81504 9.17154C7.26686 9.3986 6.66366 9.45801 6.08172 9.34226C5.49978 9.2265 4.96523 8.94078 4.54567 8.52122C4.12611 8.10167 3.84039 7.56712 3.72464 6.98517C3.60888 6.40323 3.66829 5.80003 3.89535 5.25185C4.12242 4.70367 4.50693 4.23514 5.00028 3.90549C5.49363 3.57585 6.07365 3.3999 6.66699 3.3999C7.46238 3.40077 8.22493 3.71712 8.78735 4.27954C9.34977 4.84196 9.66612 5.60452 9.66699 6.3999ZM8.91699 6.3999C8.91699 5.95489 8.78503 5.51988 8.5378 5.14987C8.29057 4.77986 7.93916 4.49147 7.52803 4.32117C7.1169 4.15088 6.6645 4.10632 6.22804 4.19314C5.79158 4.27995 5.39067 4.49424 5.076 4.80891C4.76133 5.12358 4.54704 5.52449 4.46023 5.96095C4.37341 6.39741 4.41797 6.84981 4.58826 7.26094C4.75856 7.67207 5.04695 8.02348 5.41696 8.27071C5.78697 8.51794 6.22198 8.6499 6.66699 8.6499C7.26354 8.64928 7.83548 8.41203 8.2573 7.99021C8.67912 7.56839 8.91637 6.99645 8.91699 6.3999ZM3.40168 3.66522C3.47204 3.73558 3.56748 3.77511 3.66699 3.77511C3.7665 3.77511 3.86194 3.73558 3.9323 3.66522C4.00267 3.59485 4.0422 3.49941 4.0422 3.3999C4.0422 3.30039 4.00267 3.20496 3.9323 3.13459L3.1823 2.38459C3.11194 2.31422 3.0165 2.27469 2.91699 2.27469C2.81748 2.27469 2.72204 2.31422 2.65168 2.38459C2.58131 2.45496 2.54178 2.55039 2.54178 2.6499C2.54178 2.74941 2.58131 2.84485 2.65168 2.91521L3.40168 3.66522ZM3.40168 9.13459L2.65168 9.88459C2.58131 9.95495 2.54178 10.0504 2.54178 10.1499C2.54178 10.2494 2.58131 10.3448 2.65168 10.4152C2.72204 10.4856 2.81748 10.5251 2.91699 10.5251C3.0165 10.5251 3.11194 10.4856 3.1823 10.4152L3.9323 9.66522C3.96715 9.63037 3.99478 9.58901 4.01364 9.54349C4.0325 9.49797 4.0422 9.44918 4.0422 9.3999C4.0422 9.35063 4.0325 9.30184 4.01364 9.25632C3.99478 9.21079 3.96715 9.16943 3.9323 9.13459C3.89746 9.09975 3.8561 9.07211 3.81058 9.05326C3.76506 9.0344 3.71627 9.02469 3.66699 9.02469C3.61772 9.02469 3.56893 9.0344 3.52341 9.05326C3.47788 9.07211 3.43652 9.09975 3.40168 9.13459ZM9.66699 3.7749C9.71625 3.77494 9.76504 3.76527 9.81056 3.74645C9.85608 3.72763 9.89745 3.70003 9.9323 3.66522L10.6823 2.91521C10.7527 2.84485 10.7922 2.74941 10.7922 2.6499C10.7922 2.55039 10.7527 2.45496 10.6823 2.38459C10.6119 2.31422 10.5165 2.27469 10.417 2.27469C10.3175 2.27469 10.222 2.31422 10.1517 2.38459L9.40168 3.13459C9.34918 3.18704 9.31341 3.25388 9.29892 3.32666C9.28442 3.39944 9.29185 3.47489 9.32026 3.54345C9.34867 3.61201 9.39678 3.6706 9.4585 3.7118C9.52022 3.753 9.59278 3.77496 9.66699 3.7749ZM9.9323 9.13459C9.86194 9.06422 9.7665 9.02469 9.66699 9.02469C9.56748 9.02469 9.47204 9.06422 9.40168 9.13459C9.33131 9.20495 9.29178 9.30039 9.29178 9.3999C9.29178 9.49941 9.33131 9.59485 9.40168 9.66522L10.1517 10.4152C10.1865 10.4501 10.2279 10.4777 10.2734 10.4965C10.3189 10.5154 10.3677 10.5251 10.417 10.5251C10.4663 10.5251 10.5151 10.5154 10.5606 10.4965C10.6061 10.4777 10.6475 10.4501 10.6823 10.4152C10.7171 10.3804 10.7448 10.339 10.7636 10.2935C10.7825 10.248 10.7922 10.1992 10.7922 10.1499C10.7922 10.1006 10.7825 10.0518 10.7636 10.0063C10.7448 9.96079 10.7171 9.91943 10.6823 9.88459L9.9323 9.13459ZM2.91699 6.3999C2.91699 6.30045 2.87748 6.20506 2.80716 6.13474C2.73683 6.06441 2.64145 6.0249 2.54199 6.0249H1.41699C1.31754 6.0249 1.22215 6.06441 1.15183 6.13474C1.0815 6.20506 1.04199 6.30045 1.04199 6.3999C1.04199 6.49936 1.0815 6.59474 1.15183 6.66507C1.22215 6.73539 1.31754 6.7749 1.41699 6.7749H2.54199C2.64145 6.7749 2.73683 6.73539 2.80716 6.66507C2.87748 6.59474 2.91699 6.49936 2.91699 6.3999ZM6.66699 10.1499C6.56754 10.1499 6.47215 10.1894 6.40183 10.2597C6.3315 10.3301 6.29199 10.4254 6.29199 10.5249V11.6499C6.29199 11.7494 6.3315 11.8447 6.40183 11.9151C6.47215 11.9854 6.56754 12.0249 6.66699 12.0249C6.76645 12.0249 6.86183 11.9854 6.93216 11.9151C7.00248 11.8447 7.04199 11.7494 7.04199 11.6499V10.5249C7.04199 10.4254 7.00248 10.3301 6.93216 10.2597C6.86183 10.1894 6.76645 10.1499 6.66699 10.1499ZM11.917 6.0249H10.792C10.6925 6.0249 10.5972 6.06441 10.5268 6.13474C10.4565 6.20506 10.417 6.30045 10.417 6.3999C10.417 6.49936 10.4565 6.59474 10.5268 6.66507C10.5972 6.73539 10.6925 6.7749 10.792 6.7749H11.917C12.0164 6.7749 12.1118 6.73539 12.1822 6.66507C12.2525 6.59474 12.292 6.49936 12.292 6.3999C12.292 6.30045 12.2525 6.20506 12.1822 6.13474C12.1118 6.06441 12.0164 6.0249 11.917 6.0249Z" fill="#1C1C1C"/>
</svg>
