<svg width="201" height="317" viewBox="0 0 201 317" fill="none" xmlns="http://www.w3.org/2000/svg">
<path d="M85.2512 286.045C85.2512 286.045 49.5827 296.275 44.604 298.038C40.073 299.64 27.7949 303.939 18.5817 302.61C17.6728 302.475 16.7909 302.284 15.9497 302.04C6.61589 299.26 2.42312 296.668 1.20183 290.793C-0.0330008 284.905 4.62098 280.604 9.09785 277.836C13.5747 275.069 37.8604 272.178 37.8604 272.178L43.721 273.901H43.7345L85.2512 286.045Z" fill="#FF4F00"/>
<path d="M18.5826 302.611C17.6737 302.476 16.7919 302.285 15.9506 302.042C6.61685 299.261 2.4241 296.669 1.2028 290.794C-0.0320235 284.906 4.62194 280.606 9.0988 277.837C13.5757 275.07 37.8614 272.179 37.8614 272.179L43.7219 273.903C38.4173 276.345 18.6367 277.702 14.3222 280.184C10.0077 282.667 7.91809 287.347 10.4689 293.67C11.8255 297.036 15.4611 300.291 18.5826 302.611Z" fill="white"/>
<path d="M79.8858 287.5C79.8858 287.5 53.0984 294.441 42.4769 298.883C31.8555 303.326 11.589 305.269 4.37071 296.107C-2.84762 286.946 3.53806 279.064 10.7564 277.313C17.9747 275.562 32.5712 272.786 40.5423 273.896" stroke="#263238" stroke-width="1.35671" stroke-miterlimit="10" stroke-linecap="round" stroke-linejoin="round"/>
<path d="M19.1203 302.124C19.1203 302.124 5.49048 294.651 10.0165 284.176C13.357 276.446 31.5387 278.122 40.5416 273.896" stroke="#263238" stroke-width="1.35671" stroke-miterlimit="10" stroke-linecap="round" stroke-linejoin="round"/>
<path d="M193.884 304.267C193.517 307.916 192.228 311.416 188.539 313.587C186.082 315.038 182.582 315.906 177.576 315.852C165.067 315.69 141.556 306.749 141.556 306.749L119.537 294.579L130.988 276.453L134.121 271.487L142.22 273.305C142.22 273.305 148.922 277.104 155.666 280.128C162.408 283.154 178.771 283.791 184.536 288.459C190.302 293.114 194.507 298.188 193.884 304.267Z" fill="#FF4F00"/>
<path d="M193.884 304.267C193.517 307.916 192.228 311.416 188.538 313.587C189.231 310.751 189.8 306.83 187.915 302.598C185.472 297.075 177.454 292.205 166.926 291.392C156.412 290.578 148.339 285.653 144.12 283.455C140.824 281.746 133.878 278.015 130.987 276.455L134.121 271.488L142.22 273.306C142.22 273.306 148.922 277.105 155.665 280.13C162.408 283.155 178.77 283.792 184.536 288.46C190.302 293.114 194.507 298.188 193.884 304.267Z" fill="white"/>
<path d="M124.414 297.992C140.09 306.971 158.018 313.437 175.953 315.598C179.957 316.08 184.618 316.146 187.302 313.137C188.798 311.459 189.344 309.085 189.152 306.846C188.666 301.193 183.914 296.71 178.701 294.47C173.489 292.229 167.733 291.694 162.197 290.453C156.685 289.217 151.335 287.261 146.325 284.647C142.345 282.571 138.493 280.048 134.101 279.119C129.709 278.189 124.478 279.317 122.137 283.147" stroke="#263238" stroke-width="1.35671" stroke-miterlimit="10" stroke-linecap="round" stroke-linejoin="round"/>
<path d="M185.832 314.67C189.885 312.591 193.212 308.77 193.887 304.265C194.685 298.937 191.651 293.581 187.375 290.303C183.098 287.026 177.757 285.487 172.482 284.391C167.207 283.294 161.812 282.557 156.794 280.597C149.079 277.582 141.47 271.628 133.463 273.752" stroke="#263238" stroke-width="1.35671" stroke-miterlimit="10" stroke-linecap="round" stroke-linejoin="round"/>
<path d="M149.262 107.46L112.006 93.2833L111.545 93.1062C111.545 93.1062 111.681 92.1161 111.79 90.6784C112.021 87.7069 112.143 82.8635 110.746 81.2216C108.67 78.7925 102.782 80.828 97.0434 78.196C91.3046 75.564 80.6819 80.2721 80.6819 80.2721C80.6819 80.2721 73.0159 78.8614 69.6386 84.3972C67.9155 88.8605 68.512 95.5082 68.512 95.5082C68.512 95.5082 68.2685 95.6029 67.806 95.7665C63.3697 97.4219 39.2205 106.512 34.1054 110.161C28.4613 114.163 22.2208 155.204 20.2123 167.252C18.2039 179.313 14.6359 190.167 16.4537 194.319C18.258 198.458 44.2127 218.441 59.1364 223.597C74.0601 228.766 127.013 227.246 127.013 227.246C127.013 227.246 127.881 227.015 129.413 226.526C138.368 223.65 170.142 211.806 186.993 183.871C186.993 183.871 170.671 130.335 149.262 107.46ZM48.6059 176.49C45.8657 178.431 47.3305 185.96 47.3305 185.96L42.663 181.85L54.3718 153.06L59.364 175.162C59.364 175.162 51.3474 174.564 48.6059 176.49ZM142.274 194.779C140.985 195.443 145.979 181.605 143.604 178.472C141.23 175.324 134.12 175.637 134.12 175.637L134.73 171.851C134.811 171.43 138.95 150.212 138.95 150.212L140.347 148.543C140.347 148.543 154.837 173.385 157.428 182.135C157.428 182.135 141.636 194.779 142.274 194.779Z" fill="#FF4F00"/>
<path d="M78.9193 17.6663L59.691 38.0815C59.691 38.0815 57.0393 40.4257 58.0933 46.3477C59.1474 52.2697 61.601 57.3578 63.4557 57.7514C65.3092 58.1462 67.908 58.1499 67.908 58.1499C67.908 58.1499 72.0282 67.0802 74.9467 70.5892C74.9467 70.5892 75.9639 84.3727 75.4227 88.199C75.4227 88.199 82.3299 94.2329 88.8373 95.0003C95.3447 95.7678 105.398 85.7982 105.398 85.7982L107.89 73.5938C107.89 73.5938 113.788 64.6401 114.191 62.2565C114.593 59.873 117.29 60.4842 118.615 59.3085C119.939 58.1327 123.007 52.8736 123.513 47.9048C124.02 42.9359 124.056 37.2279 118.283 38.9043C113.282 37.56 116.412 26.9865 116.412 26.9865L107.623 19.2319L78.9193 17.6663Z" fill="white"/>
<path opacity="0.5" d="M112.005 93.2833C111.706 94.0704 111.382 94.8158 111.015 95.5082C107.841 101.492 94.0155 112.888 94.0155 112.888L89.8363 100.04L87.5437 112.888C82.9303 110.88 68.8614 98.6838 68.8614 98.6838C68.8614 98.6838 68.3867 97.5437 67.8037 95.7665C68.2649 95.6041 68.5097 95.5082 68.5097 95.5082C68.5097 95.5082 67.9132 88.8605 69.6363 84.3972C73.0148 78.8614 80.6796 80.2721 80.6796 80.2721C80.6796 80.2721 91.3023 75.564 97.0411 78.196C102.78 80.828 108.669 78.7925 110.743 81.2216C112.82 83.6494 111.544 93.1062 111.544 93.1062L112.005 93.2833Z" fill="white"/>
<path opacity="0.2" d="M149.262 107.461L112.007 93.2834L111.545 93.1063C111.545 93.1063 111.681 92.1162 111.79 90.6785L111.017 95.5083L105.508 102.997C105.508 102.997 114.823 106.359 122.698 110.575C128.174 113.506 131.317 119.467 130.597 125.635L123.729 184.36L120.921 217.708L129.413 226.527C138.368 223.65 170.142 211.806 186.993 183.871C186.993 183.871 170.671 130.336 149.262 107.461ZM142.275 194.779C140.986 195.443 145.979 181.605 143.604 178.472C141.23 175.324 134.12 175.637 134.12 175.637L134.73 171.851C134.812 171.43 138.95 150.212 138.95 150.212L140.347 148.543C140.347 148.543 154.837 173.385 157.428 182.136C157.428 182.136 141.636 194.779 142.275 194.779Z" fill="black"/>
<path opacity="0.2" d="M61.8887 178.472L56.0958 159.112C56.0958 159.112 45.7093 123.685 38.5869 114.948L40.4588 139.862C40.4588 139.862 34.3474 169.626 28.6898 178.472C23.0322 187.304 21.8109 189.515 28.6898 189.515C35.5822 189.515 52.2966 202.852 52.2966 202.852L51.0077 191.726L61.8887 178.472ZM47.3303 185.96L42.6628 181.85L54.3715 153.06L59.3637 175.162C59.3637 175.162 51.3459 174.565 48.6044 176.491C45.8654 178.431 47.3303 185.96 47.3303 185.96Z" fill="black"/>
<path d="M74.9473 70.5891C74.9473 70.5891 76.0173 81.0286 74.9473 85.7981" stroke="#263238" stroke-width="1.35671" stroke-miterlimit="10" stroke-linecap="round" stroke-linejoin="round"/>
<path d="M106.46 84.3997C106.46 84.3997 106.4 79.314 107.623 74.4264" stroke="#263238" stroke-width="1.35671" stroke-miterlimit="10" stroke-linecap="round" stroke-linejoin="round"/>
<path d="M109.258 25.4491C109.258 25.4491 115.574 33.3845 115.25 39.3766C114.927 45.3687 114.441 52.4948 114.602 59.4585C114.764 66.4222 103.427 80.9978 97.5973 82.2929C91.7676 83.588 86.7471 83.9127 83.0217 80.1874C79.2975 76.462 75.5721 71.2803 70.714 64.6401C65.8559 57.9998 66.9899 43.4242 66.9899 43.4242" stroke="#263238" stroke-width="1.35671" stroke-miterlimit="10" stroke-linecap="round" stroke-linejoin="round"/>
<path d="M94.0548 48.9796C93.6686 51.1553 93.5038 53.3716 93.5616 55.5805C93.6108 57.4303 93.8851 59.4301 95.1814 60.7511C95.88 61.4632 96.8934 62.0326 97.0263 63.0202C97.1443 63.8972 96.474 64.6929 95.7287 65.1701C94.9834 65.6473 94.1188 65.9425 93.4521 66.523" stroke="#263238" stroke-width="1.35671" stroke-miterlimit="10" stroke-linecap="round" stroke-linejoin="round"/>
<path d="M84.0244 67.293C84.0244 67.293 84.755 71.9998 91.0669 72.985" stroke="#263238" stroke-width="1.35671" stroke-miterlimit="10" stroke-linecap="round" stroke-linejoin="round"/>
<path d="M84.6818 52.5685C84.6818 53.9288 84.0939 55.032 83.3682 55.032C82.6426 55.032 82.0547 53.9288 82.0547 52.5685C82.0547 51.2082 82.6426 50.105 83.3682 50.105C84.0939 50.1062 84.6818 51.2082 84.6818 52.5685Z" fill="#263238"/>
<path d="M103.512 53.16C103.512 54.5203 102.924 55.6235 102.198 55.6235C101.473 55.6235 100.885 54.5203 100.885 53.16C100.885 51.7998 101.473 50.6965 102.198 50.6965C102.923 50.6978 103.512 51.7998 103.512 53.16Z" fill="#263238"/>
<path d="M99.7129 47.1975C99.7129 47.1975 105.835 41.075 111.016 47.9034" stroke="#263238" stroke-width="2.71342" stroke-miterlimit="10" stroke-linecap="round" stroke-linejoin="round"/>
<path d="M86.7617 47.3155C86.7617 47.3155 82.8764 42.9592 76.7539 47.3155" stroke="#263238" stroke-width="2.71342" stroke-miterlimit="10" stroke-linecap="round" stroke-linejoin="round"/>
<path d="M75.4213 76.3254C75.4213 76.3254 79.1713 86.6615 87.5457 89.5936C95.9214 92.5245 107.041 77.3118 107.041 77.3118L106.459 75.3329C106.459 75.3329 99.1733 84.7995 91.0669 83.1858C82.9606 81.571 74.9453 70.5891 74.9453 70.5891L75.4213 76.3254Z" fill="#263238"/>
<path d="M67.9083 57.7513C67.9083 57.7513 62.9161 59.5137 61.5891 55.6235C60.262 51.7333 55.7114 41.4944 59.6926 38.0814C63.675 34.6684 66.8752 42.5878 66.8752 42.5878" stroke="#263238" stroke-width="1.35671" stroke-miterlimit="10" stroke-linecap="round" stroke-linejoin="round"/>
<path d="M114.593 59.8716C114.593 59.8716 119.233 60.8051 120.56 56.9149C121.887 53.0247 126.438 42.7858 122.457 39.3715C118.474 35.9585 115.274 43.8779 115.274 43.8779" stroke="#263238" stroke-width="1.35671" stroke-miterlimit="10" stroke-linecap="round" stroke-linejoin="round"/>
<path d="M66.8738 52.5684C68.2562 52.5057 70.5266 51.1577 71.2547 49.9795C71.9828 48.8024 72.2915 47.4176 72.5277 46.0536C72.9803 43.4413 73.2127 40.7908 73.2214 38.1404C73.225 37.1048 73.1968 36.0471 73.4993 35.057C73.8142 34.0251 74.4685 33.1322 75.1683 32.3119C76.9111 30.2702 79.0081 28.5447 80.6648 26.4329C82.3214 24.3212 83.539 21.6473 83.0914 19.0006C83.0914 19.0006 94.4126 29.349 110.732 26.1488C119.518 24.4257 127.951 16.7154 126.924 7.02498C126.559 3.57632 124.024 1.09682 120.734 0.277699C116.391 -0.80216 112.489 1.51252 108.554 2.99702C101.38 5.70282 94.361 1.05623 87.1132 0.277699C80.9144 -0.388911 73.3075 0.379793 70.0789 6.54286C70.0789 6.54286 58.9458 7.85146 54.068 16.9946C49.1914 26.1389 58.4612 38.7984 58.4612 38.7984C58.4612 38.7984 62.1928 34.2822 66.987 43.4253L66.8738 52.5684Z" fill="#263238"/>
<path d="M109.958 23.111C109.958 23.111 107.079 38.1146 114.591 45.3784C114.591 45.3784 116.236 40.8684 117.902 39.7676C117.902 39.7676 122.084 31.8408 116.586 23.1097C111.091 14.3798 109.958 23.111 109.958 23.111Z" fill="#263238"/>
<path opacity="0.2" d="M123.722 6.03748C122.61 10.1724 119.113 13.3714 115.148 14.9863C104.718 19.2344 94.5887 14.5226 84.1468 13.6002C75.6125 12.8462 66.2049 20.5344 65.6084 29.2963" stroke="white" stroke-width="1.35671" stroke-miterlimit="10" stroke-linecap="round" stroke-linejoin="round"/>
<path opacity="0.2" d="M59.1318 26.9852C59.2893 20.0878 63.846 13.4869 70.2403 10.8955" stroke="white" stroke-width="1.35671" stroke-miterlimit="10" stroke-linecap="round" stroke-linejoin="round"/>
<path d="M72.542 84.3997C72.542 84.3997 79.4135 91.971 88.7829 95.5107C88.7829 95.5107 101.268 91.8899 107.623 83.1846" stroke="#263238" stroke-width="1.35671" stroke-miterlimit="10" stroke-linecap="round" stroke-linejoin="round"/>
<path d="M85.3096 62.6051C90.8561 60.0612 93.2903 53.5027 90.7464 47.9562C88.2026 42.4097 81.6441 39.9755 76.0976 42.5193C70.551 45.0632 68.1169 51.6217 70.6607 57.1682C73.2045 62.7148 79.7631 65.1489 85.3096 62.6051Z" stroke="#263238" stroke-width="1.35671" stroke-miterlimit="10" stroke-linecap="round" stroke-linejoin="round"/>
<path d="M106.69 63.5282C112.746 62.7844 117.053 57.2721 116.309 51.216C115.565 45.16 110.053 40.8536 103.997 41.5974C97.9406 42.3412 93.6342 47.8536 94.378 53.9096C95.1218 59.9656 100.634 64.272 106.69 63.5282Z" stroke="#263238" stroke-width="1.35671" stroke-miterlimit="10" stroke-linecap="round" stroke-linejoin="round"/>
<path d="M74.947 80.2783C74.947 80.2783 71.5881 80.9585 69.6326 84.3985C67.677 87.8398 68.8565 98.6765 68.8565 98.6765C68.8565 98.6765 78.9504 108.667 87.5462 112.881L90.0822 98.6212L94.0179 112.881C94.0179 112.881 107.329 103.467 111.015 95.5095C111.015 95.5095 112.217 86.2311 111.015 83.1834C109.814 80.1357 107.043 80.2771 107.043 80.2771" stroke="#263238" stroke-width="1.35671" stroke-miterlimit="10" stroke-linecap="round" stroke-linejoin="round"/>
<path d="M59.1318 175.64C59.1318 175.64 55.1912 149.204 49.9395 138.417" stroke="#263238" stroke-width="1.35671" stroke-miterlimit="10" stroke-linecap="round" stroke-linejoin="round"/>
<path d="M38.5859 114.948C38.5859 114.948 43.5732 121.94 46.7513 128.614" stroke="#263238" stroke-width="1.35671" stroke-miterlimit="10" stroke-linecap="round" stroke-linejoin="round"/>
<path d="M142.276 134.686C143.665 129.418 145.141 124.797 146.615 121.781" stroke="#263238" stroke-width="1.35671" stroke-miterlimit="10" stroke-linecap="round" stroke-linejoin="round"/>
<path d="M134.119 175.64C134.119 175.64 136.966 157.516 140.354 142.579" stroke="#263238" stroke-width="1.35671" stroke-miterlimit="10" stroke-linecap="round" stroke-linejoin="round"/>
<path d="M138.946 150.206C141.657 146.586 145.588 143.899 149.944 142.685" stroke="#263238" stroke-width="1.35671" stroke-miterlimit="10" stroke-linecap="round" stroke-linejoin="round"/>
<path d="M111.549 93.1062C111.549 93.1062 134.473 102.263 149.268 107.463C149.268 107.463 167.47 124.581 186.986 183.872C186.986 183.872 169.097 213.956 135.083 223.601" stroke="#263238" stroke-width="1.35671" stroke-miterlimit="10" stroke-linecap="round" stroke-linejoin="round"/>
<path d="M140.992 195.856L157.427 182.134C157.427 182.134 166.122 175.526 175.164 180.047" stroke="#263238" stroke-width="1.35671" stroke-miterlimit="10" stroke-linecap="round" stroke-linejoin="round"/>
<path d="M140.354 148.547C140.354 148.547 153.949 168.571 157.426 182.134" stroke="#263238" stroke-width="1.35671" stroke-miterlimit="10" stroke-linecap="round" stroke-linejoin="round"/>
<path d="M47.4793 186.721L42.6691 182.134C42.6691 182.134 35.5295 180.886 27.4453 186.306" stroke="#263238" stroke-width="1.35671" stroke-miterlimit="10" stroke-linecap="round" stroke-linejoin="round"/>
<path d="M42.6689 182.134C42.6689 182.134 48.6426 162.512 54.5351 152.382" stroke="#263238" stroke-width="1.35671" stroke-miterlimit="10" stroke-linecap="round" stroke-linejoin="round"/>
<path d="M68.505 95.5107C68.505 95.5107 35.53 107.884 32.2965 111.487C29.0631 115.091 16.7751 184.294 16.4516 192.213C16.1626 199.293 41.848 215.199 54.5357 221.905" stroke="#263238" stroke-width="1.35671" stroke-miterlimit="10" stroke-linecap="round" stroke-linejoin="round"/>
<path d="M187.885 84.3996H150.31C145.874 84.3996 142.276 80.8033 142.276 76.3658V54.3222C142.276 49.8859 145.873 46.2885 150.31 46.2885H187.885C192.321 46.2885 195.919 49.8847 195.919 54.3222V76.3658C195.918 80.8021 192.321 84.3996 187.885 84.3996Z" fill="white" stroke="#263238" stroke-width="1.35671" stroke-miterlimit="10" stroke-linecap="round" stroke-linejoin="round"/>
<path d="M159.583 57.7513L149.268 64.2268L158.84 72.7156" stroke="#263238" stroke-width="1.35671" stroke-miterlimit="10" stroke-linecap="round" stroke-linejoin="round"/>
<path d="M178.379 73.3331L187.648 65.4334L176.948 58.418" stroke="#263238" stroke-width="1.35671" stroke-miterlimit="10" stroke-linecap="round" stroke-linejoin="round"/>
<path d="M164.598 78.1936L172.212 54.3174" stroke="#263238" stroke-width="1.35671" stroke-miterlimit="10" stroke-linecap="round" stroke-linejoin="round"/>
<path d="M93.1628 118.89C93.1628 120.088 92.1924 121.058 90.9945 121.058C89.7966 121.058 88.8262 120.088 88.8262 118.89C88.8262 117.692 89.7966 116.722 90.9945 116.722C92.1924 116.722 93.1628 117.692 93.1628 118.89Z" fill="#263238"/>
<path d="M131.32 234.772H56.2734C55.3018 234.772 54.5146 233.983 54.5146 233.013C54.5146 232.041 55.303 231.254 56.2734 231.254H131.32C132.292 231.254 133.079 232.043 133.079 233.013C133.079 233.983 132.292 234.772 131.32 234.772Z" fill="#263238"/>
<path d="M133.947 228.94L144.004 181.712C144.669 178.586 142.286 175.64 139.088 175.64H51.4065C48.2408 175.64 45.8621 178.533 46.4758 181.64L55.4923 227.295C55.9486 229.607 57.9509 231.292 60.3074 231.345L128.915 232.917C131.331 232.973 133.444 231.302 133.947 228.94Z" fill="white" stroke="#263238" stroke-width="1.35671" stroke-miterlimit="10" stroke-linecap="round" stroke-linejoin="round"/>
<path d="M101.949 202.856C101.949 206.721 98.8147 209.856 94.9479 209.856C91.0811 209.856 87.9473 206.723 87.9473 202.856C87.9473 198.99 91.0811 195.855 94.9479 195.855C98.8147 195.855 101.949 198.99 101.949 202.856Z" fill="#263238"/>
<path d="M115.706 180.121H126.123" stroke="#263238" stroke-width="1.35671" stroke-miterlimit="10" stroke-linecap="round" stroke-linejoin="round"/>
<path d="M65.958 180.121H105.502" stroke="#263238" stroke-width="1.35671" stroke-miterlimit="10" stroke-linecap="round" stroke-linejoin="round"/>
<path d="M134.119 279.042L126.123 300.022C126.123 300.022 105.741 294.885 79.6243 289.532C52.3154 283.936 23.7927 276.691 8.99688 250.735C7.19261 247.57 5.99343 243.831 6.83715 240.288C8.97227 231.322 20.6355 228.889 28.3236 227.991C33.1485 227.428 38.0202 227.241 42.8746 227.173C45.3492 227.139 53.5158 225.841 55.491 227.295C55.491 227.295 60.6161 231.066 64.981 232.918C69.3472 234.772 133.077 231.253 133.077 231.253C133.077 231.253 134.973 227.252 135.081 223.602C145.098 218.51 168.297 214.197 178.099 216.103C193.514 219.1 202.504 228.091 200.792 237.511C199.08 246.929 165.065 272.192 134.119 279.042Z" fill="#263238"/>
<path d="M134.119 279.042C134.119 279.042 114.733 273.905 98.891 263.2C83.0485 252.496 70.672 240.079 48.6025 242.648" stroke="white" stroke-width="1.35671" stroke-miterlimit="10" stroke-linecap="round" stroke-linejoin="round"/>
<path d="M95.2461 260.675C105.253 257.796 112.596 251.324 120.626 245.108C129.131 238.523 138.126 232.146 147.799 227.253" stroke="white" stroke-width="1.35671" stroke-miterlimit="10" stroke-linecap="round" stroke-linejoin="round"/>
<path d="M91.7285 54.3174H94.6643" stroke="#263238" stroke-width="1.35671" stroke-miterlimit="10" stroke-linecap="round" stroke-linejoin="round"/>
</svg>
