<svg width="11" height="11" viewBox="0 0 11 11" fill="none" xmlns="http://www.w3.org/2000/svg">
<path d="M9.45955 8.75024C8.88843 7.76286 8.0083 7.05486 6.98118 6.71924C7.48924 6.41679 7.88397 5.95592 8.10476 5.40741C8.32554 4.85891 8.36017 4.25309 8.20332 3.683C8.04648 3.11291 7.70683 2.61006 7.23654 2.25169C6.76625 1.89331 6.19133 1.69922 5.60005 1.69922C5.00878 1.69922 4.43385 1.89331 3.96356 2.25169C3.49327 2.61006 3.15363 3.11291 2.99678 3.683C2.83993 4.25309 2.87456 4.85891 3.09535 5.40741C3.31613 5.95592 3.71087 6.41679 4.21893 6.71924C3.1918 7.05449 2.31168 7.76249 1.74055 8.75024C1.71961 8.78439 1.70572 8.82239 1.6997 8.862C1.69368 8.9016 1.69565 8.94201 1.7055 8.98085C1.71535 9.01968 1.73288 9.05614 1.75705 9.08809C1.78122 9.12004 1.81155 9.14682 1.84624 9.16686C1.88093 9.1869 1.91928 9.19978 1.95903 9.20476C1.99878 9.20973 2.03913 9.2067 2.07769 9.19583C2.11624 9.18496 2.15224 9.16647 2.18354 9.14147C2.21484 9.11647 2.24081 9.08545 2.25993 9.05024C2.96643 7.82924 4.21518 7.10024 5.60005 7.10024C6.98493 7.10024 8.23368 7.82924 8.94018 9.05024C8.9593 9.08545 8.98527 9.11647 9.01657 9.14147C9.04787 9.16647 9.08386 9.18496 9.12242 9.19583C9.16098 9.2067 9.20132 9.20973 9.24107 9.20476C9.28083 9.19978 9.31918 9.1869 9.35387 9.16686C9.38856 9.14682 9.41888 9.12004 9.44306 9.08809C9.46723 9.05614 9.48476 9.01968 9.49461 8.98085C9.50446 8.94201 9.50643 8.9016 9.50041 8.862C9.49439 8.82239 9.4805 8.78439 9.45955 8.75024ZM3.50005 4.40024C3.50005 3.9849 3.62322 3.57888 3.85397 3.23354C4.08472 2.8882 4.41269 2.61904 4.79642 2.46009C5.18014 2.30115 5.60238 2.25956 6.00974 2.34059C6.4171 2.42162 6.79129 2.62162 7.08498 2.91531C7.37867 3.209 7.57867 3.58319 7.6597 3.99055C7.74073 4.39791 7.69914 4.82015 7.5402 5.20387C7.38126 5.5876 7.11209 5.91557 6.76675 6.14633C6.42141 6.37708 6.01539 6.50024 5.60005 6.50024C5.04328 6.49964 4.50948 6.2782 4.11579 5.88451C3.72209 5.49081 3.50065 4.95701 3.50005 4.40024Z" fill="#1C1C1C"/>
</svg>
