<svg width="13" height="13" viewBox="0 0 13 13" fill="none" xmlns="http://www.w3.org/2000/svg">
<path d="M8.27441 7.3501C8.27441 7.72094 8.16445 8.08345 7.95842 8.39179C7.75239 8.70013 7.45956 8.94046 7.11695 9.08237C6.77434 9.22429 6.39733 9.26142 6.03362 9.18907C5.66991 9.11672 5.33581 8.93815 5.07359 8.67592C4.81137 8.4137 4.63279 8.07961 4.56044 7.71589C4.48809 7.35218 4.52523 6.97518 4.66714 6.63257C4.80905 6.28995 5.04938 5.99712 5.35772 5.79109C5.66606 5.58506 6.02857 5.4751 6.39941 5.4751C6.8967 5.4751 7.37361 5.67264 7.72524 6.02427C8.07687 6.3759 8.27441 6.85282 8.27441 7.3501ZM3.39941 3.2251C3.10274 3.2251 2.81273 3.31307 2.56606 3.47789C2.31939 3.64272 2.12713 3.87698 2.0136 4.15107C1.90006 4.42516 1.87036 4.72676 1.92824 5.01773C1.98611 5.3087 2.12898 5.57598 2.33875 5.78576C2.54853 5.99554 2.81581 6.1384 3.10678 6.19628C3.39775 6.25415 3.69935 6.22445 3.97344 6.11092C4.24753 5.99739 4.4818 5.80513 4.64662 5.55845C4.81144 5.31178 4.89941 5.02177 4.89941 4.7251C4.89941 4.32727 4.74138 3.94574 4.46008 3.66444C4.17877 3.38313 3.79724 3.2251 3.39941 3.2251ZM9.39941 3.2251C9.10274 3.2251 8.81273 3.31307 8.56606 3.47789C8.31939 3.64272 8.12713 3.87698 8.0136 4.15107C7.90006 4.42516 7.87036 4.72676 7.92824 5.01773C7.98611 5.3087 8.12898 5.57598 8.33875 5.78576C8.54853 5.99554 8.81581 6.1384 9.10678 6.19628C9.39775 6.25415 9.69935 6.22445 9.97344 6.11092C10.2475 5.99739 10.4818 5.80513 10.6466 5.55845C10.8114 5.31178 10.8994 5.02177 10.8994 4.7251C10.8994 4.32727 10.7414 3.94574 10.4601 3.66444C10.1788 3.38313 9.79724 3.2251 9.39941 3.2251Z" fill="#1C1C1C" fill-opacity="0.1"/>
<path d="M11.8746 7.65018C11.8352 7.67973 11.7903 7.70123 11.7426 7.71345C11.6949 7.72567 11.6453 7.72838 11.5965 7.72141C11.5478 7.71445 11.5009 7.69795 11.4585 7.67286C11.4161 7.64777 11.3791 7.61458 11.3496 7.57518C11.1235 7.27137 10.8293 7.02486 10.4906 6.85552C10.1519 6.68617 9.77822 6.59871 9.39956 6.60018C9.3001 6.60018 9.20472 6.56067 9.13439 6.49035C9.06406 6.42002 9.02456 6.32464 9.02456 6.22518C9.02456 6.12573 9.06406 6.03034 9.13439 5.96002C9.20472 5.88969 9.3001 5.85018 9.39956 5.85018C9.60996 5.85016 9.81615 5.79114 9.99469 5.67981C10.1732 5.56848 10.317 5.40932 10.4096 5.22039C10.5022 5.03146 10.54 4.82035 10.5187 4.61102C10.4973 4.4017 10.4177 4.20256 10.2888 4.03622C10.16 3.86989 9.98704 3.74302 9.7897 3.67003C9.59235 3.59705 9.37849 3.58087 9.17242 3.62333C8.96634 3.66579 8.7763 3.7652 8.62388 3.91026C8.47146 4.05531 8.36278 4.2402 8.31018 4.44393C8.29787 4.49164 8.27628 4.53645 8.24665 4.57582C8.21702 4.61518 8.17993 4.64832 8.13749 4.67335C8.09505 4.69838 8.04809 4.7148 7.99931 4.72169C7.95052 4.72857 7.90086 4.72577 7.85315 4.71346C7.80544 4.70115 7.76063 4.67956 7.72126 4.64993C7.6819 4.6203 7.64876 4.58321 7.62373 4.54077C7.5987 4.49833 7.58228 4.45138 7.57539 4.40259C7.56851 4.3538 7.57131 4.30414 7.58362 4.25643C7.65663 3.97392 7.79457 3.71235 7.98646 3.49253C8.17835 3.27272 8.41889 3.10072 8.68895 2.99022C8.95901 2.87973 9.25114 2.83379 9.54208 2.85605C9.83302 2.87832 10.1147 2.96819 10.3648 3.1185C10.6149 3.26881 10.8265 3.47541 10.9827 3.72188C11.1389 3.96834 11.2354 4.24786 11.2646 4.53819C11.2937 4.82852 11.2547 5.12165 11.1507 5.39425C11.0466 5.66686 10.8804 5.91141 10.6652 6.10846C11.1751 6.32924 11.6184 6.67959 11.951 7.12471C11.9805 7.16421 12.002 7.20915 12.0141 7.25695C12.0263 7.30476 12.0289 7.35449 12.0218 7.4033C12.0147 7.45211 11.998 7.49904 11.9728 7.54141C11.9475 7.58377 11.9141 7.62073 11.8746 7.65018ZM9.34893 10.5377C9.37511 10.5804 9.39248 10.6279 9.4 10.6774C9.40753 10.7269 9.40506 10.7774 9.39275 10.8259C9.38043 10.8745 9.35852 10.9201 9.32831 10.96C9.2981 10.9999 9.26019 11.0334 9.21683 11.0585C9.17346 11.0835 9.12552 11.0996 9.07583 11.1058C9.02614 11.112 8.97571 11.1083 8.92751 11.0947C8.87932 11.0811 8.83433 11.058 8.7952 11.0267C8.75608 10.9955 8.72361 10.9567 8.69971 10.9127C8.46345 10.5128 8.12703 10.1814 7.72363 9.95118C7.32023 9.72097 6.86379 9.59989 6.39932 9.59989C5.93485 9.59989 5.47841 9.72097 5.07501 9.95118C4.67161 10.1814 4.33519 10.5128 4.09893 10.9127C4.07549 10.9575 4.04322 10.9971 4.00407 11.0291C3.96493 11.0611 3.91971 11.0849 3.87113 11.099C3.82256 11.1131 3.77164 11.1172 3.72143 11.1111C3.67122 11.105 3.62277 11.0888 3.57898 11.0635C3.5352 11.0382 3.49698 11.0043 3.46664 10.9638C3.43629 10.9234 3.41445 10.8772 3.40242 10.8281C3.39038 10.779 3.38841 10.7279 3.39662 10.678C3.40483 10.6281 3.42305 10.5804 3.45018 10.5377C3.81374 9.91302 4.36808 9.42144 5.03174 9.13518C4.6583 8.84926 4.38385 8.45351 4.24696 8.00354C4.11007 7.55357 4.11763 7.07202 4.26858 6.62657C4.41952 6.18113 4.70626 5.79418 5.08849 5.52012C5.47073 5.24607 5.92923 5.09868 6.39956 5.09868C6.86988 5.09868 7.32839 5.24607 7.71062 5.52012C8.09285 5.79418 8.37959 6.18113 8.53053 6.62657C8.68148 7.07202 8.68904 7.55357 8.55215 8.00354C8.41526 8.45351 8.14081 8.84926 7.76737 9.13518C8.43103 9.42144 8.98537 9.91302 9.34893 10.5377ZM6.39956 8.85018C6.69623 8.85018 6.98624 8.76221 7.23291 8.59739C7.47958 8.43256 7.67184 8.1983 7.78538 7.92421C7.89891 7.65012 7.92861 7.34852 7.87073 7.05755C7.81286 6.76657 7.66999 6.4993 7.46022 6.28952C7.25044 6.07974 6.98316 5.93688 6.69219 5.879C6.40122 5.82113 6.09962 5.85083 5.82553 5.96436C5.55144 6.07789 5.31717 6.27015 5.15235 6.51683C4.98753 6.7635 4.89956 7.05351 4.89956 7.35018C4.89956 7.74801 5.05759 8.12954 5.3389 8.41084C5.6202 8.69215 6.00173 8.85018 6.39956 8.85018ZM3.77456 6.22518C3.77456 6.12573 3.73505 6.03034 3.66472 5.96002C3.59439 5.88969 3.49901 5.85018 3.39956 5.85018C3.18915 5.85016 2.98296 5.79114 2.80442 5.67981C2.62587 5.56848 2.48213 5.40932 2.38951 5.22039C2.29689 5.03146 2.25911 4.82035 2.28046 4.61102C2.30181 4.4017 2.38144 4.20256 2.51029 4.03622C2.63915 3.86989 2.81207 3.74302 3.00942 3.67003C3.20676 3.59705 3.42062 3.58087 3.6267 3.62333C3.83278 3.66579 4.02282 3.7652 4.17523 3.91026C4.32765 4.05531 4.43633 4.2402 4.48893 4.44393C4.5138 4.54028 4.57591 4.6228 4.66162 4.67335C4.74733 4.7239 4.84961 4.73833 4.94596 4.71346C5.04231 4.6886 5.12484 4.62648 5.17538 4.54077C5.22593 4.45506 5.24036 4.35278 5.21549 4.25643C5.14248 3.97392 5.00454 3.71235 4.81266 3.49253C4.62077 3.27272 4.38022 3.10072 4.11016 2.99022C3.8401 2.87973 3.54798 2.83379 3.25704 2.85605C2.9661 2.87832 2.68437 2.96819 2.43427 3.1185C2.18417 3.26881 1.97261 3.47541 1.81641 3.72188C1.66021 3.96834 1.56369 4.24786 1.53453 4.53819C1.50536 4.82852 1.54436 5.12165 1.64842 5.39425C1.75248 5.66686 1.91873 5.91141 2.13393 6.10846C1.62453 6.32945 1.18177 6.67979 0.849556 7.12471C0.78982 7.20428 0.764138 7.30431 0.778159 7.40281C0.792181 7.50132 0.844757 7.59021 0.924322 7.64995C1.00389 7.70968 1.10392 7.73537 1.20242 7.72134C1.30092 7.70732 1.38982 7.65475 1.44956 7.57518C1.67558 7.27137 1.96978 7.02486 2.30847 6.85552C2.64717 6.68617 3.02089 6.59871 3.39956 6.60018C3.49901 6.60018 3.59439 6.56067 3.66472 6.49035C3.73505 6.42002 3.77456 6.32464 3.77456 6.22518Z" fill="#1C1C1C"/>
</svg>
